<svg width="327" height="166" viewBox="0 0 327 166" fill="none" xmlns="http://www.w3.org/2000/svg">
<g filter="url(#filter0_dd_862_9960)">
<rect x="12.5" y="2.5" width="302" height="141" rx="5.5" fill="white"/>
<path d="M43.9999 36.6667C45.4727 36.6667 46.6666 35.4728 46.6666 34C46.6666 32.5273 45.4727 31.3333 43.9999 31.3333C42.5272 31.3333 41.3333 32.5273 41.3333 34C41.3333 35.4728 42.5272 36.6667 43.9999 36.6667Z" stroke="#2D3748" stroke-width="1.5" stroke-linecap="round" stroke-linejoin="round"/>
<path d="M46.6666 31.3333V34.6667C46.6666 35.1971 46.8773 35.7058 47.2524 36.0809C47.6275 36.4559 48.1362 36.6667 48.6666 36.6667C49.197 36.6667 49.7057 36.4559 50.0808 36.0809C50.4559 35.7058 50.6666 35.1971 50.6666 34.6667V34C50.6665 32.4953 50.1574 31.035 49.2221 29.8563C48.2868 28.6777 46.9803 27.8501 45.515 27.5082C44.0497 27.1662 42.5119 27.33 41.1515 27.9729C39.7911 28.6158 38.6882 29.7 38.0221 31.0491C37.356 32.3983 37.1659 33.9332 37.4827 35.4041C37.7995 36.875 38.6046 38.1955 39.767 39.1508C40.9294 40.1062 42.3809 40.6402 43.8853 40.6661C45.3897 40.692 46.8587 40.2082 48.0533 39.2933" stroke="#2D3748" stroke-width="1.5" stroke-linecap="round" stroke-linejoin="round"/>
<path d="M60.6037 29.2727H58.7585V38H60.6037V29.2727ZM70.0215 29.2727H68.1849V34.7614H68.1082L64.3411 29.2727H62.7218V38H64.567V32.5071H64.6309L68.4278 38H70.0215V29.2727ZM72.146 38H75.8747C77.8349 38 78.879 36.9773 78.879 35.5881C78.879 34.2969 77.9543 33.517 76.9614 33.4702V33.3849C77.869 33.1804 78.5381 32.5369 78.5381 31.5099C78.5381 30.2017 77.5665 29.2727 75.6403 29.2727H72.146V38ZM73.9912 36.4915V34.1733H75.5381C76.4244 34.1733 76.9741 34.6847 76.9741 35.4048C76.9741 36.0611 76.5267 36.4915 75.4955 36.4915H73.9912ZM73.9912 32.9247V30.7642H75.3932C76.2114 30.7642 76.6759 31.1861 76.6759 31.8168C76.6759 32.5071 76.1134 32.9247 75.3591 32.9247H73.9912ZM88.6995 33.6364C88.6995 30.7812 86.9268 29.1534 84.6129 29.1534C82.2861 29.1534 80.5262 30.7812 80.5262 33.6364C80.5262 36.4787 82.2861 38.1193 84.6129 38.1193C86.9268 38.1193 88.6995 36.4915 88.6995 33.6364ZM86.8288 33.6364C86.8288 35.4858 85.9509 36.4872 84.6129 36.4872C83.2705 36.4872 82.3969 35.4858 82.3969 33.6364C82.3969 31.7869 83.2705 30.7855 84.6129 30.7855C85.9509 30.7855 86.8288 31.7869 86.8288 33.6364ZM96.057 29.2727V34.7827C96.057 35.7798 95.3581 36.5 94.2842 36.5C93.2146 36.5 92.5115 35.7798 92.5115 34.7827V29.2727H90.6663V34.9403C90.6663 36.8494 92.1067 38.1236 94.2842 38.1236C96.4533 38.1236 97.9021 36.8494 97.9021 34.9403V29.2727H96.057ZM107.32 29.2727H105.483V34.7614H105.407L101.64 29.2727H100.02V38H101.865V32.5071H101.929L105.726 38H107.32V29.2727ZM112.538 38C115.197 38 116.808 36.3551 116.808 33.6278C116.808 30.9091 115.197 29.2727 112.564 29.2727H109.444V38H112.538ZM111.29 36.419V30.8537H112.466C114.102 30.8537 114.967 31.6889 114.967 33.6278C114.967 35.5753 114.102 36.419 112.462 36.419H111.29ZM122.152 38H128.05V36.4787H123.997V34.3949H127.73V32.8736H123.997V30.794H128.033V29.2727H122.152V38ZM130.1 29.2727V38H131.89V32.2983H131.962L134.221 37.9574H135.439L137.698 32.3196H137.77V38H139.56V29.2727H137.285L134.881 35.1364H134.779L132.375 29.2727H130.1ZM143.185 38L143.832 36.0099H146.982L147.629 38H149.607L146.598 29.2727H144.22L141.207 38H143.185ZM144.301 34.5696L145.375 31.267H145.443L146.517 34.5696H144.301ZM153.102 29.2727H151.257V38H153.102V29.2727ZM155.22 38H160.807V36.4787H157.065V29.2727H155.22V38Z" fill="#2D3748"/>
<path d="M36.358 62.8182L40.0369 68.804V73H41.2699V68.804L44.9489 62.8182H43.5369L40.7131 67.571H40.5938L37.7699 62.8182H36.358ZM48.4066 73.1591C50.4748 73.1591 51.8668 71.5881 51.8668 69.2216C51.8668 66.8352 50.4748 65.2642 48.4066 65.2642C46.3384 65.2642 44.9464 66.8352 44.9464 69.2216C44.9464 71.5881 46.3384 73.1591 48.4066 73.1591ZM48.4066 72.1051C46.8356 72.1051 46.1197 70.7528 46.1197 69.2216C46.1197 67.6903 46.8356 66.3182 48.4066 66.3182C49.9776 66.3182 50.6935 67.6903 50.6935 69.2216C50.6935 70.7528 49.9776 72.1051 48.4066 72.1051ZM58.4703 69.8778C58.4703 71.3097 57.3766 71.9659 56.5016 71.9659C55.5272 71.9659 54.8311 71.25 54.8311 70.1364V65.3636H53.6578V70.2159C53.6578 72.1648 54.6919 73.0994 56.1238 73.0994C57.2772 73.0994 58.0328 72.483 58.3908 71.7074H58.4703V73H59.6436V65.3636H58.4703V69.8778ZM61.7926 73H62.9659V68.1676C62.9659 67.1335 63.7812 66.3778 64.8949 66.3778C65.2081 66.3778 65.5312 66.4375 65.6108 66.4574V65.2642C65.4766 65.2543 65.1683 65.2443 64.9943 65.2443C64.0795 65.2443 63.2841 65.7614 63.0057 66.517H62.9261V65.3636H61.7926V73ZM70.9391 75.8636H72.1124V71.8267H72.2118C72.4703 72.2443 72.9675 73.1591 74.4391 73.1591C76.3482 73.1591 77.6806 71.6278 77.6806 69.2017C77.6806 66.7955 76.3482 65.2642 74.4192 65.2642C72.9277 65.2642 72.4703 66.179 72.2118 66.5767H72.0726V65.3636H70.9391V75.8636ZM72.0925 69.1818C72.0925 67.4716 72.8482 66.3182 74.28 66.3182C75.7715 66.3182 76.5073 67.571 76.5073 69.1818C76.5073 70.8125 75.7516 72.1051 74.28 72.1051C72.8681 72.1051 72.0925 70.9119 72.0925 69.1818ZM82.6721 73.1591C84.2232 73.1591 85.3567 72.3835 85.7147 71.2301L84.5811 70.9119C84.2828 71.7074 83.5918 72.1051 82.6721 72.1051C81.2949 72.1051 80.3453 71.2152 80.2907 69.5795H85.834V69.0824C85.834 66.2386 84.1436 65.2642 82.5527 65.2642C80.4846 65.2642 79.1124 66.8949 79.1124 69.2415C79.1124 71.5881 80.4647 73.1591 82.6721 73.1591ZM80.2907 68.5653C80.3702 67.3771 81.2104 66.3182 82.5527 66.3182C83.8255 66.3182 84.6408 67.2727 84.6408 68.5653H80.2907ZM87.6188 73H88.7921V68.1676C88.7921 67.1335 89.6074 66.3778 90.7211 66.3778C91.0343 66.3778 91.3574 66.4375 91.437 66.4574V65.2642C91.3027 65.2543 90.9945 65.2443 90.8205 65.2443C89.9057 65.2443 89.1103 65.7614 88.8319 66.517H88.7523V65.3636H87.6188V73ZM98.2369 67.0739C97.869 65.9901 97.0437 65.2642 95.5323 65.2642C93.9215 65.2642 92.7283 66.179 92.7283 67.4716C92.7283 68.5256 93.3548 69.2315 94.7567 69.5597L96.0295 69.858C96.8001 70.0369 97.163 70.4048 97.163 70.9318C97.163 71.5881 96.467 72.125 95.3732 72.125C94.4137 72.125 93.8121 71.7124 93.6033 70.892L92.4897 71.1705C92.7631 72.468 93.832 73.1591 95.3931 73.1591C97.168 73.1591 98.3761 72.1896 98.3761 70.8722C98.3761 69.8082 97.7099 69.1371 96.3477 68.804L95.2141 68.5256C94.3093 68.3018 93.9016 67.9986 93.9016 67.4119C93.9016 66.7557 94.5977 66.2784 95.5323 66.2784C96.5565 66.2784 96.979 66.8452 97.1829 67.3722L98.2369 67.0739ZM103.244 73.1591C105.313 73.1591 106.705 71.5881 106.705 69.2216C106.705 66.8352 105.313 65.2642 103.244 65.2642C101.176 65.2642 99.7843 66.8352 99.7843 69.2216C99.7843 71.5881 101.176 73.1591 103.244 73.1591ZM103.244 72.1051C101.673 72.1051 100.958 70.7528 100.958 69.2216C100.958 67.6903 101.673 66.3182 103.244 66.3182C104.816 66.3182 105.531 67.6903 105.531 69.2216C105.531 70.7528 104.816 72.1051 103.244 72.1051ZM109.669 68.4062C109.669 67.0739 110.494 66.3182 111.618 66.3182C112.707 66.3182 113.368 67.0291 113.368 68.2273V73H114.541V68.1477C114.541 66.1989 113.502 65.2642 111.956 65.2642C110.803 65.2642 110.087 65.7812 109.729 66.5568H109.629V65.3636H108.496V73H109.669V68.4062ZM118.932 73.179C120.265 73.179 120.961 72.4631 121.199 71.9659H121.259V73H122.432V67.9688C122.432 65.5426 120.583 65.2642 119.608 65.2642C118.455 65.2642 117.143 65.6619 116.546 67.054L117.66 67.4517C117.918 66.8949 118.53 66.2983 119.648 66.2983C120.727 66.2983 121.259 66.87 121.259 67.8494V67.8892C121.259 68.456 120.682 68.4062 119.29 68.5852C117.873 68.7692 116.327 69.0824 116.327 70.8324C116.327 72.3239 117.481 73.179 118.932 73.179ZM119.111 72.125C118.177 72.125 117.501 71.7074 117.501 70.892C117.501 69.9972 118.316 69.7188 119.231 69.5994C119.728 69.5398 121.06 69.4006 121.259 69.1619V70.2358C121.259 71.1903 120.503 72.125 119.111 72.125ZM125.747 62.8182H124.574V73H125.747V62.8182ZM135.234 65.3636H133.524V64.5881C133.524 63.8324 133.842 63.4347 134.618 63.4347C134.956 63.4347 135.155 63.5142 135.274 63.554L135.612 62.5398C135.433 62.4602 135.075 62.3409 134.498 62.3409C133.405 62.3409 132.351 62.9972 132.351 64.3097V65.3636H131.118V66.358H132.351V73H133.524V66.358H135.234V65.3636ZM139.666 73.1591C141.735 73.1591 143.127 71.5881 143.127 69.2216C143.127 66.8352 141.735 65.2642 139.666 65.2642C137.598 65.2642 136.206 66.8352 136.206 69.2216C136.206 71.5881 137.598 73.1591 139.666 73.1591ZM139.666 72.1051C138.095 72.1051 137.379 70.7528 137.379 69.2216C137.379 67.6903 138.095 66.3182 139.666 66.3182C141.237 66.3182 141.953 67.6903 141.953 69.2216C141.953 70.7528 141.237 72.1051 139.666 72.1051ZM146.091 62.8182H144.918V73H146.091V62.8182ZM148.24 73H149.413V65.3636H148.24V73ZM148.836 64.0909C149.294 64.0909 149.672 63.733 149.672 63.2955C149.672 62.858 149.294 62.5 148.836 62.5C148.379 62.5 148.001 62.858 148.001 63.2955C148.001 63.733 148.379 64.0909 148.836 64.0909ZM154.664 73.1591C156.733 73.1591 158.125 71.5881 158.125 69.2216C158.125 66.8352 156.733 65.2642 154.664 65.2642C152.596 65.2642 151.204 66.8352 151.204 69.2216C151.204 71.5881 152.596 73.1591 154.664 73.1591ZM154.664 72.1051C153.093 72.1051 152.377 70.7528 152.377 69.2216C152.377 67.6903 153.093 66.3182 154.664 66.3182C156.235 66.3182 156.951 67.6903 156.951 69.2216C156.951 70.7528 156.235 72.1051 154.664 72.1051ZM167.055 73.1591C168.606 73.1591 169.74 72.3835 170.097 71.2301L168.964 70.9119C168.666 71.7074 167.975 72.1051 167.055 72.1051C165.678 72.1051 164.728 71.2152 164.673 69.5795H170.217V69.0824C170.217 66.2386 168.526 65.2642 166.936 65.2642C164.867 65.2642 163.495 66.8949 163.495 69.2415C163.495 71.5881 164.847 73.1591 167.055 73.1591ZM164.673 68.5653C164.753 67.3771 165.593 66.3182 166.936 66.3182C168.208 66.3182 169.024 67.2727 169.024 68.5653H164.673ZM172.002 73H173.175V68.2273C173.175 67.1087 173.99 66.3182 174.905 66.3182C175.795 66.3182 176.416 66.8999 176.416 67.7699V73H177.61V68.0284C177.61 67.044 178.226 66.3182 179.3 66.3182C180.135 66.3182 180.851 66.7607 180.851 67.8892V73H182.024V67.8892C182.024 66.0945 181.06 65.2642 179.698 65.2642C178.604 65.2642 177.803 65.7663 177.411 66.5568H177.331C176.953 65.7415 176.287 65.2642 175.283 65.2642C174.289 65.2642 173.553 65.7415 173.235 66.5568H173.135V65.3636H172.002V73ZM186.417 73.179C187.749 73.179 188.445 72.4631 188.684 71.9659H188.743V73H189.917V67.9688C189.917 65.5426 188.067 65.2642 187.093 65.2642C185.939 65.2642 184.627 65.6619 184.03 67.054L185.144 67.4517C185.403 66.8949 186.014 66.2983 187.133 66.2983C188.211 66.2983 188.743 66.87 188.743 67.8494V67.8892C188.743 68.456 188.167 68.4062 186.775 68.5852C185.358 68.7692 183.812 69.0824 183.812 70.8324C183.812 72.3239 184.965 73.179 186.417 73.179ZM186.596 72.125C185.661 72.125 184.985 71.7074 184.985 70.892C184.985 69.9972 185.8 69.7188 186.715 69.5994C187.212 69.5398 188.545 69.4006 188.743 69.1619V70.2358C188.743 71.1903 187.988 72.125 186.596 72.125ZM192.058 73H193.232V65.3636H192.058V73ZM192.655 64.0909C193.112 64.0909 193.49 63.733 193.49 63.2955C193.49 62.858 193.112 62.5 192.655 62.5C192.197 62.5 191.82 62.858 191.82 63.2955C191.82 63.733 192.197 64.0909 192.655 64.0909ZM196.554 62.8182H195.381V73H196.554V62.8182ZM204.887 73.179C206.22 73.179 206.916 72.4631 207.154 71.9659H207.214V73H208.387V67.9688C208.387 65.5426 206.538 65.2642 205.564 65.2642C204.41 65.2642 203.098 65.6619 202.501 67.054L203.615 67.4517C203.873 66.8949 204.485 66.2983 205.603 66.2983C206.682 66.2983 207.214 66.87 207.214 67.8494V67.8892C207.214 68.456 206.637 68.4062 205.245 68.5852C203.828 68.7692 202.282 69.0824 202.282 70.8324C202.282 72.3239 203.436 73.179 204.887 73.179ZM205.066 72.125C204.132 72.125 203.456 71.7074 203.456 70.892C203.456 69.9972 204.271 69.7188 205.186 69.5994C205.683 69.5398 207.015 69.4006 207.214 69.1619V70.2358C207.214 71.1903 206.458 72.125 205.066 72.125ZM213.412 73.1591C214.884 73.1591 215.381 72.2443 215.64 71.8267H215.779V73H216.912V62.8182H215.739V66.5767H215.64C215.381 66.179 214.924 65.2642 213.432 65.2642C211.503 65.2642 210.171 66.7955 210.171 69.2017C210.171 71.6278 211.503 73.1591 213.412 73.1591ZM213.572 72.1051C212.1 72.1051 211.344 70.8125 211.344 69.1818C211.344 67.571 212.08 66.3182 213.572 66.3182C215.003 66.3182 215.759 67.4716 215.759 69.1818C215.759 70.9119 214.983 72.1051 213.572 72.1051ZM222.108 73.1591C223.579 73.1591 224.077 72.2443 224.335 71.8267H224.474V73H225.608V62.8182H224.434V66.5767H224.335C224.077 66.179 223.619 65.2642 222.128 65.2642C220.199 65.2642 218.866 66.7955 218.866 69.2017C218.866 71.6278 220.199 73.1591 222.108 73.1591ZM222.267 72.1051C220.795 72.1051 220.04 70.8125 220.04 69.1818C220.04 67.571 220.775 66.3182 222.267 66.3182C223.699 66.3182 224.454 67.4716 224.454 69.1818C224.454 70.9119 223.679 72.1051 222.267 72.1051ZM227.92 73H229.093V68.1676C229.093 67.1335 229.908 66.3778 231.022 66.3778C231.335 66.3778 231.658 66.4375 231.738 66.4574V65.2642C231.604 65.2543 231.295 65.2443 231.121 65.2443C230.206 65.2443 229.411 65.7614 229.133 66.517H229.053V65.3636H227.92V73ZM236.098 73.1591C237.649 73.1591 238.782 72.3835 239.14 71.2301L238.007 70.9119C237.709 71.7074 237.018 72.1051 236.098 72.1051C234.721 72.1051 233.771 71.2152 233.716 69.5795H239.26V69.0824C239.26 66.2386 237.569 65.2642 235.979 65.2642C233.91 65.2642 232.538 66.8949 232.538 69.2415C232.538 71.5881 233.89 73.1591 236.098 73.1591ZM233.716 68.5653C233.796 67.3771 234.636 66.3182 235.979 66.3182C237.251 66.3182 238.067 67.2727 238.067 68.5653H233.716ZM246.454 67.0739C246.086 65.9901 245.26 65.2642 243.749 65.2642C242.138 65.2642 240.945 66.179 240.945 67.4716C240.945 68.5256 241.572 69.2315 242.974 69.5597L244.246 69.858C245.017 70.0369 245.38 70.4048 245.38 70.9318C245.38 71.5881 244.684 72.125 243.59 72.125C242.631 72.125 242.029 71.7124 241.82 70.892L240.706 71.1705C240.98 72.468 242.049 73.1591 243.61 73.1591C245.385 73.1591 246.593 72.1896 246.593 70.8722C246.593 69.8082 245.927 69.1371 244.564 68.804L243.431 68.5256C242.526 68.3018 242.118 67.9986 242.118 67.4119C242.118 66.7557 242.814 66.2784 243.749 66.2784C244.773 66.2784 245.196 66.8452 245.4 67.3722L246.454 67.0739ZM253.768 67.0739C253.4 65.9901 252.575 65.2642 251.064 65.2642C249.453 65.2642 248.26 66.179 248.26 67.4716C248.26 68.5256 248.886 69.2315 250.288 69.5597L251.561 69.858C252.331 70.0369 252.694 70.4048 252.694 70.9318C252.694 71.5881 251.998 72.125 250.904 72.125C249.945 72.125 249.343 71.7124 249.135 70.892L248.021 71.1705C248.294 72.468 249.363 73.1591 250.924 73.1591C252.699 73.1591 253.907 72.1896 253.907 70.8722C253.907 69.8082 253.241 69.1371 251.879 68.804L250.745 68.5256C249.841 68.3018 249.433 67.9986 249.433 67.4119C249.433 66.7557 250.129 66.2784 251.064 66.2784C252.088 66.2784 252.51 66.8452 252.714 67.3722L253.768 67.0739Z" fill="#2D3748"/>
<path d="M36 94C36 90.6863 38.6863 88 42 88H191C194.314 88 197 90.6863 197 94V114C197 117.314 194.314 120 191 120H42C38.6863 120 36 117.314 36 114V94Z" fill="#EDF2F7"/>
<path d="M52.1562 112.023C51.5895 112.023 51.1023 111.95 50.6946 111.804C50.2869 111.661 49.9472 111.473 49.6754 111.237C49.407 111.005 49.1932 110.757 49.0341 110.491L49.9688 109.835C50.0748 109.974 50.209 110.134 50.3714 110.312C50.5339 110.495 50.7559 110.652 51.0376 110.785C51.3227 110.921 51.6955 110.989 52.1562 110.989C52.7727 110.989 53.2815 110.839 53.6825 110.541C54.0836 110.243 54.2841 109.776 54.2841 109.139V107.588H54.1847C54.0985 107.727 53.9759 107.9 53.8168 108.105C53.661 108.307 53.4356 108.488 53.1406 108.647C52.849 108.803 52.4545 108.881 51.9574 108.881C51.3409 108.881 50.7874 108.735 50.2969 108.443C49.8097 108.152 49.4235 107.727 49.1385 107.17C48.8568 106.614 48.7159 105.937 48.7159 105.142C48.7159 104.36 48.8535 103.679 49.1286 103.099C49.4036 102.515 49.7865 102.065 50.277 101.746C50.7675 101.425 51.3343 101.264 51.9773 101.264C52.4744 101.264 52.8688 101.347 53.1605 101.513C53.4555 101.675 53.6809 101.861 53.8366 102.07C53.9957 102.275 54.1184 102.444 54.2045 102.577H54.3239V101.364H55.4574V109.219C55.4574 109.875 55.3082 110.409 55.0099 110.82C54.715 111.234 54.3172 111.537 53.8168 111.729C53.3196 111.925 52.7661 112.023 52.1562 112.023ZM52.1165 107.827C52.5871 107.827 52.9848 107.719 53.3097 107.504C53.6345 107.288 53.8814 106.978 54.0504 106.574C54.2195 106.17 54.304 105.686 54.304 105.122C54.304 104.572 54.2211 104.086 54.0554 103.665C53.8897 103.245 53.6444 102.915 53.3196 102.676C52.9948 102.437 52.5938 102.318 52.1165 102.318C51.6193 102.318 51.205 102.444 50.8736 102.696C50.5455 102.948 50.2985 103.286 50.1328 103.71C49.9704 104.134 49.8892 104.605 49.8892 105.122C49.8892 105.652 49.9721 106.121 50.1378 106.529C50.3068 106.933 50.5554 107.252 50.8835 107.484C51.215 107.712 51.6259 107.827 52.1165 107.827ZM57.6051 111.864V101.364H58.7386V102.577H58.8778C58.964 102.444 59.0833 102.275 59.2358 102.07C59.3916 101.861 59.6136 101.675 59.902 101.513C60.1937 101.347 60.5881 101.264 61.0852 101.264C61.7282 101.264 62.295 101.425 62.7855 101.746C63.276 102.068 63.6589 102.524 63.9339 103.114C64.209 103.704 64.3466 104.4 64.3466 105.202C64.3466 106.01 64.209 106.711 63.9339 107.305C63.6589 107.895 63.2777 108.352 62.7905 108.677C62.3033 108.998 61.7415 109.159 61.1051 109.159C60.6146 109.159 60.2218 109.078 59.9268 108.915C59.6319 108.75 59.4048 108.562 59.2457 108.354C59.0866 108.142 58.964 107.966 58.8778 107.827H58.7784V111.864H57.6051ZM58.7585 105.182C58.7585 105.759 58.843 106.267 59.0121 106.708C59.1811 107.146 59.428 107.489 59.7528 107.737C60.0777 107.982 60.4754 108.105 60.946 108.105C61.4366 108.105 61.8459 107.976 62.174 107.717C62.5054 107.455 62.754 107.104 62.9197 106.663C63.0888 106.219 63.1733 105.725 63.1733 105.182C63.1733 104.645 63.0904 104.161 62.9247 103.73C62.7623 103.296 62.5154 102.953 62.1839 102.701C61.8558 102.446 61.4432 102.318 60.946 102.318C60.4688 102.318 60.0677 102.439 59.7429 102.681C59.4181 102.92 59.1728 103.254 59.0071 103.685C58.8414 104.113 58.7585 104.612 58.7585 105.182ZM69.2386 109.159C68.5492 109.159 67.9444 108.995 67.424 108.667C66.907 108.339 66.5026 107.88 66.2109 107.29C65.9226 106.7 65.7784 106.01 65.7784 105.222C65.7784 104.426 65.9226 103.732 66.2109 103.138C66.5026 102.545 66.907 102.085 67.424 101.756C67.9444 101.428 68.5492 101.264 69.2386 101.264C69.928 101.264 70.5313 101.428 71.0483 101.756C71.5687 102.085 71.973 102.545 72.2614 103.138C72.553 103.732 72.6989 104.426 72.6989 105.222C72.6989 106.01 72.553 106.7 72.2614 107.29C71.973 107.88 71.5687 108.339 71.0483 108.667C70.5313 108.995 69.928 109.159 69.2386 109.159ZM69.2386 108.105C69.7623 108.105 70.1932 107.971 70.5312 107.702C70.8693 107.434 71.1196 107.081 71.282 106.643C71.4444 106.206 71.5256 105.732 71.5256 105.222C71.5256 104.711 71.4444 104.236 71.282 103.795C71.1196 103.354 70.8693 102.998 70.5312 102.726C70.1932 102.454 69.7623 102.318 69.2386 102.318C68.715 102.318 68.2841 102.454 67.946 102.726C67.608 102.998 67.3577 103.354 67.1953 103.795C67.0329 104.236 66.9517 104.711 66.9517 105.222C66.9517 105.732 67.0329 106.206 67.1953 106.643C67.3577 107.081 67.608 107.434 67.946 107.702C68.2841 107.971 68.715 108.105 69.2386 108.105ZM77.6916 109.159C76.9558 109.159 76.3211 108.997 75.7875 108.672C75.2572 108.344 74.8478 107.886 74.5595 107.3C74.2744 106.71 74.1319 106.024 74.1319 105.241C74.1319 104.459 74.2744 103.77 74.5595 103.173C74.8478 102.573 75.2489 102.106 75.7626 101.771C76.2797 101.433 76.8829 101.264 77.5723 101.264C77.97 101.264 78.3627 101.33 78.7505 101.463C79.1383 101.596 79.4913 101.811 79.8095 102.109C80.1277 102.404 80.3812 102.795 80.5701 103.283C80.7591 103.77 80.8535 104.37 80.8535 105.082V105.58H74.9672V104.565H79.6603C79.6603 104.134 79.5742 103.75 79.4018 103.412C79.2328 103.074 78.9908 102.807 78.676 102.612C78.3644 102.416 77.9965 102.318 77.5723 102.318C77.1049 102.318 76.7006 102.434 76.3592 102.666C76.0211 102.895 75.7609 103.193 75.5787 103.561C75.3964 103.929 75.3052 104.323 75.3052 104.744V105.42C75.3052 105.997 75.4047 106.486 75.6035 106.887C75.8057 107.285 76.0858 107.588 76.4437 107.797C76.8017 108.002 77.2176 108.105 77.6916 108.105C77.9998 108.105 78.2782 108.062 78.5268 107.976C78.7787 107.886 78.9958 107.754 79.1781 107.578C79.3604 107.399 79.5012 107.177 79.6007 106.912L80.7342 107.23C80.6149 107.615 80.4144 107.953 80.1326 108.244C79.8509 108.533 79.5029 108.758 79.0886 108.92C78.6743 109.08 78.2086 109.159 77.6916 109.159ZM83.3082 101.364L85.1378 104.486L86.9673 101.364H88.3196L85.8537 105.182L88.3196 109H86.9673L85.1378 106.037L83.3082 109H81.956L84.3821 105.182L81.956 101.364H83.3082ZM94.8063 105.878V101.364H95.9796V109H94.8063V107.707H94.7267C94.5478 108.095 94.2694 108.425 93.8915 108.697C93.5137 108.965 93.0364 109.099 92.4597 109.099C91.9824 109.099 91.5582 108.995 91.187 108.786C90.8158 108.574 90.5241 108.256 90.312 107.832C90.0998 107.404 89.9938 106.866 89.9938 106.216V101.364H91.1671V106.136C91.1671 106.693 91.3229 107.137 91.6344 107.469C91.9493 107.8 92.3503 107.966 92.8375 107.966C93.1292 107.966 93.4258 107.891 93.7275 107.742C94.0324 107.593 94.2876 107.364 94.4931 107.056C94.7019 106.748 94.8063 106.355 94.8063 105.878ZM103.995 111.685C102.981 111.685 102.084 111.545 101.305 111.267C100.527 110.992 99.8719 110.586 99.3416 110.049C98.8113 109.512 98.4103 108.854 98.1385 108.075C97.8667 107.296 97.7308 106.405 97.7308 105.401C97.7308 104.429 97.8684 103.561 98.1435 102.795C98.4219 102.03 98.8246 101.38 99.3516 100.847C99.8819 100.31 100.525 99.9003 101.281 99.6186C102.04 99.3369 102.898 99.196 103.856 99.196C104.787 99.196 105.603 99.3485 106.302 99.6534C107.004 99.955 107.591 100.364 108.062 100.881C108.536 101.395 108.89 101.973 109.126 102.616C109.364 103.259 109.484 103.922 109.484 104.605C109.484 105.086 109.46 105.573 109.414 106.067C109.368 106.561 109.27 107.015 109.121 107.429C108.972 107.84 108.741 108.171 108.43 108.423C108.121 108.675 107.704 108.801 107.177 108.801C106.945 108.801 106.69 108.765 106.411 108.692C106.133 108.619 105.886 108.498 105.67 108.329C105.455 108.16 105.327 107.933 105.288 107.648H105.228C105.148 107.84 105.026 108.022 104.86 108.195C104.698 108.367 104.484 108.504 104.219 108.607C103.957 108.71 103.637 108.755 103.259 108.741C102.828 108.725 102.449 108.629 102.121 108.453C101.793 108.274 101.518 108.032 101.295 107.727C101.077 107.419 100.911 107.063 100.798 106.658C100.689 106.251 100.634 105.812 100.634 105.341C100.634 104.893 100.701 104.484 100.833 104.113C100.966 103.742 101.15 103.417 101.385 103.138C101.624 102.86 101.902 102.638 102.22 102.472C102.542 102.303 102.888 102.199 103.259 102.159C103.591 102.126 103.892 102.141 104.164 102.204C104.436 102.263 104.66 102.355 104.835 102.477C105.011 102.597 105.122 102.729 105.168 102.875H105.228V102.318H106.282V106.812C106.282 107.091 106.36 107.336 106.516 107.548C106.671 107.76 106.898 107.866 107.197 107.866C107.535 107.866 107.793 107.75 107.972 107.518C108.155 107.286 108.279 106.929 108.345 106.445C108.415 105.961 108.45 105.341 108.45 104.585C108.45 104.141 108.388 103.704 108.266 103.273C108.146 102.839 107.964 102.433 107.719 102.055C107.477 101.677 107.17 101.344 106.799 101.055C106.428 100.767 105.992 100.542 105.491 100.379C104.994 100.214 104.429 100.131 103.796 100.131C103.017 100.131 102.32 100.252 101.703 100.494C101.09 100.732 100.568 101.082 100.137 101.543C99.7095 102 99.383 102.557 99.1577 103.213C98.9356 103.866 98.8246 104.608 98.8246 105.44C98.8246 106.286 98.9356 107.036 99.1577 107.692C99.383 108.349 99.7145 108.902 100.152 109.353C100.593 109.804 101.138 110.145 101.788 110.377C102.437 110.612 103.186 110.73 104.035 110.73C104.399 110.73 104.759 110.695 105.114 110.626C105.468 110.556 105.781 110.48 106.053 110.397C106.325 110.314 106.521 110.253 106.64 110.213L106.918 111.128C106.713 111.214 106.444 111.3 106.113 111.386C105.785 111.473 105.433 111.544 105.059 111.6C104.688 111.656 104.333 111.685 103.995 111.685ZM103.418 107.727C103.862 107.727 104.222 107.638 104.497 107.459C104.772 107.28 104.973 107.01 105.099 106.648C105.225 106.287 105.288 105.831 105.288 105.281C105.288 104.724 105.218 104.29 105.079 103.979C104.94 103.667 104.734 103.448 104.462 103.322C104.191 103.196 103.856 103.134 103.458 103.134C103.08 103.134 102.757 103.233 102.489 103.432C102.223 103.627 102.02 103.889 101.877 104.217C101.738 104.542 101.668 104.897 101.668 105.281C101.668 105.705 101.725 106.105 101.837 106.479C101.95 106.851 102.134 107.152 102.389 107.384C102.644 107.613 102.987 107.727 103.418 107.727ZM111.24 109V101.364H112.413V109H111.24ZM111.836 100.091C111.608 100.091 111.411 100.013 111.245 99.8572C111.082 99.7015 111.001 99.5142 111.001 99.2955C111.001 99.0767 111.082 98.8894 111.245 98.7337C111.411 98.5779 111.608 98.5 111.836 98.5C112.065 98.5 112.261 98.5779 112.423 98.7337C112.589 98.8894 112.672 99.0767 112.672 99.2955C112.672 99.5142 112.589 99.7015 112.423 99.8572C112.261 100.013 112.065 100.091 111.836 100.091ZM115.735 104.406V109H114.562V101.364H115.696V102.557H115.795C115.974 102.169 116.246 101.857 116.61 101.622C116.975 101.384 117.446 101.264 118.022 101.264C118.539 101.264 118.992 101.37 119.38 101.582C119.767 101.791 120.069 102.109 120.284 102.537C120.5 102.961 120.608 103.498 120.608 104.148V109H119.434V104.227C119.434 103.627 119.279 103.16 118.967 102.825C118.655 102.487 118.228 102.318 117.684 102.318C117.31 102.318 116.975 102.399 116.68 102.562C116.388 102.724 116.158 102.961 115.989 103.273C115.82 103.584 115.735 103.962 115.735 104.406ZM123.607 109.08C123.361 109.08 123.151 108.992 122.975 108.816C122.8 108.64 122.712 108.43 122.712 108.185C122.712 107.939 122.8 107.729 122.975 107.553C123.151 107.378 123.361 107.29 123.607 107.29C123.852 107.29 124.062 107.378 124.238 107.553C124.414 107.729 124.502 107.939 124.502 108.185C124.502 108.347 124.46 108.496 124.377 108.632C124.298 108.768 124.19 108.877 124.054 108.96C123.922 109.04 123.772 109.08 123.607 109.08ZM126.607 111.864V101.364H127.741V102.577H127.88C127.966 102.444 128.085 102.275 128.238 102.07C128.394 101.861 128.616 101.675 128.904 101.513C129.196 101.347 129.59 101.264 130.087 101.264C130.73 101.264 131.297 101.425 131.787 101.746C132.278 102.068 132.661 102.524 132.936 103.114C133.211 103.704 133.349 104.4 133.349 105.202C133.349 106.01 133.211 106.711 132.936 107.305C132.661 107.895 132.28 108.352 131.792 108.677C131.305 108.998 130.743 109.159 130.107 109.159C129.617 109.159 129.224 109.078 128.929 108.915C128.634 108.75 128.407 108.562 128.248 108.354C128.089 108.142 127.966 107.966 127.88 107.827H127.78V111.864H126.607ZM127.76 105.182C127.76 105.759 127.845 106.267 128.014 106.708C128.183 107.146 128.43 107.489 128.755 107.737C129.08 107.982 129.477 108.105 129.948 108.105C130.439 108.105 130.848 107.976 131.176 107.717C131.507 107.455 131.756 107.104 131.922 106.663C132.091 106.219 132.175 105.725 132.175 105.182C132.175 104.645 132.092 104.161 131.927 103.73C131.764 103.296 131.517 102.953 131.186 102.701C130.858 102.446 130.445 102.318 129.948 102.318C129.471 102.318 129.07 102.439 128.745 102.681C128.42 102.92 128.175 103.254 128.009 103.685C127.843 104.113 127.76 104.612 127.76 105.182ZM136.232 106.216L136.212 104.764H136.451L139.792 101.364H141.243L137.684 104.963H137.584L136.232 106.216ZM135.138 109V98.8182H136.312V109H135.138ZM139.991 109L137.008 105.222L137.843 104.406L141.482 109H139.991ZM145.641 109.159C144.905 109.159 144.27 108.997 143.737 108.672C143.206 108.344 142.797 107.886 142.509 107.3C142.224 106.71 142.081 106.024 142.081 105.241C142.081 104.459 142.224 103.77 142.509 103.173C142.797 102.573 143.198 102.106 143.712 101.771C144.229 101.433 144.832 101.264 145.521 101.264C145.919 101.264 146.312 101.33 146.7 101.463C147.088 101.596 147.441 101.811 147.759 102.109C148.077 102.404 148.33 102.795 148.519 103.283C148.708 103.77 148.803 104.37 148.803 105.082V105.58H142.916V104.565H147.61C147.61 104.134 147.523 103.75 147.351 103.412C147.182 103.074 146.94 102.807 146.625 102.612C146.314 102.416 145.946 102.318 145.521 102.318C145.054 102.318 144.65 102.434 144.308 102.666C143.97 102.895 143.71 103.193 143.528 103.561C143.346 103.929 143.254 104.323 143.254 104.744V105.42C143.254 105.997 143.354 106.486 143.553 106.887C143.755 107.285 144.035 107.588 144.393 107.797C144.751 108.002 145.167 108.105 145.641 108.105C145.949 108.105 146.227 108.062 146.476 107.976C146.728 107.886 146.945 107.754 147.127 107.578C147.31 107.399 147.45 107.177 147.55 106.912L148.683 107.23C148.564 107.615 148.364 107.953 148.082 108.244C147.8 108.533 147.452 108.758 147.038 108.92C146.624 109.08 146.158 109.159 145.641 109.159ZM153.789 109.159C153.053 109.159 152.419 108.997 151.885 108.672C151.355 108.344 150.945 107.886 150.657 107.3C150.372 106.71 150.23 106.024 150.23 105.241C150.23 104.459 150.372 103.77 150.657 103.173C150.945 102.573 151.347 102.106 151.86 101.771C152.377 101.433 152.981 101.264 153.67 101.264C154.068 101.264 154.46 101.33 154.848 101.463C155.236 101.596 155.589 101.811 155.907 102.109C156.225 102.404 156.479 102.795 156.668 103.283C156.857 103.77 156.951 104.37 156.951 105.082V105.58H151.065V104.565H155.758C155.758 104.134 155.672 103.75 155.499 103.412C155.33 103.074 155.088 102.807 154.774 102.612C154.462 102.416 154.094 102.318 153.67 102.318C153.203 102.318 152.798 102.434 152.457 102.666C152.119 102.895 151.859 103.193 151.676 103.561C151.494 103.929 151.403 104.323 151.403 104.744V105.42C151.403 105.997 151.502 106.486 151.701 106.887C151.903 107.285 152.183 107.588 152.541 107.797C152.899 108.002 153.315 108.105 153.789 108.105C154.097 108.105 154.376 108.062 154.624 107.976C154.876 107.886 155.093 107.754 155.276 107.578C155.458 107.399 155.599 107.177 155.698 106.912L156.832 107.23C156.713 107.615 156.512 107.953 156.23 108.244C155.949 108.533 155.601 108.758 155.186 108.92C154.772 109.08 154.306 109.159 153.789 109.159ZM158.736 111.864V101.364H159.869V102.577H160.009C160.095 102.444 160.214 102.275 160.367 102.07C160.522 101.861 160.744 101.675 161.033 101.513C161.325 101.347 161.719 101.264 162.216 101.264C162.859 101.264 163.426 101.425 163.916 101.746C164.407 102.068 164.79 102.524 165.065 103.114C165.34 103.704 165.477 104.4 165.477 105.202C165.477 106.01 165.34 106.711 165.065 107.305C164.79 107.895 164.409 108.352 163.921 108.677C163.434 108.998 162.872 109.159 162.236 109.159C161.745 109.159 161.353 109.078 161.058 108.915C160.763 108.75 160.536 108.562 160.377 108.354C160.218 108.142 160.095 107.966 160.009 107.827H159.909V111.864H158.736ZM159.889 105.182C159.889 105.759 159.974 106.267 160.143 106.708C160.312 107.146 160.559 107.489 160.884 107.737C161.209 107.982 161.606 108.105 162.077 108.105C162.567 108.105 162.977 107.976 163.305 107.717C163.636 107.455 163.885 107.104 164.051 106.663C164.22 106.219 164.304 105.725 164.304 105.182C164.304 104.645 164.221 104.161 164.056 103.73C163.893 103.296 163.646 102.953 163.315 102.701C162.987 102.446 162.574 102.318 162.077 102.318C161.6 102.318 161.199 102.439 160.874 102.681C160.549 102.92 160.304 103.254 160.138 103.685C159.972 104.113 159.889 104.612 159.889 105.182ZM168.122 109.08C167.877 109.08 167.667 108.992 167.491 108.816C167.315 108.64 167.227 108.43 167.227 108.185C167.227 107.939 167.315 107.729 167.491 107.553C167.667 107.378 167.877 107.29 168.122 107.29C168.368 107.29 168.578 107.378 168.754 107.553C168.929 107.729 169.017 107.939 169.017 108.185C169.017 108.347 168.976 108.496 168.893 108.632C168.813 108.768 168.706 108.877 168.57 108.96C168.437 109.04 168.288 109.08 168.122 109.08ZM171.123 109V101.364H172.296V109H171.123ZM171.719 100.091C171.491 100.091 171.293 100.013 171.128 99.8572C170.965 99.7015 170.884 99.5142 170.884 99.2955C170.884 99.0767 170.965 98.8894 171.128 98.7337C171.293 98.5779 171.491 98.5 171.719 98.5C171.948 98.5 172.144 98.5779 172.306 98.7337C172.472 98.8894 172.555 99.0767 172.555 99.2955C172.555 99.5142 172.472 99.7015 172.306 99.8572C172.144 100.013 171.948 100.091 171.719 100.091ZM177.547 109.159C176.858 109.159 176.253 108.995 175.733 108.667C175.216 108.339 174.811 107.88 174.52 107.29C174.231 106.7 174.087 106.01 174.087 105.222C174.087 104.426 174.231 103.732 174.52 103.138C174.811 102.545 175.216 102.085 175.733 101.756C176.253 101.428 176.858 101.264 177.547 101.264C178.237 101.264 178.84 101.428 179.357 101.756C179.877 102.085 180.282 102.545 180.57 103.138C180.862 103.732 181.007 104.426 181.007 105.222C181.007 106.01 180.862 106.7 180.57 107.29C180.282 107.88 179.877 108.339 179.357 108.667C178.84 108.995 178.237 109.159 177.547 109.159ZM177.547 108.105C178.071 108.105 178.502 107.971 178.84 107.702C179.178 107.434 179.428 107.081 179.591 106.643C179.753 106.206 179.834 105.732 179.834 105.222C179.834 104.711 179.753 104.236 179.591 103.795C179.428 103.354 179.178 102.998 178.84 102.726C178.502 102.454 178.071 102.318 177.547 102.318C177.024 102.318 176.593 102.454 176.255 102.726C175.917 102.998 175.666 103.354 175.504 103.795C175.342 104.236 175.26 104.711 175.26 105.222C175.26 105.732 175.342 106.206 175.504 106.643C175.666 107.081 175.917 107.434 176.255 107.702C176.593 107.971 177.024 108.105 177.547 108.105Z" fill="#2D3748"/>
<path d="M232.333 102H226.333C225.597 102 225 102.597 225 103.333V109.333C225 110.07 225.597 110.667 226.333 110.667H232.333C233.07 110.667 233.667 110.07 233.667 109.333V103.333C233.667 102.597 233.07 102 232.333 102Z" stroke="black" stroke-linecap="round" stroke-linejoin="round"/>
<path d="M222.333 106H221.667C221.313 106 220.974 105.86 220.724 105.609C220.474 105.359 220.333 105.02 220.333 104.667V98.6667C220.333 98.3131 220.474 97.9739 220.724 97.7239C220.974 97.4738 221.313 97.3333 221.667 97.3333H227.667C228.02 97.3333 228.359 97.4738 228.609 97.7239C228.859 97.9739 229 98.3131 229 98.6667V99.3333" stroke="black" stroke-linecap="round" stroke-linejoin="round"/>
<path d="M252.719 102.254C252.406 99.9915 250.666 98.679 248.409 98.679C245.749 98.679 243.746 100.618 243.746 103.909C243.746 107.195 245.724 109.139 248.409 109.139C250.83 109.139 252.436 107.573 252.719 105.629L250.86 105.619C250.626 106.812 249.652 107.484 248.434 107.484C246.783 107.484 245.6 106.246 245.6 103.909C245.6 101.612 246.773 100.335 248.439 100.335C249.677 100.335 250.646 101.036 250.86 102.254H252.719ZM257.66 109.149C259.897 109.149 261.319 107.573 261.319 105.212C261.319 102.845 259.897 101.264 257.66 101.264C255.423 101.264 254.001 102.845 254.001 105.212C254.001 107.573 255.423 109.149 257.66 109.149ZM257.67 107.707C256.432 107.707 255.825 106.604 255.825 105.207C255.825 103.81 256.432 102.691 257.67 102.691C258.888 102.691 259.494 103.81 259.494 105.207C259.494 106.604 258.888 107.707 257.67 107.707ZM262.847 111.864H264.646V107.797H264.721C265.004 108.354 265.596 109.134 266.908 109.134C268.708 109.134 270.055 107.707 270.055 105.192C270.055 102.646 268.668 101.264 266.903 101.264C265.556 101.264 264.994 102.075 264.721 102.626H264.616V101.364H262.847V111.864ZM264.612 105.182C264.612 103.7 265.248 102.741 266.406 102.741C267.604 102.741 268.221 103.76 268.221 105.182C268.221 106.614 267.594 107.658 266.406 107.658C265.258 107.658 264.612 106.663 264.612 105.182ZM272.455 111.864C273.857 111.864 274.668 111.143 275.1 109.925L278.168 101.374L276.244 101.364L274.479 107.131H274.399L272.639 101.364H270.73L273.499 109.159L273.345 109.572C273.012 110.442 272.485 110.501 271.7 110.273L271.282 111.675C271.526 111.774 271.963 111.864 272.455 111.864Z" fill="#2D3748"/>
<rect x="207.5" y="88.5" width="83" height="31" rx="5.5" stroke="#E2E8F0"/>
<rect x="12.5" y="2.5" width="302" height="141" rx="5.5" stroke="#E2E8F0"/>
</g>
<defs>
<filter id="filter0_dd_862_9960" x="0" y="0" width="327" height="166" filterUnits="userSpaceOnUse" color-interpolation-filters="sRGB">
<feFlood flood-opacity="0" result="BackgroundImageFix"/>
<feColorMatrix in="SourceAlpha" type="matrix" values="0 0 0 0 0 0 0 0 0 0 0 0 0 0 0 0 0 0 127 0" result="hardAlpha"/>
<feMorphology radius="2" operator="erode" in="SourceAlpha" result="effect1_dropShadow_862_9960"/>
<feOffset dy="4"/>
<feGaussianBlur stdDeviation="3"/>
<feColorMatrix type="matrix" values="0 0 0 0 0 0 0 0 0 0 0 0 0 0 0 0 0 0 0.05 0"/>
<feBlend mode="normal" in2="BackgroundImageFix" result="effect1_dropShadow_862_9960"/>
<feColorMatrix in="SourceAlpha" type="matrix" values="0 0 0 0 0 0 0 0 0 0 0 0 0 0 0 0 0 0 127 0" result="hardAlpha"/>
<feMorphology radius="3" operator="erode" in="SourceAlpha" result="effect2_dropShadow_862_9960"/>
<feOffset dy="10"/>
<feGaussianBlur stdDeviation="7.5"/>
<feColorMatrix type="matrix" values="0 0 0 0 0 0 0 0 0 0 0 0 0 0 0 0 0 0 0.1 0"/>
<feBlend mode="normal" in2="effect1_dropShadow_862_9960" result="effect2_dropShadow_862_9960"/>
<feBlend mode="normal" in="SourceGraphic" in2="effect2_dropShadow_862_9960" result="shape"/>
</filter>
</defs>
</svg>
