<svg width="327" height="166" viewBox="0 0 327 166" fill="none" xmlns="http://www.w3.org/2000/svg">
<g filter="url(#filter0_dd_862_9960)">
<rect x="12.5" y="2.5" width="302" height="141" rx="5.5" fill="white"/>
<path d="M43.9999 36.6667C45.4727 36.6667 46.6666 35.4728 46.6666 34C46.6666 32.5273 45.4727 31.3333 43.9999 31.3333C42.5272 31.3333 41.3333 32.5273 41.3333 34C41.3333 35.4728 42.5272 36.6667 43.9999 36.6667Z" stroke="#2D3748" stroke-width="1.5" stroke-linecap="round" stroke-linejoin="round"/>
<path d="M46.6666 31.3333V34.6667C46.6666 35.1971 46.8773 35.7058 47.2524 36.0809C47.6275 36.4559 48.1362 36.6667 48.6666 36.6667C49.197 36.6667 49.7057 36.4559 50.0808 36.0809C50.4559 35.7058 50.6666 35.1971 50.6666 34.6667V34C50.6665 32.4953 50.1574 31.035 49.2221 29.8563C48.2868 28.6777 46.9803 27.8501 45.515 27.5082C44.0497 27.1662 42.5119 27.33 41.1515 27.9729C39.7911 28.6158 38.6882 29.7 38.0221 31.0491C37.356 32.3983 37.1659 33.9332 37.4827 35.4041C37.7995 36.875 38.6046 38.1955 39.767 39.1508C40.9294 40.1062 42.3809 40.6402 43.8853 40.6661C45.3897 40.692 46.8587 40.2082 48.0533 39.2933" stroke="#2D3748" stroke-width="1.5" stroke-linecap="round" stroke-linejoin="round"/>
<path d="M60.6037 29.2727H58.7585V38H60.6037V29.2727ZM70.0215 29.2727H68.1849V34.7614H68.1082L64.3411 29.2727H62.7218V38H64.567V32.5071H64.6309L68.4278 38H70.0215V29.2727ZM72.146 38H75.8747C77.8349 38 78.879 36.9773 78.879 35.5881C78.879 34.2969 77.9543 33.517 76.9614 33.4702V33.3849C77.869 33.1804 78.5381 32.5369 78.5381 31.5099C78.5381 30.2017 77.5665 29.2727 75.6403 29.2727H72.146V38ZM73.9912 36.4915V34.1733H75.5381C76.4244 34.1733 76.9741 34.6847 76.9741 35.4048C76.9741 36.0611 76.5267 36.4915 75.4955 36.4915H73.9912ZM73.9912 32.9247V30.7642H75.3932C76.2114 30.7642 76.6759 31.1861 76.6759 31.8168C76.6759 32.5071 76.1134 32.9247 75.3591 32.9247H73.9912ZM88.6995 33.6364C88.6995 30.7812 86.9268 29.1534 84.6129 29.1534C82.2861 29.1534 80.5262 30.7812 80.5262 33.6364C80.5262 36.4787 82.2861 38.1193 84.6129 38.1193C86.9268 38.1193 88.6995 36.4915 88.6995 33.6364ZM86.8288 33.6364C86.8288 35.4858 85.9509 36.4872 84.6129 36.4872C83.2705 36.4872 82.3969 35.4858 82.3969 33.6364C82.3969 31.7869 83.2705 30.7855 84.6129 30.7855C85.9509 30.7855 86.8288 31.7869 86.8288 33.6364ZM96.057 29.2727V34.7827C96.057 35.7798 95.3581 36.5 94.2842 36.5C93.2146 36.5 92.5115 35.7798 92.5115 34.7827V29.2727H90.6663V34.9403C90.6663 36.8494 92.1067 38.1236 94.2842 38.1236C96.4533 38.1236 97.9021 36.8494 97.9021 34.9403V29.2727H96.057ZM107.32 29.2727H105.483V34.7614H105.407L101.64 29.2727H100.02V38H101.865V32.5071H101.929L105.726 38H107.32V29.2727ZM112.538 38C115.197 38 116.808 36.3551 116.808 33.6278C116.808 30.9091 115.197 29.2727 112.564 29.2727H109.444V38H112.538ZM111.29 36.419V30.8537H112.466C114.102 30.8537 114.967 31.6889 114.967 33.6278C114.967 35.5753 114.102 36.419 112.462 36.419H111.29ZM122.152 38H128.05V36.4787H123.997V34.3949H127.73V32.8736H123.997V30.794H128.033V29.2727H122.152V38ZM130.1 29.2727V38H131.89V32.2983H131.962L134.221 37.9574H135.439L137.698 32.3196H137.77V38H139.56V29.2727H137.285L134.881 35.1364H134.779L132.375 29.2727H130.1ZM143.185 38L143.832 36.0099H146.982L147.629 38H149.607L146.598 29.2727H144.22L141.207 38H143.185ZM144.301 34.5696L145.375 31.267H145.443L146.517 34.5696H144.301ZM153.102 29.2727H151.257V38H153.102V29.2727ZM155.22 38H160.807V36.4787H157.065V29.2727H155.22V38Z" fill="#2D3748"/>
<path d="M36.358 62.8182L40.0369 68.804V73H41.2699V68.804L44.9489 62.8182H43.5369L40.7131 67.571H40.5938L37.7699 62.8182H36.358ZM48.4066 73.1591C50.4748 73.1591 51.8668 71.5881 51.8668 69.2216C51.8668 66.8352 50.4748 65.2642 48.4066 65.2642C46.3384 65.2642 44.9464 66.8352 44.9464 69.2216C44.9464 71.5881 46.3384 73.1591 48.4066 73.1591ZM48.4066 72.1051C46.8356 72.1051 46.1197 70.7528 46.1197 69.2216C46.1197 67.6903 46.8356 66.3182 48.4066 66.3182C49.9776 66.3182 50.6935 67.6903 50.6935 69.2216C50.6935 70.7528 49.9776 72.1051 48.4066 72.1051ZM58.4703 69.8778C58.4703 71.3097 57.3766 71.9659 56.5016 71.9659C55.5272 71.9659 54.8311 71.25 54.8311 70.1364V65.3636H53.6578V70.2159C53.6578 72.1648 54.6919 73.0994 56.1238 73.0994C57.2772 73.0994 58.0328 72.483 58.3908 71.7074H58.4703V73H59.6436V65.3636H58.4703V69.8778ZM61.7926 73H62.9659V68.1676C62.9659 67.1335 63.7812 66.3778 64.8949 66.3778C65.2081 66.3778 65.5312 66.4375 65.6108 66.4574V65.2642C65.4766 65.2543 65.1683 65.2443 64.9943 65.2443C64.0795 65.2443 63.2841 65.7614 63.0057 66.517H62.9261V65.3636H61.7926V73ZM70.9391 75.8636H72.1124V71.8267H72.2118C72.4703 72.2443 72.9675 73.1591 74.4391 73.1591C76.3482 73.1591 77.6806 71.6278 77.6806 69.2017C77.6806 66.7955 76.3482 65.2642 74.4192 65.2642C72.9277 65.2642 72.4703 66.179 72.2118 66.5767H72.0726V65.3636H70.9391V75.8636ZM72.0925 69.1818C72.0925 67.4716 72.8482 66.3182 74.28 66.3182C75.7715 66.3182 76.5073 67.571 76.5073 69.1818C76.5073 70.8125 75.7516 72.1051 74.28 72.1051C72.8681 72.1051 72.0925 70.9119 72.0925 69.1818ZM82.6721 73.1591C84.2232 73.1591 85.3567 72.3835 85.7147 71.2301L84.5811 70.9119C84.2828 71.7074 83.5918 72.1051 82.6721 72.1051C81.2949 72.1051 80.3453 71.2152 80.2907 69.5795H85.834V69.0824C85.834 66.2386 84.1436 65.2642 82.5527 65.2642C80.4846 65.2642 79.1124 66.8949 79.1124 69.2415C79.1124 71.5881 80.4647 73.1591 82.6721 73.1591ZM80.2907 68.5653C80.3702 67.3771 81.2104 66.3182 82.5527 66.3182C83.8255 66.3182 84.6408 67.2727 84.6408 68.5653H80.2907ZM87.6188 73H88.7921V68.1676C88.7921 67.1335 89.6074 66.3778 90.7211 66.3778C91.0343 66.3778 91.3574 66.4375 91.437 66.4574V65.2642C91.3027 65.2543 90.9945 65.2443 90.8205 65.2443C89.9057 65.2443 89.1103 65.7614 88.8319 66.517H88.7523V65.3636H87.6188V73ZM98.2369 67.0739C97.869 65.9901 97.0437 65.2642 95.5323 65.2642C93.9215 65.2642 92.7283 66.179 92.7283 67.4716C92.7283 68.5256 93.3548 69.2315 94.7567 69.5597L96.0295 69.858C96.8001 70.0369 97.163 70.4048 97.163 70.9318C97.163 71.5881 96.467 72.125 95.3732 72.125C94.4137 72.125 93.8121 71.7124 93.6033 70.892L92.4897 71.1705C92.7631 72.468 93.832 73.1591 95.3931 73.1591C97.168 73.1591 98.3761 72.1896 98.3761 70.8722C98.3761 69.8082 97.7099 69.1371 96.3477 68.804L95.2141 68.5256C94.3093 68.3018 93.9016 67.9986 93.9016 67.4119C93.9016 66.7557 94.5977 66.2784 95.5323 66.2784C96.5565 66.2784 96.979 66.8452 97.1829 67.3722L98.2369 67.0739ZM103.244 73.1591C105.313 73.1591 106.705 71.5881 106.705 69.2216C106.705 66.8352 105.313 65.2642 103.244 65.2642C101.176 65.2642 99.7843 66.8352 99.7843 69.2216C99.7843 71.5881 101.176 73.1591 103.244 73.1591ZM103.244 72.1051C101.673 72.1051 100.958 70.7528 100.958 69.2216C100.958 67.6903 101.673 66.3182 103.244 66.3182C104.816 66.3182 105.531 67.6903 105.531 69.2216C105.531 70.7528 104.816 72.1051 103.244 72.1051ZM109.669 68.4062C109.669 67.0739 110.494 66.3182 111.618 66.3182C112.707 66.3182 113.368 67.0291 113.368 68.2273V73H114.541V68.1477C114.541 66.1989 113.502 65.2642 111.956 65.2642C110.803 65.2642 110.087 65.7812 109.729 66.5568H109.629V65.3636H108.496V73H109.669V68.4062ZM118.932 73.179C120.265 73.179 120.961 72.4631 121.199 71.9659H121.259V73H122.432V67.9688C122.432 65.5426 120.583 65.2642 119.608 65.2642C118.455 65.2642 117.143 65.6619 116.546 67.054L117.66 67.4517C117.918 66.8949 118.53 66.2983 119.648 66.2983C120.727 66.2983 121.259 66.87 121.259 67.8494V67.8892C121.259 68.456 120.682 68.4062 119.29 68.5852C117.873 68.7692 116.327 69.0824 116.327 70.8324C116.327 72.3239 117.481 73.179 118.932 73.179ZM119.111 72.125C118.177 72.125 117.501 71.7074 117.501 70.892C117.501 69.9972 118.316 69.7188 119.231 69.5994C119.728 69.5398 121.06 69.4006 121.259 69.1619V70.2358C121.259 71.1903 120.503 72.125 119.111 72.125ZM125.747 62.8182H124.574V73H125.747V62.8182ZM135.234 65.3636H133.524V64.5881C133.524 63.8324 133.842 63.4347 134.618 63.4347C134.956 63.4347 135.155 63.5142 135.274 63.554L135.612 62.5398C135.433 62.4602 135.075 62.3409 134.498 62.3409C133.405 62.3409 132.351 62.9972 132.351 64.3097V65.3636H131.118V66.358H132.351V73H133.524V66.358H135.234V65.3636ZM139.666 73.1591C141.735 73.1591 143.127 71.5881 143.127 69.2216C143.127 66.8352 141.735 65.2642 139.666 65.2642C137.598 65.2642 136.206 66.8352 136.206 69.2216C136.206 71.5881 137.598 73.1591 139.666 73.1591ZM139.666 72.1051C138.095 72.1051 137.379 70.7528 137.379 69.2216C137.379 67.6903 138.095 66.3182 139.666 66.3182C141.237 66.3182 141.953 67.6903 141.953 69.2216C141.953 70.7528 141.237 72.1051 139.666 72.1051ZM146.091 62.8182H144.918V73H146.091V62.8182ZM148.24 73H149.413V65.3636H148.24V73ZM148.836 64.0909C149.294 64.0909 149.672 63.733 149.672 63.2955C149.672 62.858 149.294 62.5 148.836 62.5C148.379 62.5 148.001 62.858 148.001 63.2955C148.001 63.733 148.379 64.0909 148.836 64.0909ZM154.664 73.1591C156.733 73.1591 158.125 71.5881 158.125 69.2216C158.125 66.8352 156.733 65.2642 154.664 65.2642C152.596 65.2642 151.204 66.8352 151.204 69.2216C151.204 71.5881 152.596 73.1591 154.664 73.1591ZM154.664 72.1051C153.093 72.1051 152.377 70.7528 152.377 69.2216C152.377 67.6903 153.093 66.3182 154.664 66.3182C156.235 66.3182 156.951 67.6903 156.951 69.2216C156.951 70.7528 156.235 72.1051 154.664 72.1051ZM167.055 73.1591C168.606 73.1591 169.74 72.3835 170.097 71.2301L168.964 70.9119C168.666 71.7074 167.975 72.1051 167.055 72.1051C165.678 72.1051 164.728 71.2152 164.673 69.5795H170.217V69.0824C170.217 66.2386 168.526 65.2642 166.936 65.2642C164.867 65.2642 163.495 66.8949 163.495 69.2415C163.495 71.5881 164.847 73.1591 167.055 73.1591ZM164.673 68.5653C164.753 67.3771 165.593 66.3182 166.936 66.3182C168.208 66.3182 169.024 67.2727 169.024 68.5653H164.673ZM172.002 73H173.175V68.2273C173.175 67.1087 173.99 66.3182 174.905 66.3182C175.795 66.3182 176.416 66.8999 176.416 67.7699V73H177.61V68.0284C177.61 67.044 178.226 66.3182 179.3 66.3182C180.135 66.3182 180.851 66.7607 180.851 67.8892V73H182.024V67.8892C182.024 66.0945 181.06 65.2642 179.698 65.2642C178.604 65.2642 177.803 65.7663 177.411 66.5568H177.331C176.953 65.7415 176.287 65.2642 175.283 65.2642C174.289 65.2642 173.553 65.7415 173.235 66.5568H173.135V65.3636H172.002V73ZM186.417 73.179C187.749 73.179 188.445 72.4631 188.684 71.9659H188.743V73H189.917V67.9688C189.917 65.5426 188.067 65.2642 187.093 65.2642C185.939 65.2642 184.627 65.6619 184.03 67.054L185.144 67.4517C185.403 66.8949 186.014 66.2983 187.133 66.2983C188.211 66.2983 188.743 66.87 188.743 67.8494V67.8892C188.743 68.456 188.167 68.4062 186.775 68.5852C185.358 68.7692 183.812 69.0824 183.812 70.8324C183.812 72.3239 184.965 73.179 186.417 73.179ZM186.596 72.125C185.661 72.125 184.985 71.7074 184.985 70.892C184.985 69.9972 185.8 69.7188 186.715 69.5994C187.212 69.5398 188.545 69.4006 188.743 69.1619V70.2358C188.743 71.1903 187.988 72.125 186.596 72.125ZM192.058 73H193.232V65.3636H192.058V73ZM192.655 64.0909C193.112 64.0909 193.49 63.733 193.49 63.2955C193.49 62.858 193.112 62.5 192.655 62.5C192.197 62.5 191.82 62.858 191.82 63.2955C191.82 63.733 192.197 64.0909 192.655 64.0909ZM196.554 62.8182H195.381V73H196.554V62.8182ZM204.887 73.179C206.22 73.179 206.916 72.4631 207.154 71.9659H207.214V73H208.387V67.9688C208.387 65.5426 206.538 65.2642 205.564 65.2642C204.41 65.2642 203.098 65.6619 202.501 67.054L203.615 67.4517C203.873 66.8949 204.485 66.2983 205.603 66.2983C206.682 66.2983 207.214 66.87 207.214 67.8494V67.8892C207.214 68.456 206.637 68.4062 205.245 68.5852C203.828 68.7692 202.282 69.0824 202.282 70.8324C202.282 72.3239 203.436 73.179 204.887 73.179ZM205.066 72.125C204.132 72.125 203.456 71.7074 203.456 70.892C203.456 69.9972 204.271 69.7188 205.186 69.5994C205.683 69.5398 207.015 69.4006 207.214 69.1619V70.2358C207.214 71.1903 206.458 72.125 205.066 72.125ZM213.412 73.1591C214.884 73.1591 215.381 72.2443 215.64 71.8267H215.779V73H216.912V62.8182H215.739V66.5767H215.64C215.381 66.179 214.924 65.2642 213.432 65.2642C211.503 65.2642 210.171 66.7955 210.171 69.2017C210.171 71.6278 211.503 73.1591 213.412 73.1591ZM213.572 72.1051C212.1 72.1051 211.344 70.8125 211.344 69.1818C211.344 67.571 212.08 66.3182 213.572 66.3182C215.003 66.3182 215.759 67.4716 215.759 69.1818C215.759 70.9119 214.983 72.1051 213.572 72.1051ZM222.108 73.1591C223.579 73.1591 224.077 72.2443 224.335 71.8267H224.474V73H225.608V62.8182H224.434V66.5767H224.335C224.077 66.179 223.619 65.2642 222.128 65.2642C220.199 65.2642 218.866 66.7955 218.866 69.2017C218.866 71.6278 220.199 73.1591 222.108 73.1591ZM222.267 72.1051C220.795 72.1051 220.04 70.8125 220.04 69.1818C220.04 67.571 220.775 66.3182 222.267 66.3182C223.699 66.3182 224.454 67.4716 224.454 69.1818C224.454 70.9119 223.679 72.1051 222.267 72.1051ZM227.92 73H229.093V68.1676C229.093 67.1335 229.908 66.3778 231.022 66.3778C231.335 66.3778 231.658 66.4375 231.738 66.4574V65.2642C231.604 65.2543 231.295 65.2443 231.121 65.2443C230.206 65.2443 229.411 65.7614 229.133 66.517H229.053V65.3636H227.92V73ZM236.098 73.1591C237.649 73.1591 238.782 72.3835 239.14 71.2301L238.007 70.9119C237.709 71.7074 237.018 72.1051 236.098 72.1051C234.721 72.1051 233.771 71.2152 233.716 69.5795H239.26V69.0824C239.26 66.2386 237.569 65.2642 235.979 65.2642C233.91 65.2642 232.538 66.8949 232.538 69.2415C232.538 71.5881 233.89 73.1591 236.098 73.1591ZM233.716 68.5653C233.796 67.3771 234.636 66.3182 235.979 66.3182C237.251 66.3182 238.067 67.2727 238.067 68.5653H233.716ZM246.454 67.0739C246.086 65.9901 245.26 65.2642 243.749 65.2642C242.138 65.2642 240.945 66.179 240.945 67.4716C240.945 68.5256 241.572 69.2315 242.974 69.5597L244.246 69.858C245.017 70.0369 245.38 70.4048 245.38 70.9318C245.38 71.5881 244.684 72.125 243.59 72.125C242.631 72.125 242.029 71.7124 241.82 70.892L240.706 71.1705C240.98 72.468 242.049 73.1591 243.61 73.1591C245.385 73.1591 246.593 72.1896 246.593 70.8722C246.593 69.8082 245.927 69.1371 244.564 68.804L243.431 68.5256C242.526 68.3018 242.118 67.9986 242.118 67.4119C242.118 66.7557 242.814 66.2784 243.749 66.2784C244.773 66.2784 245.196 66.8452 245.4 67.3722L246.454 67.0739ZM253.768 67.0739C253.4 65.9901 252.575 65.2642 251.064 65.2642C249.453 65.2642 248.26 66.179 248.26 67.4716C248.26 68.5256 248.886 69.2315 250.288 69.5597L251.561 69.858C252.331 70.0369 252.694 70.4048 252.694 70.9318C252.694 71.5881 251.998 72.125 250.904 72.125C249.945 72.125 249.343 71.7124 249.135 70.892L248.021 71.1705C248.294 72.468 249.363 73.1591 250.924 73.1591C252.699 73.1591 253.907 72.1896 253.907 70.8722C253.907 69.8082 253.241 69.1371 251.879 68.804L250.745 68.5256C249.841 68.3018 249.433 67.9986 249.433 67.4119C249.433 66.7557 250.129 66.2784 251.064 66.2784C252.088 66.2784 252.51 66.8452 252.714 67.3722L253.768 67.0739Z" fill="#2D3748"/>
<path d="M36 94C36 90.6863 38.6863 88 42 88H191C194.314 88 197 90.6863 197 94V114C197 117.314 194.314 120 191 120H42C38.6863 120 36 117.314 36 114V94Z" fill="#EDF2F7"/>
<path d="M52.1562 112.023C53.9858 112.023 55.4574 111.188 55.4574 109.219V101.364H54.3239V102.577H54.2045C53.946 102.179 53.4688 101.264 51.9773 101.264C50.0483 101.264 48.7159 102.795 48.7159 105.142C48.7159 107.528 50.108 108.881 51.9574 108.881C53.4489 108.881 53.9261 108.006 54.1847 107.588H54.2841V109.139C54.2841 110.412 53.3892 110.989 52.1562 110.989C50.7692 110.989 50.282 110.258 49.9688 109.835L49.0341 110.491C49.5114 111.292 50.451 112.023 52.1562 112.023ZM52.1165 107.827C50.6449 107.827 49.8892 106.713 49.8892 105.122C49.8892 103.571 50.625 102.318 52.1165 102.318C53.5483 102.318 54.304 103.472 54.304 105.122C54.304 106.812 53.5284 107.827 52.1165 107.827ZM57.6051 111.864H58.7784V107.827H58.8778C59.1364 108.244 59.6335 109.159 61.1051 109.159C63.0142 109.159 64.3466 107.628 64.3466 105.202C64.3466 102.795 63.0142 101.264 61.0852 101.264C59.5938 101.264 59.1364 102.179 58.8778 102.577H58.7386V101.364H57.6051V111.864ZM58.7585 105.182C58.7585 103.472 59.5142 102.318 60.946 102.318C62.4375 102.318 63.1733 103.571 63.1733 105.182C63.1733 106.812 62.4176 108.105 60.946 108.105C59.5341 108.105 58.7585 106.912 58.7585 105.182ZM69.2386 109.159C71.3068 109.159 72.6989 107.588 72.6989 105.222C72.6989 102.835 71.3068 101.264 69.2386 101.264C67.1705 101.264 65.7784 102.835 65.7784 105.222C65.7784 107.588 67.1705 109.159 69.2386 109.159ZM69.2386 108.105C67.6676 108.105 66.9517 106.753 66.9517 105.222C66.9517 103.69 67.6676 102.318 69.2386 102.318C70.8097 102.318 71.5256 103.69 71.5256 105.222C71.5256 106.753 70.8097 108.105 69.2386 108.105ZM77.6916 109.159C79.2427 109.159 80.3762 108.384 80.7342 107.23L79.6007 106.912C79.3024 107.707 78.6113 108.105 77.6916 108.105C76.3145 108.105 75.3649 107.215 75.3102 105.58H80.8535V105.082C80.8535 102.239 79.1632 101.264 77.5723 101.264C75.5041 101.264 74.1319 102.895 74.1319 105.241C74.1319 107.588 75.4842 109.159 77.6916 109.159ZM75.3102 104.565C75.3897 103.377 76.2299 102.318 77.5723 102.318C78.845 102.318 79.6603 103.273 79.6603 104.565H75.3102ZM83.3082 101.364H81.956L84.3821 105.182L81.956 109H83.3082L85.1378 106.037L86.9673 109H88.3196L85.8537 105.182L88.3196 101.364H86.9673L85.1378 104.486L83.3082 101.364ZM94.8063 105.878C94.8063 107.31 93.7125 107.966 92.8375 107.966C91.8631 107.966 91.1671 107.25 91.1671 106.136V101.364H89.9938V106.216C89.9938 108.165 91.0279 109.099 92.4597 109.099C93.6131 109.099 94.3688 108.483 94.7267 107.707H94.8063V109H95.9796V101.364H94.8063V105.878ZM103.995 111.685C105.009 111.685 106.302 111.386 106.918 111.128L106.64 110.213C106.282 110.332 105.129 110.73 104.035 110.73C100.634 110.73 98.8246 108.821 98.8246 105.44C98.8246 102.119 100.674 100.131 103.796 100.131C106.958 100.131 108.45 102.358 108.45 104.585C108.45 106.852 108.211 107.866 107.197 107.866C106.6 107.866 106.282 107.369 106.282 106.812V102.318H105.228V102.875H105.168C105.029 102.438 104.254 102.06 103.259 102.159C101.768 102.318 100.634 103.551 100.634 105.341C100.634 107.23 101.529 108.682 103.259 108.741C104.393 108.781 104.989 108.224 105.228 107.648H105.288C105.407 108.503 106.481 108.801 107.177 108.801C109.285 108.801 109.484 106.534 109.484 104.605C109.484 101.881 107.575 99.196 103.856 99.196C100.018 99.196 97.7308 101.523 97.7308 105.401C97.7308 109.418 99.9382 111.685 103.995 111.685ZM103.418 107.727C102.126 107.727 101.668 106.554 101.668 105.281C101.668 104.128 102.325 103.134 103.458 103.134C104.651 103.134 105.288 103.611 105.288 105.281C105.288 106.932 104.751 107.727 103.418 107.727ZM111.24 109H112.413V101.364H111.24V109ZM111.836 100.091C112.294 100.091 112.672 99.733 112.672 99.2955C112.672 98.858 112.294 98.5 111.836 98.5C111.379 98.5 111.001 98.858 111.001 99.2955C111.001 99.733 111.379 100.091 111.836 100.091ZM115.735 104.406C115.735 103.074 116.561 102.318 117.684 102.318C118.773 102.318 119.434 103.029 119.434 104.227V109H120.608V104.148C120.608 102.199 119.569 101.264 118.022 101.264C116.869 101.264 116.153 101.781 115.795 102.557H115.696V101.364H114.562V109H115.735V104.406ZM123.607 109.08C124.099 109.08 124.502 108.677 124.502 108.185C124.502 107.692 124.099 107.29 123.607 107.29C123.115 107.29 122.712 107.692 122.712 108.185C122.712 108.677 123.115 109.08 123.607 109.08ZM126.607 111.864H127.78V107.827H127.88C128.138 108.244 128.635 109.159 130.107 109.159C132.016 109.159 133.349 107.628 133.349 105.202C133.349 102.795 132.016 101.264 130.087 101.264C128.596 101.264 128.138 102.179 127.88 102.577H127.741V101.364H126.607V111.864ZM127.76 105.182C127.76 103.472 128.516 102.318 129.948 102.318C131.439 102.318 132.175 103.571 132.175 105.182C132.175 106.812 131.42 108.105 129.948 108.105C128.536 108.105 127.76 106.912 127.76 105.182ZM138.459 101.364H136.829V99.5341H135.655V101.364H134.502V102.358H135.655V107.131C135.655 108.463 136.729 109.099 137.724 109.099C138.161 109.099 138.439 109.02 138.599 108.96L138.36 107.906C138.26 107.926 138.101 107.966 137.843 107.966C137.326 107.966 136.829 107.807 136.829 106.812V102.358H138.459V101.364ZM140.224 109H141.398V104.168C141.398 103.134 142.213 102.378 143.327 102.378C143.64 102.378 143.963 102.438 144.042 102.457V101.264C143.908 101.254 143.6 101.244 143.426 101.244C142.511 101.244 141.716 101.761 141.437 102.517H141.358V101.364H140.224V109ZM147.68 109.179C149.013 109.179 149.709 108.463 149.947 107.966H150.007V109H151.18V103.969C151.18 101.543 149.331 101.264 148.357 101.264C147.203 101.264 145.891 101.662 145.294 103.054L146.408 103.452C146.666 102.895 147.278 102.298 148.396 102.298C149.475 102.298 150.007 102.87 150.007 103.849V103.889C150.007 104.456 149.43 104.406 148.038 104.585C146.621 104.769 145.075 105.082 145.075 106.832C145.075 108.324 146.229 109.179 147.68 109.179ZM147.859 108.125C146.925 108.125 146.249 107.707 146.249 106.892C146.249 105.997 147.064 105.719 147.979 105.599C148.476 105.54 149.808 105.401 150.007 105.162V106.236C150.007 107.19 149.251 108.125 147.859 108.125ZM156.424 109.159C158.115 109.159 159.228 108.125 159.427 106.773H158.254C158.035 107.608 157.339 108.105 156.424 108.105C155.032 108.105 154.137 106.952 154.137 105.182C154.137 103.452 155.052 102.318 156.424 102.318C157.458 102.318 158.075 102.955 158.254 103.651H159.427C159.228 102.219 158.015 101.264 156.404 101.264C154.336 101.264 152.964 102.895 152.964 105.222C152.964 107.509 154.276 109.159 156.424 109.159ZM161.142 109H162.316V106.141L163.136 105.381L165.994 109H167.486L164.021 104.625L167.247 101.364H165.796L162.455 104.764H162.316V98.8182H161.142V109ZM169.613 109.08C170.105 109.08 170.507 108.677 170.507 108.185C170.507 107.692 170.105 107.29 169.613 107.29C169.12 107.29 168.718 107.692 168.718 108.185C168.718 108.677 169.12 109.08 169.613 109.08ZM172.613 109H173.786V101.364H172.613V109ZM173.21 100.091C173.667 100.091 174.045 99.733 174.045 99.2955C174.045 98.858 173.667 98.5 173.21 98.5C172.752 98.5 172.374 98.858 172.374 99.2955C172.374 99.733 172.752 100.091 173.21 100.091ZM179.037 109.159C181.106 109.159 182.498 107.588 182.498 105.222C182.498 102.835 181.106 101.264 179.037 101.264C176.969 101.264 175.577 102.835 175.577 105.222C175.577 107.588 176.969 109.159 179.037 109.159ZM179.037 108.105C177.466 108.105 176.751 106.753 176.751 105.222C176.751 103.69 177.466 102.318 179.037 102.318C180.608 102.318 181.324 103.69 181.324 105.222C181.324 106.753 180.608 108.105 179.037 108.105Z" fill="#2D3748"/>
<path d="M232.333 102H226.333C225.597 102 225 102.597 225 103.333V109.333C225 110.07 225.597 110.667 226.333 110.667H232.333C233.07 110.667 233.667 110.07 233.667 109.333V103.333C233.667 102.597 233.07 102 232.333 102Z" stroke="black" stroke-linecap="round" stroke-linejoin="round"/>
<path d="M222.333 106H221.667C221.313 106 220.974 105.86 220.724 105.609C220.474 105.359 220.333 105.02 220.333 104.667V98.6667C220.333 98.3131 220.474 97.9739 220.724 97.7239C220.974 97.4738 221.313 97.3333 221.667 97.3333H227.667C228.02 97.3333 228.359 97.4738 228.609 97.7239C228.859 97.9739 229 98.3131 229 98.6667V99.3333" stroke="black" stroke-linecap="round" stroke-linejoin="round"/>
<path d="M252.719 102.254C252.406 99.9915 250.666 98.679 248.409 98.679C245.749 98.679 243.746 100.618 243.746 103.909C243.746 107.195 245.724 109.139 248.409 109.139C250.83 109.139 252.436 107.573 252.719 105.629L250.86 105.619C250.626 106.812 249.652 107.484 248.434 107.484C246.783 107.484 245.6 106.246 245.6 103.909C245.6 101.612 246.773 100.335 248.439 100.335C249.677 100.335 250.646 101.036 250.86 102.254H252.719ZM257.66 109.149C259.897 109.149 261.319 107.573 261.319 105.212C261.319 102.845 259.897 101.264 257.66 101.264C255.423 101.264 254.001 102.845 254.001 105.212C254.001 107.573 255.423 109.149 257.66 109.149ZM257.67 107.707C256.432 107.707 255.825 106.604 255.825 105.207C255.825 103.81 256.432 102.691 257.67 102.691C258.888 102.691 259.494 103.81 259.494 105.207C259.494 106.604 258.888 107.707 257.67 107.707ZM262.847 111.864H264.646V107.797H264.721C265.004 108.354 265.596 109.134 266.908 109.134C268.708 109.134 270.055 107.707 270.055 105.192C270.055 102.646 268.668 101.264 266.903 101.264C265.556 101.264 264.994 102.075 264.721 102.626H264.616V101.364H262.847V111.864ZM264.612 105.182C264.612 103.7 265.248 102.741 266.406 102.741C267.604 102.741 268.221 103.76 268.221 105.182C268.221 106.614 267.594 107.658 266.406 107.658C265.258 107.658 264.612 106.663 264.612 105.182ZM272.455 111.864C273.857 111.864 274.668 111.143 275.1 109.925L278.168 101.374L276.244 101.364L274.479 107.131H274.399L272.639 101.364H270.73L273.499 109.159L273.345 109.572C273.012 110.442 272.485 110.501 271.7 110.273L271.282 111.675C271.526 111.774 271.963 111.864 272.455 111.864Z" fill="#2D3748"/>
<rect x="207.5" y="88.5" width="83" height="31" rx="5.5" stroke="#E2E8F0"/>
<rect x="12.5" y="2.5" width="302" height="141" rx="5.5" stroke="#E2E8F0"/>
</g>
<defs>
<filter id="filter0_dd_862_9960" x="0" y="0" width="327" height="166" filterUnits="userSpaceOnUse" color-interpolation-filters="sRGB">
<feFlood flood-opacity="0" result="BackgroundImageFix"/>
<feColorMatrix in="SourceAlpha" type="matrix" values="0 0 0 0 0 0 0 0 0 0 0 0 0 0 0 0 0 0 127 0" result="hardAlpha"/>
<feMorphology radius="2" operator="erode" in="SourceAlpha" result="effect1_dropShadow_862_9960"/>
<feOffset dy="4"/>
<feGaussianBlur stdDeviation="3"/>
<feColorMatrix type="matrix" values="0 0 0 0 0 0 0 0 0 0 0 0 0 0 0 0 0 0 0.05 0"/>
<feBlend mode="normal" in2="BackgroundImageFix" result="effect1_dropShadow_862_9960"/>
<feColorMatrix in="SourceAlpha" type="matrix" values="0 0 0 0 0 0 0 0 0 0 0 0 0 0 0 0 0 0 127 0" result="hardAlpha"/>
<feMorphology radius="3" operator="erode" in="SourceAlpha" result="effect2_dropShadow_862_9960"/>
<feOffset dy="10"/>
<feGaussianBlur stdDeviation="7.5"/>
<feColorMatrix type="matrix" values="0 0 0 0 0 0 0 0 0 0 0 0 0 0 0 0 0 0 0.1 0"/>
<feBlend mode="normal" in2="effect1_dropShadow_862_9960" result="effect2_dropShadow_862_9960"/>
<feBlend mode="normal" in="SourceGraphic" in2="effect2_dropShadow_862_9960" result="shape"/>
</filter>
</defs>
</svg>
