<svg width="512" height="274" viewBox="0 0 512 274" fill="none" xmlns="http://www.w3.org/2000/svg">
<g filter="url(#filter0_dd_891_12510)">
<rect x="12.5" y="2.5" width="487" height="141" rx="5.5" fill="white"/>
<g clip-path="url(#clip0_891_12510)">
<path d="M41.3333 37.3333L43.9999 40L46.6666 37.3333" stroke="#2D3748" stroke-width="1.5" stroke-linecap="round" stroke-linejoin="round"/>
<path d="M44 34V40" stroke="#2D3748" stroke-width="1.5" stroke-linecap="round" stroke-linejoin="round"/>
<path d="M49.92 38.06C50.4996 37.6524 50.9342 37.0708 51.1608 36.3994C51.3874 35.7281 51.3942 35.002 51.1802 34.3266C50.9662 33.6511 50.5425 33.0614 49.9707 32.6431C49.3988 32.2247 48.7085 31.9995 48 32H47.16C46.9594 31.2186 46.5843 30.4928 46.0627 29.8774C45.5411 29.262 44.8867 28.7729 44.1488 28.4469C43.4108 28.121 42.6085 27.9667 41.8023 27.9957C40.9961 28.0247 40.207 28.2362 39.4943 28.6143C38.7817 28.9924 38.1641 29.5272 37.6881 30.1786C37.2121 30.8299 36.89 31.5807 36.7461 32.3745C36.6023 33.1683 36.6404 33.9844 36.8575 34.7614C37.0747 35.5383 37.4653 36.2559 38 36.86" stroke="#2D3748" stroke-width="1.5" stroke-linecap="round" stroke-linejoin="round"/>
</g>
<path d="M58.7585 38H64.6562V36.4787H60.6037V34.3949H64.3366V32.8736H60.6037V30.794H64.6392V29.2727H58.7585V38ZM68.4363 29.2727H66.344L69.0244 33.6364L66.2928 38H68.4065L70.1962 35.0213H70.2644L72.0542 38H74.1763L71.4533 33.6364L74.1167 29.2727H72.0329L70.2644 32.2472H70.1962L68.4363 29.2727ZM75.8843 38H77.7295V35.1705H79.2806C81.2877 35.1705 82.4553 33.973 82.4553 32.2301C82.4553 30.4957 81.309 29.2727 79.3275 29.2727H75.8843V38ZM77.7295 33.6918V30.7812H78.9738C80.0391 30.7812 80.5548 31.3608 80.5548 32.2301C80.5548 33.0952 80.0391 33.6918 78.9823 33.6918H77.7295ZM92.2737 33.6364C92.2737 30.7812 90.501 29.1534 88.1871 29.1534C85.8604 29.1534 84.1004 30.7812 84.1004 33.6364C84.1004 36.4787 85.8604 38.1193 88.1871 38.1193C90.501 38.1193 92.2737 36.4915 92.2737 33.6364ZM90.403 33.6364C90.403 35.4858 89.5251 36.4872 88.1871 36.4872C86.8447 36.4872 85.9712 35.4858 85.9712 33.6364C85.9712 31.7869 86.8447 30.7855 88.1871 30.7855C89.5251 30.7855 90.403 31.7869 90.403 33.6364ZM94.2406 38H96.0857V34.9062H97.4323L99.0857 38H101.123L99.269 34.608C100.262 34.1818 100.812 33.3168 100.812 32.1236C100.812 30.3892 99.6653 29.2727 97.6837 29.2727H94.2406V38ZM96.0857 33.4233V30.7812H97.33C98.3954 30.7812 98.911 31.2543 98.911 32.1236C98.911 32.9886 98.3954 33.4233 97.3386 33.4233H96.0857ZM102.383 30.794H105.055V38H106.879V30.794H109.551V29.2727H102.383V30.794ZM114.709 38H116.554V34.3949H120.103V32.8736H116.554V30.794H120.487V29.2727H114.709V38ZM130.348 33.6364C130.348 30.7812 128.575 29.1534 126.261 29.1534C123.935 29.1534 122.175 30.7812 122.175 33.6364C122.175 36.4787 123.935 38.1193 126.261 38.1193C128.575 38.1193 130.348 36.4915 130.348 33.6364ZM128.477 33.6364C128.477 35.4858 127.599 36.4872 126.261 36.4872C124.919 36.4872 124.045 35.4858 124.045 33.6364C124.045 31.7869 124.919 30.7855 126.261 30.7855C127.599 30.7855 128.477 31.7869 128.477 33.6364ZM132.315 38H137.901V36.4787H134.16V29.2727H132.315V38ZM141.569 29.2727H139.723V38H141.569V29.2727ZM151.707 33.6364C151.707 30.7812 149.934 29.1534 147.62 29.1534C145.293 29.1534 143.533 30.7812 143.533 33.6364C143.533 36.4787 145.293 38.1193 147.62 38.1193C149.934 38.1193 151.707 36.4915 151.707 33.6364ZM149.836 33.6364C149.836 35.4858 148.958 36.4872 147.62 36.4872C146.278 36.4872 145.404 35.4858 145.404 33.6364C145.404 31.7869 146.278 30.7855 147.62 30.7855C148.958 30.7855 149.836 31.7869 149.836 33.6364Z" fill="#2D3748"/>
<path d="M37.233 73H43.4574V71.9062H38.4659V68.446H43.0597V67.3523H38.4659V63.9119H43.3778V62.8182H37.233V73ZM46.3161 65.3636H44.9638L47.3899 69.1818L44.9638 73H46.3161L48.1456 70.0369L49.9751 73H51.3274L48.8615 69.1818L51.3274 65.3636H49.9751L48.1456 68.4858L46.3161 65.3636ZM53.0016 75.8636H54.1749V71.8267H54.2743C54.5328 72.2443 55.03 73.1591 56.5016 73.1591C58.4107 73.1591 59.7431 71.6278 59.7431 69.2017C59.7431 66.7955 58.4107 65.2642 56.4817 65.2642C54.9902 65.2642 54.5328 66.179 54.2743 66.5767H54.1351V65.3636H53.0016V75.8636ZM54.155 69.1818C54.155 67.4716 54.9107 66.3182 56.3425 66.3182C57.834 66.3182 58.5698 67.571 58.5698 69.1818C58.5698 70.8125 57.8141 72.1051 56.3425 72.1051C54.9306 72.1051 54.155 70.9119 54.155 69.1818ZM64.6351 73.1591C66.7033 73.1591 68.0953 71.5881 68.0953 69.2216C68.0953 66.8352 66.7033 65.2642 64.6351 65.2642C62.5669 65.2642 61.1749 66.8352 61.1749 69.2216C61.1749 71.5881 62.5669 73.1591 64.6351 73.1591ZM64.6351 72.1051C63.0641 72.1051 62.3482 70.7528 62.3482 69.2216C62.3482 67.6903 63.0641 66.3182 64.6351 66.3182C66.2061 66.3182 66.9221 67.6903 66.9221 69.2216C66.9221 70.7528 66.2061 72.1051 64.6351 72.1051ZM69.8864 73H71.0597V68.1676C71.0597 67.1335 71.875 66.3778 72.9886 66.3778C73.3018 66.3778 73.625 66.4375 73.7045 66.4574V65.2642C73.5703 65.2543 73.2621 65.2443 73.0881 65.2443C72.1733 65.2443 71.3778 65.7614 71.0994 66.517H71.0199V65.3636H69.8864V73ZM78.8949 65.3636H77.2642V63.5341H76.0909V65.3636H74.9375V66.358H76.0909V71.1307C76.0909 72.4631 77.1648 73.0994 78.1591 73.0994C78.5966 73.0994 78.875 73.0199 79.0341 72.9602L78.7955 71.9062C78.696 71.9261 78.5369 71.9659 78.2784 71.9659C77.7614 71.9659 77.2642 71.8068 77.2642 70.8125V66.358H78.8949V65.3636ZM86.8445 73.179C88.1768 73.179 88.8729 72.4631 89.1115 71.9659H89.1712V73H90.3445V67.9688C90.3445 65.5426 88.495 65.2642 87.5206 65.2642C86.3672 65.2642 85.0547 65.6619 84.4581 67.054L85.5717 67.4517C85.8303 66.8949 86.4418 66.2983 87.5604 66.2983C88.6392 66.2983 89.1712 66.87 89.1712 67.8494V67.8892C89.1712 68.456 88.5945 68.4062 87.2024 68.5852C85.7855 68.7692 84.2393 69.0824 84.2393 70.8324C84.2393 72.3239 85.3928 73.179 86.8445 73.179ZM87.0234 72.125C86.0888 72.125 85.4126 71.7074 85.4126 70.892C85.4126 69.9972 86.228 69.7188 87.1428 69.5994C87.6399 69.5398 88.9723 69.4006 89.1712 69.1619V70.2358C89.1712 71.1903 88.4155 72.125 87.0234 72.125ZM93.6593 68.4062C93.6593 67.0739 94.4846 66.3182 95.6081 66.3182C96.6969 66.3182 97.3581 67.0291 97.3581 68.2273V73H98.5314V68.1477C98.5314 66.1989 97.4924 65.2642 95.9462 65.2642C94.7928 65.2642 94.0769 65.7812 93.7189 66.5568H93.6195V65.3636H92.486V73H93.6593V68.4062ZM103.559 73.1591C105.031 73.1591 105.528 72.2443 105.786 71.8267H105.925V73H107.059V62.8182H105.886V66.5767H105.786C105.528 66.179 105.07 65.2642 103.579 65.2642C101.65 65.2642 100.317 66.7955 100.317 69.2017C100.317 71.6278 101.65 73.1591 103.559 73.1591ZM103.718 72.1051C102.246 72.1051 101.491 70.8125 101.491 69.1818C101.491 67.571 102.227 66.3182 103.718 66.3182C105.15 66.3182 105.906 67.4716 105.906 69.1818C105.906 70.9119 105.13 72.1051 103.718 72.1051ZM116.192 73.1591C117.663 73.1591 118.161 72.2443 118.419 71.8267H118.558V73H119.692V62.8182H118.518V66.5767H118.419C118.161 66.179 117.703 65.2642 116.212 65.2642C114.283 65.2642 112.95 66.7955 112.95 69.2017C112.95 71.6278 114.283 73.1591 116.192 73.1591ZM116.351 72.1051C114.879 72.1051 114.124 70.8125 114.124 69.1818C114.124 67.571 114.859 66.3182 116.351 66.3182C117.783 66.3182 118.538 67.4716 118.538 69.1818C118.538 70.9119 117.763 72.1051 116.351 72.1051ZM125.106 73.1591C127.174 73.1591 128.566 71.5881 128.566 69.2216C128.566 66.8352 127.174 65.2642 125.106 65.2642C123.038 65.2642 121.646 66.8352 121.646 69.2216C121.646 71.5881 123.038 73.1591 125.106 73.1591ZM125.106 72.1051C123.535 72.1051 122.819 70.7528 122.819 69.2216C122.819 67.6903 123.535 66.3182 125.106 66.3182C126.677 66.3182 127.393 67.6903 127.393 69.2216C127.393 70.7528 126.677 72.1051 125.106 72.1051ZM131.827 73H132.981L134.651 67.1335H134.771L136.441 73H137.594L139.921 65.3636H138.688L137.038 71.1903H136.958L135.347 65.3636H134.094L132.464 71.2102H132.384L130.734 65.3636H129.501L131.827 73ZM142.646 68.4062C142.646 67.0739 143.471 66.3182 144.594 66.3182C145.683 66.3182 146.344 67.0291 146.344 68.2273V73H147.518V68.1477C147.518 66.1989 146.479 65.2642 144.933 65.2642C143.779 65.2642 143.063 65.7812 142.705 66.5568H142.606V65.3636H141.472V73H142.646V68.4062ZM150.835 62.8182H149.662V73H150.835V62.8182ZM156.086 73.1591C158.154 73.1591 159.547 71.5881 159.547 69.2216C159.547 66.8352 158.154 65.2642 156.086 65.2642C154.018 65.2642 152.626 66.8352 152.626 69.2216C152.626 71.5881 154.018 73.1591 156.086 73.1591ZM156.086 72.1051C154.515 72.1051 153.799 70.7528 153.799 69.2216C153.799 67.6903 154.515 66.3182 156.086 66.3182C157.657 66.3182 158.373 67.6903 158.373 69.2216C158.373 70.7528 157.657 72.1051 156.086 72.1051ZM163.585 73.179C164.917 73.179 165.613 72.4631 165.852 71.9659H165.911V73H167.085V67.9688C167.085 65.5426 165.235 65.2642 164.261 65.2642C163.107 65.2642 161.795 65.6619 161.198 67.054L162.312 67.4517C162.57 66.8949 163.182 66.2983 164.301 66.2983C165.379 66.2983 165.911 66.87 165.911 67.8494V67.8892C165.911 68.456 165.335 68.4062 163.943 68.5852C162.526 68.7692 160.98 69.0824 160.98 70.8324C160.98 72.3239 162.133 73.179 163.585 73.179ZM163.764 72.125C162.829 72.125 162.153 71.7074 162.153 70.892C162.153 69.9972 162.968 69.7188 163.883 69.5994C164.38 69.5398 165.713 69.4006 165.911 69.1619V70.2358C165.911 71.1903 165.156 72.125 163.764 72.125ZM172.11 73.1591C173.581 73.1591 174.078 72.2443 174.337 71.8267H174.476V73H175.61V62.8182H174.436V66.5767H174.337C174.078 66.179 173.621 65.2642 172.13 65.2642C170.201 65.2642 168.868 66.7955 168.868 69.2017C168.868 71.6278 170.201 73.1591 172.11 73.1591ZM172.269 72.1051C170.797 72.1051 170.042 70.8125 170.042 69.1818C170.042 67.571 170.777 66.3182 172.269 66.3182C173.701 66.3182 174.456 67.4716 174.456 69.1818C174.456 70.9119 173.681 72.1051 172.269 72.1051ZM184.106 73.179C185.439 73.179 186.135 72.4631 186.373 71.9659H186.433V73H187.606V67.9688C187.606 65.5426 185.757 65.2642 184.782 65.2642C183.629 65.2642 182.316 65.6619 181.72 67.054L182.833 67.4517C183.092 66.8949 183.703 66.2983 184.822 66.2983C185.901 66.2983 186.433 66.87 186.433 67.8494V67.8892C186.433 68.456 185.856 68.4062 184.464 68.5852C183.047 68.7692 181.501 69.0824 181.501 70.8324C181.501 72.3239 182.654 73.179 184.106 73.179ZM184.285 72.125C183.35 72.125 182.674 71.7074 182.674 70.892C182.674 69.9972 183.49 69.7188 184.404 69.5994C184.902 69.5398 186.234 69.4006 186.433 69.1619V70.2358C186.433 71.1903 185.677 72.125 184.285 72.125ZM190.921 62.8182H189.748V73H190.921V62.8182ZM194.243 62.8182H193.07V73H194.243V62.8182ZM203.651 65.3636H202.02V63.5341H200.847V65.3636H199.693V66.358H200.847V71.1307C200.847 72.4631 201.921 73.0994 202.915 73.0994C203.352 73.0994 203.631 73.0199 203.79 72.9602L203.551 71.9062C203.452 71.9261 203.293 71.9659 203.034 71.9659C202.517 71.9659 202.02 71.8068 202.02 70.8125V66.358H203.651V65.3636ZM205.416 73H206.589V68.1676C206.589 67.1335 207.404 66.3778 208.518 66.3778C208.831 66.3778 209.154 66.4375 209.234 66.4574V65.2642C209.1 65.2543 208.791 65.2443 208.617 65.2443C207.703 65.2443 206.907 65.7614 206.629 66.517H206.549V65.3636H205.416V73ZM212.872 73.179C214.204 73.179 214.9 72.4631 215.139 71.9659H215.199V73H216.372V67.9688C216.372 65.5426 214.522 65.2642 213.548 65.2642C212.395 65.2642 211.082 65.6619 210.485 67.054L211.599 67.4517C211.858 66.8949 212.469 66.2983 213.588 66.2983C214.667 66.2983 215.199 66.87 215.199 67.8494V67.8892C215.199 68.456 214.622 68.4062 213.23 68.5852C211.813 68.7692 210.267 69.0824 210.267 70.8324C210.267 72.3239 211.42 73.179 212.872 73.179ZM213.051 72.125C212.116 72.125 211.44 71.7074 211.44 70.892C211.44 69.9972 212.255 69.7188 213.17 69.5994C213.667 69.5398 215 69.4006 215.199 69.1619V70.2358C215.199 71.1903 214.443 72.125 213.051 72.125ZM219.687 68.4062C219.687 67.0739 220.512 66.3182 221.635 66.3182C222.724 66.3182 223.385 67.0291 223.385 68.2273V73H224.559V68.1477C224.559 66.1989 223.52 65.2642 221.974 65.2642C220.82 65.2642 220.104 65.7812 219.746 66.5568H219.647V65.3636H218.513V73H219.687V68.4062ZM232.112 67.0739C231.744 65.9901 230.919 65.2642 229.407 65.2642C227.797 65.2642 226.603 66.179 226.603 67.4716C226.603 68.5256 227.23 69.2315 228.632 69.5597L229.904 69.858C230.675 70.0369 231.038 70.4048 231.038 70.9318C231.038 71.5881 230.342 72.125 229.248 72.125C228.289 72.125 227.687 71.7124 227.478 70.892L226.365 71.1705C226.638 72.468 227.707 73.1591 229.268 73.1591C231.043 73.1591 232.251 72.1896 232.251 70.8722C232.251 69.8082 231.585 69.1371 230.223 68.804L229.089 68.5256C228.184 68.3018 227.777 67.9986 227.777 67.4119C227.777 66.7557 228.473 66.2784 229.407 66.2784C230.431 66.2784 230.854 66.8452 231.058 67.3722L232.112 67.0739ZM236.264 73.179C237.597 73.179 238.293 72.4631 238.531 71.9659H238.591V73H239.764V67.9688C239.764 65.5426 237.915 65.2642 236.941 65.2642C235.787 65.2642 234.475 65.6619 233.878 67.054L234.992 67.4517C235.25 66.8949 235.862 66.2983 236.98 66.2983C238.059 66.2983 238.591 66.87 238.591 67.8494V67.8892C238.591 68.456 238.014 68.4062 236.622 68.5852C235.205 68.7692 233.659 69.0824 233.659 70.8324C233.659 72.3239 234.813 73.179 236.264 73.179ZM236.443 72.125C235.509 72.125 234.833 71.7074 234.833 70.892C234.833 69.9972 235.648 69.7188 236.563 69.5994C237.06 69.5398 238.392 69.4006 238.591 69.1619V70.2358C238.591 71.1903 237.835 72.125 236.443 72.125ZM245.008 73.1591C246.699 73.1591 247.812 72.125 248.011 70.7727H246.838C246.619 71.608 245.923 72.1051 245.008 72.1051C243.616 72.1051 242.721 70.9517 242.721 69.1818C242.721 67.4517 243.636 66.3182 245.008 66.3182C246.042 66.3182 246.659 66.9545 246.838 67.6506H248.011C247.812 66.2188 246.599 65.2642 244.988 65.2642C242.92 65.2642 241.548 66.8949 241.548 69.2216C241.548 71.5085 242.86 73.1591 245.008 73.1591ZM253.047 65.3636H251.417V63.5341H250.243V65.3636H249.09V66.358H250.243V71.1307C250.243 72.4631 251.317 73.0994 252.311 73.0994C252.749 73.0994 253.027 73.0199 253.186 72.9602L252.948 71.9062C252.848 71.9261 252.689 71.9659 252.431 71.9659C251.914 71.9659 251.417 71.8068 251.417 70.8125V66.358H253.047V65.3636ZM254.812 73H255.985V65.3636H254.812V73ZM255.409 64.0909C255.866 64.0909 256.244 63.733 256.244 63.2955C256.244 62.858 255.866 62.5 255.409 62.5C254.951 62.5 254.574 62.858 254.574 63.2955C254.574 63.733 254.951 64.0909 255.409 64.0909ZM261.237 73.1591C263.305 73.1591 264.697 71.5881 264.697 69.2216C264.697 66.8352 263.305 65.2642 261.237 65.2642C259.169 65.2642 257.776 66.8352 257.776 69.2216C257.776 71.5881 259.169 73.1591 261.237 73.1591ZM261.237 72.1051C259.666 72.1051 258.95 70.7528 258.95 69.2216C258.95 67.6903 259.666 66.3182 261.237 66.3182C262.808 66.3182 263.524 67.6903 263.524 69.2216C263.524 70.7528 262.808 72.1051 261.237 72.1051ZM267.661 68.4062C267.661 67.0739 268.487 66.3182 269.61 66.3182C270.699 66.3182 271.36 67.0291 271.36 68.2273V73H272.533V68.1477C272.533 66.1989 271.494 65.2642 269.948 65.2642C268.795 65.2642 268.079 65.7812 267.721 66.5568H267.621V65.3636H266.488V73H267.661V68.4062ZM280.086 67.0739C279.719 65.9901 278.893 65.2642 277.382 65.2642C275.771 65.2642 274.578 66.179 274.578 67.4716C274.578 68.5256 275.204 69.2315 276.606 69.5597L277.879 69.858C278.65 70.0369 279.013 70.4048 279.013 70.9318C279.013 71.5881 278.317 72.125 277.223 72.125C276.263 72.125 275.662 71.7124 275.453 70.892L274.339 71.1705C274.613 72.468 275.682 73.1591 277.243 73.1591C279.018 73.1591 280.226 72.1896 280.226 70.8722C280.226 69.8082 279.559 69.1371 278.197 68.804L277.064 68.5256C276.159 68.3018 275.751 67.9986 275.751 67.4119C275.751 66.7557 276.447 66.2784 277.382 66.2784C278.406 66.2784 278.829 66.8452 279.032 67.3722L280.086 67.0739ZM283.742 71.608H282.469L282.409 72.1648C282.265 73.5121 281.982 74.8544 281.853 75.4858H282.748C282.986 74.8097 283.493 73.2784 283.662 72.1449L283.742 71.608ZM292.1 73.179C293.433 73.179 294.129 72.4631 294.367 71.9659H294.427V73H295.6V67.9688C295.6 65.5426 293.751 65.2642 292.776 65.2642C291.623 65.2642 290.311 65.6619 289.714 67.054L290.828 67.4517C291.086 66.8949 291.698 66.2983 292.816 66.2983C293.895 66.2983 294.427 66.87 294.427 67.8494V67.8892C294.427 68.456 293.85 68.4062 292.458 68.5852C291.041 68.7692 289.495 69.0824 289.495 70.8324C289.495 72.3239 290.649 73.179 292.1 73.179ZM292.279 72.125C291.345 72.125 290.669 71.7074 290.669 70.892C290.669 69.9972 291.484 69.7188 292.399 69.5994C292.896 69.5398 294.228 69.4006 294.427 69.1619V70.2358C294.427 71.1903 293.671 72.125 292.279 72.125ZM301.063 65.3636H299.432V63.5341H298.259V65.3636H297.105V66.358H298.259V71.1307C298.259 72.4631 299.333 73.0994 300.327 73.0994C300.765 73.0994 301.043 73.0199 301.202 72.9602L300.963 71.9062C300.864 71.9261 300.705 71.9659 300.446 71.9659C299.929 71.9659 299.432 71.8068 299.432 70.8125V66.358H301.063V65.3636ZM306.149 65.3636H304.518V63.5341H303.345V65.3636H302.191V66.358H303.345V71.1307C303.345 72.4631 304.419 73.0994 305.413 73.0994C305.85 73.0994 306.129 73.0199 306.288 72.9602L306.049 71.9062C305.95 71.9261 305.791 71.9659 305.532 71.9659C305.015 71.9659 304.518 71.8068 304.518 70.8125V66.358H306.149V65.3636ZM310.161 73.179C311.493 73.179 312.189 72.4631 312.428 71.9659H312.488V73H313.661V67.9688C313.661 65.5426 311.811 65.2642 310.837 65.2642C309.684 65.2642 308.371 65.6619 307.775 67.054L308.888 67.4517C309.147 66.8949 309.758 66.2983 310.877 66.2983C311.956 66.2983 312.488 66.87 312.488 67.8494V67.8892C312.488 68.456 311.911 68.4062 310.519 68.5852C309.102 68.7692 307.556 69.0824 307.556 70.8324C307.556 72.3239 308.709 73.179 310.161 73.179ZM310.34 72.125C309.405 72.125 308.729 71.7074 308.729 70.892C308.729 69.9972 309.544 69.7188 310.459 69.5994C310.956 69.5398 312.289 69.4006 312.488 69.1619V70.2358C312.488 71.1903 311.732 72.125 310.34 72.125ZM318.905 73.1591C320.595 73.1591 321.709 72.125 321.907 70.7727H320.734C320.515 71.608 319.819 72.1051 318.905 72.1051C317.513 72.1051 316.618 70.9517 316.618 69.1818C316.618 67.4517 317.532 66.3182 318.905 66.3182C319.939 66.3182 320.555 66.9545 320.734 67.6506H321.907C321.709 66.2188 320.496 65.2642 318.885 65.2642C316.817 65.2642 315.444 66.8949 315.444 69.2216C315.444 71.5085 316.757 73.1591 318.905 73.1591ZM324.796 68.4062C324.796 67.0739 325.646 66.3182 326.805 66.3182C327.908 66.3182 328.574 67.0142 328.574 68.2273V73H329.748V68.1477C329.748 66.1839 328.704 65.2642 327.143 65.2642C325.939 65.2642 325.253 65.7663 324.895 66.5568H324.796V62.8182H323.623V73H324.796V68.4062ZM331.894 73H333.067V68.2273C333.067 67.1087 333.883 66.3182 334.798 66.3182C335.688 66.3182 336.309 66.8999 336.309 67.7699V73H337.502V68.0284C337.502 67.044 338.119 66.3182 339.192 66.3182C340.028 66.3182 340.744 66.7607 340.744 67.8892V73H341.917V67.8892C341.917 66.0945 340.952 65.2642 339.59 65.2642C338.496 65.2642 337.696 65.7663 337.303 66.5568H337.224C336.846 65.7415 336.18 65.2642 335.175 65.2642C334.181 65.2642 333.445 65.7415 333.127 66.5568H333.028V65.3636H331.894V73ZM347.264 73.1591C348.815 73.1591 349.949 72.3835 350.306 71.2301L349.173 70.9119C348.875 71.7074 348.184 72.1051 347.264 72.1051C345.887 72.1051 344.937 71.2152 344.882 69.5795H350.426V69.0824C350.426 66.2386 348.735 65.2642 347.145 65.2642C345.076 65.2642 343.704 66.8949 343.704 69.2415C343.704 71.5881 345.056 73.1591 347.264 73.1591ZM344.882 68.5653C344.962 67.3771 345.802 66.3182 347.145 66.3182C348.417 66.3182 349.233 67.2727 349.233 68.5653H344.882ZM353.384 68.4062C353.384 67.0739 354.209 66.3182 355.333 66.3182C356.422 66.3182 357.083 67.0291 357.083 68.2273V73H358.256V68.1477C358.256 66.1989 357.217 65.2642 355.671 65.2642C354.517 65.2642 353.801 65.7812 353.444 66.5568H353.344V65.3636H352.211V73H353.384V68.4062ZM363.721 65.3636H362.09V63.5341H360.917V65.3636H359.764V66.358H360.917V71.1307C360.917 72.4631 361.991 73.0994 362.985 73.0994C363.423 73.0994 363.701 73.0199 363.86 72.9602L363.622 71.9062C363.522 71.9261 363.363 71.9659 363.105 71.9659C362.588 71.9659 362.09 71.8068 362.09 70.8125V66.358H363.721V65.3636ZM370.758 67.0739C370.39 65.9901 369.565 65.2642 368.054 65.2642C366.443 65.2642 365.25 66.179 365.25 67.4716C365.25 68.5256 365.876 69.2315 367.278 69.5597L368.551 69.858C369.322 70.0369 369.684 70.4048 369.684 70.9318C369.684 71.5881 368.988 72.125 367.895 72.125C366.935 72.125 366.334 71.7124 366.125 70.892L365.011 71.1705C365.285 72.468 366.354 73.1591 367.915 73.1591C369.689 73.1591 370.898 72.1896 370.898 70.8722C370.898 69.8082 370.231 69.1371 368.869 68.804L367.736 68.5256C366.831 68.3018 366.423 67.9986 366.423 67.4119C366.423 66.7557 367.119 66.2784 368.054 66.2784C369.078 66.2784 369.501 66.8452 369.704 67.3722L370.758 67.0739ZM378.848 73.179C380.181 73.179 380.877 72.4631 381.115 71.9659H381.175V73H382.348V67.9688C382.348 65.5426 380.499 65.2642 379.525 65.2642C378.371 65.2642 377.059 65.6619 376.462 67.054L377.576 67.4517C377.834 66.8949 378.446 66.2983 379.564 66.2983C380.643 66.2983 381.175 66.87 381.175 67.8494V67.8892C381.175 68.456 380.598 68.4062 379.206 68.5852C377.789 68.7692 376.243 69.0824 376.243 70.8324C376.243 72.3239 377.397 73.179 378.848 73.179ZM379.027 72.125C378.093 72.125 377.417 71.7074 377.417 70.892C377.417 69.9972 378.232 69.7188 379.147 69.5994C379.644 69.5398 380.976 69.4006 381.175 69.1619V70.2358C381.175 71.1903 380.419 72.125 379.027 72.125ZM385.663 68.4062C385.663 67.0739 386.488 66.3182 387.612 66.3182C388.701 66.3182 389.362 67.0291 389.362 68.2273V73H390.535V68.1477C390.535 66.1989 389.496 65.2642 387.95 65.2642C386.797 65.2642 386.081 65.7812 385.723 66.5568H385.623V65.3636H384.49V73H385.663V68.4062ZM395.563 73.1591C397.034 73.1591 397.532 72.2443 397.79 71.8267H397.929V73H399.063V62.8182H397.89V66.5767H397.79C397.532 66.179 397.074 65.2642 395.583 65.2642C393.654 65.2642 392.321 66.7955 392.321 69.2017C392.321 71.6278 393.654 73.1591 395.563 73.1591ZM395.722 72.1051C394.25 72.1051 393.495 70.8125 393.495 69.1818C393.495 67.571 394.23 66.3182 395.722 66.3182C397.154 66.3182 397.909 67.4716 397.909 69.1818C397.909 70.9119 397.134 72.1051 395.722 72.1051ZM410.721 67.0739C410.353 65.9901 409.528 65.2642 408.017 65.2642C406.406 65.2642 405.213 66.179 405.213 67.4716C405.213 68.5256 405.839 69.2315 407.241 69.5597L408.514 69.858C409.284 70.0369 409.647 70.4048 409.647 70.9318C409.647 71.5881 408.951 72.125 407.858 72.125C406.898 72.125 406.297 71.7124 406.088 70.892L404.974 71.1705C405.248 72.468 406.316 73.1591 407.877 73.1591C409.652 73.1591 410.86 72.1896 410.86 70.8722C410.86 69.8082 410.194 69.1371 408.832 68.804L407.699 68.5256C406.794 68.3018 406.386 67.9986 406.386 67.4119C406.386 66.7557 407.082 66.2784 408.017 66.2784C409.041 66.2784 409.463 66.8452 409.667 67.3722L410.721 67.0739ZM417.439 69.8778C417.439 71.3097 416.345 71.9659 415.47 71.9659C414.496 71.9659 413.8 71.25 413.8 70.1364V65.3636H412.627V70.2159C412.627 72.1648 413.661 73.0994 415.093 73.0994C416.246 73.0994 417.002 72.483 417.36 71.7074H417.439V73H418.612V65.3636H417.439V69.8778ZM420.761 73H421.935V68.2273C421.935 67.1087 422.75 66.3182 423.665 66.3182C424.555 66.3182 425.176 66.8999 425.176 67.7699V73H426.369V68.0284C426.369 67.044 426.986 66.3182 428.06 66.3182C428.895 66.3182 429.611 66.7607 429.611 67.8892V73H430.784V67.8892C430.784 66.0945 429.82 65.2642 428.457 65.2642C427.364 65.2642 426.563 65.7663 426.17 66.5568H426.091C425.713 65.7415 425.047 65.2642 424.043 65.2642C423.048 65.2642 422.312 65.7415 421.994 66.5568H421.895V65.3636H420.761V73ZM432.929 73H434.103V68.2273C434.103 67.1087 434.918 66.3182 435.833 66.3182C436.723 66.3182 437.344 66.8999 437.344 67.7699V73H438.537V68.0284C438.537 67.044 439.154 66.3182 440.228 66.3182C441.063 66.3182 441.779 66.7607 441.779 67.8892V73H442.952V67.8892C442.952 66.0945 441.988 65.2642 440.625 65.2642C439.532 65.2642 438.731 65.7663 438.338 66.5568H438.259C437.881 65.7415 437.215 65.2642 436.211 65.2642C435.216 65.2642 434.48 65.7415 434.162 66.5568H434.063V65.3636H432.929V73ZM447.344 73.179C448.677 73.179 449.373 72.4631 449.612 71.9659H449.671V73H450.844V67.9688C450.844 65.5426 448.995 65.2642 448.021 65.2642C446.867 65.2642 445.555 65.6619 444.958 67.054L446.072 67.4517C446.33 66.8949 446.942 66.2983 448.06 66.2983C449.139 66.2983 449.671 66.87 449.671 67.8494V67.8892C449.671 68.456 449.094 68.4062 447.702 68.5852C446.286 68.7692 444.739 69.0824 444.739 70.8324C444.739 72.3239 445.893 73.179 447.344 73.179ZM447.523 72.125C446.589 72.125 445.913 71.7074 445.913 70.892C445.913 69.9972 446.728 69.7188 447.643 69.5994C448.14 69.5398 449.472 69.4006 449.671 69.1619V70.2358C449.671 71.1903 448.915 72.125 447.523 72.125ZM452.986 73H454.159V68.1676C454.159 67.1335 454.975 66.3778 456.088 66.3778C456.401 66.3778 456.725 66.4375 456.804 66.4574V65.2642C456.67 65.2543 456.362 65.2443 456.188 65.2443C455.273 65.2443 454.477 65.7614 454.199 66.517H454.119V65.3636H452.986V73ZM458.195 73H459.368V65.3636H458.195V73ZM458.792 64.0909C459.249 64.0909 459.627 63.733 459.627 63.2955C459.627 62.858 459.249 62.5 458.792 62.5C458.334 62.5 457.956 62.858 457.956 63.2955C457.956 63.733 458.334 64.0909 458.792 64.0909ZM464.719 73.1591C466.27 73.1591 467.404 72.3835 467.762 71.2301L466.628 70.9119C466.33 71.7074 465.639 72.1051 464.719 72.1051C463.342 72.1051 462.392 71.2152 462.338 69.5795H467.881V69.0824C467.881 66.2386 466.191 65.2642 464.6 65.2642C462.531 65.2642 461.159 66.8949 461.159 69.2415C461.159 71.5881 462.512 73.1591 464.719 73.1591ZM462.338 68.5653C462.417 67.3771 463.257 66.3182 464.6 66.3182C465.872 66.3182 466.688 67.2727 466.688 68.5653H462.338ZM475.075 67.0739C474.707 65.9901 473.882 65.2642 472.37 65.2642C470.759 65.2642 469.566 66.179 469.566 67.4716C469.566 68.5256 470.193 69.2315 471.595 69.5597L472.867 69.858C473.638 70.0369 474.001 70.4048 474.001 70.9318C474.001 71.5881 473.305 72.125 472.211 72.125C471.252 72.125 470.65 71.7124 470.441 70.892L469.328 71.1705C469.601 72.468 470.67 73.1591 472.231 73.1591C474.006 73.1591 475.214 72.1896 475.214 70.8722C475.214 69.8082 474.548 69.1371 473.186 68.804L472.052 68.5256C471.147 68.3018 470.74 67.9986 470.74 67.4119C470.74 66.7557 471.436 66.2784 472.37 66.2784C473.394 66.2784 473.817 66.8452 474.021 67.3722L475.075 67.0739Z" fill="#2D3748"/>
<rect x="36.5" y="88.5" width="120" height="31" rx="5.5" fill="#E2E8F0"/>
<g clip-path="url(#clip1_891_12510)">
<path d="M53.3333 107.333L55.9999 110L58.6666 107.333" stroke="#2D3748" stroke-width="1.5" stroke-linecap="round" stroke-linejoin="round"/>
<path d="M56 104V110" stroke="#2D3748" stroke-width="1.5" stroke-linecap="round" stroke-linejoin="round"/>
<path d="M61.92 108.06C62.4996 107.652 62.9342 107.071 63.1608 106.399C63.3874 105.728 63.3942 105.002 63.1802 104.327C62.9662 103.651 62.5425 103.061 61.9707 102.643C61.3988 102.225 60.7085 101.999 60 102H59.16C58.9594 101.219 58.5843 100.493 58.0627 99.8774C57.5411 99.262 56.8867 98.7729 56.1488 98.4469C55.4108 98.121 54.6085 97.9667 53.8023 97.9957C52.9961 98.0247 52.207 98.2362 51.4943 98.6143C50.7817 98.9924 50.1641 99.5272 49.6881 100.179C49.2121 100.83 48.89 101.581 48.7461 102.375C48.6023 103.168 48.6404 103.984 48.8575 104.761C49.0747 105.538 49.4653 106.256 50 106.86" stroke="#2D3748" stroke-width="1.5" stroke-linecap="round" stroke-linejoin="round"/>
</g>
<path d="M73.0043 109H79.6662V107.454H74.8487V104.675H79.2834V103.129H74.8487V100.364H79.6264V98.8182H73.0043V109ZM82.9002 101.364H80.9911L83.2582 105.182L80.9315 109H82.8406L84.4414 106.251L86.0572 109H87.9513L85.6097 105.182L87.9116 101.364H86.0075L84.4414 104.183L82.9002 101.364ZM89.3036 111.864H91.1033V107.797H91.1779C91.4613 108.354 92.0529 109.134 93.3654 109.134C95.1651 109.134 96.5124 107.707 96.5124 105.192C96.5124 102.646 95.1254 101.264 93.3604 101.264C92.0131 101.264 91.4513 102.075 91.1779 102.626H91.0735V101.364H89.3036V111.864ZM91.0685 105.182C91.0685 103.7 91.7049 102.741 92.8633 102.741C94.0614 102.741 94.6779 103.76 94.6779 105.182C94.6779 106.614 94.0515 107.658 92.8633 107.658C91.7148 107.658 91.0685 106.663 91.0685 105.182ZM101.385 109.149C103.622 109.149 105.044 107.573 105.044 105.212C105.044 102.845 103.622 101.264 101.385 101.264C99.1474 101.264 97.7255 102.845 97.7255 105.212C97.7255 107.573 99.1474 109.149 101.385 109.149ZM101.395 107.707C100.157 107.707 99.5501 106.604 99.5501 105.207C99.5501 103.81 100.157 102.691 101.395 102.691C102.613 102.691 103.219 103.81 103.219 105.207C103.219 106.604 102.613 107.707 101.395 107.707ZM106.571 109H108.371V104.511C108.371 103.541 109.102 102.855 110.091 102.855C110.394 102.855 110.772 102.91 110.926 102.96V101.304C110.762 101.274 110.479 101.254 110.28 101.254C109.405 101.254 108.674 101.751 108.396 102.636H108.316V101.364H106.571V109ZM116.345 101.364H114.839V99.5341H113.039V101.364H111.955V102.756H113.039V107.001C113.029 108.438 114.073 109.144 115.426 109.104C115.938 109.089 116.291 108.99 116.485 108.925L116.181 107.518C116.082 107.543 115.878 107.588 115.654 107.588C115.202 107.588 114.839 107.429 114.839 106.703V102.756H116.345V101.364Z" fill="#2D3748"/>
<path d="M135 104.977L139.125 100.852L140.303 102.03L135 107.333L129.697 102.03L130.875 100.852L135 104.977Z" fill="#2D3748"/>
<rect x="36.5" y="88.5" width="120" height="31" rx="5.5" stroke="#E2E8F0"/>
<rect x="12.5" y="2.5" width="487" height="141" rx="5.5" stroke="#E2E8F0"/>
</g>
<g filter="url(#filter1_dd_891_12510)">
<rect x="36" y="120" width="212" height="132" rx="6" fill="white"/>
<path d="M49.6506 147L50.6747 144.116H54.7912L55.8153 147H57.108L53.3693 136.818H52.0966L48.358 147H49.6506ZM51.0625 143.023L52.6932 138.429H52.7727L54.4034 143.023H51.0625ZM59.7081 136.818H58.5348V147H59.7081V136.818ZM63.0304 136.818H61.8571V147H63.0304V136.818ZM69.2759 147H70.5089V143.281H72.7362C75.1076 143.281 76.1765 141.839 76.1765 140.04C76.1765 138.24 75.1076 136.818 72.7163 136.818H69.2759V147ZM70.5089 142.188V137.912H72.6765C74.332 137.912 74.9634 138.817 74.9634 140.04C74.9634 141.263 74.332 142.188 72.6964 142.188H70.5089ZM78.0036 147H79.1768V142.168C79.1768 141.134 79.9922 140.378 81.1058 140.378C81.419 140.378 81.7422 140.438 81.8217 140.457V139.264C81.6875 139.254 81.3793 139.244 81.2053 139.244C80.2905 139.244 79.495 139.761 79.2166 140.517H79.1371V139.364H78.0036V147ZM86.0824 147.159C88.1506 147.159 89.5426 145.588 89.5426 143.222C89.5426 140.835 88.1506 139.264 86.0824 139.264C84.0142 139.264 82.6222 140.835 82.6222 143.222C82.6222 145.588 84.0142 147.159 86.0824 147.159ZM86.0824 146.105C84.5114 146.105 83.7955 144.753 83.7955 143.222C83.7955 141.69 84.5114 140.318 86.0824 140.318C87.6534 140.318 88.3693 141.69 88.3693 143.222C88.3693 144.753 87.6534 146.105 86.0824 146.105ZM91.3336 149.864H92.5069V145.827H92.6064C92.8649 146.244 93.362 147.159 94.8336 147.159C96.7427 147.159 98.0751 145.628 98.0751 143.202C98.0751 140.795 96.7427 139.264 94.8137 139.264C93.3223 139.264 92.8649 140.179 92.6064 140.577H92.4672V139.364H91.3336V149.864ZM92.487 143.182C92.487 141.472 93.2427 140.318 94.6745 140.318C96.166 140.318 96.9018 141.571 96.9018 143.182C96.9018 144.812 96.1461 146.105 94.6745 146.105C93.2626 146.105 92.487 144.912 92.487 143.182ZM103.067 147.159C104.618 147.159 105.751 146.384 106.109 145.23L104.976 144.912C104.677 145.707 103.986 146.105 103.067 146.105C101.689 146.105 100.74 145.215 100.685 143.58H106.229V143.082C106.229 140.239 104.538 139.264 102.947 139.264C100.879 139.264 99.5069 140.895 99.5069 143.241C99.5069 145.588 100.859 147.159 103.067 147.159ZM100.685 142.565C100.765 141.377 101.605 140.318 102.947 140.318C104.22 140.318 105.035 141.273 105.035 142.565H100.685ZM108.013 147H109.187V142.168C109.187 141.134 110.002 140.378 111.116 140.378C111.429 140.378 111.752 140.438 111.831 140.457V139.264C111.697 139.254 111.389 139.244 111.215 139.244C110.3 139.244 109.505 139.761 109.226 140.517H109.147V139.364H108.013V147ZM117.022 139.364H115.391V137.534H114.218V139.364H113.064V140.358H114.218V145.131C114.218 146.463 115.292 147.099 116.286 147.099C116.724 147.099 117.002 147.02 117.161 146.96L116.922 145.906C116.823 145.926 116.664 145.966 116.405 145.966C115.888 145.966 115.391 145.807 115.391 144.812V140.358H117.022V139.364ZM118.787 147H119.96V139.364H118.787V147ZM119.383 138.091C119.841 138.091 120.219 137.733 120.219 137.295C120.219 136.858 119.841 136.5 119.383 136.5C118.926 136.5 118.548 136.858 118.548 137.295C118.548 137.733 118.926 138.091 119.383 138.091ZM125.311 147.159C126.862 147.159 127.995 146.384 128.353 145.23L127.22 144.912C126.922 145.707 126.23 146.105 125.311 146.105C123.934 146.105 122.984 145.215 122.929 143.58H128.473V143.082C128.473 140.239 126.782 139.264 125.191 139.264C123.123 139.264 121.751 140.895 121.751 143.241C121.751 145.588 123.103 147.159 125.311 147.159ZM122.929 142.565C123.009 141.377 123.849 140.318 125.191 140.318C126.464 140.318 127.279 141.273 127.279 142.565H122.929ZM135.667 141.074C135.299 139.99 134.473 139.264 132.962 139.264C131.351 139.264 130.158 140.179 130.158 141.472C130.158 142.526 130.784 143.232 132.186 143.56L133.459 143.858C134.23 144.037 134.593 144.405 134.593 144.932C134.593 145.588 133.897 146.125 132.803 146.125C131.843 146.125 131.242 145.712 131.033 144.892L129.919 145.17C130.193 146.468 131.262 147.159 132.823 147.159C134.598 147.159 135.806 146.19 135.806 144.872C135.806 143.808 135.14 143.137 133.777 142.804L132.644 142.526C131.739 142.302 131.331 141.999 131.331 141.412C131.331 140.756 132.027 140.278 132.962 140.278C133.986 140.278 134.409 140.845 134.613 141.372L135.667 141.074Z" fill="#2D3748"/>
<rect width="212" height="44" transform="translate(36 164)" fill="#EDF2F7"/>
<path d="M49.3722 191H50.6648L55.1989 181.972V180.818H48.6761V181.912H53.9261V181.991L49.3722 191ZM60.214 191.139C62.2722 191.164 63.6145 189.613 63.6145 187.719C63.6145 185.75 62.1578 184.338 60.4128 184.338C59.3638 184.338 58.464 184.85 57.9071 185.69H57.8276C57.8326 183.21 58.7971 181.773 60.373 181.773C61.4469 181.773 62.0932 182.449 62.3219 183.364H63.535C63.2864 181.783 62.0833 180.679 60.373 180.679C58.0811 180.679 56.6742 182.707 56.6742 186.307C56.6742 190.07 58.5435 191.119 60.214 191.139ZM60.214 190.045C58.9363 190.045 58.0016 188.957 58.0066 187.739C58.0115 186.521 58.9909 185.432 60.2537 185.432C61.5016 185.432 62.4213 186.456 62.4213 187.719C62.4213 189.011 61.4618 190.045 60.214 190.045ZM71.5355 191H72.8082L75.0554 182.886H75.1349L77.3821 191H78.6548L81.4389 180.818H80.1861L78.0582 189.111H77.9588L75.7912 180.818H74.3991L72.2315 189.111H72.1321L70.0043 180.818H68.7514L71.5355 191ZM84.3523 191.179C85.6847 191.179 86.3807 190.463 86.6193 189.966H86.679V191H87.8523V185.969C87.8523 183.543 86.0028 183.264 85.0284 183.264C83.875 183.264 82.5625 183.662 81.9659 185.054L83.0795 185.452C83.3381 184.895 83.9496 184.298 85.0682 184.298C86.147 184.298 86.679 184.87 86.679 185.849V185.889C86.679 186.456 86.1023 186.406 84.7102 186.585C83.2933 186.769 81.7472 187.082 81.7472 188.832C81.7472 190.324 82.9006 191.179 84.3523 191.179ZM84.5312 190.125C83.5966 190.125 82.9205 189.707 82.9205 188.892C82.9205 187.997 83.7358 187.719 84.6506 187.599C85.1477 187.54 86.4801 187.401 86.679 187.162V188.236C86.679 189.19 85.9233 190.125 84.5312 190.125ZM91.1671 180.818H89.9938V191H91.1671V180.818ZM96.6371 183.364H95.0064V181.534H93.8331V183.364H92.6797V184.358H93.8331V189.131C93.8331 190.463 94.907 191.099 95.9013 191.099C96.3388 191.099 96.6172 191.02 96.7763 190.96L96.5376 189.906C96.4382 189.926 96.2791 189.966 96.0206 189.966C95.5036 189.966 95.0064 189.807 95.0064 188.812V184.358H96.6371V183.364ZM101.522 191.159C103.073 191.159 104.206 190.384 104.564 189.23L103.431 188.912C103.132 189.707 102.441 190.105 101.522 190.105C100.145 190.105 99.195 189.215 99.1403 187.58H104.684V187.082C104.684 184.239 102.993 183.264 101.402 183.264C99.3342 183.264 97.962 184.895 97.962 187.241C97.962 189.588 99.3143 191.159 101.522 191.159ZM99.1403 186.565C99.2198 185.377 100.06 184.318 101.402 184.318C102.675 184.318 103.49 185.273 103.49 186.565H99.1403ZM106.468 191H107.642V186.168C107.642 185.134 108.457 184.378 109.571 184.378C109.884 184.378 110.207 184.438 110.287 184.457V183.264C110.152 183.254 109.844 183.244 109.67 183.244C108.755 183.244 107.96 183.761 107.681 184.517H107.602V183.364H106.468V191ZM121.342 183.364H122.535C122.481 181.827 121.064 180.679 119.095 180.679C117.146 180.679 115.615 181.812 115.615 183.523C115.615 184.895 116.609 185.71 118.2 186.168L119.453 186.526C120.527 186.824 121.481 187.202 121.481 188.216C121.481 189.33 120.407 190.065 118.996 190.065C117.782 190.065 116.709 189.528 116.609 188.375H115.336C115.456 190.045 116.808 191.179 118.996 191.179C121.342 191.179 122.675 189.886 122.675 188.236C122.675 186.327 120.865 185.71 119.811 185.432L118.777 185.153C118.021 184.955 116.808 184.557 116.808 183.463C116.808 182.489 117.703 181.773 119.055 181.773C120.288 181.773 121.223 182.359 121.342 183.364ZM127.864 183.364H126.233V181.534H125.06V183.364H123.906V184.358H125.06V189.131C125.06 190.463 126.134 191.099 127.128 191.099C127.565 191.099 127.844 191.02 128.003 190.96L127.764 189.906C127.665 189.926 127.506 189.966 127.247 189.966C126.73 189.966 126.233 189.807 126.233 188.812V184.358H127.864V183.364ZM131.379 189.608H130.106L130.046 190.165C129.902 191.512 129.619 192.854 129.489 193.486H130.384C130.623 192.81 131.13 191.278 131.299 190.145L131.379 189.608ZM137.649 191H141.328C143.734 191 144.729 189.827 144.729 188.295C144.729 186.685 143.615 185.81 142.68 185.75V185.651C143.555 185.412 144.331 184.835 144.331 183.523C144.331 182.031 143.336 180.818 141.209 180.818H137.649V191ZM138.882 189.906V186.366H141.388C142.72 186.366 143.555 187.261 143.555 188.295C143.555 189.19 142.939 189.906 141.328 189.906H138.882ZM138.882 185.293V181.912H141.209C142.561 181.912 143.157 182.628 143.157 183.523C143.157 184.597 142.282 185.293 141.169 185.293H138.882ZM146.595 191H147.769V186.168C147.769 185.134 148.584 184.378 149.698 184.378C150.011 184.378 150.334 184.438 150.414 184.457V183.264C150.279 183.254 149.971 183.244 149.797 183.244C148.882 183.244 148.087 183.761 147.808 184.517H147.729V183.364H146.595V191ZM156.617 187.878C156.617 189.31 155.523 189.966 154.648 189.966C153.674 189.966 152.978 189.25 152.978 188.136V183.364H151.804V188.216C151.804 190.165 152.838 191.099 154.27 191.099C155.424 191.099 156.179 190.483 156.537 189.707H156.617V191H157.79V183.364H156.617V187.878ZM161.112 186.406C161.112 185.074 161.938 184.318 163.061 184.318C164.15 184.318 164.811 185.029 164.811 186.227V191H165.985V186.148C165.985 184.199 164.945 183.264 163.399 183.264C162.246 183.264 161.53 183.781 161.172 184.557H161.073V183.364H159.939V191H161.112V186.406ZM173.538 185.074C173.17 183.99 172.344 183.264 170.833 183.264C169.222 183.264 168.029 184.179 168.029 185.472C168.029 186.526 168.656 187.232 170.058 187.56L171.33 187.858C172.101 188.037 172.464 188.405 172.464 188.932C172.464 189.588 171.768 190.125 170.674 190.125C169.714 190.125 169.113 189.712 168.904 188.892L167.79 189.17C168.064 190.468 169.133 191.159 170.694 191.159C172.469 191.159 173.677 190.19 173.677 188.872C173.677 187.808 173.011 187.137 171.648 186.804L170.515 186.526C169.61 186.302 169.202 185.999 169.202 185.412C169.202 184.756 169.898 184.278 170.833 184.278C171.857 184.278 172.28 184.845 172.484 185.372L173.538 185.074ZM177.173 191H178.327L179.997 185.134H180.116L181.787 191H182.94L185.267 183.364H184.034L182.383 189.19H182.304L180.693 183.364H179.44L177.809 189.21H177.73L176.079 183.364H174.846L177.173 191ZM186.818 191H187.991V183.364H186.818V191ZM187.415 182.091C187.872 182.091 188.25 181.733 188.25 181.295C188.25 180.858 187.872 180.5 187.415 180.5C186.957 180.5 186.579 180.858 186.579 181.295C186.579 181.733 186.957 182.091 187.415 182.091ZM193.243 191.159C194.933 191.159 196.047 190.125 196.245 188.773H195.072C194.853 189.608 194.157 190.105 193.243 190.105C191.85 190.105 190.956 188.952 190.956 187.182C190.956 185.452 191.87 184.318 193.243 184.318C194.277 184.318 194.893 184.955 195.072 185.651H196.245C196.047 184.219 194.833 183.264 193.223 183.264C191.154 183.264 189.782 184.895 189.782 187.222C189.782 189.509 191.095 191.159 193.243 191.159ZM197.961 191H199.134V188.141L199.954 187.381L202.813 191H204.304L200.839 186.625L204.066 183.364H202.614L199.273 186.764H199.134V180.818H197.961V191ZM210.09 180.818H208.797L212.536 191H213.809L217.547 180.818H216.255L213.232 189.389H213.113L210.09 180.818ZM218.476 191.08C218.968 191.08 219.371 190.677 219.371 190.185C219.371 189.692 218.968 189.29 218.476 189.29C217.984 189.29 217.581 189.692 217.581 190.185C217.581 190.677 217.984 191.08 218.476 191.08ZM222.331 191.08C222.824 191.08 223.226 190.677 223.226 190.185C223.226 189.692 222.824 189.29 222.331 189.29C221.839 189.29 221.436 189.692 221.436 190.185C221.436 190.677 221.839 191.08 222.331 191.08Z" fill="#2D3748"/>
<path d="M52.4943 235.139C54.468 235.139 55.9347 233.901 55.9347 232.236C55.9347 230.943 55.169 230.004 53.8864 229.79V229.71C54.9155 229.397 55.5568 228.552 55.5568 227.403C55.5568 225.962 54.4183 224.679 52.5341 224.679C50.7741 224.679 49.3125 225.763 49.2528 227.364H50.446C50.4908 226.349 51.4553 225.753 52.5142 225.753C53.6378 225.753 54.3636 226.434 54.3636 227.463C54.3636 228.537 53.5234 229.233 52.3153 229.233H51.5V230.327H52.3153C53.8615 230.327 54.7216 231.112 54.7216 232.236C54.7216 233.315 53.782 234.045 52.4744 234.045C51.2962 234.045 50.3615 233.439 50.2869 232.455H49.0341C49.1087 234.055 50.5206 235.139 52.4943 235.139ZM57.968 235H64.3913V233.906H59.6584V233.827L61.9453 231.381C63.6953 229.506 64.2124 228.631 64.2124 227.503C64.2124 225.932 62.9396 224.679 61.1499 224.679C59.3651 224.679 58.0078 225.892 58.0078 227.682H59.1811C59.1811 226.523 59.9318 225.753 61.1101 225.753C62.2138 225.753 63.0589 226.429 63.0589 227.503C63.0589 228.442 62.5071 229.138 61.3288 230.426L57.968 234.105V235ZM67.0412 235L68.0653 232.116H72.1818L73.206 235H74.4986L70.7599 224.818H69.4872L65.7486 235H67.0412ZM68.4531 231.023L70.0838 226.429H70.1634L71.794 231.023H68.4531ZM80.022 235H81.255V230.446H85.6697V229.352H81.255V225.912H86.1271V224.818H80.022V235ZM88.0797 235H89.253V227.364H88.0797V235ZM88.6763 226.091C89.1337 226.091 89.5115 225.733 89.5115 225.295C89.5115 224.858 89.1337 224.5 88.6763 224.5C88.2189 224.5 87.8411 224.858 87.8411 225.295C87.8411 225.733 88.2189 226.091 88.6763 226.091ZM92.5753 230.406C92.5753 229.074 93.4006 228.318 94.5241 228.318C95.6129 228.318 96.2741 229.029 96.2741 230.227V235H97.4474V230.148C97.4474 228.199 96.4084 227.264 94.8622 227.264C93.7088 227.264 92.9929 227.781 92.6349 228.557H92.5355V227.364H91.402V235H92.5753V230.406ZM102.475 235.159C103.947 235.159 104.444 234.244 104.702 233.827H104.841V235H105.975V224.818H104.802V228.577H104.702C104.444 228.179 103.986 227.264 102.495 227.264C100.566 227.264 99.2335 228.795 99.2335 231.202C99.2335 233.628 100.566 235.159 102.475 235.159ZM102.634 234.105C101.162 234.105 100.407 232.812 100.407 231.182C100.407 229.571 101.143 228.318 102.634 228.318C104.066 228.318 104.822 229.472 104.822 231.182C104.822 232.912 104.046 234.105 102.634 234.105ZM109.46 224.818H108.287V235H109.46V224.818ZM113.856 235.179C115.189 235.179 115.885 234.463 116.123 233.966H116.183V235H117.356V229.969C117.356 227.543 115.507 227.264 114.532 227.264C113.379 227.264 112.066 227.662 111.47 229.054L112.583 229.452C112.842 228.895 113.453 228.298 114.572 228.298C115.651 228.298 116.183 228.87 116.183 229.849V229.889C116.183 230.456 115.606 230.406 114.214 230.585C112.797 230.769 111.251 231.082 111.251 232.832C111.251 234.324 112.404 235.179 113.856 235.179ZM114.035 234.125C113.1 234.125 112.424 233.707 112.424 232.892C112.424 231.997 113.24 231.719 114.154 231.599C114.652 231.54 115.984 231.401 116.183 231.162V232.236C116.183 233.19 115.427 234.125 114.035 234.125ZM119.98 237.864C121.039 237.864 121.785 237.302 122.227 236.114L125.479 227.384L124.196 227.364L122.088 233.449H122.008L119.9 227.364H118.628L121.452 235.04L121.233 235.636C120.805 236.8 120.278 236.909 119.423 236.69L119.125 237.724C119.244 237.784 119.582 237.864 119.98 237.864ZM136.696 227.364H137.889C137.834 225.827 136.417 224.679 134.449 224.679C132.5 224.679 130.968 225.812 130.968 227.523C130.968 228.895 131.963 229.71 133.554 230.168L134.806 230.526C135.88 230.824 136.835 231.202 136.835 232.216C136.835 233.33 135.761 234.065 134.349 234.065C133.136 234.065 132.062 233.528 131.963 232.375H130.69C130.809 234.045 132.162 235.179 134.349 235.179C136.696 235.179 138.028 233.886 138.028 232.236C138.028 230.327 136.218 229.71 135.164 229.432L134.13 229.153C133.375 228.955 132.162 228.557 132.162 227.463C132.162 226.489 133.056 225.773 134.409 225.773C135.642 225.773 136.576 226.359 136.696 227.364ZM143.217 227.364H141.586V225.534H140.413V227.364H139.26V228.358H140.413V233.131C140.413 234.463 141.487 235.099 142.481 235.099C142.919 235.099 143.197 235.02 143.356 234.96L143.118 233.906C143.018 233.926 142.859 233.966 142.601 233.966C142.084 233.966 141.586 233.807 141.586 232.812V228.358H143.217V227.364ZM146.732 233.608H145.459L145.4 234.165C145.256 235.512 144.972 236.854 144.843 237.486H145.738C145.976 236.81 146.483 235.278 146.653 234.145L146.732 233.608ZM152.446 225.912H155.647V235H156.88V225.912H160.082V224.818H152.446V225.912ZM162.999 230.406C162.999 229.074 163.849 228.318 165.008 228.318C166.111 228.318 166.778 229.014 166.778 230.227V235H167.951V230.148C167.951 228.184 166.907 227.264 165.346 227.264C164.143 227.264 163.456 227.766 163.099 228.557H162.999V224.818H161.826V235H162.999V230.406ZM173.2 235.159C175.268 235.159 176.66 233.588 176.66 231.222C176.66 228.835 175.268 227.264 173.2 227.264C171.131 227.264 169.739 228.835 169.739 231.222C169.739 233.588 171.131 235.159 173.2 235.159ZM173.2 234.105C171.629 234.105 170.913 232.753 170.913 231.222C170.913 229.69 171.629 228.318 173.2 228.318C174.771 228.318 175.487 229.69 175.487 231.222C175.487 232.753 174.771 234.105 173.2 234.105ZM178.451 235H179.624V230.168C179.624 229.134 180.439 228.378 181.553 228.378C181.866 228.378 182.189 228.438 182.269 228.457V227.264C182.135 227.254 181.827 227.244 181.653 227.244C180.738 227.244 179.942 227.761 179.664 228.517H179.584V227.364H178.451V235ZM184.833 230.406C184.833 229.074 185.658 228.318 186.782 228.318C187.871 228.318 188.532 229.029 188.532 230.227V235H189.705V230.148C189.705 228.199 188.666 227.264 187.12 227.264C185.967 227.264 185.251 227.781 184.893 228.557H184.793V227.364H183.66V235H184.833V230.406ZM192.008 235H193.142V233.827H193.281C193.54 234.244 194.037 235.159 195.508 235.159C197.417 235.159 198.75 233.628 198.75 231.202C198.75 228.795 197.417 227.264 195.488 227.264C193.997 227.264 193.54 228.179 193.281 228.577H193.182V224.818H192.008V235ZM193.162 231.182C193.162 229.472 193.917 228.318 195.349 228.318C196.841 228.318 197.577 229.571 197.577 231.182C197.577 232.812 196.821 234.105 195.349 234.105C193.937 234.105 193.162 232.912 193.162 231.182ZM205.357 231.878C205.357 233.31 204.263 233.966 203.388 233.966C202.414 233.966 201.718 233.25 201.718 232.136V227.364H200.545V232.216C200.545 234.165 201.579 235.099 203.01 235.099C204.164 235.099 204.92 234.483 205.278 233.707H205.357V235H206.53V227.364H205.357V231.878ZM208.679 235H209.853V230.168C209.853 229.134 210.668 228.378 211.782 228.378C212.095 228.378 212.418 228.438 212.498 228.457V227.264C212.363 227.254 212.055 227.244 211.881 227.244C210.966 227.244 210.171 227.761 209.892 228.517H209.813V227.364H208.679V235ZM213.868 235.08C214.361 235.08 214.763 234.677 214.763 234.185C214.763 233.692 214.361 233.29 213.868 233.29C213.376 233.29 212.974 233.692 212.974 234.185C212.974 234.677 213.376 235.08 213.868 235.08ZM217.724 235.08C218.216 235.08 218.619 234.677 218.619 234.185C218.619 233.692 218.216 233.29 217.724 233.29C217.232 233.29 216.829 233.692 216.829 234.185C216.829 234.677 217.232 235.08 217.724 235.08Z" fill="#2D3748"/>
<rect x="36.5" y="120.5" width="211" height="131" rx="5.5" stroke="#E2E8F0"/>
</g>
<path d="M235.371 212.886V194.6L248.628 207.857H240.857L240.4 207.971L235.371 212.886Z" fill="white"/>
<path d="M245.771 213.686L241.657 215.4L236.286 202.714L240.514 201L245.771 213.686Z" fill="white"/>
<path d="M240.714 204.45L238.606 205.335L242.145 213.765L244.253 212.88L240.714 204.45Z" fill="black"/>
<path d="M236.514 197.343V210.143L239.943 206.829L240.4 206.714H245.886L236.514 197.343Z" fill="black"/>
<defs>
<filter id="filter0_dd_891_12510" x="0" y="0" width="512" height="166" filterUnits="userSpaceOnUse" color-interpolation-filters="sRGB">
<feFlood flood-opacity="0" result="BackgroundImageFix"/>
<feColorMatrix in="SourceAlpha" type="matrix" values="0 0 0 0 0 0 0 0 0 0 0 0 0 0 0 0 0 0 127 0" result="hardAlpha"/>
<feMorphology radius="2" operator="erode" in="SourceAlpha" result="effect1_dropShadow_891_12510"/>
<feOffset dy="4"/>
<feGaussianBlur stdDeviation="3"/>
<feColorMatrix type="matrix" values="0 0 0 0 0 0 0 0 0 0 0 0 0 0 0 0 0 0 0.05 0"/>
<feBlend mode="normal" in2="BackgroundImageFix" result="effect1_dropShadow_891_12510"/>
<feColorMatrix in="SourceAlpha" type="matrix" values="0 0 0 0 0 0 0 0 0 0 0 0 0 0 0 0 0 0 127 0" result="hardAlpha"/>
<feMorphology radius="3" operator="erode" in="SourceAlpha" result="effect2_dropShadow_891_12510"/>
<feOffset dy="10"/>
<feGaussianBlur stdDeviation="7.5"/>
<feColorMatrix type="matrix" values="0 0 0 0 0 0 0 0 0 0 0 0 0 0 0 0 0 0 0.1 0"/>
<feBlend mode="normal" in2="effect1_dropShadow_891_12510" result="effect2_dropShadow_891_12510"/>
<feBlend mode="normal" in="SourceGraphic" in2="effect2_dropShadow_891_12510" result="shape"/>
</filter>
<filter id="filter1_dd_891_12510" x="24" y="118" width="236" height="156" filterUnits="userSpaceOnUse" color-interpolation-filters="sRGB">
<feFlood flood-opacity="0" result="BackgroundImageFix"/>
<feColorMatrix in="SourceAlpha" type="matrix" values="0 0 0 0 0 0 0 0 0 0 0 0 0 0 0 0 0 0 127 0" result="hardAlpha"/>
<feMorphology radius="2" operator="erode" in="SourceAlpha" result="effect1_dropShadow_891_12510"/>
<feOffset dy="4"/>
<feGaussianBlur stdDeviation="3"/>
<feColorMatrix type="matrix" values="0 0 0 0 0 0 0 0 0 0 0 0 0 0 0 0 0 0 0.05 0"/>
<feBlend mode="normal" in2="BackgroundImageFix" result="effect1_dropShadow_891_12510"/>
<feColorMatrix in="SourceAlpha" type="matrix" values="0 0 0 0 0 0 0 0 0 0 0 0 0 0 0 0 0 0 127 0" result="hardAlpha"/>
<feMorphology radius="3" operator="erode" in="SourceAlpha" result="effect2_dropShadow_891_12510"/>
<feOffset dy="10"/>
<feGaussianBlur stdDeviation="7.5"/>
<feColorMatrix type="matrix" values="0 0 0 0 0 0 0 0 0 0 0 0 0 0 0 0 0 0 0.1 0"/>
<feBlend mode="normal" in2="effect1_dropShadow_891_12510" result="effect2_dropShadow_891_12510"/>
<feBlend mode="normal" in="SourceGraphic" in2="effect2_dropShadow_891_12510" result="shape"/>
</filter>
<clipPath id="clip0_891_12510">
<rect width="16" height="16" fill="white" transform="translate(36 26)"/>
</clipPath>
<clipPath id="clip1_891_12510">
<rect width="16" height="16" fill="white" transform="translate(48 96)"/>
</clipPath>
</defs>
</svg>
