<svg version="1.2" baseProfile="tiny-ps" xmlns="http://www.w3.org/2000/svg" viewBox="0 0 1600 1200" width="1600" height="1200">
	<title>house-svg</title>
	<style>
		tspan { white-space:pre }
		.s0 { opacity: .3;fill: #4b58e9 } 
		.s1 { fill: #9e9d9f } 
		.s2 { fill: #edf2f7 } 
		.s3 { fill: #4b58e9 } 
		.s4 { fill: #cbd5e0 } 
		.s5 { fill: #313a9e } 
		.s6 { fill: #a0aec0 } 
		.s7 { fill: #ffffff } 
		.s8 { fill: #004c8e } 
		.s9 { fill: #87bee7 } 
		.s10 { fill: #bfd6dd } 
		.s11 { fill: #7daab5 } 
		.s12 { fill: #f1f6f8 } 
		.s13 { opacity: .1;fill: #000000 } 
		.s14 { fill: #2f855a } 
		.s15 { fill: #38a169 } 
		.s16 { fill: #22543d } 
	</style>
	<g id="Layer">
		<path id="Layer" class="s0" d="m1583.3 854.43l-489.11 245.75h-313.07l-560.96-231.74l441.12-239.04l172.62 145.08l183.46-116l565.94 195.95l0 0z" />
		<path id="Layer" class="s1" d="m1216.81 884.06l-435.7 216.25l-560.96-231.74l441.12-239.07l555.54 254.56z" />
		<path id="Layer" class="s2" d="m1045.51 340.02l-264.39 435.7l-584.11-241.34l264.39-435.7l584.12 241.34h-0.01z" />
		<path id="Layer" class="s3" d="m781.11 1100.31l-560.96-231.74v-324.58l560.96 231.73v324.59z" />
		<path id="Layer" class="s4" d="m1245.38 546.27l-31.67 15.65l-405.32 200.32l-27.28 13.48l264.39-435.7l199.88 206.25z" />
		<path id="Layer" class="s5" d="m1039.27 382.03l176.95 177.76l0.6-0.3v0.9v323.67l-435.7 216.25v-324.59l27.33-13.56l230.83-380.13l-0.01 0z" />
		<g id="Layer">
			<path id="Layer" class="s3" d="m506.35 337.97l92.79 147.31l8.6-2.68l2.49-1.52h0.38l98.71-56.82l-116.5 134.44l-131.03-50.83v-129.52v-7.84l44.57-32.52l-0.01-0.02z" />
			<path id="Layer" class="s5" d="m596.83 482.02l2.3 3.25l8.6-2.68l2.49-1.52h0.38l98.71-56.82l-14.34 20.48l-98.15 108.61l-4.01 5.35v-63.26v-19.7l4.01 6.31l0.01-0.02z" />
			<path id="Layer" class="s4" d="m607.28 482.98h-0.38l-1.33-1.92l-95.66-152.09l-2.88-4.4l154.01-88.77l2.88 4.6l1.14 2.48l95.64 151.51l-153.42 88.58v0.01z" />
			<path id="Layer" class="s6" d="m437.66 388.29l-5.73-7.27l75.56-56.81l100.25 158.39l-8.61 2.68l-92.79-147.31l-68.68 50.32h0z" />
		</g>
		<g id="Layer">
			<path id="Layer" fill-rule="evenodd" class="s7" d="m1076.85 954.18l-139.04 68.37l-0.44-275.67l139.04-68.48l0.44 275.78zm-129.7 63.77l120.39-59.38l-0.45-264.86l-120.39 59.38l0.45 264.86z" />
			<path id="Layer" class="s8" d="m1067.54 958.57l-120.39 59.38v-10.76l111.07-54.83l9.32 6.21z" />
			<path id="Layer" class="s8" d="m1067.08 693.71l0.45 264.86l-9.32-6.22l-0.45-254.1l9.32-4.55v0.01z" />
			<path id="Layer" class="s4" d="m1058.22 697.94v254.42l-111.07 54.93l-0.45-254.2l111.52-55.15v0z" />
			<g id="Layer">
				<path id="Layer" fill-rule="evenodd" class="s6" d="m969.95 869.43c-1.06 1.73-1.73 3.76-1.71 5.64c0 1.83 0.65 3.21 1.73 3.91l-7.4-4.97c-1.08-0.71-1.73-2.07-1.75-3.9c0-0.39 0.04-0.76 0.08-1.15c0.04-0.25 0.1-0.54 0.13-0.81c0.06-0.21 0.12-0.42 0.18-0.65c0.06-0.19 0.12-0.39 0.18-0.58c0.05-0.19 0.12-0.36 0.19-0.55c0.08-0.15 0.16-0.32 0.22-0.49c0.08-0.17 0.16-0.34 0.23-0.49c0.08-0.17 0.18-0.34 0.26-0.48c0.08-0.16 0.18-0.28 0.26-0.43l0.02-0.02v-0.02c0.1-0.16 0.2-0.33 0.32-0.46c0.12-0.16 0.22-0.33 0.33-0.5c0.14-0.17 0.26-0.33 0.39-0.49c0.16-0.18 0.32-0.37 0.5-0.53c0.2-0.23 0.41-0.45 0.63-0.65c0.62-0.55 1.28-1.01 1.96-1.34c0.29-0.15 0.58-0.24 0.85-0.34c0.23-0.08 0.47-0.14 0.71-0.19c0.18-0.02 0.35-0.05 0.53-0.05c0.14-0.03 0.28-0.01 0.43-0.02c0.12 0.01 0.26 0.02 0.39 0.03c0.1 0.03 0.22 0.06 0.33 0.09c0.12 0.03 0.22 0.06 0.33 0.09c0.1 0.05 0.2 0.1 0.3 0.14c0.12 0.05 0.22 0.12 0.3 0.18c0.02 0 0.02 0 0.04 0.03l7.4 4.93c-1.06-0.7-2.56-0.74-4.21 0.08c-1.62 0.78-3.07 2.24-4.13 4c-0.02 0-0.02 0-0.02-0.01z" />
				<path id="Layer" fill-rule="evenodd" class="s9" d="m974.1 865.44c3.28-1.61 5.9 0.11 5.92 3.9c0 3.67-2.6 8.05-5.88 9.64c-3.2 1.58-5.9-0.19-5.9-3.9c-0.02-3.77 2.64-8.08 5.86-9.64z" />
				<path id="Layer" fill-rule="evenodd" class="s6" d="m1052.81 949.03l0-0.01l0.01 0l-0.01 0.01zm-98.87 48.24l-0.3-100.32v-8.01l-0.4-130.34l98.9-48.24l0.37 130.34l0.02 8.01l0.28 100.31l-98.87 48.25zm5.59-111.2l87.15-42.51l-0.35-123.41l-87.16 42.53l0.36 123.4l0-0.01zm0.27 101.38l87.17-42.51l-0.27-93.4l-87.15 42.53l0.26 93.37l-0.01 0.01z" />
			</g>
		</g>
		<g id="Layer">
			<path id="Layer" class="s10" d="m1032.5 618.98l-62.98 31.15v-12.45l51.24-25.2l11.74 6.5v0z" />
			<path id="Layer" class="s7" d="m1032.48 533.64l0.02 85.34l-11.74-6.5l-0.02-72.89l11.74-5.95z" />
			<path id="Layer" class="s6" d="m1020.74 539.59l0.02 72.89l-51.24 25.2l-0.01-72.89l51.24-25.2h-0.01z" />
			<path id="Layer" class="s4" d="m969.51 564.79l37.86-18.62l0.02 57.22l-37.88-38.6z" />
			<path id="Layer" class="s4" d="m969.51 573.28l32.26 32.88l-5.62 2.76l-26.64-26.82v-8.82v0z" />
			<path id="Layer" class="s8" d="m1013.14 607.42l-0.02-64.08l7.63-3.75l0.02 72.89l-51.24 25.2v-8.8l43.62-21.45l-0.01-0.01z" />
		</g>
		<g id="Layer">
			<path id="Layer" fill-rule="evenodd" class="s7" d="m552.52 760.78l101.14 41.91v112.68l-101.14-41.91v-112.68zm8.61 106.06l83.91 35.27v-92.8l-83.91-35.27v92.8z" />
			<path id="Layer" class="s10" d="m569.74 860.22l75.31 31.95v9.94l-83.91-35.27l8.61-6.62l-0.01 0z" />
			<path id="Layer" class="s11" d="m569.74 777.36v82.86l-8.61 6.62v-92.8l8.61 3.32v0z" />
			<path id="Layer" class="s6" d="m645.05 809.31v82.86l-75.31-31.95v-82.86l75.31 31.95z" />
			<path id="Layer" class="s4" d="m584.85 847.79v-64.6l60.2 26.12l-60.2 38.48z" />
			<path id="Layer" class="s4" d="m645.05 828.84l-47.52 23.84l-6.34-2.45l53.86-31.34v9.94v0.01z" />
			<path id="Layer" class="s8" d="m645.05 882.23v9.94l-75.31-31.95v-82.86l8.61 3.32v72.92l66.69 28.63h0.01z" />
		</g>
		<g id="Layer">
			<path id="Layer" fill-rule="evenodd" class="s7" d="m429.18 719.01v112.68l-101.14-41.91v-112.68l101.14 41.91zm-8.62 99.42v-92.8l-83.91-35.27v92.8l83.91 35.27z" />
			<path id="Layer" class="s10" d="m345.26 776.54l75.31 31.95v9.94l-83.91-35.27l8.61-6.62l-0.01 0z" />
			<path id="Layer" class="s11" d="m345.26 693.68v82.86l-8.61 6.62v-92.8l8.61 3.32v0z" />
			<path id="Layer" class="s6" d="m420.56 725.63v82.86l-75.31-31.95v-82.86l75.31 31.95z" />
			<path id="Layer" class="s4" d="m360.36 764.11v-64.6l60.2 26.12l-60.2 38.48z" />
			<path id="Layer" class="s4" d="m420.56 745.16l-47.52 23.84l-6.34-2.45l53.86-31.34v9.95h0z" />
			<path id="Layer" class="s8" d="m420.56 798.55v9.94l-75.31-31.95v-82.86l8.61 3.32v72.92l66.7 28.63z" />
		</g>
		<g id="Layer">
			<path id="Layer" fill-rule="evenodd" class="s7" d="m905.54 916.69l-78.36 39.33v-154.36l78.36-39.32v154.35zm-8.06-141.01l-62.24 31.23v135.75l62.24-31.23v-135.75z" />
			<path id="Layer" class="s10" d="m897.47 911.42l-62.24 31.23v-9.31l54.18-27.19l8.06 5.26l0 0.01z" />
			<path id="Layer" class="s11" d="m897.47 775.68v135.75l-8.06-5.26v-126.44l8.06-4.05v0z" />
			<path id="Layer" class="s6" d="m889.41 779.72v126.44l-54.18 27.19v-126.44l54.18-27.19z" />
			<path id="Layer" class="s4" d="m835.23 806.91l40.03-20.09v60.49l-40.03-40.4z" />
			<path id="Layer" class="s4" d="m835.23 815.88l34.1 34.41l-5.94 2.98l-28.16-28.07v-9.32v0z" />
			<path id="Layer" class="s8" d="m881.35 900.9v-117.13l8.06-4.05v126.44l-54.18 27.19v-9.31l46.12-23.14v0z" />
			<g id="Layer">
				<path id="Layer" class="s10" d="m835.23 867.4l54.18-27.19l4.85 3.13l-59.03 29.62v-5.57v0.01z" />
				<path id="Layer" class="s12" d="m835.23 872.97l59.03-29.62v4.96l-59.03 29.62v-4.96z" />
			</g>
		</g>
		<g id="Layer">
			<path id="Layer" class="s10" d="m500.84 476.7l51.24 19.87v12.45l-62.98-24.59l11.74-7.72l0-0.01z" />
			<path id="Layer" class="s7" d="m500.85 403.81l-0.02 72.89l-11.74 7.72l0.01-85.34l11.74 4.73l0.01 0z" />
			<path id="Layer" class="s6" d="m552.09 423.68l-0.01 72.89l-51.24-19.87l0.02-72.89l51.24 19.87h-0.01z" />
			<path id="Layer" class="s4" d="m514.22 466.22l0.02-57.22l37.86 14.68l-37.88 42.54z" />
			<path id="Layer" class="s4" d="m552.09 440.98l-26.64 29.6l-5.62-2.17l32.26-36.24v8.82v-0.01z" />
			<path id="Layer" class="s8" d="m552.08 487.76v8.8l-51.24-19.87l0.02-72.89l7.63 2.95l-0.02 64.08l43.62 16.91l-0.01 0.02z" />
		</g>
		<g id="Layer">
			<path id="Layer" fill-rule="evenodd" class="s7" d="m1182.77 780.18l-78.36 39.32v-154.36l78.36-39.32v154.36zm-8.06-141.01l-62.24 31.23v135.75l62.24-31.23v-135.75z" />
			<path id="Layer" class="s10" d="m1174.71 774.92l-62.24 31.23v-9.31l54.18-27.19l8.06 5.26v0.01z" />
			<path id="Layer" class="s11" d="m1174.71 639.18v135.74l-8.06-5.26v-126.44l8.06-4.04v0z" />
			<path id="Layer" class="s6" d="m1166.65 643.22v126.44l-54.18 27.19v-126.44l54.18-27.19z" />
			<path id="Layer" class="s4" d="m1112.47 670.41l40.03-20.09v60.49l-40.03-40.4z" />
			<path id="Layer" class="s4" d="m1112.47 679.38l34.1 34.41l-5.94 2.98l-28.16-28.08v-9.32l0 0.01z" />
			<path id="Layer" class="s8" d="m1158.58 764.4v-117.13l8.06-4.05v126.44l-54.18 27.19v-9.31l46.12-23.14l0 0z" />
			<g id="Layer">
				<path id="Layer" class="s10" d="m1112.47 730.9l54.18-27.18l4.85 3.13l-59.03 29.62v-5.57z" />
				<path id="Layer" class="s12" d="m1112.47 736.47l59.03-29.62v4.96l-59.03 29.62v-4.96z" />
			</g>
		</g>
	</g>
	<g id="Layer">
		<path id="Layer" fill-rule="evenodd" class="s13" d="m185.11 908.55c18.84-10.88 49.39-10.88 68.23 0c18.84 10.88 18.84 28.51 0 39.39c-18.84 10.88-49.39 10.88-68.22 0c-18.84-10.88-18.84-28.51 0-39.39h-0.01z" />
		<g id="Layer">
			<path id="Layer" fill-rule="evenodd" class="s14" d="m223.17 729.42c38.14 0 69.07 99.45 69.07 137.6c0 38.15-30.93 69.07-69.07 69.07c-38.15 0-69.07-30.92-69.07-69.07c0-38.15 30.92-137.6 69.07-137.6h0z" />
			<path id="Layer" class="s15" d="m240.33 768.11c6.75-1.78 16.55 13.27 21.93 33.68c5.38 20.4 4.27 38.33-2.48 40.11c-6.75 1.78-16.55-13.27-21.93-33.68c-5.38-20.4-4.27-38.33 2.48-40.11h0z" />
		</g>
	</g>
	<g id="Layer">
		<path id="Layer" fill-rule="evenodd" class="s13" d="m273.64 912.86c12.09-6.98 31.69-6.98 43.78 0c12.09 6.98 12.09 18.3 0 25.28c-12.09 6.98-31.69 6.98-43.78 0c-12.09-6.98-12.09-18.3 0-25.28z" />
		<g id="Layer">
			<path id="Layer" fill-rule="evenodd" class="s16" d="m298.07 797.91c24.48 0 44.32 63.82 44.32 88.3c0 24.48-19.85 44.32-44.32 44.32c-24.48 0-44.32-19.84-44.32-44.32c0-24.48 19.84-88.3 44.32-88.3z" />
			<path id="Layer" class="s14" d="m309.09 822.69c4.33-1.14 10.62 8.52 14.07 21.61c3.45 13.09 2.74 24.6-1.59 25.74c-4.33 1.14-10.62-8.52-14.07-21.61c-3.45-13.09-2.74-24.6 1.59-25.74z" />
		</g>
	</g>
	<g id="Layer">
		<path id="Layer" fill-rule="evenodd" class="s13" d="m1275.72 908.73c-14.91 8.61-39.1 8.61-54.02 0c-14.92-8.61-14.92-22.57 0-31.19c14.92-8.61 39.1-8.61 54.02 0c14.92 8.61 14.92 22.58 0 31.19z" />
		<g id="Layer">
			<path id="Layer" fill-rule="evenodd" class="s16" d="m1300.27 844.65c0 30.2-24.48 54.69-54.69 54.69c-30.2 0-54.69-24.48-54.69-54.69c0-30.2 24.48-108.94 54.69-108.94c30.2 0 54.69 78.74 54.69 108.94v0z" />
			<path id="Layer" class="s14" d="m1216.74 824.81c-5.34-1.41-6.22-15.6-1.96-31.76c4.26-16.15 12.02-28.07 17.36-26.66c5.34 1.41 6.22 15.6 1.96 31.76c-4.26 16.15-12.02 28.07-17.36 26.66z" />
		</g>
	</g>
	<g id="Layer">
		<path id="Layer" fill-rule="evenodd" class="s13" d="m784.9 1126.64c-12.8 7.39-33.55 7.39-46.35 0c-12.8-7.39-12.8-19.37 0-26.76c12.8-7.39 33.55-7.39 46.35 0c12.8 7.39 12.8 19.37 0 26.76z" />
		<path id="Layer" class="s14" d="m761.72 1123.33c-23.98 0-43.36-19.38-43.36-43.36c0-23.98 19.38-43.36 43.36-43.36c23.98 0 43.36 19.38 43.36 43.36c0 23.98-19.38 43.36-43.36 43.36z" />
		<path id="Layer" class="s15" d="m749.71 1085.12c-9.49 0-17.15-7.67-17.15-17.15c0-9.49 7.67-17.15 17.15-17.15c9.49 0 17.15 7.67 17.15 17.15c0 9.49-7.67 17.15-17.15 17.15z" />
	</g>
</svg>