<svg version="1.2" xmlns="http://www.w3.org/2000/svg" viewBox="0 0 450 160" width="450" height="160">
	<title>logo-pkeep</title>
	<style>
		.s0 { fill: #38a169 } 
	</style>
	<path id="Shape 2" class="s0" d="m28 67c0-1.7 1.3-3 3-3h94c1.7 0 3 1.3 3 3v70c0 1.7-1.3 3-3 3h-94c-1.7 0-3-1.3-3-3z" />
	<path id="Layer 1" class="s0" d="m146.9 76c1.2 1.2-0.3 2.6-2.7 2.6l-132 0.3c-2.5 0-4-1.5-2.8-2.6l65.6-63.4c1.2-1.2 4.3-1.2 5.5 0z" />
	<path id="Layer 2" class="s0" d="m101 22c0-1.1 0.9-2 2-2h10c1.1 0 2 0.9 2 2v31c0 1.1-0.9 2-2 2h-10c-1.1 0-2-0.9-2-2z" />
	<path id="Keep" fill="#2d3748" aria-label="Keep"  d="m238.27 125l-26.6-48.64l25.2-39.56h-22.12l-22.54 40.32l24.36 49.14zm-47.6 0v-88.2h-19.6v88.2zm107.1-33.39c0.7-28.6-16.1-34.65-30.1-34.65c-14.98 0-31.5 6.55-31.5 34.65c0 31 18.9 34.65 34.3 34.65c12.04 0 22.68-3.4 22.68-3.4v-13.99c0 0-12.74 3.4-22.68 3.4c-6.16 0-14.42-1.76-14.84-14.86h42zm-19.18-5.3h-22.96c0.28-13.35 3.64-17.89 12.04-17.89c7.14 0 10.64 3.53 10.92 17.89zm88.48 5.3c0.7-28.61-16.1-34.65-30.1-34.65c-14.98 0-31.5 6.55-31.5 34.65c0 30.99 18.9 34.65 34.3 34.65c12.04 0 22.68-3.41 22.68-3.41v-13.98c0 0-12.74 3.4-22.68 3.4c-6.16 0-14.42-1.76-14.84-14.87h42zm-19.18-5.29h-22.96c0.28-13.36 3.64-17.89 12.04-17.89c7.14 0 10.64 3.53 10.92 17.89zm94.78 4.91c0-31.75-16.52-34.27-28.7-34.27c-10.5 0-17.22 7.06-17.22 7.06l-3.5-5.8h-14.98v90.72h19.6v-24.69c0 0 6.58 2.01 12.6 2.01c11.76 0 32.2-2.9 32.2-35.03zm-19.6 0c0 20.67-7 22.31-13.44 22.31c-4.76 0-11.76-1.77-11.76-1.77v-37.92c0 0 6.58-3.78 11.9-3.78c8.12 0 13.3 0.37 13.3 21.16z" />
	<path id="p" fill="#ffffff" aria-label="p"  d="m110.25 92.06c0-27.22-14.16-29.38-24.6-29.38c-9 0-14.76 6.05-14.76 6.05l-3-4.97h-12.84v77.76h16.8v-21.17c0 0 5.64 1.73 10.8 1.73c10.08 0 27.6-2.48 27.6-30.02zm-16.8 0c0 17.71-6 19.11-11.52 19.11c-4.08 0-10.08-1.51-10.08-1.51v-32.51c0 0 5.64-3.24 10.2-3.24c6.96 0 11.4 0.33 11.4 18.15zm13.64 0c0-27.22-14.16-29.38-24.6-29.38c-9 0-14.76 6.05-14.76 6.05l-3-4.97h-12.84v77.76h16.8v-21.17c0 0 5.64 1.73 10.8 1.73c10.08 0 27.6-2.48 27.6-30.02zm-16.8 0c0 17.71-6 19.11-11.52 19.11c-4.08 0-10.08-1.51-10.08-1.51v-32.51c0 0 5.64-3.24 10.2-3.24c6.96 0 11.4 0.33 11.4 18.15z" />
</svg>