<svg version="1.2" xmlns="http://www.w3.org/2000/svg" viewBox="0 0 465 160" width="465" height="160"><style>.s0{fill:#38a169}</style><path class="s0" d="m28 67c0-1.7 1.3-3 3-3h94c1.7 0 3 1.3 3 3v70c0 1.7-1.3 3-3 3h-94c-1.7 0-3-1.3-3-3z" /><path class="s0" d="m146.9 76c1.2 1.2-0.3 2.6-2.7 2.6l-132 0.3c-2.5 0-4-1.5-2.8-2.6l65.6-63.4c1.2-1.2 4.3-1.2 5.5 0z" /><path class="s0" d="m101 22c0-1.1 0.9-2 2-2h10c1.1 0 2 0.9 2 2v31c0 1.1-0.9 2-2 2h-10c-1.1 0-2-0.9-2-2z" /><path fill="#2d3748" aria-label="Track"  d="m229.07 35.8h-67.2v15.12h23.8v73.08h19.6v-73.08h21.56zm36.82 37.67v-16.75c0 0-3.5-0.76-8.26-0.76c-9.1 0-13.86 7.94-13.86 7.94l-2.52-6.68h-15.68v66.78h19.6v-49.39c0 0 5.18-2.4 9.52-2.4c4.2 0 11.2 1.26 11.2 1.26zm60.9 50.53v-46.37c0-18.39-12.18-21.67-26.74-21.67c-14 0-26.74 4.03-26.74 4.03v13.99c0 0 12.88-3.78 23.38-3.78c6.72 0 10.5 0.75 10.5 7.31v4.78h-12.88c-11.06 0-27.72 3.15-27.72 21.42c0 18.15 11.9 21.55 21 21.55c12.74 0 20.02-7.18 20.02-7.18l2.1 5.92zm-19.6-15.12c0 0-5.6 3.28-12.46 3.28c-5.04 0-8.54-1.89-8.54-8.82c0-8.57 4.34-10.97 15.4-11.22l5.6-0.12zm76.3 13.48v-13.99c0 0-10.36 2.9-16.38 2.9c-8.26 0-14.42-2.52-14.42-20.29c0-19.27 7.56-21.42 15.54-21.42c4.9 0 15.26 2.78 15.26 2.78v-13.49c0 0-6.44-2.89-15.68-2.89c-12.74 0-34.72 3.27-34.72 35.02c0 31.5 18.48 34.28 32.62 34.28c8.96 0 17.78-2.9 17.78-2.9zm70.7 1.64l-22.26-38.56l19.46-28.22h-22.54l-16.52 28.98l19.88 39.06zm-43.4 0v-90.72h-19.6v90.72z" /><path fill="#ffffff" aria-label="p"  d="m110.25 92.06c0-27.22-14.16-29.38-24.6-29.38c-9 0-14.76 6.05-14.76 6.05l-3-4.97h-12.84v77.76h16.8v-21.17c0 0 5.64 1.73 10.8 1.73c10.08 0 27.6-2.48 27.6-30.02zm-16.8 0c0 17.71-6 19.11-11.52 19.11c-4.08 0-10.08-1.51-10.08-1.51v-32.51c0 0 5.64-3.24 10.2-3.24c6.96 0 11.4 0.33 11.4 18.15zm13.64 0c0-27.22-14.16-29.38-24.6-29.38c-9 0-14.76 6.05-14.76 6.05l-3-4.97h-12.84v77.76h16.8v-21.17c0 0 5.64 1.73 10.8 1.73c10.08 0 27.6-2.48 27.6-30.02zm-16.8 0c0 17.71-6 19.11-11.52 19.11c-4.08 0-10.08-1.51-10.08-1.51v-32.51c0 0 5.64-3.24 10.2-3.24c6.96 0 11.4 0.33 11.4 18.15z" /></svg>