<svg width="1040" height="594" viewBox="0 0 1040 594" fill="none" xmlns="http://www.w3.org/2000/svg">
<g clip-path="url(#clip0_852_9425)">
<path d="M20.2472 19.2727L23.4304 24.9148V28H25.2628V24.9148L28.446 19.2727H26.3793L24.3892 23.0312H24.304L22.3139 19.2727H20.2472ZM37.5464 23.6364C37.5464 20.7812 35.7737 19.1534 33.4597 19.1534C31.133 19.1534 29.3731 20.7812 29.3731 23.6364C29.3731 26.4787 31.133 28.1193 33.4597 28.1193C35.7737 28.1193 37.5464 26.4915 37.5464 23.6364ZM35.6756 23.6364C35.6756 25.4858 34.7978 26.4872 33.4597 26.4872C32.1174 26.4872 31.2438 25.4858 31.2438 23.6364C31.2438 21.7869 32.1174 20.7855 33.4597 20.7855C34.7978 20.7855 35.6756 21.7869 35.6756 23.6364ZM44.9038 19.2727V24.7827C44.9038 25.7798 44.205 26.5 43.1311 26.5C42.0615 26.5 41.3584 25.7798 41.3584 24.7827V19.2727H39.5132V24.9403C39.5132 26.8494 40.9536 28.1236 43.1311 28.1236C45.3001 28.1236 46.749 26.8494 46.749 24.9403V19.2727H44.9038ZM48.8671 28H50.7123V24.9062H52.0589L53.7123 28H55.7492L53.8955 24.608C54.8884 24.1818 55.4381 23.3168 55.4381 22.1236C55.4381 20.3892 54.2918 19.2727 52.3103 19.2727H48.8671V28ZM50.7123 23.4233V20.7812H51.9566C53.0219 20.7812 53.5376 21.2543 53.5376 22.1236C53.5376 22.9886 53.0219 23.4233 51.9651 23.4233H50.7123ZM60.7195 28H62.5646V25.1705H64.1158C66.1229 25.1705 67.2905 23.973 67.2905 22.2301C67.2905 20.4957 66.1442 19.2727 64.1626 19.2727H60.7195V28ZM62.5646 23.6918V20.7812H63.8089C64.8743 20.7812 65.3899 21.3608 65.3899 22.2301C65.3899 23.0952 64.8743 23.6918 63.8175 23.6918H62.5646ZM69.089 28H70.9342V24.9062H72.2808L73.9342 28H75.9711L74.1174 24.608C75.1103 24.1818 75.66 23.3168 75.66 22.1236C75.66 20.3892 74.5137 19.2727 72.5322 19.2727H69.089V28ZM70.9342 23.4233V20.7812H72.1785C73.2438 20.7812 73.7594 21.2543 73.7594 22.1236C73.7594 22.9886 73.2438 23.4233 72.187 23.4233H70.9342ZM85.5839 23.6364C85.5839 20.7812 83.8112 19.1534 81.4972 19.1534C79.1705 19.1534 77.4106 20.7812 77.4106 23.6364C77.4106 26.4787 79.1705 28.1193 81.4972 28.1193C83.8112 28.1193 85.5839 26.4915 85.5839 23.6364ZM83.7131 23.6364C83.7131 25.4858 82.8353 26.4872 81.4972 26.4872C80.1549 26.4872 79.2813 25.4858 79.2813 23.6364C79.2813 21.7869 80.1549 20.7855 81.4972 20.7855C82.8353 20.7855 83.7131 21.7869 83.7131 23.6364ZM87.5507 28H89.3959V25.1705H90.947C92.9541 25.1705 94.1217 23.973 94.1217 22.2301C94.1217 20.4957 92.9754 19.2727 90.9939 19.2727H87.5507V28ZM89.3959 23.6918V20.7812H90.6402C91.7055 20.7812 92.2212 21.3608 92.2212 22.2301C92.2212 23.0952 91.7055 23.6918 90.6487 23.6918H89.3959ZM95.9202 28H101.818V26.4787H97.7654V24.3949H101.498V22.8736H97.7654V20.794H101.801V19.2727H95.9202V28ZM103.868 28H105.713V24.9062H107.06L108.713 28H110.75L108.896 24.608C109.889 24.1818 110.439 23.3168 110.439 22.1236C110.439 20.3892 109.293 19.2727 107.311 19.2727H103.868V28ZM105.713 23.4233V20.7812H106.957C108.023 20.7812 108.538 21.2543 108.538 22.1236C108.538 22.9886 108.023 23.4233 106.966 23.4233H105.713ZM112.011 20.794H114.682V28H116.506V20.794H119.178V19.2727H112.011V20.794ZM122.804 19.2727H120.959V28H122.804V19.2727ZM124.922 28H130.82V26.4787H126.767V24.3949H130.5V22.8736H126.767V20.794H130.802V19.2727H124.922V28ZM137.604 21.7827H139.372C139.347 20.2273 138.068 19.1534 136.125 19.1534C134.212 19.1534 132.81 20.2102 132.818 21.7955C132.814 23.0824 133.722 23.8196 135.196 24.1733L136.146 24.4119C137.097 24.642 137.625 24.9148 137.629 25.5028C137.625 26.142 137.02 26.5767 136.083 26.5767C135.124 26.5767 134.433 26.1335 134.374 25.2599H132.588C132.635 27.1477 133.986 28.1236 136.104 28.1236C138.235 28.1236 139.487 27.1051 139.492 25.5071C139.487 24.054 138.392 23.2827 136.875 22.9418L136.091 22.7543C135.333 22.5795 134.698 22.2983 134.71 21.6719C134.71 21.1094 135.209 20.696 136.112 20.696C136.994 20.696 137.536 21.0966 137.604 21.7827Z" fill="#2D3748"/>
<path d="M883 6C883 2.68629 885.686 0 889 0H1014C1017.31 0 1020 2.68629 1020 6V26C1020 29.3137 1017.31 32 1014 32H889C885.686 32 883 29.3137 883 26V6Z" fill="#4B58E9"/>
<path d="M901.417 15.4167V11.9167H902.583V15.4167H906.083V16.5833H902.583V20.0833H901.417V16.5833H897.917V15.4167H901.417Z" fill="white"/>
<path d="M919.312 21L920.152 18.4893H923.98L924.825 21H926.794L923.205 10.8182H920.928L917.343 21H919.312ZM920.649 17.0078L922.026 12.9062H922.106L923.483 17.0078H920.649ZM930.657 21.1342C931.969 21.1342 932.561 20.3537 932.844 19.7969H932.954V21H934.724V10.8182H932.919V14.6264H932.844C932.571 14.0746 932.009 13.2642 930.662 13.2642C928.897 13.2642 927.51 14.6463 927.51 17.1918C927.51 19.7074 928.857 21.1342 930.657 21.1342ZM931.159 19.6577C929.971 19.6577 929.344 18.6136 929.344 17.1818C929.344 15.7599 929.961 14.7408 931.159 14.7408C932.317 14.7408 932.954 15.7003 932.954 17.1818C932.954 18.6634 932.308 19.6577 931.159 19.6577ZM939.475 21.1342C940.788 21.1342 941.379 20.3537 941.663 19.7969H941.772V21H943.542V10.8182H941.737V14.6264H941.663C941.389 14.0746 940.828 13.2642 939.48 13.2642C937.715 13.2642 936.328 14.6463 936.328 17.1918C936.328 19.7074 937.676 21.1342 939.475 21.1342ZM939.977 19.6577C938.789 19.6577 938.163 18.6136 938.163 17.1818C938.163 15.7599 938.779 14.7408 939.977 14.7408C941.136 14.7408 941.772 15.7003 941.772 17.1818C941.772 18.6634 941.126 19.6577 939.977 19.6577ZM949.012 21H950.857V17.5597H952.805C955.157 17.5597 956.42 16.1477 956.42 14.1889C956.42 12.245 955.172 10.8182 952.83 10.8182H949.012V21ZM950.857 16.0433V12.3594H952.547C953.929 12.3594 954.54 13.1051 954.54 14.1889C954.54 15.2727 953.929 16.0433 952.557 16.0433H950.857ZM957.942 21H959.742V16.5107C959.742 15.5412 960.473 14.8551 961.462 14.8551C961.765 14.8551 962.143 14.9098 962.297 14.9595V13.304C962.133 13.2741 961.85 13.2543 961.651 13.2543C960.776 13.2543 960.045 13.7514 959.767 14.6364H959.687V13.3636H957.942V21ZM966.51 21.1491C968.747 21.1491 970.169 19.5732 970.169 17.2116C970.169 14.8452 968.747 13.2642 966.51 13.2642C964.272 13.2642 962.85 14.8452 962.85 17.2116C962.85 19.5732 964.272 21.1491 966.51 21.1491ZM966.52 19.7074C965.282 19.7074 964.675 18.6037 964.675 17.2067C964.675 15.8097 965.282 14.6911 966.52 14.6911C967.738 14.6911 968.344 15.8097 968.344 17.2067C968.344 18.6037 967.738 19.7074 966.52 19.7074ZM971.696 23.8636H973.496V19.7969H973.57C973.854 20.3537 974.445 21.1342 975.758 21.1342C977.558 21.1342 978.905 19.7074 978.905 17.1918C978.905 14.6463 977.518 13.2642 975.753 13.2642C974.406 13.2642 973.844 14.0746 973.57 14.6264H973.466V13.3636H971.696V23.8636ZM973.461 17.1818C973.461 15.7003 974.097 14.7408 975.256 14.7408C976.454 14.7408 977.07 15.7599 977.07 17.1818C977.07 18.6136 976.444 19.6577 975.256 19.6577C974.107 19.6577 973.461 18.6634 973.461 17.1818ZM983.827 21.1491C985.607 21.1491 986.83 20.2791 987.148 18.9517L985.468 18.7628C985.224 19.4091 984.627 19.7472 983.852 19.7472C982.688 19.7472 981.918 18.9815 981.903 17.674H987.222V17.1222C987.222 14.4425 985.612 13.2642 983.732 13.2642C981.545 13.2642 980.118 14.87 980.118 17.2266C980.118 19.6229 981.525 21.1491 983.827 21.1491ZM981.908 16.4609C981.963 15.4865 982.683 14.6662 983.757 14.6662C984.791 14.6662 985.487 15.4219 985.497 16.4609H981.908ZM988.745 21H990.545V16.5107C990.545 15.5412 991.276 14.8551 992.265 14.8551C992.568 14.8551 992.946 14.9098 993.1 14.9595V13.304C992.936 13.2741 992.653 13.2543 992.454 13.2543C991.579 13.2543 990.848 13.7514 990.57 14.6364H990.49V13.3636H988.745V21ZM998.519 13.3636H997.013V11.5341H995.213V13.3636H994.129V14.7557H995.213V19.0014C995.203 20.4382 996.247 21.1442 997.599 21.1044C998.112 21.0895 998.464 20.9901 998.658 20.9254L998.355 19.5185C998.256 19.5433 998.052 19.5881 997.828 19.5881C997.376 19.5881 997.013 19.429 997.013 18.7031V14.7557H998.519V13.3636ZM1001.14 23.8636C1002.54 23.8636 1003.36 23.1428 1003.79 21.9247L1006.86 13.3736L1004.93 13.3636L1003.17 19.1307H1003.09L1001.33 13.3636H999.418L1002.19 21.1591L1002.03 21.5717C1001.7 22.4418 1001.17 22.5014 1000.39 22.2727L999.97 23.6747C1000.21 23.7741 1000.65 23.8636 1001.14 23.8636Z" fill="white"/>
<g filter="url(#filter0_dd_852_9425)">
<rect x="20" y="42" width="1000" height="345.283" rx="6" fill="white"/>
<path d="M47 79L56 72L65 79V90C65 90.5304 64.7893 91.0391 64.4142 91.4142C64.0391 91.7893 63.5304 92 63 92H49C48.4696 92 47.9609 91.7893 47.5858 91.4142C47.2107 91.0391 47 90.5304 47 90V79Z" stroke="#2D3748" stroke-width="2" stroke-linecap="round" stroke-linejoin="round"/>
<path d="M53 92V82H59V92" stroke="#2D3748" stroke-width="2" stroke-linecap="round" stroke-linejoin="round"/>
<path d="M79.7543 90H82.929L88.9659 78.0043V75.4545H78.7599V77.9688H85.7841V78.0682L79.7543 90ZM96.3434 90.1989C99.582 90.2131 101.791 88.0895 101.784 85.1278C101.791 82.4006 99.8874 80.4332 97.3093 80.4332C95.7113 80.4332 94.2979 81.2003 93.6445 82.4858H93.5451C93.5593 79.652 94.5536 77.8906 96.4499 77.8906C97.565 77.8906 98.3675 78.5014 98.6019 79.517H101.635C101.343 77.1236 99.3548 75.2557 96.4499 75.2557C92.8562 75.2557 90.5479 78.1676 90.5337 83.054C90.5266 88.3807 93.3533 90.1847 96.3434 90.1989ZM96.3292 87.7841C94.9087 87.7841 93.8576 86.6406 93.8576 85.2202C93.8647 83.8068 94.9371 82.6562 96.3505 82.6562C97.771 82.6562 98.8079 83.7713 98.8008 85.2131C98.8079 86.669 97.7496 87.7841 96.3292 87.7841ZM111.952 90H114.95L117.712 80.4901H117.826L120.596 90H123.593L127.755 75.4545H124.396L121.988 85.5824H121.86L119.211 75.4545H116.335L113.678 85.5611H113.558L111.15 75.4545H107.79L111.952 90ZM131.283 90.206C132.895 90.206 133.939 89.5028 134.472 88.4872H134.557V90H137.426V82.642C137.426 80.0426 135.225 78.9489 132.796 78.9489C130.182 78.9489 128.463 80.1989 128.044 82.1875L130.843 82.4148C131.049 81.6903 131.695 81.1577 132.782 81.1577C133.811 81.1577 134.401 81.6761 134.401 82.571V82.6136C134.401 83.3168 133.655 83.4091 131.759 83.5938C129.6 83.7926 127.661 84.517 127.661 86.9531C127.661 89.1122 129.202 90.206 131.283 90.206ZM132.15 88.1179C131.219 88.1179 130.551 87.6847 130.551 86.8537C130.551 86.0014 131.255 85.5824 132.32 85.4332C132.98 85.3409 134.06 85.1847 134.422 84.9432V86.1009C134.422 87.2443 133.478 88.1179 132.15 88.1179ZM142.799 75.4545H139.774V90H142.799V75.4545ZM151.026 79.0909H148.973V76.4773H145.947V79.0909H144.456V81.3636H145.947V87.0455C145.933 89.1832 147.389 90.2415 149.584 90.1491C150.365 90.1207 150.919 89.9645 151.224 89.8651L150.749 87.6136C150.599 87.642 150.28 87.7131 149.996 87.7131C149.392 87.7131 148.973 87.4858 148.973 86.6477V81.3636H151.026V79.0909ZM157.851 90.2131C160.55 90.2131 162.368 88.8991 162.794 86.875L159.996 86.6903C159.69 87.5213 158.909 87.9545 157.901 87.9545C156.388 87.9545 155.429 86.9531 155.429 85.3267V85.3196H162.858V84.4886C162.858 80.7812 160.614 78.9489 157.73 78.9489C154.52 78.9489 152.439 81.2287 152.439 84.5952C152.439 88.054 154.491 90.2131 157.851 90.2131ZM155.429 83.4446C155.493 82.2017 156.438 81.2074 157.78 81.2074C159.094 81.2074 160.003 82.1449 160.01 83.4446H155.429ZM164.832 90H167.858V83.8281C167.858 82.4858 168.838 81.5625 170.173 81.5625C170.592 81.5625 171.168 81.6335 171.452 81.7259V79.0412C171.182 78.9773 170.805 78.9347 170.5 78.9347C169.278 78.9347 168.277 79.6449 167.879 80.9943H167.766V79.0909H164.832V90ZM185.592 79.6378H188.54C188.497 77.0455 186.366 75.2557 183.128 75.2557C179.939 75.2557 177.602 77.017 177.616 79.6591C177.609 81.804 179.122 83.0327 181.58 83.6222L183.163 84.0199C184.747 84.4034 185.628 84.858 185.635 85.8381C185.628 86.9034 184.619 87.6278 183.057 87.6278C181.459 87.6278 180.308 86.8892 180.209 85.4332H177.233C177.311 88.5795 179.562 90.206 183.092 90.206C186.643 90.206 188.732 88.5085 188.739 85.8452C188.732 83.4233 186.906 82.1378 184.378 81.5696L183.071 81.2571C181.807 80.9659 180.749 80.4972 180.77 79.4531C180.77 78.5156 181.601 77.8267 183.107 77.8267C184.577 77.8267 185.479 78.4943 185.592 79.6378ZM196.553 79.0909H194.5V76.4773H191.475V79.0909H189.983V81.3636H191.475V87.0455C191.461 89.1832 192.917 90.2415 195.111 90.1491C195.892 90.1207 196.446 89.9645 196.752 89.8651L196.276 87.6136C196.127 87.642 195.807 87.7131 195.523 87.7131C194.919 87.7131 194.5 87.4858 194.5 86.6477V81.3636H196.553V79.0909ZM201.812 88.0114H199.312L199.277 88.8068C199.191 90.7386 198.637 92.7202 198.431 93.5511H200.392C200.733 92.6918 201.542 90.6747 201.734 88.7926L201.812 88.0114ZM208.581 90H214.795C218.062 90 219.802 88.2955 219.802 85.9801C219.802 83.8281 218.261 82.5284 216.606 82.4503V82.3082C218.119 81.9673 219.234 80.8949 219.234 79.1832C219.234 77.0028 217.615 75.4545 214.404 75.4545H208.581V90ZM211.656 87.4858V83.6222H214.234C215.711 83.6222 216.627 84.4744 216.627 85.6747C216.627 86.7685 215.882 87.4858 214.163 87.4858H211.656ZM211.656 81.5412V77.9403H213.993C215.356 77.9403 216.13 78.6435 216.13 79.6946C216.13 80.8452 215.193 81.5412 213.936 81.5412H211.656ZM221.746 90H224.772V83.8281C224.772 82.4858 225.752 81.5625 227.087 81.5625C227.506 81.5625 228.082 81.6335 228.366 81.7259V79.0412C228.096 78.9773 227.719 78.9347 227.414 78.9347C226.192 78.9347 225.191 79.6449 224.793 80.9943H224.68V79.0909H221.746V90ZM236.926 85.3551C236.933 86.8182 235.931 87.5852 234.845 87.5852C233.701 87.5852 232.963 86.7827 232.956 85.4972V79.0909H229.93V86.0369C229.937 88.5866 231.429 90.142 233.623 90.142C235.264 90.142 236.443 89.2969 236.933 88.0185H237.047V90H239.951V79.0909H236.926V85.3551ZM245.397 83.6932C245.404 82.2869 246.242 81.4631 247.464 81.4631C248.678 81.4631 249.41 82.2585 249.403 83.5938V90H252.428V83.054C252.428 80.5114 250.937 78.9489 248.664 78.9489C247.045 78.9489 245.873 79.7443 245.383 81.0156H245.255V79.0909H242.371V90H245.397V83.6932ZM263.89 82.2017C263.62 80.1918 262 78.9489 259.245 78.9489C256.453 78.9489 254.614 80.2415 254.621 82.3438C254.614 83.9773 255.644 85.0355 257.775 85.4616L259.664 85.8381C260.615 86.0298 261.049 86.3778 261.063 86.9247C261.049 87.571 260.346 88.0327 259.287 88.0327C258.208 88.0327 257.49 87.571 257.306 86.6832L254.33 86.8395C254.614 88.9276 256.39 90.2131 259.28 90.2131C262.107 90.2131 264.131 88.7713 264.138 86.6193C264.131 85.0426 263.101 84.098 260.985 83.6648L259.01 83.267C257.995 83.0469 257.618 82.6989 257.625 82.1733C257.618 81.5199 258.357 81.0938 259.294 81.0938C260.346 81.0938 260.971 81.669 261.12 82.3722L263.89 82.2017ZM268.195 90H271.391L273.266 83.1392H273.401L275.276 90H278.479L281.441 79.0909H278.387L276.725 86.3778H276.633L274.843 79.0909H271.839L270.077 86.4205H269.978L268.288 79.0909H265.227L268.195 90ZM283.055 90H286.081V79.0909H283.055V90ZM284.575 77.6847C285.477 77.6847 286.216 76.9957 286.216 76.1506C286.216 75.3125 285.477 74.6236 284.575 74.6236C283.68 74.6236 282.941 75.3125 282.941 76.1506C282.941 76.9957 283.68 77.6847 284.575 77.6847ZM293.433 90.2131C296.338 90.2131 298.163 88.5085 298.305 86.0014H295.45C295.273 87.1662 294.506 87.8196 293.469 87.8196C292.055 87.8196 291.139 86.6335 291.139 84.5455C291.139 82.4858 292.062 81.3068 293.469 81.3068C294.577 81.3068 295.287 82.0384 295.45 83.125H298.305C298.178 80.6037 296.267 78.9489 293.419 78.9489C290.109 78.9489 288.064 81.2429 288.064 84.5881C288.064 87.9048 290.074 90.2131 293.433 90.2131ZM300.243 90H303.268V86.5341L304.085 85.6037L307.061 90H310.605L306.35 83.8139L310.399 79.0909H306.926L303.431 83.2315H303.268V75.4545H300.243V90ZM319.197 75.4545H315.781L320.802 90H324.765L329.779 75.4545H326.37L322.847 86.5057H322.712L319.197 75.4545ZM334.605 75.4545H331.53V90H334.605V75.4545ZM349.969 80.5469C349.564 77.1875 347.022 75.2557 343.655 75.2557C339.813 75.2557 336.88 77.9688 336.88 82.7273C336.88 87.4716 339.763 90.1989 343.655 90.1989C347.384 90.1989 349.635 87.7202 349.969 85.0426L346.858 85.0284C346.567 86.5838 345.346 87.4787 343.705 87.4787C341.496 87.4787 339.998 85.8381 339.998 82.7273C339.998 79.7017 341.475 77.9759 343.726 77.9759C345.409 77.9759 346.624 78.9489 346.858 80.5469H349.969Z" fill="#2D3748"/>
<path d="M372 81C371.45 81 371 81.45 371 82C371 82.55 371.45 83 372 83C372.55 83 373 82.55 373 82C373 81.45 372.55 81 372 81ZM382 81C381.45 81 381 81.45 381 82C381 82.55 381.45 83 382 83C382.55 83 383 82.55 383 82C383 81.45 382.55 81 382 81ZM377 81C376.45 81 376 81.45 376 82C376 82.55 376.45 83 377 83C377.55 83 378 82.55 378 82C378 81.45 377.55 81 377 81Z" fill="#2D3748"/>
<path d="M49.4929 161.783H51.2614C51.2358 160.227 49.9574 159.153 48.0142 159.153C46.1009 159.153 44.6989 160.21 44.7074 161.795C44.7031 163.082 45.6108 163.82 47.0852 164.173L48.0355 164.412C48.9858 164.642 49.5142 164.915 49.5185 165.503C49.5142 166.142 48.9091 166.577 47.9716 166.577C47.0128 166.577 46.3224 166.134 46.2628 165.26H44.4773C44.5241 167.148 45.875 168.124 47.9929 168.124C50.1236 168.124 51.3764 167.105 51.3807 165.507C51.3764 164.054 50.2812 163.283 48.7642 162.942L47.9801 162.754C47.2216 162.58 46.5866 162.298 46.5994 161.672C46.5994 161.109 47.098 160.696 48.0014 160.696C48.8835 160.696 49.4247 161.097 49.4929 161.783ZM53.2218 168H55.067V164.395H58.8127V168H60.6536V159.273H58.8127V162.874H55.067V159.273H53.2218V168ZM64.2792 168L64.9269 166.01H68.0761L68.7238 168H70.7011L67.6925 159.273H65.3147L62.3019 168H64.2792ZM65.3957 164.57L66.4695 161.267H66.5377L67.6116 164.57H65.3957ZM72.3515 168H74.1967V164.906H75.5433L77.1967 168H79.2336L77.3799 164.608C78.3728 164.182 78.9225 163.317 78.9225 162.124C78.9225 160.389 77.7762 159.273 75.7947 159.273H72.3515V168ZM74.1967 163.423V160.781H75.441C76.5063 160.781 77.0219 161.254 77.0219 162.124C77.0219 162.989 76.5063 163.423 75.4495 163.423H74.1967ZM80.8265 168H86.7242V166.479H82.6717V164.395H86.4046V162.874H82.6717V160.794H86.7072V159.273H80.8265V168ZM91.8679 168C94.527 168 96.1378 166.355 96.1378 163.628C96.1378 160.909 94.527 159.273 91.8935 159.273H88.7741V168H91.8679ZM90.6193 166.419V160.854H91.7955C93.4318 160.854 94.2969 161.689 94.2969 163.628C94.2969 165.575 93.4318 166.419 91.7912 166.419H90.6193ZM103.446 168H105.245L106.902 162.294H106.971L108.633 168H110.431L112.928 159.273H110.912L109.468 165.349H109.391L107.802 159.273H106.076L104.482 165.337H104.41L102.965 159.273H100.949L103.446 168ZM116.361 159.273H114.516V168H116.361V159.273ZM118.146 160.794H120.818V168H122.642V160.794H125.314V159.273H118.146V160.794ZM127.094 168H128.94V164.395H132.685V168H134.526V159.273H132.685V162.874H128.94V159.273H127.094V168Z" fill="#2D3748"/>
<path d="M905.417 155.417V151.917H906.583V155.417H910.083V156.583H906.583V160.083H905.417V156.583H901.917V155.417H905.417Z" fill="#2D3748"/>
<path d="M923.312 161L924.152 158.489H927.98L928.825 161H930.794L927.205 150.818H924.928L921.343 161H923.312ZM924.649 157.008L926.026 152.906H926.106L927.483 157.008H924.649ZM934.657 161.134C935.969 161.134 936.561 160.354 936.844 159.797H936.954V161H938.724V150.818H936.919V154.626H936.844C936.571 154.075 936.009 153.264 934.662 153.264C932.897 153.264 931.51 154.646 931.51 157.192C931.51 159.707 932.857 161.134 934.657 161.134ZM935.159 159.658C933.971 159.658 933.344 158.614 933.344 157.182C933.344 155.76 933.961 154.741 935.159 154.741C936.317 154.741 936.954 155.7 936.954 157.182C936.954 158.663 936.308 159.658 935.159 159.658ZM943.475 161.134C944.788 161.134 945.379 160.354 945.663 159.797H945.772V161H947.542V150.818H945.737V154.626H945.663C945.389 154.075 944.828 153.264 943.48 153.264C941.715 153.264 940.328 154.646 940.328 157.192C940.328 159.707 941.676 161.134 943.475 161.134ZM943.977 159.658C942.789 159.658 942.163 158.614 942.163 157.182C942.163 155.76 942.779 154.741 943.977 154.741C945.136 154.741 945.772 155.7 945.772 157.182C945.772 158.663 945.126 159.658 943.977 159.658ZM959.43 150.818V157.316C959.43 158.594 958.54 159.509 957.143 159.509C955.741 159.509 954.857 158.594 954.857 157.316V150.818H953.012V157.47C953.012 159.658 954.653 161.154 957.143 161.154C959.624 161.154 961.275 159.658 961.275 157.47V150.818H959.43ZM969.236 155.382C968.987 154.089 967.953 153.264 966.163 153.264C964.324 153.264 963.071 154.169 963.076 155.581C963.071 156.695 963.757 157.43 965.224 157.734L966.526 158.007C967.227 158.161 967.555 158.445 967.555 158.877C967.555 159.399 966.988 159.792 966.133 159.792C965.308 159.792 964.771 159.434 964.617 158.748L962.862 158.917C963.086 160.319 964.264 161.149 966.138 161.149C968.047 161.149 969.395 160.16 969.4 158.713C969.395 157.624 968.694 156.958 967.252 156.645L965.949 156.366C965.174 156.192 964.866 155.924 964.871 155.482C964.866 154.964 965.437 154.607 966.188 154.607C967.018 154.607 967.456 155.059 967.595 155.561L969.236 155.382ZM974.264 161.149C976.044 161.149 977.267 160.279 977.585 158.952L975.905 158.763C975.661 159.409 975.065 159.747 974.289 159.747C973.126 159.747 972.355 158.982 972.34 157.674H977.66V157.122C977.66 154.442 976.049 153.264 974.17 153.264C971.982 153.264 970.556 154.87 970.556 157.227C970.556 159.623 971.963 161.149 974.264 161.149ZM972.345 156.461C972.4 155.487 973.121 154.666 974.195 154.666C975.229 154.666 975.925 155.422 975.935 156.461H972.345ZM979.183 161H980.982V156.511C980.982 155.541 981.713 154.855 982.702 154.855C983.006 154.855 983.384 154.91 983.538 154.96V153.304C983.374 153.274 983.09 153.254 982.891 153.254C982.016 153.254 981.286 153.751 981.007 154.636H980.928V153.364H979.183V161Z" fill="#2D3748"/>
<path d="M893 141H990V139H893V141ZM995 146V166H997V146H995ZM990 171H893V173H990V171ZM888 166V146H886V166H888ZM893 171C890.239 171 888 168.761 888 166H886C886 169.866 889.134 173 893 173V171ZM995 166C995 168.761 992.761 171 990 171V173C993.866 173 997 169.866 997 166H995ZM990 141C992.761 141 995 143.239 995 146H997C997 142.134 993.866 139 990 139V141ZM893 139C889.134 139 886 142.134 886 146H888C888 143.239 890.239 141 893 141V139Z" fill="#E2E8F0"/>
<line x1="44.0012" y1="183.5" x2="996" y2="184.783" stroke="#EDF2F7"/>
<path d="M64 239.283C64 226.028 74.7452 215.283 88 215.283V215.283C101.255 215.283 112 226.028 112 239.283V239.283C112 252.538 101.255 263.283 88 263.283V263.283C74.7452 263.283 64 252.538 64 239.283V239.283Z" fill="#285E61"/>
<path d="M83.2983 231.738V242.05C83.2912 243.726 82.5099 244.621 81.1179 244.621C79.8324 244.621 78.9375 243.854 78.9304 242.647H76.75C76.75 245.104 78.5966 246.482 81.0611 246.482C83.7315 246.482 85.4787 244.848 85.4858 242.05V231.738H83.2983ZM96.6133 235.559H98.7298C98.6658 233.229 96.6062 231.539 93.6516 231.539C90.7326 231.539 88.4954 233.208 88.4954 235.715C88.4954 237.739 89.9442 238.925 92.2809 239.557L93.9996 240.026C95.555 240.438 96.7553 240.949 96.7553 242.242C96.7553 243.662 95.3988 244.6 93.5309 244.6C91.8406 244.6 90.4343 243.847 90.3065 242.263H88.1048C88.2468 244.898 90.2852 246.524 93.5451 246.524C96.9613 246.524 98.9286 244.728 98.9286 242.263C98.9286 239.642 96.592 238.627 94.7454 238.172L93.3249 237.803C92.1886 237.512 90.6758 236.979 90.6829 235.587C90.6829 234.351 91.8121 233.435 93.6019 233.435C95.271 233.435 96.457 234.216 96.6133 235.559Z" fill="white"/>
<path d="M127.67 221.647V229.76C127.665 230.88 127.165 231.471 126.256 231.471C125.398 231.471 124.841 230.936 124.824 230.01H122.375C122.364 232.334 124.023 233.442 126.131 233.442C128.489 233.442 130.097 232.016 130.102 229.76V221.647H127.67ZM132.091 233.283H134.511V224.556H132.091V233.283ZM133.307 223.431C134.028 223.431 134.619 222.88 134.619 222.203C134.619 221.533 134.028 220.982 133.307 220.982C132.591 220.982 132 221.533 132 222.203C132 222.88 132.591 223.431 133.307 223.431ZM138.871 221.647H136.45V233.283H138.871V221.647ZM143.23 221.647H140.81V233.283H143.23V221.647ZM155.23 224.993H157.588C157.554 222.919 155.849 221.488 153.259 221.488C150.707 221.488 148.838 222.897 148.849 225.01C148.844 226.726 150.054 227.709 152.02 228.181L153.287 228.499C154.554 228.806 155.259 229.169 155.264 229.953C155.259 230.806 154.452 231.385 153.202 231.385C151.923 231.385 151.003 230.794 150.923 229.63H148.543C148.605 232.147 150.406 233.448 153.23 233.448C156.071 233.448 157.741 232.09 157.747 229.959C157.741 228.022 156.281 226.993 154.259 226.539L153.213 226.289C152.202 226.056 151.355 225.681 151.372 224.846C151.372 224.096 152.037 223.544 153.241 223.544C154.418 223.544 155.139 224.078 155.23 224.993ZM159.357 233.283H161.777V228.044C161.777 227.078 162.391 226.436 163.197 226.436C163.993 226.436 164.527 226.982 164.527 227.84V233.283H166.874V227.953C166.874 227.05 167.391 226.436 168.271 226.436C169.044 226.436 169.624 226.919 169.624 227.891V233.283H172.038V227.414C172.038 225.522 170.913 224.442 169.288 224.442C168.01 224.442 167.016 225.096 166.658 226.096H166.567C166.288 225.084 165.396 224.442 164.197 224.442C163.021 224.442 162.129 225.067 161.766 226.096H161.663V224.556H159.357V233.283ZM173.95 233.283H176.371V224.556H173.95V233.283ZM175.166 223.431C175.888 223.431 176.479 222.88 176.479 222.203C176.479 221.533 175.888 220.982 175.166 220.982C174.45 220.982 173.859 221.533 173.859 222.203C173.859 222.88 174.45 223.431 175.166 223.431ZM182.952 224.556H181.31V222.465H178.889V224.556H177.696V226.374H178.889V230.919C178.878 232.63 180.043 233.476 181.798 233.402C182.423 233.38 182.866 233.255 183.111 233.175L182.73 231.374C182.611 231.397 182.355 231.453 182.128 231.453C181.645 231.453 181.31 231.272 181.31 230.601V226.374H182.952V224.556ZM187.136 228.238C187.142 227.113 187.83 226.453 188.818 226.453C189.801 226.453 190.381 227.084 190.375 228.158V233.283H192.795V227.726C192.801 225.681 191.597 224.442 189.778 224.442C188.455 224.442 187.568 225.067 187.17 226.096H187.068V221.647H184.716V233.283H187.136V228.238Z" fill="#2D3748"/>
<path d="M123.074 248.647V256.84C123.074 257.615 122.756 258.053 122.04 258.053H121.821V259.147H122.06C123.531 259.147 124.247 258.252 124.247 256.84V248.647H123.074ZM123.651 247.374C124.108 247.374 124.486 247.016 124.486 246.578C124.486 246.141 124.108 245.783 123.651 245.783C123.193 245.783 122.815 246.141 122.815 246.578C122.815 247.016 123.193 247.374 123.651 247.374ZM126.396 256.283H127.569V248.647H126.396V256.283ZM126.993 247.374C127.45 247.374 127.828 247.016 127.828 246.578C127.828 246.141 127.45 245.783 126.993 245.783C126.535 245.783 126.157 246.141 126.157 246.578C126.157 247.016 126.535 247.374 126.993 247.374ZM130.892 246.101H129.718V256.283H130.892V246.101ZM134.214 246.101H133.041V256.283H134.214V246.101ZM137.218 256.363C137.71 256.363 138.113 255.96 138.113 255.468C138.113 254.975 137.71 254.573 137.218 254.573C136.726 254.573 136.323 254.975 136.323 255.468C136.323 255.96 136.726 256.363 137.218 256.363ZM145.627 250.357C145.26 249.273 144.434 248.547 142.923 248.547C141.312 248.547 140.119 249.462 140.119 250.755C140.119 251.809 140.745 252.515 142.147 252.843L143.42 253.141C144.191 253.32 144.554 253.688 144.554 254.215C144.554 254.871 143.858 255.408 142.764 255.408C141.804 255.408 141.203 254.995 140.994 254.175L139.88 254.453C140.154 255.751 141.223 256.442 142.784 256.442C144.559 256.442 145.767 255.473 145.767 254.155C145.767 253.091 145.1 252.42 143.738 252.087L142.605 251.809C141.7 251.585 141.292 251.282 141.292 250.695C141.292 250.039 141.988 249.561 142.923 249.561C143.947 249.561 144.37 250.128 144.574 250.655L145.627 250.357ZM147.533 256.283H148.706V251.51C148.706 250.392 149.521 249.601 150.436 249.601C151.326 249.601 151.948 250.183 151.948 251.053V256.283H153.141V251.311C153.141 250.327 153.757 249.601 154.831 249.601C155.666 249.601 156.382 250.044 156.382 251.172V256.283H157.556V251.172C157.556 249.377 156.591 248.547 155.229 248.547C154.135 248.547 153.335 249.049 152.942 249.84H152.862C152.485 249.024 151.818 248.547 150.814 248.547C149.82 248.547 149.084 249.024 148.766 249.84H148.666V248.647H147.533V256.283ZM159.701 256.283H160.874V248.647H159.701V256.283ZM160.297 247.374C160.755 247.374 161.133 247.016 161.133 246.578C161.133 246.141 160.755 245.783 160.297 245.783C159.84 245.783 159.462 246.141 159.462 246.578C159.462 247.016 159.84 247.374 160.297 247.374ZM166.344 248.647H164.713V246.817H163.54V248.647H162.387V249.641H163.54V254.414C163.54 255.746 164.614 256.382 165.608 256.382C166.046 256.382 166.324 256.303 166.483 256.243L166.245 255.189C166.145 255.209 165.986 255.249 165.728 255.249C165.211 255.249 164.713 255.09 164.713 254.096V249.641H166.344V248.647ZM169.446 251.689C169.446 250.357 170.297 249.601 171.455 249.601C172.559 249.601 173.225 250.297 173.225 251.51V256.283H174.398V251.431C174.398 249.467 173.354 248.547 171.793 248.547C170.59 248.547 169.904 249.049 169.546 249.84H169.446V246.101H168.273V256.283H169.446V251.689ZM182.411 258.968C183.425 258.968 184.718 258.669 185.334 258.411L185.056 257.496C184.698 257.615 183.545 258.013 182.451 258.013C179.05 258.013 177.241 256.104 177.241 252.723C177.241 249.402 179.09 247.414 182.212 247.414C185.374 247.414 186.866 249.641 186.866 251.868C186.866 254.135 186.627 255.149 185.613 255.149C185.016 255.149 184.698 254.652 184.698 254.096V249.601H183.644V250.158H183.584C183.445 249.721 182.67 249.343 181.675 249.442C180.184 249.601 179.05 250.834 179.05 252.624C179.05 254.513 179.945 255.965 181.675 256.024C182.809 256.064 183.405 255.507 183.644 254.931H183.704C183.823 255.786 184.897 256.084 185.593 256.084C187.701 256.084 187.9 253.817 187.9 251.888C187.9 249.164 185.991 246.479 182.272 246.479C178.434 246.479 176.147 248.806 176.147 252.684C176.147 256.701 178.354 258.968 182.411 258.968ZM181.834 255.01C180.542 255.01 180.084 253.837 180.084 252.564C180.084 251.411 180.741 250.417 181.874 250.417C183.067 250.417 183.704 250.894 183.704 252.564C183.704 254.215 183.167 255.01 181.834 255.01ZM192.738 259.306C194.568 259.306 196.039 258.471 196.039 256.502V248.647H194.906V249.86H194.787C194.528 249.462 194.051 248.547 192.559 248.547C190.63 248.547 189.298 250.078 189.298 252.425C189.298 254.811 190.69 256.164 192.539 256.164C194.031 256.164 194.508 255.289 194.767 254.871H194.866V256.422C194.866 257.695 193.971 258.272 192.738 258.272C191.351 258.272 190.864 257.541 190.551 257.118L189.616 257.774C190.093 258.575 191.033 259.306 192.738 259.306ZM192.699 255.11C191.227 255.11 190.471 253.996 190.471 252.405C190.471 250.854 191.207 249.601 192.699 249.601C194.13 249.601 194.886 250.755 194.886 252.405C194.886 254.096 194.11 255.11 192.699 255.11ZM198.187 256.283H199.36V251.51C199.36 250.392 200.176 249.601 201.091 249.601C201.98 249.601 202.602 250.183 202.602 251.053V256.283H203.795V251.311C203.795 250.327 204.412 249.601 205.485 249.601C206.321 249.601 207.037 250.044 207.037 251.172V256.283H208.21V251.172C208.21 249.377 207.245 248.547 205.883 248.547C204.789 248.547 203.989 249.049 203.596 249.84H203.517C203.139 249.024 202.473 248.547 201.468 248.547C200.474 248.547 199.738 249.024 199.42 249.84H199.321V248.647H198.187V256.283ZM212.602 256.462C213.935 256.462 214.631 255.746 214.869 255.249H214.929V256.283H216.102V251.252C216.102 248.826 214.253 248.547 213.278 248.547C212.125 248.547 210.812 248.945 210.216 250.337L211.33 250.735C211.588 250.178 212.2 249.581 213.318 249.581C214.397 249.581 214.929 250.153 214.929 251.132V251.172C214.929 251.739 214.352 251.689 212.96 251.868C211.543 252.052 209.997 252.365 209.997 254.115C209.997 255.607 211.151 256.462 212.602 256.462ZM212.781 255.408C211.847 255.408 211.17 254.99 211.17 254.175C211.17 253.28 211.986 253.002 212.901 252.882C213.398 252.823 214.73 252.684 214.929 252.445V253.519C214.929 254.473 214.173 255.408 212.781 255.408ZM218.244 256.283H219.417V248.647H218.244V256.283ZM218.84 247.374C219.298 247.374 219.676 247.016 219.676 246.578C219.676 246.141 219.298 245.783 218.84 245.783C218.383 245.783 218.005 246.141 218.005 246.578C218.005 247.016 218.383 247.374 218.84 247.374ZM222.739 246.101H221.566V256.283H222.739V246.101ZM225.743 256.363C226.236 256.363 226.638 255.96 226.638 255.468C226.638 254.975 226.236 254.573 225.743 254.573C225.251 254.573 224.849 254.975 224.849 255.468C224.849 255.96 225.251 256.363 225.743 256.363ZM231.846 256.442C233.536 256.442 234.65 255.408 234.849 254.056H233.676C233.457 254.891 232.761 255.388 231.846 255.388C230.454 255.388 229.559 254.235 229.559 252.465C229.559 250.735 230.474 249.601 231.846 249.601C232.88 249.601 233.497 250.238 233.676 250.934H234.849C234.65 249.502 233.437 248.547 231.826 248.547C229.758 248.547 228.386 250.178 228.386 252.505C228.386 254.792 229.698 256.442 231.846 256.442ZM239.666 256.442C241.735 256.442 243.127 254.871 243.127 252.505C243.127 250.118 241.735 248.547 239.666 248.547C237.598 248.547 236.206 250.118 236.206 252.505C236.206 254.871 237.598 256.442 239.666 256.442ZM239.666 255.388C238.095 255.388 237.379 254.036 237.379 252.505C237.379 250.973 238.095 249.601 239.666 249.601C241.237 249.601 241.953 250.973 241.953 252.505C241.953 254.036 241.237 255.388 239.666 255.388ZM244.918 256.283H246.091V251.51C246.091 250.392 246.906 249.601 247.821 249.601C248.711 249.601 249.332 250.183 249.332 251.053V256.283H250.526V251.311C250.526 250.327 251.142 249.601 252.216 249.601C253.051 249.601 253.767 250.044 253.767 251.172V256.283H254.94V251.172C254.94 249.377 253.976 248.547 252.614 248.547C251.52 248.547 250.719 249.049 250.327 249.84H250.247C249.869 249.024 249.203 248.547 248.199 248.547C247.205 248.547 246.469 249.024 246.151 249.84H246.051V248.647H244.918V256.283Z" fill="#2D3748"/>
<path d="M444 233.283C444 232.178 444.895 231.283 446 231.283H458C459.105 231.283 460 232.178 460 233.283V245.283C460 246.388 459.105 247.283 458 247.283H446C444.895 247.283 444 246.388 444 245.283V233.283Z" fill="#3182CE"/>
<path d="M451 240.869L455.596 236.273L456.303 236.98L451 242.283L447.818 239.101L448.525 238.394L451 240.869Z" fill="white"/>
<path d="M479.426 237.283C479.048 235.195 477.378 233.962 475.33 233.962C472.724 233.962 470.835 235.971 470.835 239.192C470.835 242.414 472.724 244.422 475.33 244.422C477.378 244.422 479.048 243.189 479.426 241.101H478.193C477.895 242.513 476.682 243.269 475.33 243.269C473.48 243.269 472.028 241.837 472.028 239.192C472.028 236.547 473.48 235.115 475.33 235.115C476.682 235.115 477.895 235.871 478.193 237.283H479.426ZM483.507 244.462C484.839 244.462 485.535 243.746 485.774 243.249H485.833V244.283H487.007V239.252C487.007 236.826 485.157 236.547 484.183 236.547C483.029 236.547 481.717 236.945 481.12 238.337L482.234 238.735C482.492 238.178 483.104 237.581 484.222 237.581C485.301 237.581 485.833 238.153 485.833 239.132V239.172C485.833 239.739 485.257 239.689 483.865 239.868C482.448 240.052 480.901 240.365 480.901 242.115C480.901 243.607 482.055 244.462 483.507 244.462ZM483.686 243.408C482.751 243.408 482.075 242.99 482.075 242.175C482.075 241.28 482.89 241.002 483.805 240.882C484.302 240.823 485.634 240.684 485.833 240.445V241.519C485.833 242.473 485.078 243.408 483.686 243.408ZM490.321 239.689C490.321 238.357 491.147 237.601 492.27 237.601C493.359 237.601 494.02 238.312 494.02 239.51V244.283H495.194V239.431C495.194 237.482 494.154 236.547 492.608 236.547C491.455 236.547 490.739 237.064 490.381 237.84H490.282V236.647H489.148V244.283H490.321V239.689ZM501.852 234.101H500.559L504.298 244.283H505.57L509.309 234.101H508.017L504.994 242.672H504.874L501.852 234.101ZM510.736 244.283H511.909V236.647H510.736V244.283ZM511.333 235.374C511.79 235.374 512.168 235.016 512.168 234.578C512.168 234.141 511.79 233.783 511.333 233.783C510.875 233.783 510.497 234.141 510.497 234.578C510.497 235.016 510.875 235.374 511.333 235.374ZM517.26 244.442C518.811 244.442 519.945 243.667 520.303 242.513L519.169 242.195C518.871 242.99 518.18 243.388 517.26 243.388C515.883 243.388 514.933 242.498 514.879 240.863H520.422V240.365C520.422 237.522 518.732 236.547 517.141 236.547C515.072 236.547 513.7 238.178 513.7 240.524C513.7 242.871 515.053 244.442 517.26 244.442ZM514.879 239.848C514.958 238.66 515.798 237.601 517.141 237.601C518.413 237.601 519.229 238.556 519.229 239.848H514.879ZM523.937 244.283H525.09L526.761 238.417H526.88L528.55 244.283H529.704L532.031 236.647H530.798L529.147 242.473H529.067L527.457 236.647H526.204L524.573 242.493H524.494L522.843 236.647H521.61L523.937 244.283Z" fill="#2D3748"/>
<path d="M690 233.283C690 232.178 690.895 231.283 692 231.283H704C705.105 231.283 706 232.178 706 233.283V245.283C706 246.388 705.105 247.283 704 247.283H692C690.895 247.283 690 246.388 690 245.283V233.283Z" fill="#3182CE"/>
<path d="M697 240.869L701.596 236.273L702.303 236.98L697 242.283L693.818 239.101L694.525 238.394L697 240.869Z" fill="white"/>
<path d="M725.426 237.283C725.048 235.195 723.378 233.962 721.33 233.962C718.724 233.962 716.835 235.971 716.835 239.192C716.835 242.414 718.724 244.422 721.33 244.422C723.378 244.422 725.048 243.189 725.426 241.101H724.193C723.895 242.513 722.682 243.269 721.33 243.269C719.48 243.269 718.028 241.837 718.028 239.192C718.028 236.547 719.48 235.115 721.33 235.115C722.682 235.115 723.895 235.871 724.193 237.283H725.426ZM729.507 244.462C730.839 244.462 731.535 243.746 731.774 243.249H731.833V244.283H733.007V239.252C733.007 236.826 731.157 236.547 730.183 236.547C729.029 236.547 727.717 236.945 727.12 238.337L728.234 238.735C728.492 238.178 729.104 237.581 730.222 237.581C731.301 237.581 731.833 238.153 731.833 239.132V239.172C731.833 239.739 731.257 239.689 729.865 239.868C728.448 240.052 726.901 240.365 726.901 242.115C726.901 243.607 728.055 244.462 729.507 244.462ZM729.686 243.408C728.751 243.408 728.075 242.99 728.075 242.175C728.075 241.28 728.89 241.002 729.805 240.882C730.302 240.823 731.634 240.684 731.833 240.445V241.519C731.833 242.473 731.078 243.408 729.686 243.408ZM736.321 239.689C736.321 238.357 737.147 237.601 738.27 237.601C739.359 237.601 740.02 238.312 740.02 239.51V244.283H741.194V239.431C741.194 237.482 740.154 236.547 738.608 236.547C737.455 236.547 736.739 237.064 736.381 237.84H736.282V236.647H735.148V244.283H736.321V239.689ZM747.434 244.283H753.659V243.189H748.667V239.729H753.261V238.635H748.667V235.195H753.579V234.101H747.434V244.283ZM758.526 244.442C759.997 244.442 760.494 243.527 760.753 243.11H760.892V244.283H762.026V234.101H760.852V237.86H760.753C760.494 237.462 760.037 236.547 758.546 236.547C756.617 236.547 755.284 238.078 755.284 240.485C755.284 242.911 756.617 244.442 758.526 244.442ZM758.685 243.388C757.213 243.388 756.458 242.096 756.458 240.465C756.458 238.854 757.193 237.601 758.685 237.601C760.117 237.601 760.872 238.755 760.872 240.465C760.872 242.195 760.097 243.388 758.685 243.388ZM764.338 244.283H765.511V236.647H764.338V244.283ZM764.934 235.374C765.392 235.374 765.769 235.016 765.769 234.578C765.769 234.141 765.392 233.783 764.934 233.783C764.477 233.783 764.099 234.141 764.099 234.578C764.099 235.016 764.477 235.374 764.934 235.374ZM770.981 236.647H769.35V234.817H768.177V236.647H767.023V237.641H768.177V242.414C768.177 243.746 769.251 244.382 770.245 244.382C770.683 244.382 770.961 244.303 771.12 244.243L770.881 243.189C770.782 243.209 770.623 243.249 770.364 243.249C769.847 243.249 769.35 243.09 769.35 242.096V237.641H770.981V236.647Z" fill="#2D3748"/>
<path d="M950 235.283H951.333H962" stroke="#2D3748" stroke-linecap="round" stroke-linejoin="round"/>
<path d="M953.333 235.283V233.95C953.333 233.596 953.474 233.257 953.724 233.007C953.974 232.757 954.313 232.616 954.667 232.616H957.333C957.687 232.616 958.026 232.757 958.276 233.007C958.526 233.257 958.667 233.596 958.667 233.95V235.283M960.667 235.283V244.616C960.667 244.97 960.526 245.309 960.276 245.559C960.026 245.809 959.687 245.95 959.333 245.95H952.667C952.313 245.95 951.974 245.809 951.724 245.559C951.474 245.309 951.333 244.97 951.333 244.616V235.283H960.667Z" stroke="#2D3748" stroke-linecap="round" stroke-linejoin="round"/>
<path d="M954.667 238.616V242.616" stroke="#2D3748" stroke-linecap="round" stroke-linejoin="round"/>
<path d="M957.333 238.616V242.616" stroke="#2D3748" stroke-linecap="round" stroke-linejoin="round"/>
<rect x="936.5" y="223.783" width="39" height="31" rx="5.5" stroke="#E2E8F0"/>
<path d="M64 319.283C64 306.028 74.7452 295.283 88 295.283V295.283C101.255 295.283 112 306.028 112 319.283V319.283C112 332.538 101.255 343.283 88 343.283V343.283C74.7452 343.283 64 332.538 64 319.283V319.283Z" fill="#97266D"/>
<path d="M74.8501 326.283L76.1854 322.434H81.8672L83.1953 326.283H85.5249L80.2905 311.738H77.755L72.5206 326.283H74.8501ZM76.8246 320.587L78.9695 314.38H79.0831L81.228 320.587H76.8246ZM87.6254 311.738V326.283H89.7134V315.75H89.8484L94.1381 326.262H95.8711L100.161 315.757H100.296V326.283H102.384V311.738H99.7205L95.0898 323.044H94.9194L90.2887 311.738H87.6254Z" fill="white"/>
<path d="M125.017 313.283L125.881 310.63H130.08L130.943 313.283H133.58L129.568 301.647H126.398L122.381 313.283H125.017ZM126.506 308.709L127.938 304.306H128.028L129.46 308.709H126.506ZM137.355 308.238C137.361 307.113 138.031 306.453 139.009 306.453C139.98 306.453 140.565 307.09 140.56 308.158V313.283H142.98V307.726C142.98 305.692 141.787 304.442 139.969 304.442C138.673 304.442 137.736 305.078 137.344 306.096H137.241V304.556H134.935V313.283H137.355V308.238ZM148.104 313.425C149.513 313.425 150.246 312.613 150.581 311.885H150.683V313.283H153.07V301.647H150.655V306.022H150.581C150.257 305.311 149.558 304.442 148.098 304.442C146.183 304.442 144.564 305.931 144.564 308.931C144.564 311.851 146.115 313.425 148.104 313.425ZM148.871 311.499C147.683 311.499 147.036 310.442 147.036 308.919C147.036 307.408 147.672 306.368 148.871 306.368C150.047 306.368 150.706 307.363 150.706 308.919C150.706 310.476 150.036 311.499 148.871 311.499ZM155.06 313.283H157.48V308.346C157.48 307.272 158.264 306.533 159.332 306.533C159.668 306.533 160.128 306.59 160.355 306.664V304.516C160.139 304.465 159.838 304.431 159.594 304.431C158.616 304.431 157.815 304.999 157.497 306.078H157.406V304.556H155.06V313.283ZM165.178 313.453C167.337 313.453 168.791 312.402 169.132 310.783L166.893 310.635C166.649 311.3 166.024 311.647 165.217 311.647C164.007 311.647 163.24 310.846 163.24 309.544V309.539H169.183V308.874C169.183 305.908 167.388 304.442 165.081 304.442C162.513 304.442 160.848 306.266 160.848 308.959C160.848 311.726 162.49 313.453 165.178 313.453ZM163.24 308.039C163.291 307.044 164.047 306.249 165.121 306.249C166.172 306.249 166.899 306.999 166.905 308.039H163.24ZM172.422 313.283H174.979L176.479 307.794H176.587L178.087 313.283H180.649L183.018 304.556H180.575L179.246 310.385H179.172L177.74 304.556H175.337L173.928 310.419H173.848L172.496 304.556H170.047L172.422 313.283ZM188.058 301.647V313.283H190.445V305.681H190.541L193.553 313.226H195.178L198.189 305.709H198.286V313.283H200.672V301.647H197.638L194.433 309.465H194.297L191.092 301.647H188.058ZM205.142 313.448C206.432 313.448 207.267 312.885 207.693 312.073H207.761V313.283H210.057V307.397C210.057 305.317 208.295 304.442 206.352 304.442C204.261 304.442 202.886 305.442 202.551 307.033L204.79 307.215C204.955 306.635 205.472 306.209 206.341 306.209C207.165 306.209 207.636 306.624 207.636 307.34V307.374C207.636 307.936 207.04 308.01 205.523 308.158C203.795 308.317 202.244 308.897 202.244 310.846C202.244 312.573 203.477 313.448 205.142 313.448ZM205.835 311.777C205.091 311.777 204.557 311.431 204.557 310.766C204.557 310.084 205.119 309.749 205.972 309.63C206.5 309.556 207.364 309.431 207.653 309.238V310.164C207.653 311.078 206.898 311.777 205.835 311.777ZM213.116 316.556C214.918 316.556 215.872 315.635 216.366 314.226L219.759 304.567L217.196 304.556L215.372 310.965H215.281L213.474 304.556H210.929L214.06 313.533L213.918 313.902C213.599 314.721 212.991 314.76 212.139 314.499L211.594 316.306C211.94 316.453 212.503 316.556 213.116 316.556Z" fill="#2D3748"/>
<path d="M125.321 336.462C126.653 336.462 127.349 335.746 127.588 335.249H127.648V336.283H128.821V331.252C128.821 328.826 126.972 328.547 125.997 328.547C124.844 328.547 123.531 328.945 122.935 330.337L124.048 330.735C124.307 330.178 124.918 329.581 126.037 329.581C127.116 329.581 127.648 330.153 127.648 331.132V331.172C127.648 331.739 127.071 331.689 125.679 331.868C124.262 332.052 122.716 332.365 122.716 334.115C122.716 335.607 123.869 336.462 125.321 336.462ZM125.5 335.408C124.565 335.408 123.889 334.99 123.889 334.175C123.889 333.28 124.705 333.002 125.619 332.882C126.116 332.823 127.449 332.684 127.648 332.445V333.519C127.648 334.473 126.892 335.408 125.5 335.408ZM132.136 331.689C132.136 330.357 132.961 329.601 134.085 329.601C135.173 329.601 135.835 330.312 135.835 331.51V336.283H137.008V331.431C137.008 329.482 135.969 328.547 134.423 328.547C133.269 328.547 132.553 329.064 132.195 329.84H132.096V328.647H130.963V336.283H132.136V331.689ZM142.036 336.442C143.507 336.442 144.004 335.527 144.263 335.11H144.402V336.283H145.536V326.101H144.362V329.86H144.263C144.004 329.462 143.547 328.547 142.055 328.547C140.126 328.547 138.794 330.078 138.794 332.485C138.794 334.911 140.126 336.442 142.036 336.442ZM142.195 335.388C140.723 335.388 139.967 334.096 139.967 332.465C139.967 330.854 140.703 329.601 142.195 329.601C143.626 329.601 144.382 330.755 144.382 332.465C144.382 334.195 143.607 335.388 142.195 335.388ZM147.847 336.283H149.021V331.451C149.021 330.417 149.836 329.661 150.95 329.661C151.263 329.661 151.586 329.721 151.665 329.74V328.547C151.531 328.537 151.223 328.527 151.049 328.527C150.134 328.527 149.339 329.044 149.06 329.8H148.981V328.647H147.847V336.283ZM156.026 336.442C157.577 336.442 158.71 335.667 159.068 334.513L157.935 334.195C157.636 334.99 156.945 335.388 156.026 335.388C154.648 335.388 153.699 334.498 153.644 332.863H159.188V332.365C159.188 329.522 157.497 328.547 155.906 328.547C153.838 328.547 152.466 330.178 152.466 332.524C152.466 334.871 153.818 336.442 156.026 336.442ZM153.644 331.848C153.724 330.66 154.564 329.601 155.906 329.601C157.179 329.601 157.994 330.556 157.994 331.848H153.644ZM162.702 336.283H163.856L165.526 330.417H165.646L167.316 336.283H168.469L170.796 328.647H169.563L167.913 334.473H167.833L166.222 328.647H164.969L163.339 334.493H163.259L161.609 328.647H160.376L162.702 336.283ZM172.163 336.363C172.656 336.363 173.058 335.96 173.058 335.468C173.058 334.975 172.656 334.573 172.163 334.573C171.671 334.573 171.268 334.975 171.268 335.468C171.268 335.96 171.671 336.363 172.163 336.363ZM175.164 336.283H176.337V331.51C176.337 330.392 177.152 329.601 178.067 329.601C178.957 329.601 179.578 330.183 179.578 331.053V336.283H180.772V331.311C180.772 330.327 181.388 329.601 182.462 329.601C183.297 329.601 184.013 330.044 184.013 331.172V336.283H185.186V331.172C185.186 329.377 184.222 328.547 182.86 328.547C181.766 328.547 180.966 329.049 180.573 329.84H180.493C180.115 329.024 179.449 328.547 178.445 328.547C177.451 328.547 176.715 329.024 176.397 329.84H176.297V328.647H175.164V336.283ZM189.579 336.462C190.911 336.462 191.607 335.746 191.846 335.249H191.906V336.283H193.079V331.252C193.079 328.826 191.229 328.547 190.255 328.547C189.102 328.547 187.789 328.945 187.192 330.337L188.306 330.735C188.565 330.178 189.176 329.581 190.295 329.581C191.374 329.581 191.906 330.153 191.906 331.132V331.172C191.906 331.739 191.329 331.689 189.937 331.868C188.52 332.052 186.974 332.365 186.974 334.115C186.974 335.607 188.127 336.462 189.579 336.462ZM189.758 335.408C188.823 335.408 188.147 334.99 188.147 334.175C188.147 333.28 188.962 333.002 189.877 332.882C190.374 332.823 191.707 332.684 191.906 332.445V333.519C191.906 334.473 191.15 335.408 189.758 335.408ZM195.703 339.147C196.762 339.147 197.507 338.585 197.95 337.397L201.201 328.667L199.919 328.647L197.811 334.732H197.731L195.623 328.647H194.35L197.174 336.323L196.955 336.919C196.528 338.083 196.001 338.192 195.146 337.973L194.847 339.007C194.967 339.067 195.305 339.147 195.703 339.147ZM208.62 338.968C209.634 338.968 210.927 338.669 211.543 338.411L211.265 337.496C210.907 337.615 209.754 338.013 208.66 338.013C205.259 338.013 203.45 336.104 203.45 332.723C203.45 329.402 205.299 327.414 208.421 327.414C211.583 327.414 213.075 329.641 213.075 331.868C213.075 334.135 212.836 335.149 211.822 335.149C211.225 335.149 210.907 334.652 210.907 334.096V329.601H209.853V330.158H209.793C209.654 329.721 208.879 329.343 207.884 329.442C206.393 329.601 205.259 330.834 205.259 332.624C205.259 334.513 206.154 335.965 207.884 336.024C209.018 336.064 209.614 335.507 209.853 334.931H209.913C210.032 335.786 211.106 336.084 211.802 336.084C213.91 336.084 214.109 333.817 214.109 331.888C214.109 329.164 212.2 326.479 208.481 326.479C204.643 326.479 202.356 328.806 202.356 332.684C202.356 336.701 204.563 338.968 208.62 338.968ZM208.043 335.01C206.751 335.01 206.293 333.837 206.293 332.564C206.293 331.411 206.95 330.417 208.083 330.417C209.276 330.417 209.913 330.894 209.913 332.564C209.913 334.215 209.376 335.01 208.043 335.01ZM218.947 339.306C220.777 339.306 222.248 338.471 222.248 336.502V328.647H221.115V329.86H220.996C220.737 329.462 220.26 328.547 218.768 328.547C216.839 328.547 215.507 330.078 215.507 332.425C215.507 334.811 216.899 336.164 218.748 336.164C220.24 336.164 220.717 335.289 220.976 334.871H221.075V336.422C221.075 337.695 220.18 338.272 218.947 338.272C217.56 338.272 217.073 337.541 216.76 337.118L215.825 337.774C216.302 338.575 217.242 339.306 218.947 339.306ZM218.907 335.11C217.436 335.11 216.68 333.996 216.68 332.405C216.68 330.854 217.416 329.601 218.907 329.601C220.339 329.601 221.095 330.755 221.095 332.405C221.095 334.096 220.319 335.11 218.907 335.11ZM224.396 336.283H225.569V331.51C225.569 330.392 226.385 329.601 227.3 329.601C228.189 329.601 228.811 330.183 228.811 331.053V336.283H230.004V331.311C230.004 330.327 230.621 329.601 231.694 329.601C232.53 329.601 233.246 330.044 233.246 331.172V336.283H234.419V331.172C234.419 329.377 233.454 328.547 232.092 328.547C230.998 328.547 230.198 329.049 229.805 329.84H229.726C229.348 329.024 228.682 328.547 227.677 328.547C226.683 328.547 225.947 329.024 225.629 329.84H225.53V328.647H224.396V336.283ZM238.811 336.462C240.144 336.462 240.84 335.746 241.078 335.249H241.138V336.283H242.311V331.252C242.311 328.826 240.462 328.547 239.487 328.547C238.334 328.547 237.021 328.945 236.425 330.337L237.539 330.735C237.797 330.178 238.409 329.581 239.527 329.581C240.606 329.581 241.138 330.153 241.138 331.132V331.172C241.138 331.739 240.561 331.689 239.169 331.868C237.752 332.052 236.206 332.365 236.206 334.115C236.206 335.607 237.36 336.462 238.811 336.462ZM238.99 335.408C238.056 335.408 237.379 334.99 237.379 334.175C237.379 333.28 238.195 333.002 239.11 332.882C239.607 332.823 240.939 332.684 241.138 332.445V333.519C241.138 334.473 240.382 335.408 238.99 335.408ZM244.453 336.283H245.626V328.647H244.453V336.283ZM245.049 327.374C245.507 327.374 245.885 327.016 245.885 326.578C245.885 326.141 245.507 325.783 245.049 325.783C244.592 325.783 244.214 326.141 244.214 326.578C244.214 327.016 244.592 327.374 245.049 327.374ZM248.948 326.101H247.775V336.283H248.948V326.101ZM251.952 336.363C252.445 336.363 252.847 335.96 252.847 335.468C252.847 334.975 252.445 334.573 251.952 334.573C251.46 334.573 251.058 334.975 251.058 335.468C251.058 335.96 251.46 336.363 251.952 336.363ZM258.055 336.442C259.745 336.442 260.859 335.408 261.058 334.056H259.885C259.666 334.891 258.97 335.388 258.055 335.388C256.663 335.388 255.768 334.235 255.768 332.465C255.768 330.735 256.683 329.601 258.055 329.601C259.089 329.601 259.706 330.238 259.885 330.934H261.058C260.859 329.502 259.646 328.547 258.035 328.547C255.967 328.547 254.595 330.178 254.595 332.505C254.595 334.792 255.907 336.442 258.055 336.442ZM265.875 336.442C267.944 336.442 269.336 334.871 269.336 332.505C269.336 330.118 267.944 328.547 265.875 328.547C263.807 328.547 262.415 330.118 262.415 332.505C262.415 334.871 263.807 336.442 265.875 336.442ZM265.875 335.388C264.304 335.388 263.588 334.036 263.588 332.505C263.588 330.973 264.304 329.601 265.875 329.601C267.446 329.601 268.162 330.973 268.162 332.505C268.162 334.036 267.446 335.388 265.875 335.388ZM271.127 336.283H272.3V331.51C272.3 330.392 273.115 329.601 274.03 329.601C274.92 329.601 275.541 330.183 275.541 331.053V336.283H276.735V331.311C276.735 330.327 277.351 329.601 278.425 329.601C279.26 329.601 279.976 330.044 279.976 331.172V336.283H281.149V331.172C281.149 329.377 280.185 328.547 278.823 328.547C277.729 328.547 276.928 329.049 276.536 329.84H276.456C276.078 329.024 275.412 328.547 274.408 328.547C273.414 328.547 272.678 329.024 272.36 329.84H272.26V328.647H271.127V336.283Z" fill="#2D3748"/>
<path d="M444 313.283C444 312.178 444.895 311.283 446 311.283H458C459.105 311.283 460 312.178 460 313.283V325.283C460 326.388 459.105 327.283 458 327.283H446C444.895 327.283 444 326.388 444 325.283V313.283Z" fill="#3182CE"/>
<path d="M451 320.869L455.596 316.273L456.303 316.98L451 322.283L447.818 319.101L448.525 318.394L451 320.869Z" fill="white"/>
<path d="M479.426 317.283C479.048 315.195 477.378 313.962 475.33 313.962C472.724 313.962 470.835 315.971 470.835 319.192C470.835 322.414 472.724 324.422 475.33 324.422C477.378 324.422 479.048 323.189 479.426 321.101H478.193C477.895 322.513 476.682 323.269 475.33 323.269C473.48 323.269 472.028 321.837 472.028 319.192C472.028 316.547 473.48 315.115 475.33 315.115C476.682 315.115 477.895 315.871 478.193 317.283H479.426ZM483.507 324.462C484.839 324.462 485.535 323.746 485.774 323.249H485.833V324.283H487.007V319.252C487.007 316.826 485.157 316.547 484.183 316.547C483.029 316.547 481.717 316.945 481.12 318.337L482.234 318.735C482.492 318.178 483.104 317.581 484.222 317.581C485.301 317.581 485.833 318.153 485.833 319.132V319.172C485.833 319.739 485.257 319.689 483.865 319.868C482.448 320.052 480.901 320.365 480.901 322.115C480.901 323.607 482.055 324.462 483.507 324.462ZM483.686 323.408C482.751 323.408 482.075 322.99 482.075 322.175C482.075 321.28 482.89 321.002 483.805 320.882C484.302 320.823 485.634 320.684 485.833 320.445V321.519C485.833 322.473 485.078 323.408 483.686 323.408ZM490.321 319.689C490.321 318.357 491.147 317.601 492.27 317.601C493.359 317.601 494.02 318.312 494.02 319.51V324.283H495.194V319.431C495.194 317.482 494.154 316.547 492.608 316.547C491.455 316.547 490.739 317.064 490.381 317.84H490.282V316.647H489.148V324.283H490.321V319.689ZM501.852 314.101H500.559L504.298 324.283H505.57L509.309 314.101H508.017L504.994 322.672H504.874L501.852 314.101ZM510.736 324.283H511.909V316.647H510.736V324.283ZM511.333 315.374C511.79 315.374 512.168 315.016 512.168 314.578C512.168 314.141 511.79 313.783 511.333 313.783C510.875 313.783 510.497 314.141 510.497 314.578C510.497 315.016 510.875 315.374 511.333 315.374ZM517.26 324.442C518.811 324.442 519.945 323.667 520.303 322.513L519.169 322.195C518.871 322.99 518.18 323.388 517.26 323.388C515.883 323.388 514.933 322.498 514.879 320.863H520.422V320.365C520.422 317.522 518.732 316.547 517.141 316.547C515.072 316.547 513.7 318.178 513.7 320.524C513.7 322.871 515.053 324.442 517.26 324.442ZM514.879 319.848C514.958 318.66 515.798 317.601 517.141 317.601C518.413 317.601 519.229 318.556 519.229 319.848H514.879ZM523.937 324.283H525.09L526.761 318.417H526.88L528.55 324.283H529.704L532.031 316.647H530.798L529.147 322.473H529.067L527.457 316.647H526.204L524.573 322.493H524.494L522.843 316.647H521.61L523.937 324.283Z" fill="#2D3748"/>
<path d="M690 313.283C690 312.178 690.895 311.283 692 311.283H704C705.105 311.283 706 312.178 706 313.283V325.283C706 326.388 705.105 327.283 704 327.283H692C690.895 327.283 690 326.388 690 325.283V313.283Z" fill="white"/>
<path d="M692 313.283H704V309.283H692V313.283ZM704 313.283V325.283H708V313.283H704ZM704 325.283H692V329.283H704V325.283ZM692 325.283V313.283H688V325.283H692ZM692 325.283H688C688 327.492 689.791 329.283 692 329.283V325.283ZM704 325.283V329.283C706.209 329.283 708 327.492 708 325.283H704ZM704 313.283H708C708 311.074 706.209 309.283 704 309.283V313.283ZM692 309.283C689.791 309.283 688 311.074 688 313.283H692V309.283Z" fill="#E2E8F0"/>
<path d="M725.426 317.283C725.048 315.195 723.378 313.962 721.33 313.962C718.724 313.962 716.835 315.971 716.835 319.192C716.835 322.414 718.724 324.422 721.33 324.422C723.378 324.422 725.048 323.189 725.426 321.101H724.193C723.895 322.513 722.682 323.269 721.33 323.269C719.48 323.269 718.028 321.837 718.028 319.192C718.028 316.547 719.48 315.115 721.33 315.115C722.682 315.115 723.895 315.871 724.193 317.283H725.426ZM729.507 324.462C730.839 324.462 731.535 323.746 731.774 323.249H731.833V324.283H733.007V319.252C733.007 316.826 731.157 316.547 730.183 316.547C729.029 316.547 727.717 316.945 727.12 318.337L728.234 318.735C728.492 318.178 729.104 317.581 730.222 317.581C731.301 317.581 731.833 318.153 731.833 319.132V319.172C731.833 319.739 731.257 319.689 729.865 319.868C728.448 320.052 726.901 320.365 726.901 322.115C726.901 323.607 728.055 324.462 729.507 324.462ZM729.686 323.408C728.751 323.408 728.075 322.99 728.075 322.175C728.075 321.28 728.89 321.002 729.805 320.882C730.302 320.823 731.634 320.684 731.833 320.445V321.519C731.833 322.473 731.078 323.408 729.686 323.408ZM736.321 319.689C736.321 318.357 737.147 317.601 738.27 317.601C739.359 317.601 740.02 318.312 740.02 319.51V324.283H741.194V319.431C741.194 317.482 740.154 316.547 738.608 316.547C737.455 316.547 736.739 317.064 736.381 317.84H736.282V316.647H735.148V324.283H736.321V319.689ZM747.434 324.283H753.659V323.189H748.667V319.729H753.261V318.635H748.667V315.195H753.579V314.101H747.434V324.283ZM758.526 324.442C759.997 324.442 760.494 323.527 760.753 323.11H760.892V324.283H762.026V314.101H760.852V317.86H760.753C760.494 317.462 760.037 316.547 758.546 316.547C756.617 316.547 755.284 318.078 755.284 320.485C755.284 322.911 756.617 324.442 758.526 324.442ZM758.685 323.388C757.213 323.388 756.458 322.096 756.458 320.465C756.458 318.854 757.193 317.601 758.685 317.601C760.117 317.601 760.872 318.755 760.872 320.465C760.872 322.195 760.097 323.388 758.685 323.388ZM764.338 324.283H765.511V316.647H764.338V324.283ZM764.934 315.374C765.392 315.374 765.769 315.016 765.769 314.578C765.769 314.141 765.392 313.783 764.934 313.783C764.477 313.783 764.099 314.141 764.099 314.578C764.099 315.016 764.477 315.374 764.934 315.374ZM770.981 316.647H769.35V314.817H768.177V316.647H767.023V317.641H768.177V322.414C768.177 323.746 769.251 324.382 770.245 324.382C770.683 324.382 770.961 324.303 771.12 324.243L770.881 323.189C770.782 323.209 770.623 323.249 770.364 323.249C769.847 323.249 769.35 323.09 769.35 322.096V317.641H770.981V316.647Z" fill="#2D3748"/>
<path d="M950 315.283H951.333H962" stroke="#2D3748" stroke-linecap="round" stroke-linejoin="round"/>
<path d="M953.333 315.283V313.95C953.333 313.596 953.474 313.257 953.724 313.007C953.974 312.757 954.313 312.616 954.667 312.616H957.333C957.687 312.616 958.026 312.757 958.276 313.007C958.526 313.257 958.667 313.596 958.667 313.95V315.283M960.667 315.283V324.616C960.667 324.97 960.526 325.309 960.276 325.559C960.026 325.809 959.687 325.95 959.333 325.95H952.667C952.313 325.95 951.974 325.809 951.724 325.559C951.474 325.309 951.333 324.97 951.333 324.616V315.283H960.667Z" stroke="#2D3748" stroke-linecap="round" stroke-linejoin="round"/>
<path d="M954.667 318.616V322.616" stroke="#2D3748" stroke-linecap="round" stroke-linejoin="round"/>
<path d="M957.333 318.616V322.616" stroke="#2D3748" stroke-linecap="round" stroke-linejoin="round"/>
<rect x="936.5" y="303.783" width="39" height="31" rx="5.5" stroke="#E2E8F0"/>
<rect x="20.5" y="42.5" width="999" height="344.283" rx="5.5" stroke="#E2E8F0"/>
</g>
<path d="M20.7585 447.283H22.6037V444.453H24.1548C26.1619 444.453 27.3295 443.256 27.3295 441.513C27.3295 439.779 26.1832 438.556 24.2017 438.556H20.7585V447.283ZM22.6037 442.975V440.064H23.848C24.9134 440.064 25.429 440.644 25.429 441.513C25.429 442.378 24.9134 442.975 23.8565 442.975H22.6037ZM29.1281 447.283H30.9732V444.189H32.3198L33.9732 447.283H36.0102L34.1565 443.891C35.1494 443.465 35.6991 442.6 35.6991 441.407C35.6991 439.672 34.5528 438.556 32.5712 438.556H29.1281V447.283ZM30.9732 442.706V440.064H32.2175C33.2829 440.064 33.7985 440.537 33.7985 441.407C33.7985 442.272 33.2829 442.706 32.2261 442.706H30.9732ZM45.6229 442.919C45.6229 440.064 43.8502 438.436 41.5363 438.436C39.2096 438.436 37.4496 440.064 37.4496 442.919C37.4496 445.762 39.2096 447.402 41.5363 447.402C43.8502 447.402 45.6229 445.774 45.6229 442.919ZM43.7522 442.919C43.7522 444.769 42.8744 445.77 41.5363 445.77C40.194 445.77 39.3204 444.769 39.3204 442.919C39.3204 441.07 40.194 440.069 41.5363 440.069C42.8744 440.069 43.7522 441.07 43.7522 442.919ZM47.5898 447.283H49.4349V444.453H50.9861C52.9932 444.453 54.1608 443.256 54.1608 441.513C54.1608 439.779 53.0145 438.556 51.033 438.556H47.5898V447.283ZM49.4349 442.975V440.064H50.6793C51.7446 440.064 52.2602 440.644 52.2602 441.513C52.2602 442.378 51.7446 442.975 50.6878 442.975H49.4349ZM55.9593 447.283H61.857V445.762H57.8045V443.678H61.5374V442.157H57.8045V440.077H61.84V438.556H55.9593V447.283ZM63.907 447.283H65.7521V444.189H67.0987L68.7521 447.283H70.7891L68.9354 443.891C69.9283 443.465 70.478 442.6 70.478 441.407C70.478 439.672 69.3317 438.556 67.3501 438.556H63.907V447.283ZM65.7521 442.706V440.064H66.9964C68.0618 440.064 68.5774 440.537 68.5774 441.407C68.5774 442.272 68.0618 442.706 67.005 442.706H65.7521ZM72.0496 440.077H74.7214V447.283H76.5453V440.077H79.2172V438.556H72.0496V440.077ZM82.8428 438.556H80.9976V447.283H82.8428V438.556ZM84.9609 447.283H90.8586V445.762H86.806V443.678H90.539V442.157H86.806V440.077H90.8416V438.556H84.9609V447.283ZM97.6429 441.066H99.4114C99.3858 439.51 98.1074 438.436 96.1642 438.436C94.2509 438.436 92.8489 439.493 92.8574 441.078C92.8531 442.365 93.7608 443.103 95.2352 443.456L96.1855 443.695C97.1358 443.925 97.6642 444.198 97.6685 444.786C97.6642 445.425 97.0591 445.86 96.1216 445.86C95.1628 445.86 94.4724 445.417 94.4128 444.543H92.6273C92.6741 446.431 94.025 447.407 96.1429 447.407C98.2736 447.407 99.5264 446.388 99.5307 444.79C99.5264 443.337 98.4313 442.566 96.9142 442.225L96.1301 442.037C95.3716 441.863 94.7366 441.581 94.7494 440.955C94.7494 440.392 95.248 439.979 96.1514 439.979C97.0335 439.979 97.5747 440.38 97.6429 441.066ZM109.484 441.066H111.252C111.226 439.51 109.948 438.436 108.005 438.436C106.091 438.436 104.689 439.493 104.698 441.078C104.694 442.365 105.601 443.103 107.076 443.456L108.026 443.695C108.976 443.925 109.505 444.198 109.509 444.786C109.505 445.425 108.9 445.86 107.962 445.86C107.003 445.86 106.313 445.417 106.253 444.543H104.468C104.515 446.431 105.866 447.407 107.984 447.407C110.114 447.407 111.367 446.388 111.371 444.79C111.367 443.337 110.272 442.566 108.755 442.225L107.971 442.037C107.212 441.863 106.577 441.581 106.59 440.955C106.59 440.392 107.089 439.979 107.992 439.979C108.874 439.979 109.415 440.38 109.484 441.066ZM113.212 447.283H115.058V443.678H118.803V447.283H120.644V438.556H118.803V442.157H115.058V438.556H113.212V447.283ZM124.27 447.283L124.918 445.293H128.067L128.714 447.283H130.692L127.683 438.556H125.305L122.293 447.283H124.27ZM125.386 443.853L126.46 440.55H126.528L127.602 443.853H125.386ZM132.342 447.283H134.187V444.189H135.534L137.187 447.283H139.224L137.371 443.891C138.363 443.465 138.913 442.6 138.913 441.407C138.913 439.672 137.767 438.556 135.785 438.556H132.342V447.283ZM134.187 442.706V440.064H135.432C136.497 440.064 137.013 440.537 137.013 441.407C137.013 442.272 136.497 442.706 135.44 442.706H134.187ZM140.817 447.283H146.715V445.762H142.662V443.678H146.395V442.157H142.662V440.077H146.698V438.556H140.817V447.283ZM151.859 447.283C154.518 447.283 156.128 445.638 156.128 442.911C156.128 440.192 154.518 438.556 151.884 438.556H148.765V447.283H151.859ZM150.61 445.702V440.137H151.786C153.422 440.137 154.288 440.972 154.288 442.911C154.288 444.858 153.422 445.702 151.782 445.702H150.61ZM163.437 447.283H165.235L166.893 441.577H166.961L168.623 447.283H170.421L172.919 438.556H170.903L169.458 444.632H169.382L167.792 438.556H166.066L164.473 444.62H164.4L162.956 438.556H160.94L163.437 447.283ZM176.351 438.556H174.506V447.283H176.351V438.556ZM178.137 440.077H180.809V447.283H182.633V440.077H185.305V438.556H178.137V440.077ZM187.085 447.283H188.93V443.678H192.676V447.283H194.517V438.556H192.676V442.157H188.93V438.556H187.085V447.283ZM199.504 438.556L202.687 444.198V447.283H204.52V444.198L207.703 438.556H205.636L203.646 442.314H203.561L201.571 438.556H199.504ZM216.803 442.919C216.803 440.064 215.031 438.436 212.717 438.436C210.39 438.436 208.63 440.064 208.63 442.919C208.63 445.762 210.39 447.402 212.717 447.402C215.031 447.402 216.803 445.774 216.803 442.919ZM214.933 442.919C214.933 444.769 214.055 445.77 212.717 445.77C211.374 445.77 210.501 444.769 210.501 442.919C210.501 441.07 211.374 440.069 212.717 440.069C214.055 440.069 214.933 441.07 214.933 442.919ZM224.161 438.556V444.066C224.161 445.063 223.462 445.783 222.388 445.783C221.319 445.783 220.615 445.063 220.615 444.066V438.556H218.77V444.223C218.77 446.132 220.211 447.407 222.388 447.407C224.557 447.407 226.006 446.132 226.006 444.223V438.556H224.161Z" fill="#2D3748"/>
<g filter="url(#filter1_dd_852_9425)">
<rect x="20" y="461.283" width="1000" height="112" rx="6" fill="white"/>
<path d="M47 498.283L56 491.283L65 498.283V509.283C65 509.813 64.7893 510.322 64.4142 510.697C64.0391 511.072 63.5304 511.283 63 511.283H49C48.4696 511.283 47.9609 511.072 47.5858 510.697C47.2107 510.322 47 509.813 47 509.283V498.283Z" stroke="#2D3748" stroke-width="2" stroke-linecap="round" stroke-linejoin="round"/>
<path d="M53 511.283V501.283H59V511.283" stroke="#2D3748" stroke-width="2" stroke-linecap="round" stroke-linejoin="round"/>
<path d="M84.5554 509.482C87.8224 509.482 90.1591 507.685 90.152 505.199C90.1591 503.388 89.0085 502.096 86.8707 501.826V501.712C88.4972 501.421 89.6193 500.27 89.6122 498.637C89.6193 496.343 87.6094 494.539 84.598 494.539C81.6151 494.539 79.3707 496.286 79.3281 498.8H82.2756C82.3111 497.692 83.3267 496.975 84.5838 496.975C85.8267 496.975 86.6577 497.728 86.6506 498.821C86.6577 499.965 85.6847 500.739 84.2855 500.739H82.929V502.998H84.2855C85.9332 502.998 86.9631 503.821 86.956 504.993C86.9631 506.151 85.9688 506.946 84.5625 506.946C83.206 506.946 82.1903 506.236 82.1335 505.171H79.0369C79.0866 507.713 81.3594 509.482 84.5554 509.482ZM92.3626 509.283H102.732V506.769H96.6239V506.669L98.7475 504.588C101.738 501.861 102.54 500.498 102.54 498.843C102.54 496.321 100.48 494.539 97.3626 494.539C94.3086 494.539 92.2134 496.364 92.2205 499.219H95.1396C95.1325 497.827 96.0131 496.975 97.3413 496.975C98.6197 496.975 99.5714 497.77 99.5714 499.049C99.5714 500.206 98.8612 501.002 97.5401 502.273L92.3626 507.067V509.283ZM107.553 509.283L108.632 505.966H113.881L114.96 509.283H118.256L113.241 494.738H109.278L104.257 509.283H107.553ZM109.413 503.566L111.203 498.061H111.317L113.107 503.566H109.413ZM124.635 509.283H127.711V503.274H133.627V500.739H127.711V497.273H134.266V494.738H124.635V509.283ZM136.278 509.283H139.303V498.374H136.278V509.283ZM137.798 496.968C138.7 496.968 139.438 496.279 139.438 495.434C139.438 494.596 138.7 493.907 137.798 493.907C136.903 493.907 136.164 494.596 136.164 495.434C136.164 496.279 136.903 496.968 137.798 496.968ZM144.752 502.976C144.76 501.57 145.598 500.746 146.819 500.746C148.034 500.746 148.765 501.542 148.758 502.877V509.283H151.784V502.337C151.784 499.794 150.292 498.232 148.02 498.232C146.4 498.232 145.228 499.027 144.738 500.299H144.61V498.374H141.727V509.283H144.752V502.976ZM158.188 509.461C159.95 509.461 160.866 508.445 161.285 507.536H161.413V509.283H164.396V494.738H161.377V500.206H161.285C160.88 499.319 160.006 498.232 158.181 498.232C155.788 498.232 153.763 500.093 153.763 503.843C153.763 507.493 155.702 509.461 158.188 509.461ZM159.147 507.053C157.663 507.053 156.853 505.732 156.853 503.828C156.853 501.939 157.648 500.64 159.147 500.64C160.617 500.64 161.441 501.882 161.441 503.828C161.441 505.774 160.603 507.053 159.147 507.053ZM169.909 494.738H166.883V509.283H169.909V494.738ZM175.443 509.489C177.055 509.489 178.099 508.786 178.632 507.77H178.717V509.283H181.587V501.925C181.587 499.326 179.385 498.232 176.956 498.232C174.342 498.232 172.624 499.482 172.205 501.471L175.003 501.698C175.209 500.973 175.855 500.441 176.942 500.441C177.972 500.441 178.561 500.959 178.561 501.854V501.897C178.561 502.6 177.815 502.692 175.919 502.877C173.76 503.076 171.821 503.8 171.821 506.236C171.821 508.395 173.362 509.489 175.443 509.489ZM176.31 507.401C175.379 507.401 174.712 506.968 174.712 506.137C174.712 505.284 175.415 504.865 176.48 504.716C177.141 504.624 178.22 504.468 178.582 504.226V505.384C178.582 506.527 177.638 507.401 176.31 507.401ZM185.411 513.374C187.663 513.374 188.856 512.223 189.474 510.462L193.714 498.388L190.511 498.374L188.231 506.385H188.117L185.859 498.374H182.677L186.59 509.596L186.413 510.057C186.015 511.08 185.255 511.13 184.19 510.803L183.508 513.061C183.941 513.246 184.644 513.374 185.411 513.374ZM207.838 498.921H210.786C210.743 496.328 208.613 494.539 205.374 494.539C202.185 494.539 199.848 496.3 199.863 498.942C199.855 501.087 201.368 502.316 203.826 502.905L205.409 503.303C206.993 503.686 207.874 504.141 207.881 505.121C207.874 506.186 206.865 506.911 205.303 506.911C203.705 506.911 202.554 506.172 202.455 504.716H199.479C199.557 507.863 201.809 509.489 205.338 509.489C208.89 509.489 210.978 507.792 210.985 505.128C210.978 502.706 209.152 501.421 206.624 500.853L205.317 500.54C204.053 500.249 202.995 499.78 203.016 498.736C203.016 497.799 203.847 497.11 205.353 497.11C206.823 497.11 207.725 497.777 207.838 498.921ZM218.799 498.374H216.746V495.76H213.721V498.374H212.229V500.647H213.721V506.328C213.707 508.466 215.163 509.524 217.357 509.432C218.138 509.404 218.692 509.248 218.998 509.148L218.522 506.897C218.373 506.925 218.053 506.996 217.769 506.996C217.165 506.996 216.746 506.769 216.746 505.931V500.647H218.799V498.374ZM224.058 507.294H221.558L221.523 508.09C221.438 510.022 220.884 512.003 220.678 512.834H222.638C222.979 511.975 223.788 509.958 223.98 508.076L224.058 507.294ZM234.902 497.273H239.355V509.283H242.395V497.273H246.848V494.738H234.902V497.273ZM251.784 502.976C251.791 501.57 252.65 500.746 253.886 500.746C255.115 500.746 255.839 501.534 255.832 502.877V509.283H258.858V502.337C258.865 499.78 257.359 498.232 255.086 498.232C253.431 498.232 252.324 499.013 251.826 500.299H251.699V494.738H248.758V509.283H251.784V502.976ZM266.168 509.496C269.477 509.496 271.537 507.23 271.537 503.871C271.537 500.49 269.477 498.232 266.168 498.232C262.858 498.232 260.798 500.49 260.798 503.871C260.798 507.23 262.858 509.496 266.168 509.496ZM266.182 507.152C264.655 507.152 263.874 505.753 263.874 503.85C263.874 501.946 264.655 500.54 266.182 500.54C267.68 500.54 268.462 501.946 268.462 503.85C268.462 505.753 267.68 507.152 266.182 507.152ZM273.504 509.283H276.53V503.111C276.53 501.769 277.51 500.846 278.845 500.846C279.264 500.846 279.839 500.917 280.124 501.009V498.324C279.854 498.26 279.477 498.218 279.172 498.218C277.95 498.218 276.949 498.928 276.551 500.277H276.438V498.374H273.504V509.283ZM284.713 502.976C284.721 501.57 285.559 500.746 286.78 500.746C287.995 500.746 288.726 501.542 288.719 502.877V509.283H291.745V502.337C291.745 499.794 290.253 498.232 287.98 498.232C286.361 498.232 285.189 499.027 284.699 500.299H284.571V498.374H281.688V509.283H284.713V502.976ZM294.186 509.283H297.169V507.536H297.304C297.723 508.445 298.639 509.461 300.401 509.461C302.886 509.461 304.825 507.493 304.825 503.843C304.825 500.093 302.801 498.232 300.408 498.232C298.582 498.232 297.709 499.319 297.304 500.206H297.212V494.738H294.186V509.283ZM297.148 503.828C297.148 501.882 297.972 500.64 299.442 500.64C300.94 500.64 301.736 501.939 301.736 503.828C301.736 505.732 300.926 507.053 299.442 507.053C297.986 507.053 297.148 505.774 297.148 503.828ZM313.84 504.638C313.847 506.101 312.846 506.868 311.759 506.868C310.615 506.868 309.877 506.066 309.87 504.78V498.374H306.844V505.32C306.851 507.87 308.343 509.425 310.537 509.425C312.178 509.425 313.357 508.58 313.847 507.301H313.961V509.283H316.865V498.374H313.84V504.638ZM319.286 509.283H322.311V503.111C322.311 501.769 323.291 500.846 324.626 500.846C325.045 500.846 325.621 500.917 325.905 501.009V498.324C325.635 498.26 325.259 498.218 324.953 498.218C323.732 498.218 322.73 498.928 322.332 500.277H322.219V498.374H319.286V509.283ZM329.669 513.374C331.92 513.374 333.114 512.223 333.732 510.462L337.972 498.388L334.768 498.374L332.489 506.385H332.375L330.116 498.374H326.935L330.848 509.596L330.67 510.057C330.273 511.08 329.513 511.13 328.447 510.803L327.766 513.061C328.199 513.246 328.902 513.374 329.669 513.374ZM346.833 494.738H343.417L348.439 509.283H352.402L357.416 494.738H354.007L350.484 505.789H350.349L346.833 494.738ZM362.242 494.738H359.167V509.283H362.242V494.738ZM377.606 499.83C377.201 496.471 374.658 494.539 371.292 494.539C367.45 494.539 364.516 497.252 364.516 502.01C364.516 506.755 367.4 509.482 371.292 509.482C375.021 509.482 377.272 507.003 377.606 504.326L374.495 504.311C374.204 505.867 372.982 506.762 371.342 506.762C369.133 506.762 367.634 505.121 367.634 502.01C367.634 498.985 369.112 497.259 371.363 497.259C373.046 497.259 374.261 498.232 374.495 499.83H377.606Z" fill="#2D3748"/>
<path d="M44.358 534.101L48.0369 540.087V544.283H49.2699V540.087L52.9489 534.101H51.5369L48.7131 538.854H48.5938L45.7699 534.101H44.358ZM56.4066 544.442C58.4748 544.442 59.8668 542.871 59.8668 540.505C59.8668 538.118 58.4748 536.547 56.4066 536.547C54.3384 536.547 52.9464 538.118 52.9464 540.505C52.9464 542.871 54.3384 544.442 56.4066 544.442ZM56.4066 543.388C54.8356 543.388 54.1197 542.036 54.1197 540.505C54.1197 538.973 54.8356 537.601 56.4066 537.601C57.9776 537.601 58.6935 538.973 58.6935 540.505C58.6935 542.036 57.9776 543.388 56.4066 543.388ZM66.4703 541.161C66.4703 542.593 65.3766 543.249 64.5016 543.249C63.5272 543.249 62.8311 542.533 62.8311 541.419V536.647H61.6578V541.499C61.6578 543.448 62.6919 544.382 64.1238 544.382C65.2772 544.382 66.0328 543.766 66.3908 542.99H66.4703V544.283H67.6436V536.647H66.4703V541.161ZM76.8324 544.442C78.5227 544.442 79.6364 543.408 79.8352 542.056H78.6619C78.4432 542.891 77.7472 543.388 76.8324 543.388C75.4403 543.388 74.5455 542.235 74.5455 540.465C74.5455 538.735 75.4602 537.601 76.8324 537.601C77.8665 537.601 78.483 538.238 78.6619 538.934H79.8352C79.6364 537.502 78.4233 536.547 76.8125 536.547C74.7443 536.547 73.3722 538.178 73.3722 540.505C73.3722 542.792 74.6847 544.442 76.8324 544.442ZM83.7976 544.462C85.13 544.462 85.826 543.746 86.0646 543.249H86.1243V544.283H87.2976V539.252C87.2976 536.826 85.4482 536.547 84.4737 536.547C83.3203 536.547 82.0078 536.945 81.4112 538.337L82.5249 538.735C82.7834 538.178 83.3949 537.581 84.5135 537.581C85.5923 537.581 86.1243 538.153 86.1243 539.132V539.172C86.1243 539.739 85.5476 539.689 84.1555 539.868C82.7386 540.052 81.1925 540.365 81.1925 542.115C81.1925 543.607 82.3459 544.462 83.7976 544.462ZM83.9766 543.408C83.0419 543.408 82.3658 542.99 82.3658 542.175C82.3658 541.28 83.1811 541.002 84.0959 540.882C84.593 540.823 85.9254 540.684 86.1243 540.445V541.519C86.1243 542.473 85.3686 543.408 83.9766 543.408ZM90.6124 539.689C90.6124 538.357 91.4377 537.601 92.5613 537.601C93.65 537.601 94.3113 538.312 94.3113 539.51V544.283H95.4846V539.431C95.4846 537.482 94.4455 536.547 92.8993 536.547C91.7459 536.547 91.03 537.064 90.6721 537.84H90.5726V536.647H89.4391V544.283H90.6124V539.689ZM107.81 536.647H106.538L104.43 542.732H104.35L102.242 536.647H100.969L103.793 544.283H104.987L107.81 536.647ZM109.359 544.283H110.532V536.647H109.359V544.283ZM109.956 535.374C110.413 535.374 110.791 535.016 110.791 534.578C110.791 534.141 110.413 533.783 109.956 533.783C109.498 533.783 109.12 534.141 109.12 534.578C109.12 535.016 109.498 535.374 109.956 535.374ZM115.883 544.442C117.434 544.442 118.568 543.667 118.926 542.513L117.792 542.195C117.494 542.99 116.803 543.388 115.883 543.388C114.506 543.388 113.556 542.498 113.502 540.863H119.045V540.365C119.045 537.522 117.355 536.547 115.764 536.547C113.695 536.547 112.323 538.178 112.323 540.524C112.323 542.871 113.676 544.442 115.883 544.442ZM113.502 539.848C113.581 538.66 114.421 537.601 115.764 537.601C117.036 537.601 117.852 538.556 117.852 539.848H113.502ZM122.56 544.283H123.713L125.384 538.417H125.503L127.173 544.283H128.327L130.654 536.647H129.421L127.77 542.473H127.691L126.08 536.647H124.827L123.196 542.493H123.117L121.466 536.647H120.233L122.56 544.283ZM138.389 544.462C139.722 544.462 140.418 543.746 140.656 543.249H140.716V544.283H141.889V539.252C141.889 536.826 140.04 536.547 139.066 536.547C137.912 536.547 136.6 536.945 136.003 538.337L137.117 538.735C137.375 538.178 137.987 537.581 139.105 537.581C140.184 537.581 140.716 538.153 140.716 539.132V539.172C140.716 539.739 140.139 539.689 138.747 539.868C137.33 540.052 135.784 540.365 135.784 542.115C135.784 543.607 136.938 544.462 138.389 544.462ZM138.568 543.408C137.634 543.408 136.958 542.99 136.958 542.175C136.958 541.28 137.773 541.002 138.688 540.882C139.185 540.823 140.517 540.684 140.716 540.445V541.519C140.716 542.473 139.96 543.408 138.568 543.408ZM145.204 539.689C145.204 538.357 146.029 537.601 147.153 537.601C148.242 537.601 148.903 538.312 148.903 539.51V544.283H150.076V539.431C150.076 537.482 149.037 536.547 147.491 536.547C146.338 536.547 145.622 537.064 145.264 537.84H145.164V536.647H144.031V544.283H145.204V539.689ZM155.104 544.442C156.575 544.442 157.073 543.527 157.331 543.11H157.47V544.283H158.604V534.101H157.431V537.86H157.331C157.073 537.462 156.615 536.547 155.124 536.547C153.195 536.547 151.862 538.078 151.862 540.485C151.862 542.911 153.195 544.442 155.104 544.442ZM155.263 543.388C153.791 543.388 153.036 542.096 153.036 540.465C153.036 538.854 153.771 537.601 155.263 537.601C156.695 537.601 157.45 538.755 157.45 540.465C157.45 542.195 156.675 543.388 155.263 543.388ZM168.055 544.442C169.606 544.442 170.74 543.667 171.097 542.513L169.964 542.195C169.666 542.99 168.975 543.388 168.055 543.388C166.678 543.388 165.728 542.498 165.673 540.863H171.217V540.365C171.217 537.522 169.526 536.547 167.936 536.547C165.867 536.547 164.495 538.178 164.495 540.524C164.495 542.871 165.847 544.442 168.055 544.442ZM165.673 539.848C165.753 538.66 166.593 537.601 167.936 537.601C169.208 537.601 170.024 538.556 170.024 539.848H165.673ZM175.885 544.442C177.357 544.442 177.854 543.527 178.112 543.11H178.252V544.283H179.385V534.101H178.212V537.86H178.112C177.854 537.462 177.396 536.547 175.905 536.547C173.976 536.547 172.644 538.078 172.644 540.485C172.644 542.911 173.976 544.442 175.885 544.442ZM176.044 543.388C174.573 543.388 173.817 542.096 173.817 540.465C173.817 538.854 174.553 537.601 176.044 537.601C177.476 537.601 178.232 538.755 178.232 540.465C178.232 542.195 177.456 543.388 176.044 543.388ZM181.697 544.283H182.87V536.647H181.697V544.283ZM182.294 535.374C182.751 535.374 183.129 535.016 183.129 534.578C183.129 534.141 182.751 533.783 182.294 533.783C181.836 533.783 181.458 534.141 181.458 534.578C181.458 535.016 181.836 535.374 182.294 535.374ZM188.34 536.647H186.71V534.817H185.536V536.647H184.383V537.641H185.536V542.414C185.536 543.746 186.61 544.382 187.604 544.382C188.042 544.382 188.32 544.303 188.479 544.243L188.241 543.189C188.141 543.209 187.982 543.249 187.724 543.249C187.207 543.249 186.71 543.09 186.71 542.096V537.641H188.34V536.647ZM197.364 536.647H195.733V534.817H194.56V536.647H193.406V537.641H194.56V542.414C194.56 543.746 195.634 544.382 196.628 544.382C197.065 544.382 197.344 544.303 197.503 544.243L197.264 543.189C197.165 543.209 197.006 543.249 196.747 543.249C196.23 543.249 195.733 543.09 195.733 542.096V537.641H197.364V536.647ZM200.466 539.689C200.466 538.357 201.316 537.601 202.474 537.601C203.578 537.601 204.244 538.297 204.244 539.51V544.283H205.418V539.431C205.418 537.467 204.374 536.547 202.812 536.547C201.609 536.547 200.923 537.049 200.565 537.84H200.466V534.101H199.293V544.283H200.466V539.689ZM207.564 544.283H208.737V536.647H207.564V544.283ZM208.161 535.374C208.618 535.374 208.996 535.016 208.996 534.578C208.996 534.141 208.618 533.783 208.161 533.783C207.703 533.783 207.325 534.141 207.325 534.578C207.325 535.016 207.703 535.374 208.161 535.374ZM216.295 538.357C215.928 537.273 215.102 536.547 213.591 536.547C211.98 536.547 210.787 537.462 210.787 538.755C210.787 539.809 211.413 540.515 212.815 540.843L214.088 541.141C214.859 541.32 215.222 541.688 215.222 542.215C215.222 542.871 214.526 543.408 213.432 543.408C212.472 543.408 211.871 542.995 211.662 542.175L210.548 542.453C210.822 543.751 211.891 544.442 213.452 544.442C215.227 544.442 216.435 543.473 216.435 542.155C216.435 541.091 215.768 540.42 214.406 540.087L213.273 539.809C212.368 539.585 211.96 539.282 211.96 538.695C211.96 538.039 212.656 537.561 213.591 537.561C214.615 537.561 215.038 538.128 215.241 538.655L216.295 538.357ZM222.138 547.147H223.312V543.11H223.411C223.67 543.527 224.167 544.442 225.638 544.442C227.547 544.442 228.88 542.911 228.88 540.485C228.88 538.078 227.547 536.547 225.618 536.547C224.127 536.547 223.67 537.462 223.411 537.86H223.272V536.647H222.138V547.147ZM223.292 540.465C223.292 538.755 224.047 537.601 225.479 537.601C226.971 537.601 227.706 538.854 227.706 540.465C227.706 542.096 226.951 543.388 225.479 543.388C224.067 543.388 223.292 542.195 223.292 540.465ZM230.67 544.283H231.843V539.451C231.843 538.417 232.658 537.661 233.772 537.661C234.085 537.661 234.408 537.721 234.488 537.74V536.547C234.354 536.537 234.045 536.527 233.871 536.527C232.956 536.527 232.161 537.044 231.883 537.8H231.803V536.647H230.67V544.283ZM238.748 544.442C240.817 544.442 242.209 542.871 242.209 540.505C242.209 538.118 240.817 536.547 238.748 536.547C236.68 536.547 235.288 538.118 235.288 540.505C235.288 542.871 236.68 544.442 238.748 544.442ZM238.748 543.388C237.177 543.388 236.461 542.036 236.461 540.505C236.461 538.973 237.177 537.601 238.748 537.601C240.319 537.601 241.035 538.973 241.035 540.505C241.035 542.036 240.319 543.388 238.748 543.388ZM244 547.147H245.173V543.11H245.272C245.531 543.527 246.028 544.442 247.5 544.442C249.409 544.442 250.741 542.911 250.741 540.485C250.741 538.078 249.409 536.547 247.48 536.547C245.988 536.547 245.531 537.462 245.272 537.86H245.133V536.647H244V547.147ZM245.153 540.465C245.153 538.755 245.909 537.601 247.341 537.601C248.832 537.601 249.568 538.854 249.568 540.465C249.568 542.096 248.812 543.388 247.341 543.388C245.929 543.388 245.153 542.195 245.153 540.465ZM255.733 544.442C257.284 544.442 258.417 543.667 258.775 542.513L257.642 542.195C257.343 542.99 256.652 543.388 255.733 543.388C254.355 543.388 253.406 542.498 253.351 540.863H258.895V540.365C258.895 537.522 257.204 536.547 255.613 536.547C253.545 536.547 252.173 538.178 252.173 540.524C252.173 542.871 253.525 544.442 255.733 544.442ZM253.351 539.848C253.431 538.66 254.271 537.601 255.613 537.601C256.886 537.601 257.701 538.556 257.701 539.848H253.351ZM260.679 544.283H261.853V539.451C261.853 538.417 262.668 537.661 263.782 537.661C264.095 537.661 264.418 537.721 264.498 537.74V536.547C264.363 536.537 264.055 536.527 263.881 536.527C262.966 536.527 262.171 537.044 261.892 537.8H261.813V536.647H260.679V544.283ZM269.688 536.647H268.057V534.817H266.884V536.647H265.73V537.641H266.884V542.414C266.884 543.746 267.958 544.382 268.952 544.382C269.39 544.382 269.668 544.303 269.827 544.243L269.588 543.189C269.489 543.209 269.33 543.249 269.071 543.249C268.554 543.249 268.057 543.09 268.057 542.096V537.641H269.688V536.647ZM272.208 547.147C273.267 547.147 274.013 546.585 274.456 545.397L277.707 536.667L276.424 536.647L274.316 542.732H274.237L272.129 536.647H270.856L273.68 544.323L273.461 544.919C273.034 546.083 272.507 546.192 271.652 545.973L271.353 547.007C271.473 547.067 271.811 547.147 272.208 547.147Z" fill="#2D3748"/>
<path d="M736 517.283C736 504.028 746.745 493.283 760 493.283V493.283C773.255 493.283 784 504.028 784 517.283V517.283C784 530.538 773.255 541.283 760 541.283V541.283C746.745 541.283 736 530.538 736 517.283V517.283Z" fill="#25855A"/>
<path d="M756.455 513.559H758.572C758.508 511.229 756.448 509.539 753.493 509.539C750.574 509.539 748.337 511.208 748.337 513.715C748.337 515.739 749.786 516.925 752.123 517.557L753.841 518.026C755.397 518.438 756.597 518.949 756.597 520.242C756.597 521.662 755.241 522.6 753.373 522.6C751.682 522.6 750.276 521.847 750.148 520.263H747.947C748.089 522.898 750.127 524.524 753.387 524.524C756.803 524.524 758.77 522.728 758.77 520.263C758.77 517.642 756.434 516.627 754.587 516.172L753.167 515.803C752.03 515.512 750.518 514.979 750.525 513.587C750.525 512.351 751.654 511.435 753.444 511.435C755.113 511.435 756.299 512.216 756.455 513.559ZM761.393 524.283H763.588V519.759L765.306 517.784L770.008 524.283H772.65L766.762 516.286L772.629 509.738H769.866L763.765 516.684H763.588V509.738H761.393V524.283Z" fill="white"/>
<path d="M801.324 502.993H803.682C803.648 500.919 801.943 499.488 799.352 499.488C796.801 499.488 794.932 500.897 794.943 503.01C794.938 504.726 796.148 505.709 798.114 506.181L799.381 506.499C800.648 506.806 801.352 507.169 801.358 507.953C801.352 508.806 800.545 509.385 799.295 509.385C798.017 509.385 797.097 508.794 797.017 507.63H794.636C794.699 510.147 796.5 511.448 799.324 511.448C802.165 511.448 803.835 510.09 803.841 507.959C803.835 506.022 802.375 504.993 800.352 504.539L799.307 504.289C798.295 504.056 797.449 503.681 797.466 502.846C797.466 502.096 798.131 501.544 799.335 501.544C800.511 501.544 801.233 502.078 801.324 502.993ZM810.092 502.556H808.45V500.465H806.03V502.556H804.837V504.374H806.03V508.919C806.018 510.63 807.183 511.476 808.939 511.402C809.564 511.38 810.007 511.255 810.251 511.175L809.871 509.374C809.751 509.397 809.496 509.453 809.268 509.453C808.786 509.453 808.45 509.272 808.45 508.601V504.374H810.092V502.556ZM815.553 511.453C817.712 511.453 819.166 510.402 819.507 508.783L817.268 508.635C817.024 509.3 816.399 509.647 815.592 509.647C814.382 509.647 813.615 508.846 813.615 507.544V507.539H819.558V506.874C819.558 503.908 817.763 502.442 815.456 502.442C812.888 502.442 811.223 504.266 811.223 506.959C811.223 509.726 812.865 511.453 815.553 511.453ZM813.615 506.039C813.666 505.044 814.422 504.249 815.496 504.249C816.547 504.249 817.274 504.999 817.28 506.039H813.615ZM829.024 502.556H826.462L824.655 508.8H824.564L822.751 502.556H820.195L823.246 511.283H825.973L829.024 502.556ZM833.943 511.453C836.102 511.453 837.557 510.402 837.898 508.783L835.659 508.635C835.415 509.3 834.79 509.647 833.983 509.647C832.773 509.647 832.006 508.846 832.006 507.544V507.539H837.949V506.874C837.949 503.908 836.153 502.442 833.847 502.442C831.278 502.442 829.614 504.266 829.614 506.959C829.614 509.726 831.256 511.453 833.943 511.453ZM832.006 506.039C832.057 505.044 832.812 504.249 833.886 504.249C834.938 504.249 835.665 504.999 835.67 506.039H832.006ZM841.949 506.238C841.955 505.113 842.625 504.453 843.602 504.453C844.574 504.453 845.159 505.09 845.153 506.158V511.283H847.574V505.726C847.574 503.692 846.381 502.442 844.562 502.442C843.267 502.442 842.33 503.078 841.938 504.096H841.835V502.556H839.528V511.283H841.949V506.238ZM853.23 511.283H855.69V507.976L856.901 506.499L860.088 511.283H863.031L858.662 504.857L862.98 499.647H860.031L855.844 504.777H855.69V499.647H853.23V511.283ZM864.216 511.283H866.636V506.346C866.636 505.272 867.42 504.533 868.489 504.533C868.824 504.533 869.284 504.59 869.511 504.664V502.516C869.295 502.465 868.994 502.431 868.75 502.431C867.773 502.431 866.972 502.999 866.653 504.078H866.562V502.556H864.216V511.283ZM876.359 507.567C876.365 508.738 875.564 509.351 874.695 509.351C873.78 509.351 873.189 508.709 873.183 507.681V502.556H870.763V508.113C870.768 510.152 871.962 511.397 873.717 511.397C875.03 511.397 875.973 510.721 876.365 509.698H876.456V511.283H878.78V502.556H876.359V507.567ZM884.648 514.738C887.142 514.738 888.915 513.601 888.915 511.368V502.556H886.511V504.022H886.42C886.097 503.311 885.386 502.442 883.926 502.442C882.011 502.442 880.392 503.931 880.392 506.902C880.392 509.806 881.966 511.158 883.932 511.158C885.324 511.158 886.102 510.459 886.42 509.738H886.523V511.334C886.523 512.533 885.756 512.999 884.705 512.999C883.636 512.999 883.097 512.533 882.898 512.005L880.659 512.306C880.949 513.681 882.295 514.738 884.648 514.738ZM884.699 509.34C883.511 509.34 882.864 508.397 882.864 506.891C882.864 505.408 883.5 504.368 884.699 504.368C885.875 504.368 886.534 505.363 886.534 506.891C886.534 508.431 885.864 509.34 884.699 509.34Z" fill="#2D3748"/>
<path d="M800.483 528.357C800.115 527.273 799.29 526.547 797.778 526.547C796.168 526.547 794.974 527.462 794.974 528.755C794.974 529.809 795.601 530.515 797.003 530.843L798.276 531.141C799.046 531.32 799.409 531.688 799.409 532.215C799.409 532.871 798.713 533.408 797.619 533.408C796.66 533.408 796.058 532.995 795.849 532.175L794.736 532.453C795.009 533.751 796.078 534.442 797.639 534.442C799.414 534.442 800.622 533.473 800.622 532.155C800.622 531.091 799.956 530.42 798.594 530.087L797.46 529.809C796.555 529.585 796.148 529.282 796.148 528.695C796.148 528.039 796.844 527.561 797.778 527.561C798.803 527.561 799.225 528.128 799.429 528.655L800.483 528.357ZM805.709 526.647H804.079V524.817H802.905V526.647H801.752V527.641H802.905V532.414C802.905 533.746 803.979 534.382 804.974 534.382C805.411 534.382 805.689 534.303 805.849 534.243L805.61 533.189C805.51 533.209 805.351 533.249 805.093 533.249C804.576 533.249 804.079 533.09 804.079 532.096V527.641H805.709V526.647ZM810.594 534.442C812.145 534.442 813.279 533.667 813.637 532.513L812.503 532.195C812.205 532.99 811.514 533.388 810.594 533.388C809.217 533.388 808.267 532.498 808.213 530.863H813.756V530.365C813.756 527.522 812.066 526.547 810.475 526.547C808.406 526.547 807.034 528.178 807.034 530.524C807.034 532.871 808.387 534.442 810.594 534.442ZM808.213 529.848C808.292 528.66 809.132 527.601 810.475 527.601C811.747 527.601 812.563 528.556 812.563 529.848H808.213ZM821.553 526.647H820.28L818.172 532.732H818.092L815.984 526.647H814.712L817.536 534.283H818.729L821.553 526.647ZM826.029 534.442C827.581 534.442 828.714 533.667 829.072 532.513L827.939 532.195C827.64 532.99 826.949 533.388 826.029 533.388C824.652 533.388 823.703 532.498 823.648 530.863H829.191V530.365C829.191 527.522 827.501 526.547 825.91 526.547C823.842 526.547 822.47 528.178 822.47 530.524C822.47 532.871 823.822 534.442 826.029 534.442ZM823.648 529.848C823.728 528.66 824.568 527.601 825.91 527.601C827.183 527.601 827.998 528.556 827.998 529.848H823.648ZM832.15 529.689C832.15 528.357 832.975 527.601 834.098 527.601C835.187 527.601 835.848 528.312 835.848 529.51V534.283H837.022V529.431C837.022 527.482 835.983 526.547 834.436 526.547C833.283 526.547 832.567 527.064 832.209 527.84H832.11V526.647H830.976V534.283H832.15V529.689ZM840.021 534.363C840.513 534.363 840.916 533.96 840.916 533.468C840.916 532.975 840.513 532.573 840.021 532.573C839.529 532.573 839.126 532.975 839.126 533.468C839.126 533.96 839.529 534.363 840.021 534.363ZM843.021 534.283H844.194V531.424L845.015 530.664L847.873 534.283H849.365L845.9 529.908L849.126 526.647H847.675L844.334 530.047H844.194V524.101H843.021V534.283ZM850.636 534.283H851.81V529.451C851.81 528.417 852.625 527.661 853.739 527.661C854.052 527.661 854.375 527.721 854.455 527.74V526.547C854.32 526.537 854.012 526.527 853.838 526.527C852.923 526.527 852.128 527.044 851.849 527.8H851.77V526.647H850.636V534.283ZM860.658 531.161C860.658 532.593 859.564 533.249 858.689 533.249C857.715 533.249 857.019 532.533 857.019 531.419V526.647H855.845V531.499C855.845 533.448 856.879 534.382 858.311 534.382C859.465 534.382 860.22 533.766 860.578 532.99H860.658V534.283H861.831V526.647H860.658V531.161ZM867.062 537.306C868.892 537.306 870.364 536.471 870.364 534.502V526.647H869.23V527.86H869.111C868.852 527.462 868.375 526.547 866.884 526.547C864.955 526.547 863.622 528.078 863.622 530.425C863.622 532.811 865.014 534.164 866.864 534.164C868.355 534.164 868.832 533.289 869.091 532.871H869.19V534.422C869.19 535.695 868.295 536.272 867.062 536.272C865.675 536.272 865.188 535.541 864.875 535.118L863.94 535.774C864.418 536.575 865.357 537.306 867.062 537.306ZM867.023 533.11C865.551 533.11 864.795 531.996 864.795 530.405C864.795 528.854 865.531 527.601 867.023 527.601C868.455 527.601 869.21 528.755 869.21 530.405C869.21 532.096 868.435 533.11 867.023 533.11ZM878.378 536.968C879.392 536.968 880.685 536.669 881.301 536.411L881.023 535.496C880.665 535.615 879.511 536.013 878.418 536.013C875.017 536.013 873.207 534.104 873.207 530.723C873.207 527.402 875.057 525.414 878.179 525.414C881.341 525.414 882.832 527.641 882.832 529.868C882.832 532.135 882.594 533.149 881.58 533.149C880.983 533.149 880.665 532.652 880.665 532.096V527.601H879.611V528.158H879.551C879.412 527.721 878.636 527.343 877.642 527.442C876.151 527.601 875.017 528.834 875.017 530.624C875.017 532.513 875.912 533.965 877.642 534.024C878.776 534.064 879.372 533.507 879.611 532.931H879.67C879.79 533.786 880.864 534.084 881.56 534.084C883.668 534.084 883.866 531.817 883.866 529.888C883.866 527.164 881.957 524.479 878.239 524.479C874.401 524.479 872.114 526.806 872.114 530.684C872.114 534.701 874.321 536.968 878.378 536.968ZM877.801 533.01C876.509 533.01 876.051 531.837 876.051 530.564C876.051 529.411 876.707 528.417 877.841 528.417C879.034 528.417 879.67 528.894 879.67 530.564C879.67 532.215 879.134 533.01 877.801 533.01ZM888.705 537.306C890.535 537.306 892.006 536.471 892.006 534.502V526.647H890.873V527.86H890.753C890.495 527.462 890.018 526.547 888.526 526.547C886.597 526.547 885.265 528.078 885.265 530.425C885.265 532.811 886.657 534.164 888.506 534.164C889.998 534.164 890.475 533.289 890.733 532.871H890.833V534.422C890.833 535.695 889.938 536.272 888.705 536.272C887.318 536.272 886.831 535.541 886.518 535.118L885.583 535.774C886.06 536.575 887 537.306 888.705 537.306ZM888.665 533.11C887.194 533.11 886.438 531.996 886.438 530.405C886.438 528.854 887.174 527.601 888.665 527.601C890.097 527.601 890.853 528.755 890.853 530.405C890.853 532.096 890.077 533.11 888.665 533.11ZM894.154 534.283H895.327V529.51C895.327 528.392 896.143 527.601 897.057 527.601C897.947 527.601 898.569 528.183 898.569 529.053V534.283H899.762V529.311C899.762 528.327 900.378 527.601 901.452 527.601C902.287 527.601 903.003 528.044 903.003 529.172V534.283H904.177V529.172C904.177 527.377 903.212 526.547 901.85 526.547C900.756 526.547 899.956 527.049 899.563 527.84H899.483C899.106 527.024 898.439 526.547 897.435 526.547C896.441 526.547 895.705 527.024 895.387 527.84H895.287V526.647H894.154V534.283ZM908.569 534.462C909.901 534.462 910.597 533.746 910.836 533.249H910.896V534.283H912.069V529.252C912.069 526.826 910.22 526.547 909.245 526.547C908.092 526.547 906.779 526.945 906.183 528.337L907.296 528.735C907.555 528.178 908.166 527.581 909.285 527.581C910.364 527.581 910.896 528.153 910.896 529.132V529.172C910.896 529.739 910.319 529.689 908.927 529.868C907.51 530.052 905.964 530.365 905.964 532.115C905.964 533.607 907.117 534.462 908.569 534.462ZM908.748 533.408C907.813 533.408 907.137 532.99 907.137 532.175C907.137 531.28 907.953 531.002 908.867 530.882C909.365 530.823 910.697 530.684 910.896 530.445V531.519C910.896 532.473 910.14 533.408 908.748 533.408ZM914.211 534.283H915.384V526.647H914.211V534.283ZM914.807 525.374C915.265 525.374 915.642 525.016 915.642 524.578C915.642 524.141 915.265 523.783 914.807 523.783C914.35 523.783 913.972 524.141 913.972 524.578C913.972 525.016 914.35 525.374 914.807 525.374ZM918.706 524.101H917.533V534.283H918.706V524.101ZM921.71 534.363C922.202 534.363 922.605 533.96 922.605 533.468C922.605 532.975 922.202 532.573 921.71 532.573C921.218 532.573 920.815 532.975 920.815 533.468C920.815 533.96 921.218 534.363 921.71 534.363ZM927.813 534.442C929.503 534.442 930.617 533.408 930.816 532.056H929.642C929.424 532.891 928.728 533.388 927.813 533.388C926.421 533.388 925.526 532.235 925.526 530.465C925.526 528.735 926.441 527.601 927.813 527.601C928.847 527.601 929.463 528.238 929.642 528.934H930.816C930.617 527.502 929.404 526.547 927.793 526.547C925.725 526.547 924.353 528.178 924.353 530.505C924.353 532.792 925.665 534.442 927.813 534.442ZM935.633 534.442C937.701 534.442 939.093 532.871 939.093 530.505C939.093 528.118 937.701 526.547 935.633 526.547C933.565 526.547 932.173 528.118 932.173 530.505C932.173 532.871 933.565 534.442 935.633 534.442ZM935.633 533.388C934.062 533.388 933.346 532.036 933.346 530.505C933.346 528.973 934.062 527.601 935.633 527.601C937.204 527.601 937.92 528.973 937.92 530.505C937.92 532.036 937.204 533.388 935.633 533.388ZM940.884 534.283H942.058V529.51C942.058 528.392 942.873 527.601 943.788 527.601C944.678 527.601 945.299 528.183 945.299 529.053V534.283H946.492V529.311C946.492 528.327 947.109 527.601 948.183 527.601C949.018 527.601 949.734 528.044 949.734 529.172V534.283H950.907V529.172C950.907 527.377 949.943 526.547 948.58 526.547C947.487 526.547 946.686 527.049 946.294 527.84H946.214C945.836 527.024 945.17 526.547 944.166 526.547C943.171 526.547 942.436 527.024 942.117 527.84H942.018V526.647H940.884V534.283Z" fill="#2D3748"/>
<rect x="20.5" y="461.783" width="999" height="111" rx="5.5" stroke="#E2E8F0"/>
</g>
</g>
<defs>
<filter id="filter0_dd_852_9425" x="8" y="40" width="1024" height="369.283" filterUnits="userSpaceOnUse" color-interpolation-filters="sRGB">
<feFlood flood-opacity="0" result="BackgroundImageFix"/>
<feColorMatrix in="SourceAlpha" type="matrix" values="0 0 0 0 0 0 0 0 0 0 0 0 0 0 0 0 0 0 127 0" result="hardAlpha"/>
<feMorphology radius="2" operator="erode" in="SourceAlpha" result="effect1_dropShadow_852_9425"/>
<feOffset dy="4"/>
<feGaussianBlur stdDeviation="3"/>
<feColorMatrix type="matrix" values="0 0 0 0 0 0 0 0 0 0 0 0 0 0 0 0 0 0 0.05 0"/>
<feBlend mode="normal" in2="BackgroundImageFix" result="effect1_dropShadow_852_9425"/>
<feColorMatrix in="SourceAlpha" type="matrix" values="0 0 0 0 0 0 0 0 0 0 0 0 0 0 0 0 0 0 127 0" result="hardAlpha"/>
<feMorphology radius="3" operator="erode" in="SourceAlpha" result="effect2_dropShadow_852_9425"/>
<feOffset dy="10"/>
<feGaussianBlur stdDeviation="7.5"/>
<feColorMatrix type="matrix" values="0 0 0 0 0 0 0 0 0 0 0 0 0 0 0 0 0 0 0.1 0"/>
<feBlend mode="normal" in2="effect1_dropShadow_852_9425" result="effect2_dropShadow_852_9425"/>
<feBlend mode="normal" in="SourceGraphic" in2="effect2_dropShadow_852_9425" result="shape"/>
</filter>
<filter id="filter1_dd_852_9425" x="8" y="459.283" width="1024" height="136" filterUnits="userSpaceOnUse" color-interpolation-filters="sRGB">
<feFlood flood-opacity="0" result="BackgroundImageFix"/>
<feColorMatrix in="SourceAlpha" type="matrix" values="0 0 0 0 0 0 0 0 0 0 0 0 0 0 0 0 0 0 127 0" result="hardAlpha"/>
<feMorphology radius="2" operator="erode" in="SourceAlpha" result="effect1_dropShadow_852_9425"/>
<feOffset dy="4"/>
<feGaussianBlur stdDeviation="3"/>
<feColorMatrix type="matrix" values="0 0 0 0 0 0 0 0 0 0 0 0 0 0 0 0 0 0 0.05 0"/>
<feBlend mode="normal" in2="BackgroundImageFix" result="effect1_dropShadow_852_9425"/>
<feColorMatrix in="SourceAlpha" type="matrix" values="0 0 0 0 0 0 0 0 0 0 0 0 0 0 0 0 0 0 127 0" result="hardAlpha"/>
<feMorphology radius="3" operator="erode" in="SourceAlpha" result="effect2_dropShadow_852_9425"/>
<feOffset dy="10"/>
<feGaussianBlur stdDeviation="7.5"/>
<feColorMatrix type="matrix" values="0 0 0 0 0 0 0 0 0 0 0 0 0 0 0 0 0 0 0.1 0"/>
<feBlend mode="normal" in2="effect1_dropShadow_852_9425" result="effect2_dropShadow_852_9425"/>
<feBlend mode="normal" in="SourceGraphic" in2="effect2_dropShadow_852_9425" result="shape"/>
</filter>
<clipPath id="clip0_852_9425">
<rect width="1040" height="593.283" fill="white"/>
</clipPath>
</defs>
</svg>
