<svg width="624" height="494" viewBox="0 0 624 494" fill="none" xmlns="http://www.w3.org/2000/svg">
<path d="M15.8523 28C18.5114 28 20.1222 26.3551 20.1222 23.6278C20.1222 20.9091 18.5114 19.2727 15.8778 19.2727H12.7585V28H15.8523ZM14.6037 26.419V20.8537H15.7798C17.4162 20.8537 18.2812 21.6889 18.2812 23.6278C18.2812 25.5753 17.4162 26.419 15.7756 26.419H14.6037ZM30.1089 23.6364C30.1089 20.7812 28.3362 19.1534 26.0222 19.1534C23.6955 19.1534 21.9356 20.7812 21.9356 23.6364C21.9356 26.4787 23.6955 28.1193 26.0222 28.1193C28.3362 28.1193 30.1089 26.4915 30.1089 23.6364ZM28.2381 23.6364C28.2381 25.4858 27.3603 26.4872 26.0222 26.4872C24.6799 26.4872 23.8063 25.4858 23.8063 23.6364C23.8063 21.7869 24.6799 20.7855 26.0222 20.7855C27.3603 20.7855 28.2381 21.7869 28.2381 23.6364ZM33.7121 28H35.5104L37.168 22.294H37.2362L38.8982 28H40.6964L43.1936 19.2727H41.178L39.7334 25.3494H39.6567L38.0672 19.2727H36.3413L34.7476 25.3366H34.6751L33.2305 19.2727H31.2149L33.7121 28ZM52.0809 19.2727H50.2442V24.7614H50.1675L46.4005 19.2727H44.7812V28H46.6263V22.5071H46.6903L50.4871 28H52.0809V19.2727ZM54.2054 28H59.792V26.4787H56.0506V19.2727H54.2054V28ZM69.294 23.6364C69.294 20.7812 67.5213 19.1534 65.2074 19.1534C62.8807 19.1534 61.1207 20.7812 61.1207 23.6364C61.1207 26.4787 62.8807 28.1193 65.2074 28.1193C67.5213 28.1193 69.294 26.4915 69.294 23.6364ZM67.4233 23.6364C67.4233 25.4858 66.5455 26.4872 65.2074 26.4872C63.8651 26.4872 62.9915 25.4858 62.9915 23.6364C62.9915 21.7869 63.8651 20.7855 65.2074 20.7855C66.5455 20.7855 67.4233 21.7869 67.4233 23.6364ZM72.2729 28L72.9207 26.0099H76.0698L76.7175 28H78.6948L75.6863 19.2727H73.3085L70.2957 28H72.2729ZM73.3894 24.5696L74.4633 21.267H74.5315L75.6053 24.5696H73.3894ZM83.439 28C86.0981 28 87.7089 26.3551 87.7089 23.6278C87.7089 20.9091 86.0981 19.2727 83.4646 19.2727H80.3452V28H83.439ZM82.1904 26.419V20.8537H83.3665C85.0029 20.8537 85.868 21.6889 85.868 23.6278C85.868 25.5753 85.0029 26.419 83.3623 26.419H82.1904ZM97.7874 21.7827H99.5559C99.5303 20.2273 98.2519 19.1534 96.3087 19.1534C94.3954 19.1534 92.9934 20.2102 93.0019 21.7955C92.9977 23.0824 93.9053 23.8196 95.3798 24.1733L96.33 24.4119C97.2803 24.642 97.8087 24.9148 97.813 25.5028C97.8087 26.142 97.2036 26.5767 96.2661 26.5767C95.3073 26.5767 94.617 26.1335 94.5573 25.2599H92.7718C92.8187 27.1477 94.1695 28.1236 96.2874 28.1236C98.4181 28.1236 99.671 27.1051 99.6752 25.5071C99.671 24.054 98.5758 23.2827 97.0587 22.9418L96.2746 22.7543C95.5161 22.5795 94.8812 22.2983 94.894 21.6719C94.894 21.1094 95.3925 20.696 96.296 20.696C97.1781 20.696 97.7192 21.0966 97.7874 21.7827ZM106.907 19.2727V24.7827C106.907 25.7798 106.208 26.5 105.134 26.5C104.065 26.5 103.362 25.7798 103.362 24.7827V19.2727H101.516V24.9403C101.516 26.8494 102.957 28.1236 105.134 28.1236C107.303 28.1236 108.752 26.8494 108.752 24.9403V19.2727H106.907ZM110.87 19.2727V28H112.66V22.2983H112.732L114.991 27.9574H116.21L118.468 22.3196H118.541V28H120.33V19.2727H118.055L115.651 25.1364H115.549L113.146 19.2727H110.87ZM122.451 19.2727V28H124.24V22.2983H124.313L126.571 27.9574H127.79L130.049 22.3196H130.121V28H131.911V19.2727H129.635L127.232 25.1364H127.13L124.726 19.2727H122.451ZM135.535 28L136.183 26.0099H139.332L139.98 28H141.957L138.949 19.2727H136.571L133.558 28H135.535ZM136.652 24.5696L137.726 21.267H137.794L138.868 24.5696H136.652ZM143.608 28H145.453V24.9062H146.799L148.453 28H150.49L148.636 24.608C149.629 24.1818 150.179 23.3168 150.179 22.1236C150.179 20.3892 149.032 19.2727 147.051 19.2727H143.608V28ZM145.453 23.4233V20.7812H146.697C147.763 20.7812 148.278 21.2543 148.278 22.1236C148.278 22.9886 147.763 23.4233 146.706 23.4233H145.453ZM153.928 19.2727H152.083V28H153.928V19.2727ZM156.046 28H161.944V26.4787H157.891V24.3949H161.624V22.8736H157.891V20.794H161.927V19.2727H156.046V28ZM168.728 21.7827H170.497C170.471 20.2273 169.193 19.1534 167.249 19.1534C165.336 19.1534 163.934 20.2102 163.943 21.7955C163.938 23.0824 164.846 23.8196 166.32 24.1733L167.271 24.4119C168.221 24.642 168.749 24.9148 168.754 25.5028C168.749 26.142 168.144 26.5767 167.207 26.5767C166.248 26.5767 165.558 26.1335 165.498 25.2599H163.712C163.759 27.1477 165.11 28.1236 167.228 28.1236C169.359 28.1236 170.612 27.1051 170.616 25.5071C170.612 24.054 169.516 23.2827 167.999 22.9418L167.215 22.7543C166.457 22.5795 165.822 22.2983 165.835 21.6719C165.835 21.1094 166.333 20.696 167.237 20.696C168.119 20.696 168.66 21.0966 168.728 21.7827Z" fill="#2D3748"/>
<g filter="url(#filter0_dd_915_9657)">
<rect x="12" y="42" width="600" height="100" rx="6" fill="white"/>
<path d="M37.2642 88H40.3395V81.9915H46.2557V79.456H40.3395V75.9901H46.8949V73.4545H37.2642V88ZM48.1112 73.4545L53.4165 82.858V88H56.4705V82.858L61.7759 73.4545H58.3313L55.0146 79.7188H54.8725L51.5558 73.4545H48.1112ZM63.3704 88H73.7397V85.4858H67.6317V85.3864L69.7553 83.3054C72.7454 80.5781 73.5479 79.2145 73.5479 77.5597C73.5479 75.0384 71.4883 73.2557 68.3704 73.2557C65.3164 73.2557 63.2212 75.081 63.2283 77.9361H66.1474C66.1403 76.544 67.021 75.6918 68.3491 75.6918C69.6275 75.6918 70.5792 76.4872 70.5792 77.7656C70.5792 78.9233 69.869 79.7188 68.5479 80.9901L63.3704 85.7841V88ZM81.6712 88.3196C85.3288 88.3196 87.5376 85.5355 87.5447 80.7415C87.5518 75.983 85.3146 73.2557 81.6712 73.2557C78.0206 73.2557 75.8047 75.9759 75.7976 80.7415C75.7834 85.5213 78.0064 88.3125 81.6712 88.3196ZM81.6712 85.7699C80.0021 85.7699 78.9226 84.0938 78.9297 80.7415C78.9368 77.4389 80.0092 75.777 81.6712 75.777C83.326 75.777 84.4055 77.4389 84.4055 80.7415C84.4126 84.0938 83.3331 85.7699 81.6712 85.7699ZM89.7376 88H100.107V85.4858H93.9989V85.3864L96.1225 83.3054C99.1126 80.5781 99.9151 79.2145 99.9151 77.5597C99.9151 75.0384 97.8555 73.2557 94.7376 73.2557C91.6836 73.2557 89.5884 75.081 89.5955 77.9361H92.5146C92.5075 76.544 93.3881 75.6918 94.7163 75.6918C95.9947 75.6918 96.9464 76.4872 96.9464 77.7656C96.9464 78.9233 96.2362 79.7188 94.9151 80.9901L89.7376 85.7841V88ZM108.663 73.4545H105.773L102.172 75.7344V78.4616L105.503 76.3736H105.588V88H108.663V73.4545Z" fill="#2D3748"/>
<path d="M40.6335 102.818H39.4006L36.8551 104.509V105.761L39.3409 104.111H39.4006V113H40.6335V102.818ZM51.576 102.818V110.097C51.576 111.364 50.9695 112.045 49.9055 112.045C48.9361 112.045 48.2351 111.479 48.2351 110.614H47.022C47.022 112.18 48.2351 113.139 49.9055 113.139C51.6754 113.139 52.8089 112.05 52.8089 110.097V102.818H51.576ZM59.9332 109.878C59.9332 111.31 58.8395 111.966 57.9645 111.966C56.9901 111.966 56.294 111.25 56.294 110.136V105.364H55.1207V110.216C55.1207 112.165 56.1548 113.099 57.5866 113.099C58.7401 113.099 59.4957 112.483 59.8537 111.707H59.9332V113H61.1065V105.364H59.9332V109.878ZM64.4288 102.818H63.2555V113H64.4288V102.818ZM67.3335 115.864C68.3924 115.864 69.1381 115.302 69.5806 114.114L72.832 105.384L71.5494 105.364L69.4414 111.449H69.3619L67.2539 105.364H65.9812L68.805 113.04L68.5863 113.636C68.1587 114.8 67.6317 114.909 66.7766 114.69L66.4783 115.724C66.5977 115.784 66.9357 115.864 67.3335 115.864ZM78.302 113H84.7253V111.906H79.9924V111.827L82.2793 109.381C84.0293 107.506 84.5463 106.631 84.5463 105.503C84.5463 103.932 83.2736 102.679 81.4838 102.679C79.699 102.679 78.3418 103.892 78.3418 105.682H79.5151C79.5151 104.523 80.2658 103.753 81.4441 103.753C82.5478 103.753 83.3929 104.429 83.3929 105.503C83.3929 106.442 82.8411 107.138 81.6628 108.426L78.302 112.105V113ZM90.0996 113.139C92.3468 113.139 93.6394 111.235 93.6394 107.909C93.6394 104.608 92.3269 102.679 90.0996 102.679C87.8723 102.679 86.5598 104.608 86.5598 107.909C86.5598 111.235 87.8525 113.139 90.0996 113.139ZM90.0996 112.045C88.6181 112.045 87.753 110.559 87.753 107.909C87.753 105.264 88.628 103.753 90.0996 103.753C91.5712 103.753 92.4462 105.264 92.4462 107.909C92.4462 110.559 91.5811 112.045 90.0996 112.045ZM95.5286 113H101.952V111.906H97.2189V111.827L99.5059 109.381C101.256 107.506 101.773 106.631 101.773 105.503C101.773 103.932 100.5 102.679 98.7104 102.679C96.9256 102.679 95.5684 103.892 95.5684 105.682H96.7417C96.7417 104.523 97.4924 103.753 98.6706 103.753C99.7743 103.753 100.619 104.429 100.619 105.503C100.619 106.442 100.068 107.138 98.8894 108.426L95.5286 112.105V113ZM107.326 113.139C109.573 113.139 110.866 111.235 110.866 107.909C110.866 104.608 109.553 102.679 107.326 102.679C105.099 102.679 103.786 104.608 103.786 107.909C103.786 111.235 105.079 113.139 107.326 113.139ZM107.326 112.045C105.845 112.045 104.98 110.559 104.98 107.909C104.98 105.264 105.855 103.753 107.326 103.753C108.798 103.753 109.673 105.264 109.673 107.909C109.673 110.559 108.808 112.045 107.326 112.045ZM120.034 105.364H118.403V103.534H117.23V105.364H116.076V106.358H117.23V111.131C117.23 112.463 118.303 113.099 119.298 113.099C119.735 113.099 120.014 113.02 120.173 112.96L119.934 111.906C119.835 111.926 119.676 111.966 119.417 111.966C118.9 111.966 118.403 111.807 118.403 110.812V106.358H120.034V105.364ZM124.819 113.159C126.887 113.159 128.279 111.588 128.279 109.222C128.279 106.835 126.887 105.264 124.819 105.264C122.751 105.264 121.358 106.835 121.358 109.222C121.358 111.588 122.751 113.159 124.819 113.159ZM124.819 112.105C123.248 112.105 122.532 110.753 122.532 109.222C122.532 107.69 123.248 106.318 124.819 106.318C126.39 106.318 127.106 107.69 127.106 109.222C127.106 110.753 126.39 112.105 124.819 112.105ZM137.428 113.139C139.402 113.139 140.868 111.901 140.868 110.236C140.868 108.943 140.103 108.004 138.82 107.79V107.71C139.849 107.397 140.49 106.552 140.49 105.403C140.49 103.962 139.352 102.679 137.468 102.679C135.708 102.679 134.246 103.763 134.186 105.364H135.38C135.424 104.349 136.389 103.753 137.448 103.753C138.571 103.753 139.297 104.434 139.297 105.463C139.297 106.537 138.457 107.233 137.249 107.233H136.434V108.327H137.249C138.795 108.327 139.655 109.112 139.655 110.236C139.655 111.315 138.716 112.045 137.408 112.045C136.23 112.045 135.295 111.439 135.221 110.455H133.968C134.042 112.055 135.454 113.139 137.428 113.139ZM146.223 113.139C148.47 113.139 149.762 111.235 149.762 107.909C149.762 104.608 148.45 102.679 146.223 102.679C143.995 102.679 142.683 104.608 142.683 107.909C142.683 111.235 143.975 113.139 146.223 113.139ZM146.223 112.045C144.741 112.045 143.876 110.559 143.876 107.909C143.876 105.264 144.751 103.753 146.223 103.753C147.694 103.753 148.569 105.264 148.569 107.909C148.569 110.559 147.704 112.045 146.223 112.045ZM159.666 102.818V110.097C159.666 111.364 159.059 112.045 157.995 112.045C157.026 112.045 156.325 111.479 156.325 110.614H155.112C155.112 112.18 156.325 113.139 157.995 113.139C159.765 113.139 160.899 112.05 160.899 110.097V102.818H159.666ZM168.023 109.878C168.023 111.31 166.929 111.966 166.054 111.966C165.08 111.966 164.384 111.25 164.384 110.136V105.364H163.211V110.216C163.211 112.165 164.245 113.099 165.676 113.099C166.83 113.099 167.586 112.483 167.944 111.707H168.023V113H169.196V105.364H168.023V109.878ZM172.519 108.406C172.519 107.074 173.344 106.318 174.468 106.318C175.556 106.318 176.218 107.029 176.218 108.227V113H177.391V108.148C177.391 106.199 176.352 105.264 174.806 105.264C173.652 105.264 172.936 105.781 172.578 106.557H172.479V105.364H171.345V113H172.519V108.406ZM182.737 113.159C184.288 113.159 185.421 112.384 185.779 111.23L184.646 110.912C184.347 111.707 183.656 112.105 182.737 112.105C181.359 112.105 180.41 111.215 180.355 109.58H185.898V109.082C185.898 106.239 184.208 105.264 182.617 105.264C180.549 105.264 179.177 106.895 179.177 109.241C179.177 111.588 180.529 113.159 182.737 113.159ZM180.355 108.565C180.435 107.377 181.275 106.318 182.617 106.318C183.89 106.318 184.705 107.273 184.705 108.565H180.355ZM191.601 113H198.024V111.906H193.291V111.827L195.578 109.381C197.328 107.506 197.845 106.631 197.845 105.503C197.845 103.932 196.572 102.679 194.783 102.679C192.998 102.679 191.641 103.892 191.641 105.682H192.814C192.814 104.523 193.565 103.753 194.743 103.753C195.847 103.753 196.692 104.429 196.692 105.503C196.692 106.442 196.14 107.138 194.962 108.426L191.601 112.105V113ZM203.398 113.139C205.646 113.139 206.938 111.235 206.938 107.909C206.938 104.608 205.626 102.679 203.398 102.679C201.171 102.679 199.859 104.608 199.859 107.909C199.859 111.235 201.151 113.139 203.398 113.139ZM203.398 112.045C201.917 112.045 201.052 110.559 201.052 107.909C201.052 105.264 201.927 103.753 203.398 103.753C204.87 103.753 205.745 105.264 205.745 107.909C205.745 110.559 204.88 112.045 203.398 112.045ZM208.827 113H215.251V111.906H210.518V111.827L212.805 109.381C214.555 107.506 215.072 106.631 215.072 105.503C215.072 103.932 213.799 102.679 212.009 102.679C210.224 102.679 208.867 103.892 208.867 105.682H210.04C210.04 104.523 210.791 103.753 211.969 103.753C213.073 103.753 213.918 104.429 213.918 105.503C213.918 106.442 213.366 107.138 212.188 108.426L208.827 112.105V113ZM220.884 102.818H219.651L217.105 104.509V105.761L219.591 104.111H219.651V113H220.884V102.818Z" fill="#718096"/>
<rect x="376.5" y="66.5" width="211" height="31" rx="5.5" fill="#E2E8F0"/>
<path d="M402 84V86.6667C402 87.0203 401.86 87.3594 401.609 87.6095C401.359 87.8595 401.02 88 400.667 88H391.333C390.98 88 390.641 87.8595 390.391 87.6095C390.14 87.3594 390 87.0203 390 86.6667V84" stroke="#2D3748" stroke-width="2" stroke-linecap="round" stroke-linejoin="round"/>
<path d="M392.667 80.6667L396 84L399.333 80.6667" stroke="#2D3748" stroke-width="2" stroke-linecap="round" stroke-linejoin="round"/>
<path d="M396 84V76" stroke="#2D3748" stroke-width="2" stroke-linecap="round" stroke-linejoin="round"/>
<path d="M416.455 87C419.557 87 421.396 85.081 421.396 81.8991C421.396 78.7273 419.557 76.8182 416.524 76.8182H413.004V87H416.455ZM414.849 85.4041V78.4141H416.42C418.488 78.4141 419.567 79.5675 419.567 81.8991C419.567 84.2408 418.488 85.4041 416.365 85.4041H414.849ZM426.4 87.1491C428.637 87.1491 430.059 85.5732 430.059 83.2116C430.059 80.8452 428.637 79.2642 426.4 79.2642C424.163 79.2642 422.741 80.8452 422.741 83.2116C422.741 85.5732 424.163 87.1491 426.4 87.1491ZM426.41 85.7074C425.172 85.7074 424.566 84.6037 424.566 83.2067C424.566 81.8097 425.172 80.6911 426.41 80.6911C427.628 80.6911 428.235 81.8097 428.235 83.2067C428.235 84.6037 427.628 85.7074 426.41 85.7074ZM432.958 87H434.837L436.269 81.8395H436.373L437.805 87H439.679L441.842 79.3636H440.002L438.68 84.7031H438.605L437.233 79.3636H435.419L434.047 84.733H433.977L432.635 79.3636H430.8L432.958 87ZM444.898 82.5256C444.898 81.4219 445.564 80.7855 446.514 80.7855C447.444 80.7855 448.001 81.397 448.001 82.4162V87H449.8V82.1378C449.805 80.3082 448.761 79.2642 447.185 79.2642C446.042 79.2642 445.256 79.8111 444.908 80.6612H444.819V79.3636H443.099V87H444.898V82.5256ZM453.43 76.8182H451.63V87H453.43V76.8182ZM458.611 87.1491C460.848 87.1491 462.27 85.5732 462.27 83.2116C462.27 80.8452 460.848 79.2642 458.611 79.2642C456.374 79.2642 454.952 80.8452 454.952 83.2116C454.952 85.5732 456.374 87.1491 458.611 87.1491ZM458.621 85.7074C457.383 85.7074 456.777 84.6037 456.777 83.2067C456.777 81.8097 457.383 80.6911 458.621 80.6911C459.839 80.6911 460.446 81.8097 460.446 83.2067C460.446 84.6037 459.839 85.7074 458.621 85.7074ZM465.995 87.1541C467.193 87.1541 467.909 86.5923 468.237 85.951H468.297V87H470.027V81.8892C470.027 79.8707 468.382 79.2642 466.925 79.2642C465.319 79.2642 464.086 79.9801 463.688 81.3722L465.369 81.6108C465.548 81.0888 466.055 80.6413 466.935 80.6413C467.77 80.6413 468.227 81.0689 468.227 81.8196V81.8494C468.227 82.3665 467.686 82.3913 466.338 82.5355C464.857 82.6946 463.44 83.1371 463.44 84.8572C463.44 86.3587 464.539 87.1541 465.995 87.1541ZM466.463 85.8317C465.712 85.8317 465.175 85.4886 465.175 84.8274C465.175 84.1364 465.776 83.848 466.582 83.7337C467.054 83.669 467.999 83.5497 468.232 83.3608V84.2607C468.232 85.1108 467.546 85.8317 466.463 85.8317ZM474.671 87.1342C475.983 87.1342 476.575 86.3537 476.858 85.7969H476.968V87H478.737V76.8182H476.933V80.6264H476.858C476.585 80.0746 476.023 79.2642 474.676 79.2642C472.911 79.2642 471.524 80.6463 471.524 83.1918C471.524 85.7074 472.871 87.1342 474.671 87.1342ZM475.173 85.6577C473.985 85.6577 473.358 84.6136 473.358 83.1818C473.358 81.7599 473.975 80.7408 475.173 80.7408C476.331 80.7408 476.968 81.7003 476.968 83.1818C476.968 84.6634 476.321 85.6577 475.173 85.6577ZM489.741 79.6172H491.516C491.481 77.897 490.014 76.679 487.847 76.679C485.709 76.679 484.103 77.8821 484.108 79.6818C484.108 81.1435 485.147 81.9837 486.822 82.4162L487.981 82.7145C489.08 82.9929 489.805 83.3359 489.81 84.1264C489.805 84.9964 488.98 85.5781 487.777 85.5781C486.624 85.5781 485.729 85.0611 485.654 83.9922H483.839C483.914 86.0156 485.42 87.1541 487.792 87.1541C490.233 87.1541 491.65 85.9361 491.655 84.1413C491.65 82.3764 490.193 81.571 488.662 81.2081L487.707 80.9695C486.872 80.7706 485.967 80.4176 485.977 79.5675C485.982 78.8018 486.668 78.2401 487.822 78.2401C488.92 78.2401 489.646 78.7521 489.741 79.6172ZM498.087 83.7884C498.087 84.9517 497.257 85.5284 496.461 85.5284C495.596 85.5284 495.019 84.9169 495.019 83.9474V79.3636H493.22V84.2259C493.22 86.0604 494.264 87.0994 495.765 87.0994C496.909 87.0994 497.714 86.4979 498.062 85.6428H498.142V87H499.887V79.3636H498.087V83.7884ZM501.737 87H503.537V82.3565C503.537 81.4169 504.163 80.7805 504.939 80.7805C505.7 80.7805 506.222 81.2926 506.222 82.0781V87H507.987V82.2372C507.987 81.3771 508.499 80.7805 509.369 80.7805C510.094 80.7805 510.671 81.2081 510.671 82.1527V87H512.476V81.8743C512.476 80.169 511.491 79.2642 510.089 79.2642C508.981 79.2642 508.136 79.8111 507.798 80.6612H507.718C507.425 79.7962 506.684 79.2642 505.655 79.2642C504.631 79.2642 503.865 79.7912 503.547 80.6612H503.457V79.3636H501.737V87ZM514.302 87H516.101V82.3565C516.101 81.4169 516.728 80.7805 517.503 80.7805C518.264 80.7805 518.786 81.2926 518.786 82.0781V87H520.551V82.2372C520.551 81.3771 521.063 80.7805 521.933 80.7805C522.659 80.7805 523.236 81.2081 523.236 82.1527V87H525.04V81.8743C525.04 80.169 524.056 79.2642 522.654 79.2642C521.545 79.2642 520.7 79.8111 520.362 80.6612H520.282C519.989 79.7962 519.248 79.2642 518.219 79.2642C517.195 79.2642 516.43 79.7912 516.111 80.6612H516.022V79.3636H514.302V87ZM529.064 87.1541C530.262 87.1541 530.978 86.5923 531.306 85.951H531.365V87H533.096V81.8892C533.096 79.8707 531.45 79.2642 529.993 79.2642C528.387 79.2642 527.154 79.9801 526.757 81.3722L528.437 81.6108C528.616 81.0888 529.123 80.6413 530.003 80.6413C530.838 80.6413 531.296 81.0689 531.296 81.8196V81.8494C531.296 82.3665 530.754 82.3913 529.407 82.5355C527.925 82.6946 526.508 83.1371 526.508 84.8572C526.508 86.3587 527.607 87.1541 529.064 87.1541ZM529.531 85.8317C528.78 85.8317 528.243 85.4886 528.243 84.8274C528.243 84.1364 528.845 83.848 529.65 83.7337C530.123 83.669 531.067 83.5497 531.301 83.3608V84.2607C531.301 85.1108 530.615 85.8317 529.531 85.8317ZM534.905 87H536.705V82.5107C536.705 81.5412 537.436 80.8551 538.425 80.8551C538.728 80.8551 539.106 80.9098 539.26 80.9595V79.304C539.096 79.2741 538.813 79.2543 538.614 79.2543C537.739 79.2543 537.008 79.7514 536.73 80.6364H536.65V79.3636H534.905V87ZM541.807 89.8636C543.209 89.8636 544.019 89.1428 544.452 87.9247L547.519 79.3736L545.595 79.3636L543.83 85.1307H543.751L541.991 79.3636H540.082L542.851 87.1591L542.697 87.5717C542.364 88.4418 541.837 88.5014 541.051 88.2727L540.634 89.6747C540.877 89.7741 541.315 89.8636 541.807 89.8636Z" fill="#2D3748"/>
<path d="M566 82.9767L570.125 78.8517L571.303 80.03L566 85.3334L560.697 80.03L561.875 78.8517L566 82.9767Z" fill="#2D3748"/>
<rect x="376.5" y="66.5" width="211" height="31" rx="5.5" stroke="#E2E8F0"/>
<rect x="12.5" y="42.5" width="599" height="99" rx="5.5" stroke="#E2E8F0"/>
</g>
<g filter="url(#filter1_dd_915_9657)">
<rect x="12" y="152" width="600" height="100" rx="6" fill="white"/>
<path d="M37.2642 198H40.3395V191.991H46.2557V189.456H40.3395V185.99H46.8949V183.455H37.2642V198ZM48.1112 183.455L53.4165 192.858V198H56.4705V192.858L61.7759 183.455H58.3313L55.0146 189.719H54.8725L51.5558 183.455H48.1112ZM63.3704 198H73.7397V195.486H67.6317V195.386L69.7553 193.305C72.7454 190.578 73.5479 189.214 73.5479 187.56C73.5479 185.038 71.4883 183.256 68.3704 183.256C65.3164 183.256 63.2212 185.081 63.2283 187.936H66.1474C66.1403 186.544 67.021 185.692 68.3491 185.692C69.6275 185.692 70.5792 186.487 70.5792 187.766C70.5792 188.923 69.869 189.719 68.5479 190.99L63.3704 195.784V198ZM81.6712 198.32C85.3288 198.32 87.5376 195.536 87.5447 190.741C87.5518 185.983 85.3146 183.256 81.6712 183.256C78.0206 183.256 75.8047 185.976 75.7976 190.741C75.7834 195.521 78.0064 198.312 81.6712 198.32ZM81.6712 195.77C80.0021 195.77 78.9226 194.094 78.9297 190.741C78.9368 187.439 80.0092 185.777 81.6712 185.777C83.326 185.777 84.4055 187.439 84.4055 190.741C84.4126 194.094 83.3331 195.77 81.6712 195.77ZM89.7376 198H100.107V195.486H93.9989V195.386L96.1225 193.305C99.1126 190.578 99.9151 189.214 99.9151 187.56C99.9151 185.038 97.8555 183.256 94.7376 183.256C91.6836 183.256 89.5884 185.081 89.5955 187.936H92.5146C92.5075 186.544 93.3881 185.692 94.7163 185.692C95.9947 185.692 96.9464 186.487 96.9464 187.766C96.9464 188.923 96.2362 189.719 94.9151 190.99L89.7376 195.784V198ZM108.038 198.32C111.696 198.32 113.905 195.536 113.912 190.741C113.919 185.983 111.682 183.256 108.038 183.256C104.388 183.256 102.172 185.976 102.165 190.741C102.151 195.521 104.374 198.312 108.038 198.32ZM108.038 195.77C106.369 195.77 105.29 194.094 105.297 190.741C105.304 187.439 106.376 185.777 108.038 185.777C109.693 185.777 110.773 187.439 110.773 190.741C110.78 194.094 109.7 195.77 108.038 195.77Z" fill="#2D3748"/>
<path d="M40.6335 212.818H39.4006L36.8551 214.509V215.761L39.3409 214.111H39.4006V223H40.6335V212.818ZM51.576 212.818V220.097C51.576 221.364 50.9695 222.045 49.9055 222.045C48.9361 222.045 48.2351 221.479 48.2351 220.614H47.022C47.022 222.18 48.2351 223.139 49.9055 223.139C51.6754 223.139 52.8089 222.05 52.8089 220.097V212.818H51.576ZM59.9332 219.878C59.9332 221.31 58.8395 221.966 57.9645 221.966C56.9901 221.966 56.294 221.25 56.294 220.136V215.364H55.1207V220.216C55.1207 222.165 56.1548 223.099 57.5866 223.099C58.7401 223.099 59.4957 222.483 59.8537 221.707H59.9332V223H61.1065V215.364H59.9332V219.878ZM64.4288 212.818H63.2555V223H64.4288V212.818ZM67.3335 225.864C68.3924 225.864 69.1381 225.302 69.5806 224.114L72.832 215.384L71.5494 215.364L69.4414 221.449H69.3619L67.2539 215.364H65.9812L68.805 223.04L68.5863 223.636C68.1587 224.8 67.6317 224.909 66.7766 224.69L66.4783 225.724C66.5977 225.784 66.9357 225.864 67.3335 225.864ZM78.302 223H84.7253V221.906H79.9924V221.827L82.2793 219.381C84.0293 217.506 84.5463 216.631 84.5463 215.503C84.5463 213.932 83.2736 212.679 81.4838 212.679C79.699 212.679 78.3418 213.892 78.3418 215.682H79.5151C79.5151 214.523 80.2658 213.753 81.4441 213.753C82.5478 213.753 83.3929 214.429 83.3929 215.503C83.3929 216.442 82.8411 217.138 81.6628 218.426L78.302 222.105V223ZM90.0996 223.139C92.3468 223.139 93.6394 221.235 93.6394 217.909C93.6394 214.608 92.3269 212.679 90.0996 212.679C87.8723 212.679 86.5598 214.608 86.5598 217.909C86.5598 221.235 87.8525 223.139 90.0996 223.139ZM90.0996 222.045C88.6181 222.045 87.753 220.559 87.753 217.909C87.753 215.264 88.628 213.753 90.0996 213.753C91.5712 213.753 92.4462 215.264 92.4462 217.909C92.4462 220.559 91.5811 222.045 90.0996 222.045ZM99.1081 212.818H97.8752L95.3297 214.509V215.761L97.8155 214.111H97.8752V223H99.1081V212.818ZM105.278 212.679C103.21 212.654 101.877 214.21 101.877 216.08C101.877 218.048 103.329 219.46 105.079 219.46C106.133 219.46 107.028 218.943 107.585 218.108H107.664C107.664 220.614 106.69 222.045 105.119 222.045C104.045 222.045 103.389 221.369 103.17 220.435H101.957C102.195 222.045 103.409 223.139 105.119 223.139C107.406 223.139 108.818 221.111 108.818 217.491C108.818 213.753 106.948 212.699 105.278 212.679ZM105.278 213.773C106.551 213.773 107.485 214.866 107.485 216.06C107.485 217.273 106.491 218.366 105.238 218.366C103.985 218.366 103.07 217.352 103.07 216.08C103.07 214.807 104.025 213.773 105.278 213.773ZM118.051 215.364H116.42V213.534H115.247V215.364H114.094V216.358H115.247V221.131C115.247 222.463 116.321 223.099 117.315 223.099C117.753 223.099 118.031 223.02 118.19 222.96L117.952 221.906C117.852 221.926 117.693 221.966 117.435 221.966C116.918 221.966 116.42 221.807 116.42 220.812V216.358H118.051V215.364ZM122.836 223.159C124.904 223.159 126.297 221.588 126.297 219.222C126.297 216.835 124.904 215.264 122.836 215.264C120.768 215.264 119.376 216.835 119.376 219.222C119.376 221.588 120.768 223.159 122.836 223.159ZM122.836 222.105C121.265 222.105 120.549 220.753 120.549 219.222C120.549 217.69 121.265 216.318 122.836 216.318C124.407 216.318 125.123 217.69 125.123 219.222C125.123 220.753 124.407 222.105 122.836 222.105ZM135.445 223.139C137.419 223.139 138.886 221.901 138.886 220.236C138.886 218.943 138.12 218.004 136.838 217.79V217.71C137.867 217.397 138.508 216.552 138.508 215.403C138.508 213.962 137.369 212.679 135.485 212.679C133.725 212.679 132.264 213.763 132.204 215.364H133.397C133.442 214.349 134.406 213.753 135.465 213.753C136.589 213.753 137.315 214.434 137.315 215.463C137.315 216.537 136.475 217.233 135.267 217.233H134.451V218.327H135.267C136.813 218.327 137.673 219.112 137.673 220.236C137.673 221.315 136.733 222.045 135.426 222.045C134.247 222.045 133.313 221.439 133.238 220.455H131.985C132.06 222.055 133.472 223.139 135.445 223.139ZM144.24 223.139C146.487 223.139 147.78 221.235 147.78 217.909C147.78 214.608 146.468 212.679 144.24 212.679C142.013 212.679 140.7 214.608 140.7 217.909C140.7 221.235 141.993 223.139 144.24 223.139ZM144.24 222.045C142.759 222.045 141.894 220.559 141.894 217.909C141.894 215.264 142.769 213.753 144.24 213.753C145.712 213.753 146.587 215.264 146.587 217.909C146.587 220.559 145.722 222.045 144.24 222.045ZM157.683 212.818V220.097C157.683 221.364 157.077 222.045 156.013 222.045C155.044 222.045 154.343 221.479 154.343 220.614H153.129C153.129 222.18 154.343 223.139 156.013 223.139C157.783 223.139 158.916 222.05 158.916 220.097V212.818H157.683ZM166.041 219.878C166.041 221.31 164.947 221.966 164.072 221.966C163.097 221.966 162.401 221.25 162.401 220.136V215.364H161.228V220.216C161.228 222.165 162.262 223.099 163.694 223.099C164.847 223.099 165.603 222.483 165.961 221.707H166.041V223H167.214V215.364H166.041V219.878ZM170.536 218.406C170.536 217.074 171.362 216.318 172.485 216.318C173.574 216.318 174.235 217.029 174.235 218.227V223H175.408V218.148C175.408 216.199 174.369 215.264 172.823 215.264C171.67 215.264 170.954 215.781 170.596 216.557H170.496V215.364H169.363V223H170.536V218.406ZM180.754 223.159C182.305 223.159 183.439 222.384 183.797 221.23L182.663 220.912C182.365 221.707 181.674 222.105 180.754 222.105C179.377 222.105 178.427 221.215 178.373 219.58H183.916V219.082C183.916 216.239 182.226 215.264 180.635 215.264C178.567 215.264 177.194 216.895 177.194 219.241C177.194 221.588 178.547 223.159 180.754 223.159ZM178.373 218.565C178.452 217.377 179.292 216.318 180.635 216.318C181.907 216.318 182.723 217.273 182.723 218.565H178.373ZM189.618 223H196.042V221.906H191.309V221.827L193.596 219.381C195.346 217.506 195.863 216.631 195.863 215.503C195.863 213.932 194.59 212.679 192.8 212.679C191.015 212.679 189.658 213.892 189.658 215.682H190.831C190.831 214.523 191.582 213.753 192.76 213.753C193.864 213.753 194.709 214.429 194.709 215.503C194.709 216.442 194.157 217.138 192.979 218.426L189.618 222.105V223ZM201.416 223.139C203.663 223.139 204.956 221.235 204.956 217.909C204.956 214.608 203.643 212.679 201.416 212.679C199.189 212.679 197.876 214.608 197.876 217.909C197.876 221.235 199.169 223.139 201.416 223.139ZM201.416 222.045C199.934 222.045 199.069 220.559 199.069 217.909C199.069 215.264 199.944 213.753 201.416 213.753C202.888 213.753 203.763 215.264 203.763 217.909C203.763 220.559 202.898 222.045 201.416 222.045ZM206.845 223H213.268V221.906H208.535V221.827L210.822 219.381C212.572 217.506 213.089 216.631 213.089 215.503C213.089 213.932 211.817 212.679 210.027 212.679C208.242 212.679 206.885 213.892 206.885 215.682H208.058C208.058 214.523 208.809 213.753 209.987 213.753C211.091 213.753 211.936 214.429 211.936 215.503C211.936 216.442 211.384 217.138 210.206 218.426L206.845 222.105V223ZM218.643 223.139C220.89 223.139 222.182 221.235 222.182 217.909C222.182 214.608 220.87 212.679 218.643 212.679C216.415 212.679 215.103 214.608 215.103 217.909C215.103 221.235 216.395 223.139 218.643 223.139ZM218.643 222.045C217.161 222.045 216.296 220.559 216.296 217.909C216.296 215.264 217.171 213.753 218.643 213.753C220.114 213.753 220.989 215.264 220.989 217.909C220.989 220.559 220.124 222.045 218.643 222.045Z" fill="#718096"/>
<path d="M402 194V196.667C402 197.02 401.86 197.359 401.609 197.609C401.359 197.86 401.02 198 400.667 198H391.333C390.98 198 390.641 197.86 390.391 197.609C390.14 197.359 390 197.02 390 196.667V194" stroke="#2D3748" stroke-width="2" stroke-linecap="round" stroke-linejoin="round"/>
<path d="M392.667 190.667L396 194L399.333 190.667" stroke="#2D3748" stroke-width="2" stroke-linecap="round" stroke-linejoin="round"/>
<path d="M396 194V186" stroke="#2D3748" stroke-width="2" stroke-linecap="round" stroke-linejoin="round"/>
<path d="M416.455 197C419.557 197 421.396 195.081 421.396 191.899C421.396 188.727 419.557 186.818 416.524 186.818H413.004V197H416.455ZM414.849 195.404V188.414H416.42C418.488 188.414 419.567 189.567 419.567 191.899C419.567 194.241 418.488 195.404 416.365 195.404H414.849ZM426.4 197.149C428.637 197.149 430.059 195.573 430.059 193.212C430.059 190.845 428.637 189.264 426.4 189.264C424.163 189.264 422.741 190.845 422.741 193.212C422.741 195.573 424.163 197.149 426.4 197.149ZM426.41 195.707C425.172 195.707 424.566 194.604 424.566 193.207C424.566 191.81 425.172 190.691 426.41 190.691C427.628 190.691 428.235 191.81 428.235 193.207C428.235 194.604 427.628 195.707 426.41 195.707ZM432.958 197H434.837L436.269 191.839H436.373L437.805 197H439.679L441.842 189.364H440.002L438.68 194.703H438.605L437.233 189.364H435.419L434.047 194.733H433.977L432.635 189.364H430.8L432.958 197ZM444.898 192.526C444.898 191.422 445.564 190.786 446.514 190.786C447.444 190.786 448.001 191.397 448.001 192.416V197H449.8V192.138C449.805 190.308 448.761 189.264 447.185 189.264C446.042 189.264 445.256 189.811 444.908 190.661H444.819V189.364H443.099V197H444.898V192.526ZM453.43 186.818H451.63V197H453.43V186.818ZM458.611 197.149C460.848 197.149 462.27 195.573 462.27 193.212C462.27 190.845 460.848 189.264 458.611 189.264C456.374 189.264 454.952 190.845 454.952 193.212C454.952 195.573 456.374 197.149 458.611 197.149ZM458.621 195.707C457.383 195.707 456.777 194.604 456.777 193.207C456.777 191.81 457.383 190.691 458.621 190.691C459.839 190.691 460.446 191.81 460.446 193.207C460.446 194.604 459.839 195.707 458.621 195.707ZM465.995 197.154C467.193 197.154 467.909 196.592 468.237 195.951H468.297V197H470.027V191.889C470.027 189.871 468.382 189.264 466.925 189.264C465.319 189.264 464.086 189.98 463.688 191.372L465.369 191.611C465.548 191.089 466.055 190.641 466.935 190.641C467.77 190.641 468.227 191.069 468.227 191.82V191.849C468.227 192.366 467.686 192.391 466.338 192.536C464.857 192.695 463.44 193.137 463.44 194.857C463.44 196.359 464.539 197.154 465.995 197.154ZM466.463 195.832C465.712 195.832 465.175 195.489 465.175 194.827C465.175 194.136 465.776 193.848 466.582 193.734C467.054 193.669 467.999 193.55 468.232 193.361V194.261C468.232 195.111 467.546 195.832 466.463 195.832ZM474.671 197.134C475.983 197.134 476.575 196.354 476.858 195.797H476.968V197H478.737V186.818H476.933V190.626H476.858C476.585 190.075 476.023 189.264 474.676 189.264C472.911 189.264 471.524 190.646 471.524 193.192C471.524 195.707 472.871 197.134 474.671 197.134ZM475.173 195.658C473.985 195.658 473.358 194.614 473.358 193.182C473.358 191.76 473.975 190.741 475.173 190.741C476.331 190.741 476.968 191.7 476.968 193.182C476.968 194.663 476.321 195.658 475.173 195.658ZM489.741 189.617H491.516C491.481 187.897 490.014 186.679 487.847 186.679C485.709 186.679 484.103 187.882 484.108 189.682C484.108 191.143 485.147 191.984 486.822 192.416L487.981 192.714C489.08 192.993 489.805 193.336 489.81 194.126C489.805 194.996 488.98 195.578 487.777 195.578C486.624 195.578 485.729 195.061 485.654 193.992H483.839C483.914 196.016 485.42 197.154 487.792 197.154C490.233 197.154 491.65 195.936 491.655 194.141C491.65 192.376 490.193 191.571 488.662 191.208L487.707 190.969C486.872 190.771 485.967 190.418 485.977 189.567C485.982 188.802 486.668 188.24 487.822 188.24C488.92 188.24 489.646 188.752 489.741 189.617ZM498.087 193.788C498.087 194.952 497.257 195.528 496.461 195.528C495.596 195.528 495.019 194.917 495.019 193.947V189.364H493.22V194.226C493.22 196.06 494.264 197.099 495.765 197.099C496.909 197.099 497.714 196.498 498.062 195.643H498.142V197H499.887V189.364H498.087V193.788ZM501.737 197H503.537V192.357C503.537 191.417 504.163 190.781 504.939 190.781C505.7 190.781 506.222 191.293 506.222 192.078V197H507.987V192.237C507.987 191.377 508.499 190.781 509.369 190.781C510.094 190.781 510.671 191.208 510.671 192.153V197H512.476V191.874C512.476 190.169 511.491 189.264 510.089 189.264C508.981 189.264 508.136 189.811 507.798 190.661H507.718C507.425 189.796 506.684 189.264 505.655 189.264C504.631 189.264 503.865 189.791 503.547 190.661H503.457V189.364H501.737V197ZM514.302 197H516.101V192.357C516.101 191.417 516.728 190.781 517.503 190.781C518.264 190.781 518.786 191.293 518.786 192.078V197H520.551V192.237C520.551 191.377 521.063 190.781 521.933 190.781C522.659 190.781 523.236 191.208 523.236 192.153V197H525.04V191.874C525.04 190.169 524.056 189.264 522.654 189.264C521.545 189.264 520.7 189.811 520.362 190.661H520.282C519.989 189.796 519.248 189.264 518.219 189.264C517.195 189.264 516.43 189.791 516.111 190.661H516.022V189.364H514.302V197ZM529.064 197.154C530.262 197.154 530.978 196.592 531.306 195.951H531.365V197H533.096V191.889C533.096 189.871 531.45 189.264 529.993 189.264C528.387 189.264 527.154 189.98 526.757 191.372L528.437 191.611C528.616 191.089 529.123 190.641 530.003 190.641C530.838 190.641 531.296 191.069 531.296 191.82V191.849C531.296 192.366 530.754 192.391 529.407 192.536C527.925 192.695 526.508 193.137 526.508 194.857C526.508 196.359 527.607 197.154 529.064 197.154ZM529.531 195.832C528.78 195.832 528.243 195.489 528.243 194.827C528.243 194.136 528.845 193.848 529.65 193.734C530.123 193.669 531.067 193.55 531.301 193.361V194.261C531.301 195.111 530.615 195.832 529.531 195.832ZM534.905 197H536.705V192.511C536.705 191.541 537.436 190.855 538.425 190.855C538.728 190.855 539.106 190.91 539.26 190.96V189.304C539.096 189.274 538.813 189.254 538.614 189.254C537.739 189.254 537.008 189.751 536.73 190.636H536.65V189.364H534.905V197ZM541.807 199.864C543.209 199.864 544.019 199.143 544.452 197.925L547.519 189.374L545.595 189.364L543.83 195.131H543.751L541.991 189.364H540.082L542.851 197.159L542.697 197.572C542.364 198.442 541.837 198.501 541.051 198.273L540.634 199.675C540.877 199.774 541.315 199.864 541.807 199.864Z" fill="#2D3748"/>
<path d="M566 192.977L570.125 188.852L571.303 190.03L566 195.333L560.697 190.03L561.875 188.852L566 192.977Z" fill="#2D3748"/>
<rect x="376.5" y="176.5" width="211" height="31" rx="5.5" stroke="#E2E8F0"/>
<rect x="12.5" y="152.5" width="599" height="99" rx="5.5" stroke="#E2E8F0"/>
</g>
<g filter="url(#filter2_dd_915_9657)">
<rect x="12" y="262" width="600" height="100" rx="6" fill="white"/>
<path d="M37.2642 308H40.3395V301.991H46.2557V299.456H40.3395V295.99H46.8949V293.455H37.2642V308ZM48.1112 293.455L53.4165 302.858V308H56.4705V302.858L61.7759 293.455H58.3313L55.0146 299.719H54.8725L51.5558 293.455H48.1112ZM63.3704 308H73.7397V305.486H67.6317V305.386L69.7553 303.305C72.7454 300.578 73.5479 299.214 73.5479 297.56C73.5479 295.038 71.4883 293.256 68.3704 293.256C65.3164 293.256 63.2212 295.081 63.2283 297.936H66.1474C66.1403 296.544 67.021 295.692 68.3491 295.692C69.6275 295.692 70.5792 296.487 70.5792 297.766C70.5792 298.923 69.869 299.719 68.5479 300.99L63.3704 305.784V308ZM81.6712 308.32C85.3288 308.32 87.5376 305.536 87.5447 300.741C87.5518 295.983 85.3146 293.256 81.6712 293.256C78.0206 293.256 75.8047 295.976 75.7976 300.741C75.7834 305.521 78.0064 308.312 81.6712 308.32ZM81.6712 305.77C80.0021 305.77 78.9226 304.094 78.9297 300.741C78.9368 297.439 80.0092 295.777 81.6712 295.777C83.326 295.777 84.4055 297.439 84.4055 300.741C84.4126 304.094 83.3331 305.77 81.6712 305.77ZM96.0657 293.455H93.1751L89.5742 295.734V298.462L92.9052 296.374H92.9904V308H96.0657V293.455ZM104.786 293.256C101.533 293.241 99.3381 295.372 99.3523 298.298C99.3594 301.011 101.241 302.979 103.82 302.979C105.418 302.979 106.838 302.205 107.484 300.926H107.584C107.577 303.81 106.575 305.564 104.679 305.564C103.564 305.564 102.761 304.953 102.527 303.895H99.4943C99.7784 306.345 101.767 308.199 104.679 308.199C108.28 308.199 110.602 305.287 110.595 300.351C110.588 295.081 107.776 293.27 104.786 293.256ZM104.807 295.67C106.22 295.67 107.264 296.821 107.278 298.206C107.286 299.598 106.185 300.749 104.778 300.749C103.358 300.749 102.342 299.641 102.335 298.213C102.321 296.793 103.379 295.67 104.807 295.67Z" fill="#2D3748"/>
<path d="M40.6335 322.818H39.4006L36.8551 324.509V325.761L39.3409 324.111H39.4006V333H40.6335V322.818ZM51.576 322.818V330.097C51.576 331.364 50.9695 332.045 49.9055 332.045C48.9361 332.045 48.2351 331.479 48.2351 330.614H47.022C47.022 332.18 48.2351 333.139 49.9055 333.139C51.6754 333.139 52.8089 332.05 52.8089 330.097V322.818H51.576ZM59.9332 329.878C59.9332 331.31 58.8395 331.966 57.9645 331.966C56.9901 331.966 56.294 331.25 56.294 330.136V325.364H55.1207V330.216C55.1207 332.165 56.1548 333.099 57.5866 333.099C58.7401 333.099 59.4957 332.483 59.8537 331.707H59.9332V333H61.1065V325.364H59.9332V329.878ZM64.4288 322.818H63.2555V333H64.4288V322.818ZM67.3335 335.864C68.3924 335.864 69.1381 335.302 69.5806 334.114L72.832 325.384L71.5494 325.364L69.4414 331.449H69.3619L67.2539 325.364H65.9812L68.805 333.04L68.5863 333.636C68.1587 334.8 67.6317 334.909 66.7766 334.69L66.4783 335.724C66.5977 335.784 66.9357 335.864 67.3335 335.864ZM78.302 333H84.7253V331.906H79.9924V331.827L82.2793 329.381C84.0293 327.506 84.5463 326.631 84.5463 325.503C84.5463 323.932 83.2736 322.679 81.4838 322.679C79.699 322.679 78.3418 323.892 78.3418 325.682H79.5151C79.5151 324.523 80.2658 323.753 81.4441 323.753C82.5478 323.753 83.3929 324.429 83.3929 325.503C83.3929 326.442 82.8411 327.138 81.6628 328.426L78.302 332.105V333ZM90.0996 333.139C92.3468 333.139 93.6394 331.235 93.6394 327.909C93.6394 324.608 92.3269 322.679 90.0996 322.679C87.8723 322.679 86.5598 324.608 86.5598 327.909C86.5598 331.235 87.8525 333.139 90.0996 333.139ZM90.0996 332.045C88.6181 332.045 87.753 330.559 87.753 327.909C87.753 325.264 88.628 323.753 90.0996 323.753C91.5712 323.753 92.4462 325.264 92.4462 327.909C92.4462 330.559 91.5811 332.045 90.0996 332.045ZM99.1081 322.818H97.8752L95.3297 324.509V325.761L97.8155 324.111H97.8752V333H99.1081V322.818ZM105.298 333.139C107.331 333.139 108.748 331.951 108.758 330.295C108.748 329.008 107.888 327.914 106.789 327.71V327.651C107.744 327.402 108.37 326.467 108.38 325.384C108.37 323.832 107.068 322.679 105.298 322.679C103.508 322.679 102.205 323.832 102.215 325.384C102.205 326.467 102.832 327.402 103.806 327.651V327.71C102.688 327.914 101.828 329.008 101.838 330.295C101.828 331.951 103.244 333.139 105.298 333.139ZM105.298 332.045C103.901 332.045 103.041 331.33 103.051 330.236C103.041 329.087 103.99 328.267 105.298 328.267C106.585 328.267 107.535 329.087 107.545 330.236C107.535 331.33 106.675 332.045 105.298 332.045ZM105.298 327.213C104.184 327.213 103.399 326.517 103.409 325.463C103.399 324.429 104.154 323.753 105.298 323.753C106.421 323.753 107.177 324.429 107.187 325.463C107.177 326.517 106.392 327.213 105.298 327.213ZM117.942 325.364H116.311V323.534H115.138V325.364H113.984V326.358H115.138V331.131C115.138 332.463 116.212 333.099 117.206 333.099C117.643 333.099 117.922 333.02 118.081 332.96L117.842 331.906C117.743 331.926 117.584 331.966 117.325 331.966C116.808 331.966 116.311 331.807 116.311 330.812V326.358H117.942V325.364ZM122.727 333.159C124.795 333.159 126.187 331.588 126.187 329.222C126.187 326.835 124.795 325.264 122.727 325.264C120.659 325.264 119.267 326.835 119.267 329.222C119.267 331.588 120.659 333.159 122.727 333.159ZM122.727 332.105C121.156 332.105 120.44 330.753 120.44 329.222C120.44 327.69 121.156 326.318 122.727 326.318C124.298 326.318 125.014 327.69 125.014 329.222C125.014 330.753 124.298 332.105 122.727 332.105ZM135.336 333.139C137.31 333.139 138.776 331.901 138.776 330.236C138.776 328.943 138.011 328.004 136.728 327.79V327.71C137.757 327.397 138.399 326.552 138.399 325.403C138.399 323.962 137.26 322.679 135.376 322.679C133.616 322.679 132.154 323.763 132.095 325.364H133.288C133.333 324.349 134.297 323.753 135.356 323.753C136.48 323.753 137.205 324.434 137.205 325.463C137.205 326.537 136.365 327.233 135.157 327.233H134.342V328.327H135.157C136.703 328.327 137.563 329.112 137.563 330.236C137.563 331.315 136.624 332.045 135.316 332.045C134.138 332.045 133.203 331.439 133.129 330.455H131.876C131.95 332.055 133.362 333.139 135.336 333.139ZM144.131 333.139C146.378 333.139 147.671 331.235 147.671 327.909C147.671 324.608 146.358 322.679 144.131 322.679C141.904 322.679 140.591 324.608 140.591 327.909C140.591 331.235 141.884 333.139 144.131 333.139ZM144.131 332.045C142.649 332.045 141.784 330.559 141.784 327.909C141.784 325.264 142.659 323.753 144.131 323.753C145.602 323.753 146.477 325.264 146.477 327.909C146.477 330.559 145.612 332.045 144.131 332.045ZM157.574 322.818V330.097C157.574 331.364 156.968 332.045 155.904 332.045C154.934 332.045 154.233 331.479 154.233 330.614H153.02C153.02 332.18 154.233 333.139 155.904 333.139C157.673 333.139 158.807 332.05 158.807 330.097V322.818H157.574ZM165.931 329.878C165.931 331.31 164.838 331.966 163.963 331.966C162.988 331.966 162.292 331.25 162.292 330.136V325.364H161.119V330.216C161.119 332.165 162.153 333.099 163.585 333.099C164.738 333.099 165.494 332.483 165.852 331.707H165.931V333H167.105V325.364H165.931V329.878ZM170.427 328.406C170.427 327.074 171.252 326.318 172.376 326.318C173.464 326.318 174.126 327.029 174.126 328.227V333H175.299V328.148C175.299 326.199 174.26 325.264 172.714 325.264C171.56 325.264 170.844 325.781 170.487 326.557H170.387V325.364H169.254V333H170.427V328.406ZM180.645 333.159C182.196 333.159 183.329 332.384 183.687 331.23L182.554 330.912C182.256 331.707 181.564 332.105 180.645 332.105C179.268 332.105 178.318 331.215 178.263 329.58H183.807V329.082C183.807 326.239 182.116 325.264 180.525 325.264C178.457 325.264 177.085 326.895 177.085 329.241C177.085 331.588 178.437 333.159 180.645 333.159ZM178.263 328.565C178.343 327.377 179.183 326.318 180.525 326.318C181.798 326.318 182.613 327.273 182.613 328.565H178.263ZM189.509 333H195.932V331.906H191.199V331.827L193.486 329.381C195.236 327.506 195.753 326.631 195.753 325.503C195.753 323.932 194.481 322.679 192.691 322.679C190.906 322.679 189.549 323.892 189.549 325.682H190.722C190.722 324.523 191.473 323.753 192.651 323.753C193.755 323.753 194.6 324.429 194.6 325.503C194.6 326.442 194.048 327.138 192.87 328.426L189.509 332.105V333ZM201.307 333.139C203.554 333.139 204.846 331.235 204.846 327.909C204.846 324.608 203.534 322.679 201.307 322.679C199.079 322.679 197.767 324.608 197.767 327.909C197.767 331.235 199.059 333.139 201.307 333.139ZM201.307 332.045C199.825 332.045 198.96 330.559 198.96 327.909C198.96 325.264 199.835 323.753 201.307 323.753C202.778 323.753 203.653 325.264 203.653 327.909C203.653 330.559 202.788 332.045 201.307 332.045ZM210.315 322.818H209.082L206.537 324.509V325.761L209.023 324.111H209.082V333H210.315V322.818ZM216.485 322.679C214.417 322.654 213.084 324.21 213.084 326.08C213.084 328.048 214.536 329.46 216.286 329.46C217.34 329.46 218.235 328.943 218.792 328.108H218.871C218.871 330.614 217.897 332.045 216.326 332.045C215.252 332.045 214.596 331.369 214.377 330.435H213.164C213.403 332.045 214.616 333.139 216.326 333.139C218.613 333.139 220.025 331.111 220.025 327.491C220.025 323.753 218.155 322.699 216.485 322.679ZM216.485 323.773C217.758 323.773 218.692 324.866 218.692 326.06C218.692 327.273 217.698 328.366 216.445 328.366C215.192 328.366 214.278 327.352 214.278 326.08C214.278 324.807 215.232 323.773 216.485 323.773Z" fill="#718096"/>
<path d="M402 304V306.667C402 307.02 401.86 307.359 401.609 307.609C401.359 307.86 401.02 308 400.667 308H391.333C390.98 308 390.641 307.86 390.391 307.609C390.14 307.359 390 307.02 390 306.667V304" stroke="#2D3748" stroke-width="2" stroke-linecap="round" stroke-linejoin="round"/>
<path d="M392.667 300.667L396 304L399.333 300.667" stroke="#2D3748" stroke-width="2" stroke-linecap="round" stroke-linejoin="round"/>
<path d="M396 304V296" stroke="#2D3748" stroke-width="2" stroke-linecap="round" stroke-linejoin="round"/>
<path d="M416.455 307C419.557 307 421.396 305.081 421.396 301.899C421.396 298.727 419.557 296.818 416.524 296.818H413.004V307H416.455ZM414.849 305.404V298.414H416.42C418.488 298.414 419.567 299.567 419.567 301.899C419.567 304.241 418.488 305.404 416.365 305.404H414.849ZM426.4 307.149C428.637 307.149 430.059 305.573 430.059 303.212C430.059 300.845 428.637 299.264 426.4 299.264C424.163 299.264 422.741 300.845 422.741 303.212C422.741 305.573 424.163 307.149 426.4 307.149ZM426.41 305.707C425.172 305.707 424.566 304.604 424.566 303.207C424.566 301.81 425.172 300.691 426.41 300.691C427.628 300.691 428.235 301.81 428.235 303.207C428.235 304.604 427.628 305.707 426.41 305.707ZM432.958 307H434.837L436.269 301.839H436.373L437.805 307H439.679L441.842 299.364H440.002L438.68 304.703H438.605L437.233 299.364H435.419L434.047 304.733H433.977L432.635 299.364H430.8L432.958 307ZM444.898 302.526C444.898 301.422 445.564 300.786 446.514 300.786C447.444 300.786 448.001 301.397 448.001 302.416V307H449.8V302.138C449.805 300.308 448.761 299.264 447.185 299.264C446.042 299.264 445.256 299.811 444.908 300.661H444.819V299.364H443.099V307H444.898V302.526ZM453.43 296.818H451.63V307H453.43V296.818ZM458.611 307.149C460.848 307.149 462.27 305.573 462.27 303.212C462.27 300.845 460.848 299.264 458.611 299.264C456.374 299.264 454.952 300.845 454.952 303.212C454.952 305.573 456.374 307.149 458.611 307.149ZM458.621 305.707C457.383 305.707 456.777 304.604 456.777 303.207C456.777 301.81 457.383 300.691 458.621 300.691C459.839 300.691 460.446 301.81 460.446 303.207C460.446 304.604 459.839 305.707 458.621 305.707ZM465.995 307.154C467.193 307.154 467.909 306.592 468.237 305.951H468.297V307H470.027V301.889C470.027 299.871 468.382 299.264 466.925 299.264C465.319 299.264 464.086 299.98 463.688 301.372L465.369 301.611C465.548 301.089 466.055 300.641 466.935 300.641C467.77 300.641 468.227 301.069 468.227 301.82V301.849C468.227 302.366 467.686 302.391 466.338 302.536C464.857 302.695 463.44 303.137 463.44 304.857C463.44 306.359 464.539 307.154 465.995 307.154ZM466.463 305.832C465.712 305.832 465.175 305.489 465.175 304.827C465.175 304.136 465.776 303.848 466.582 303.734C467.054 303.669 467.999 303.55 468.232 303.361V304.261C468.232 305.111 467.546 305.832 466.463 305.832ZM474.671 307.134C475.983 307.134 476.575 306.354 476.858 305.797H476.968V307H478.737V296.818H476.933V300.626H476.858C476.585 300.075 476.023 299.264 474.676 299.264C472.911 299.264 471.524 300.646 471.524 303.192C471.524 305.707 472.871 307.134 474.671 307.134ZM475.173 305.658C473.985 305.658 473.358 304.614 473.358 303.182C473.358 301.76 473.975 300.741 475.173 300.741C476.331 300.741 476.968 301.7 476.968 303.182C476.968 304.663 476.321 305.658 475.173 305.658ZM489.741 299.617H491.516C491.481 297.897 490.014 296.679 487.847 296.679C485.709 296.679 484.103 297.882 484.108 299.682C484.108 301.143 485.147 301.984 486.822 302.416L487.981 302.714C489.08 302.993 489.805 303.336 489.81 304.126C489.805 304.996 488.98 305.578 487.777 305.578C486.624 305.578 485.729 305.061 485.654 303.992H483.839C483.914 306.016 485.42 307.154 487.792 307.154C490.233 307.154 491.65 305.936 491.655 304.141C491.65 302.376 490.193 301.571 488.662 301.208L487.707 300.969C486.872 300.771 485.967 300.418 485.977 299.567C485.982 298.802 486.668 298.24 487.822 298.24C488.92 298.24 489.646 298.752 489.741 299.617ZM498.087 303.788C498.087 304.952 497.257 305.528 496.461 305.528C495.596 305.528 495.019 304.917 495.019 303.947V299.364H493.22V304.226C493.22 306.06 494.264 307.099 495.765 307.099C496.909 307.099 497.714 306.498 498.062 305.643H498.142V307H499.887V299.364H498.087V303.788ZM501.737 307H503.537V302.357C503.537 301.417 504.163 300.781 504.939 300.781C505.7 300.781 506.222 301.293 506.222 302.078V307H507.987V302.237C507.987 301.377 508.499 300.781 509.369 300.781C510.094 300.781 510.671 301.208 510.671 302.153V307H512.476V301.874C512.476 300.169 511.491 299.264 510.089 299.264C508.981 299.264 508.136 299.811 507.798 300.661H507.718C507.425 299.796 506.684 299.264 505.655 299.264C504.631 299.264 503.865 299.791 503.547 300.661H503.457V299.364H501.737V307ZM514.302 307H516.101V302.357C516.101 301.417 516.728 300.781 517.503 300.781C518.264 300.781 518.786 301.293 518.786 302.078V307H520.551V302.237C520.551 301.377 521.063 300.781 521.933 300.781C522.659 300.781 523.236 301.208 523.236 302.153V307H525.04V301.874C525.04 300.169 524.056 299.264 522.654 299.264C521.545 299.264 520.7 299.811 520.362 300.661H520.282C519.989 299.796 519.248 299.264 518.219 299.264C517.195 299.264 516.43 299.791 516.111 300.661H516.022V299.364H514.302V307ZM529.064 307.154C530.262 307.154 530.978 306.592 531.306 305.951H531.365V307H533.096V301.889C533.096 299.871 531.45 299.264 529.993 299.264C528.387 299.264 527.154 299.98 526.757 301.372L528.437 301.611C528.616 301.089 529.123 300.641 530.003 300.641C530.838 300.641 531.296 301.069 531.296 301.82V301.849C531.296 302.366 530.754 302.391 529.407 302.536C527.925 302.695 526.508 303.137 526.508 304.857C526.508 306.359 527.607 307.154 529.064 307.154ZM529.531 305.832C528.78 305.832 528.243 305.489 528.243 304.827C528.243 304.136 528.845 303.848 529.65 303.734C530.123 303.669 531.067 303.55 531.301 303.361V304.261C531.301 305.111 530.615 305.832 529.531 305.832ZM534.905 307H536.705V302.511C536.705 301.541 537.436 300.855 538.425 300.855C538.728 300.855 539.106 300.91 539.26 300.96V299.304C539.096 299.274 538.813 299.254 538.614 299.254C537.739 299.254 537.008 299.751 536.73 300.636H536.65V299.364H534.905V307ZM541.807 309.864C543.209 309.864 544.019 309.143 544.452 307.925L547.519 299.374L545.595 299.364L543.83 305.131H543.751L541.991 299.364H540.082L542.851 307.159L542.697 307.572C542.364 308.442 541.837 308.501 541.051 308.273L540.634 309.675C540.877 309.774 541.315 309.864 541.807 309.864Z" fill="#2D3748"/>
<path d="M566 302.977L570.125 298.852L571.303 300.03L566 305.333L560.697 300.03L561.875 298.852L566 302.977Z" fill="#2D3748"/>
<rect x="376.5" y="286.5" width="211" height="31" rx="5.5" stroke="#E2E8F0"/>
<rect x="12.5" y="262.5" width="599" height="99" rx="5.5" stroke="#E2E8F0"/>
</g>
<g filter="url(#filter3_dd_915_9657)">
<rect x="12" y="372" width="600" height="100" rx="6" fill="white"/>
<path d="M37.2642 418H40.3395V411.991H46.2557V409.456H40.3395V405.99H46.8949V403.455H37.2642V418ZM48.1112 403.455L53.4165 412.858V418H56.4705V412.858L61.7759 403.455H58.3313L55.0146 409.719H54.8725L51.5558 403.455H48.1112ZM63.3704 418H73.7397V415.486H67.6317V415.386L69.7553 413.305C72.7454 410.578 73.5479 409.214 73.5479 407.56C73.5479 405.038 71.4883 403.256 68.3704 403.256C65.3164 403.256 63.2212 405.081 63.2283 407.936H66.1474C66.1403 406.544 67.021 405.692 68.3491 405.692C69.6275 405.692 70.5792 406.487 70.5792 407.766C70.5792 408.923 69.869 409.719 68.5479 410.99L63.3704 415.784V418ZM81.6712 418.32C85.3288 418.32 87.5376 415.536 87.5447 410.741C87.5518 405.983 85.3146 403.256 81.6712 403.256C78.0206 403.256 75.8047 405.976 75.7976 410.741C75.7834 415.521 78.0064 418.312 81.6712 418.32ZM81.6712 415.77C80.0021 415.77 78.9226 414.094 78.9297 410.741C78.9368 407.439 80.0092 405.777 81.6712 405.777C83.326 405.777 84.4055 407.439 84.4055 410.741C84.4126 414.094 83.3331 415.77 81.6712 415.77ZM96.0657 403.455H93.1751L89.5742 405.734V408.462L92.9052 406.374H92.9904V418H96.0657V403.455ZM104.949 418.199C108.23 418.199 110.588 416.445 110.595 414.087C110.588 412.268 109.189 410.784 107.442 410.493V410.393C108.962 410.081 110.048 408.767 110.055 407.169C110.048 404.918 107.889 403.256 104.949 403.256C102.001 403.256 99.8423 404.918 99.8494 407.169C99.8423 408.76 100.915 410.081 102.463 410.393V410.493C100.688 410.784 99.3026 412.268 99.3097 414.087C99.3026 416.445 101.668 418.199 104.949 418.199ZM104.949 415.94C103.486 415.94 102.506 415.074 102.506 413.845C102.506 412.588 103.536 411.679 104.949 411.679C106.355 411.679 107.392 412.588 107.392 413.845C107.392 415.081 106.405 415.94 104.949 415.94ZM104.949 409.442C103.72 409.442 102.847 408.639 102.847 407.489C102.847 406.352 103.706 405.571 104.949 405.571C106.185 405.571 107.051 406.359 107.051 407.489C107.051 408.639 106.17 409.442 104.949 409.442Z" fill="#2D3748"/>
<path d="M40.6335 432.818H39.4006L36.8551 434.509V435.761L39.3409 434.111H39.4006V443H40.6335V432.818ZM51.576 432.818V440.097C51.576 441.364 50.9695 442.045 49.9055 442.045C48.9361 442.045 48.2351 441.479 48.2351 440.614H47.022C47.022 442.18 48.2351 443.139 49.9055 443.139C51.6754 443.139 52.8089 442.05 52.8089 440.097V432.818H51.576ZM59.9332 439.878C59.9332 441.31 58.8395 441.966 57.9645 441.966C56.9901 441.966 56.294 441.25 56.294 440.136V435.364H55.1207V440.216C55.1207 442.165 56.1548 443.099 57.5866 443.099C58.7401 443.099 59.4957 442.483 59.8537 441.707H59.9332V443H61.1065V435.364H59.9332V439.878ZM64.4288 432.818H63.2555V443H64.4288V432.818ZM67.3335 445.864C68.3924 445.864 69.1381 445.302 69.5806 444.114L72.832 435.384L71.5494 435.364L69.4414 441.449H69.3619L67.2539 435.364H65.9812L68.805 443.04L68.5863 443.636C68.1587 444.8 67.6317 444.909 66.7766 444.69L66.4783 445.724C66.5977 445.784 66.9357 445.864 67.3335 445.864ZM78.302 443H84.7253V441.906H79.9924V441.827L82.2793 439.381C84.0293 437.506 84.5463 436.631 84.5463 435.503C84.5463 433.932 83.2736 432.679 81.4838 432.679C79.699 432.679 78.3418 433.892 78.3418 435.682H79.5151C79.5151 434.523 80.2658 433.753 81.4441 433.753C82.5478 433.753 83.3929 434.429 83.3929 435.503C83.3929 436.442 82.8411 437.138 81.6628 438.426L78.302 442.105V443ZM90.0996 443.139C92.3468 443.139 93.6394 441.235 93.6394 437.909C93.6394 434.608 92.3269 432.679 90.0996 432.679C87.8723 432.679 86.5598 434.608 86.5598 437.909C86.5598 441.235 87.8525 443.139 90.0996 443.139ZM90.0996 442.045C88.6181 442.045 87.753 440.559 87.753 437.909C87.753 435.264 88.628 433.753 90.0996 433.753C91.5712 433.753 92.4462 435.264 92.4462 437.909C92.4462 440.559 91.5811 442.045 90.0996 442.045ZM99.1081 432.818H97.8752L95.3297 434.509V435.761L97.8155 434.111H97.8752V443H99.1081V432.818ZM102.355 443H103.647L108.181 433.972V432.818H101.659V433.912H106.909V433.991L102.355 443ZM117.313 435.364H115.682V433.534H114.509V435.364H113.355V436.358H114.509V441.131C114.509 442.463 115.583 443.099 116.577 443.099C117.015 443.099 117.293 443.02 117.452 442.96L117.213 441.906C117.114 441.926 116.955 441.966 116.696 441.966C116.179 441.966 115.682 441.807 115.682 440.812V436.358H117.313V435.364ZM122.098 443.159C124.166 443.159 125.558 441.588 125.558 439.222C125.558 436.835 124.166 435.264 122.098 435.264C120.03 435.264 118.638 436.835 118.638 439.222C118.638 441.588 120.03 443.159 122.098 443.159ZM122.098 442.105C120.527 442.105 119.811 440.753 119.811 439.222C119.811 437.69 120.527 436.318 122.098 436.318C123.669 436.318 124.385 437.69 124.385 439.222C124.385 440.753 123.669 442.105 122.098 442.105ZM134.707 443.139C136.681 443.139 138.148 441.901 138.148 440.236C138.148 438.943 137.382 438.004 136.099 437.79V437.71C137.128 437.397 137.77 436.552 137.77 435.403C137.77 433.962 136.631 432.679 134.747 432.679C132.987 432.679 131.525 433.763 131.466 435.364H132.659C132.704 434.349 133.668 433.753 134.727 433.753C135.851 433.753 136.577 434.434 136.577 435.463C136.577 436.537 135.736 437.233 134.528 437.233H133.713V438.327H134.528C136.074 438.327 136.934 439.112 136.934 440.236C136.934 441.315 135.995 442.045 134.687 442.045C133.509 442.045 132.574 441.439 132.5 440.455H131.247C131.322 442.055 132.733 443.139 134.707 443.139ZM143.502 443.139C145.749 443.139 147.042 441.235 147.042 437.909C147.042 434.608 145.729 432.679 143.502 432.679C141.275 432.679 139.962 434.608 139.962 437.909C139.962 441.235 141.255 443.139 143.502 443.139ZM143.502 442.045C142.02 442.045 141.155 440.559 141.155 437.909C141.155 435.264 142.03 433.753 143.502 433.753C144.974 433.753 145.849 435.264 145.849 437.909C145.849 440.559 144.983 442.045 143.502 442.045ZM156.945 432.818V440.097C156.945 441.364 156.339 442.045 155.275 442.045C154.305 442.045 153.604 441.479 153.604 440.614H152.391C152.391 442.18 153.604 443.139 155.275 443.139C157.045 443.139 158.178 442.05 158.178 440.097V432.818H156.945ZM165.302 439.878C165.302 441.31 164.209 441.966 163.334 441.966C162.359 441.966 161.663 441.25 161.663 440.136V435.364H160.49V440.216C160.49 442.165 161.524 443.099 162.956 443.099C164.109 443.099 164.865 442.483 165.223 441.707H165.302V443H166.476V435.364H165.302V439.878ZM169.798 438.406C169.798 437.074 170.623 436.318 171.747 436.318C172.836 436.318 173.497 437.029 173.497 438.227V443H174.67V438.148C174.67 436.199 173.631 435.264 172.085 435.264C170.931 435.264 170.216 435.781 169.858 436.557H169.758V435.364H168.625V443H169.798V438.406ZM180.016 443.159C181.567 443.159 182.7 442.384 183.058 441.23L181.925 440.912C181.627 441.707 180.936 442.105 180.016 442.105C178.639 442.105 177.689 441.215 177.634 439.58H183.178V439.082C183.178 436.239 181.487 435.264 179.896 435.264C177.828 435.264 176.456 436.895 176.456 439.241C176.456 441.588 177.808 443.159 180.016 443.159ZM177.634 438.565C177.714 437.377 178.554 436.318 179.896 436.318C181.169 436.318 181.985 437.273 181.985 438.565H177.634ZM188.88 443H195.303V441.906H190.57V441.827L192.857 439.381C194.607 437.506 195.124 436.631 195.124 435.503C195.124 433.932 193.852 432.679 192.062 432.679C190.277 432.679 188.92 433.892 188.92 435.682H190.093C190.093 434.523 190.844 433.753 192.022 433.753C193.126 433.753 193.971 434.429 193.971 435.503C193.971 436.442 193.419 437.138 192.241 438.426L188.88 442.105V443ZM200.678 443.139C202.925 443.139 204.218 441.235 204.218 437.909C204.218 434.608 202.905 432.679 200.678 432.679C198.45 432.679 197.138 434.608 197.138 437.909C197.138 441.235 198.431 443.139 200.678 443.139ZM200.678 442.045C199.196 442.045 198.331 440.559 198.331 437.909C198.331 435.264 199.206 433.753 200.678 433.753C202.149 433.753 203.024 435.264 203.024 437.909C203.024 440.559 202.159 442.045 200.678 442.045ZM209.686 432.818H208.453L205.908 434.509V435.761L208.394 434.111H208.453V443H209.686V432.818ZM215.876 443.139C217.909 443.139 219.326 441.951 219.336 440.295C219.326 439.008 218.466 437.914 217.367 437.71V437.651C218.322 437.402 218.948 436.467 218.958 435.384C218.948 433.832 217.646 432.679 215.876 432.679C214.086 432.679 212.784 433.832 212.794 435.384C212.784 436.467 213.41 437.402 214.384 437.651V437.71C213.266 437.914 212.406 439.008 212.416 440.295C212.406 441.951 213.823 443.139 215.876 443.139ZM215.876 442.045C214.479 442.045 213.619 441.33 213.629 440.236C213.619 439.087 214.568 438.267 215.876 438.267C217.164 438.267 218.113 439.087 218.123 440.236C218.113 441.33 217.253 442.045 215.876 442.045ZM215.876 437.213C214.762 437.213 213.977 436.517 213.987 435.463C213.977 434.429 214.732 433.753 215.876 433.753C216.999 433.753 217.755 434.429 217.765 435.463C217.755 436.517 216.97 437.213 215.876 437.213Z" fill="#718096"/>
<path d="M402 414V416.667C402 417.02 401.86 417.359 401.609 417.609C401.359 417.86 401.02 418 400.667 418H391.333C390.98 418 390.641 417.86 390.391 417.609C390.14 417.359 390 417.02 390 416.667V414" stroke="#2D3748" stroke-width="2" stroke-linecap="round" stroke-linejoin="round"/>
<path d="M392.667 410.667L396 414L399.333 410.667" stroke="#2D3748" stroke-width="2" stroke-linecap="round" stroke-linejoin="round"/>
<path d="M396 414V406" stroke="#2D3748" stroke-width="2" stroke-linecap="round" stroke-linejoin="round"/>
<path d="M416.455 417C419.557 417 421.396 415.081 421.396 411.899C421.396 408.727 419.557 406.818 416.524 406.818H413.004V417H416.455ZM414.849 415.404V408.414H416.42C418.488 408.414 419.567 409.567 419.567 411.899C419.567 414.241 418.488 415.404 416.365 415.404H414.849ZM426.4 417.149C428.637 417.149 430.059 415.573 430.059 413.212C430.059 410.845 428.637 409.264 426.4 409.264C424.163 409.264 422.741 410.845 422.741 413.212C422.741 415.573 424.163 417.149 426.4 417.149ZM426.41 415.707C425.172 415.707 424.566 414.604 424.566 413.207C424.566 411.81 425.172 410.691 426.41 410.691C427.628 410.691 428.235 411.81 428.235 413.207C428.235 414.604 427.628 415.707 426.41 415.707ZM432.958 417H434.837L436.269 411.839H436.373L437.805 417H439.679L441.842 409.364H440.002L438.68 414.703H438.605L437.233 409.364H435.419L434.047 414.733H433.977L432.635 409.364H430.8L432.958 417ZM444.898 412.526C444.898 411.422 445.564 410.786 446.514 410.786C447.444 410.786 448.001 411.397 448.001 412.416V417H449.8V412.138C449.805 410.308 448.761 409.264 447.185 409.264C446.042 409.264 445.256 409.811 444.908 410.661H444.819V409.364H443.099V417H444.898V412.526ZM453.43 406.818H451.63V417H453.43V406.818ZM458.611 417.149C460.848 417.149 462.27 415.573 462.27 413.212C462.27 410.845 460.848 409.264 458.611 409.264C456.374 409.264 454.952 410.845 454.952 413.212C454.952 415.573 456.374 417.149 458.611 417.149ZM458.621 415.707C457.383 415.707 456.777 414.604 456.777 413.207C456.777 411.81 457.383 410.691 458.621 410.691C459.839 410.691 460.446 411.81 460.446 413.207C460.446 414.604 459.839 415.707 458.621 415.707ZM465.995 417.154C467.193 417.154 467.909 416.592 468.237 415.951H468.297V417H470.027V411.889C470.027 409.871 468.382 409.264 466.925 409.264C465.319 409.264 464.086 409.98 463.688 411.372L465.369 411.611C465.548 411.089 466.055 410.641 466.935 410.641C467.77 410.641 468.227 411.069 468.227 411.82V411.849C468.227 412.366 467.686 412.391 466.338 412.536C464.857 412.695 463.44 413.137 463.44 414.857C463.44 416.359 464.539 417.154 465.995 417.154ZM466.463 415.832C465.712 415.832 465.175 415.489 465.175 414.827C465.175 414.136 465.776 413.848 466.582 413.734C467.054 413.669 467.999 413.55 468.232 413.361V414.261C468.232 415.111 467.546 415.832 466.463 415.832ZM474.671 417.134C475.983 417.134 476.575 416.354 476.858 415.797H476.968V417H478.737V406.818H476.933V410.626H476.858C476.585 410.075 476.023 409.264 474.676 409.264C472.911 409.264 471.524 410.646 471.524 413.192C471.524 415.707 472.871 417.134 474.671 417.134ZM475.173 415.658C473.985 415.658 473.358 414.614 473.358 413.182C473.358 411.76 473.975 410.741 475.173 410.741C476.331 410.741 476.968 411.7 476.968 413.182C476.968 414.663 476.321 415.658 475.173 415.658ZM489.741 409.617H491.516C491.481 407.897 490.014 406.679 487.847 406.679C485.709 406.679 484.103 407.882 484.108 409.682C484.108 411.143 485.147 411.984 486.822 412.416L487.981 412.714C489.08 412.993 489.805 413.336 489.81 414.126C489.805 414.996 488.98 415.578 487.777 415.578C486.624 415.578 485.729 415.061 485.654 413.992H483.839C483.914 416.016 485.42 417.154 487.792 417.154C490.233 417.154 491.65 415.936 491.655 414.141C491.65 412.376 490.193 411.571 488.662 411.208L487.707 410.969C486.872 410.771 485.967 410.418 485.977 409.567C485.982 408.802 486.668 408.24 487.822 408.24C488.92 408.24 489.646 408.752 489.741 409.617ZM498.087 413.788C498.087 414.952 497.257 415.528 496.461 415.528C495.596 415.528 495.019 414.917 495.019 413.947V409.364H493.22V414.226C493.22 416.06 494.264 417.099 495.765 417.099C496.909 417.099 497.714 416.498 498.062 415.643H498.142V417H499.887V409.364H498.087V413.788ZM501.737 417H503.537V412.357C503.537 411.417 504.163 410.781 504.939 410.781C505.7 410.781 506.222 411.293 506.222 412.078V417H507.987V412.237C507.987 411.377 508.499 410.781 509.369 410.781C510.094 410.781 510.671 411.208 510.671 412.153V417H512.476V411.874C512.476 410.169 511.491 409.264 510.089 409.264C508.981 409.264 508.136 409.811 507.798 410.661H507.718C507.425 409.796 506.684 409.264 505.655 409.264C504.631 409.264 503.865 409.791 503.547 410.661H503.457V409.364H501.737V417ZM514.302 417H516.101V412.357C516.101 411.417 516.728 410.781 517.503 410.781C518.264 410.781 518.786 411.293 518.786 412.078V417H520.551V412.237C520.551 411.377 521.063 410.781 521.933 410.781C522.659 410.781 523.236 411.208 523.236 412.153V417H525.04V411.874C525.04 410.169 524.056 409.264 522.654 409.264C521.545 409.264 520.7 409.811 520.362 410.661H520.282C519.989 409.796 519.248 409.264 518.219 409.264C517.195 409.264 516.43 409.791 516.111 410.661H516.022V409.364H514.302V417ZM529.064 417.154C530.262 417.154 530.978 416.592 531.306 415.951H531.365V417H533.096V411.889C533.096 409.871 531.45 409.264 529.993 409.264C528.387 409.264 527.154 409.98 526.757 411.372L528.437 411.611C528.616 411.089 529.123 410.641 530.003 410.641C530.838 410.641 531.296 411.069 531.296 411.82V411.849C531.296 412.366 530.754 412.391 529.407 412.536C527.925 412.695 526.508 413.137 526.508 414.857C526.508 416.359 527.607 417.154 529.064 417.154ZM529.531 415.832C528.78 415.832 528.243 415.489 528.243 414.827C528.243 414.136 528.845 413.848 529.65 413.734C530.123 413.669 531.067 413.55 531.301 413.361V414.261C531.301 415.111 530.615 415.832 529.531 415.832ZM534.905 417H536.705V412.511C536.705 411.541 537.436 410.855 538.425 410.855C538.728 410.855 539.106 410.91 539.26 410.96V409.304C539.096 409.274 538.813 409.254 538.614 409.254C537.739 409.254 537.008 409.751 536.73 410.636H536.65V409.364H534.905V417ZM541.807 419.864C543.209 419.864 544.019 419.143 544.452 417.925L547.519 409.374L545.595 409.364L543.83 415.131H543.751L541.991 409.364H540.082L542.851 417.159L542.697 417.572C542.364 418.442 541.837 418.501 541.051 418.273L540.634 419.675C540.877 419.774 541.315 419.864 541.807 419.864Z" fill="#2D3748"/>
<path d="M566 412.977L570.125 408.852L571.303 410.03L566 415.333L560.697 410.03L561.875 408.852L566 412.977Z" fill="#2D3748"/>
<rect x="376.5" y="396.5" width="211" height="31" rx="5.5" stroke="#E2E8F0"/>
<rect x="12.5" y="372.5" width="599" height="99" rx="5.5" stroke="#E2E8F0"/>
</g>
<g filter="url(#filter4_dd_915_9657)">
<rect x="376" y="98" width="212" height="132" rx="6" fill="white"/>
<path d="M389.651 125L390.675 122.116H394.791L395.815 125H397.108L393.369 114.818H392.097L388.358 125H389.651ZM391.062 121.023L392.693 116.429H392.773L394.403 121.023H391.062ZM399.708 114.818H398.535V125H399.708V114.818ZM403.03 114.818H401.857V125H403.03V114.818ZM409.276 125H410.509V121.281H412.736C415.108 121.281 416.176 119.839 416.176 118.04C416.176 116.24 415.108 114.818 412.716 114.818H409.276V125ZM410.509 120.188V115.912H412.676C414.332 115.912 414.963 116.817 414.963 118.04C414.963 119.263 414.332 120.188 412.696 120.188H410.509ZM418.004 125H419.177V120.168C419.177 119.134 419.992 118.378 421.106 118.378C421.419 118.378 421.742 118.438 421.822 118.457V117.264C421.688 117.254 421.379 117.244 421.205 117.244C420.29 117.244 419.495 117.761 419.217 118.517H419.137V117.364H418.004V125ZM426.082 125.159C428.151 125.159 429.543 123.588 429.543 121.222C429.543 118.835 428.151 117.264 426.082 117.264C424.014 117.264 422.622 118.835 422.622 121.222C422.622 123.588 424.014 125.159 426.082 125.159ZM426.082 124.105C424.511 124.105 423.795 122.753 423.795 121.222C423.795 119.69 424.511 118.318 426.082 118.318C427.653 118.318 428.369 119.69 428.369 121.222C428.369 122.753 427.653 124.105 426.082 124.105ZM431.334 127.864H432.507V123.827H432.606C432.865 124.244 433.362 125.159 434.834 125.159C436.743 125.159 438.075 123.628 438.075 121.202C438.075 118.795 436.743 117.264 434.814 117.264C433.322 117.264 432.865 118.179 432.606 118.577H432.467V117.364H431.334V127.864ZM432.487 121.182C432.487 119.472 433.243 118.318 434.675 118.318C436.166 118.318 436.902 119.571 436.902 121.182C436.902 122.812 436.146 124.105 434.675 124.105C433.263 124.105 432.487 122.912 432.487 121.182ZM443.067 125.159C444.618 125.159 445.751 124.384 446.109 123.23L444.976 122.912C444.677 123.707 443.986 124.105 443.067 124.105C441.689 124.105 440.74 123.215 440.685 121.58H446.229V121.082C446.229 118.239 444.538 117.264 442.947 117.264C440.879 117.264 439.507 118.895 439.507 121.241C439.507 123.588 440.859 125.159 443.067 125.159ZM440.685 120.565C440.765 119.377 441.605 118.318 442.947 118.318C444.22 118.318 445.035 119.273 445.035 120.565H440.685ZM448.013 125H449.187V120.168C449.187 119.134 450.002 118.378 451.116 118.378C451.429 118.378 451.752 118.438 451.831 118.457V117.264C451.697 117.254 451.389 117.244 451.215 117.244C450.3 117.244 449.505 117.761 449.226 118.517H449.147V117.364H448.013V125ZM457.022 117.364H455.391V115.534H454.218V117.364H453.064V118.358H454.218V123.131C454.218 124.463 455.292 125.099 456.286 125.099C456.724 125.099 457.002 125.02 457.161 124.96L456.922 123.906C456.823 123.926 456.664 123.966 456.405 123.966C455.888 123.966 455.391 123.807 455.391 122.812V118.358H457.022V117.364ZM458.787 125H459.96V117.364H458.787V125ZM459.383 116.091C459.841 116.091 460.219 115.733 460.219 115.295C460.219 114.858 459.841 114.5 459.383 114.5C458.926 114.5 458.548 114.858 458.548 115.295C458.548 115.733 458.926 116.091 459.383 116.091ZM465.311 125.159C466.862 125.159 467.995 124.384 468.353 123.23L467.22 122.912C466.922 123.707 466.23 124.105 465.311 124.105C463.934 124.105 462.984 123.215 462.929 121.58H468.473V121.082C468.473 118.239 466.782 117.264 465.191 117.264C463.123 117.264 461.751 118.895 461.751 121.241C461.751 123.588 463.103 125.159 465.311 125.159ZM462.929 120.565C463.009 119.377 463.849 118.318 465.191 118.318C466.464 118.318 467.279 119.273 467.279 120.565H462.929ZM475.667 119.074C475.299 117.99 474.473 117.264 472.962 117.264C471.351 117.264 470.158 118.179 470.158 119.472C470.158 120.526 470.784 121.232 472.186 121.56L473.459 121.858C474.23 122.037 474.593 122.405 474.593 122.932C474.593 123.588 473.897 124.125 472.803 124.125C471.843 124.125 471.242 123.712 471.033 122.892L469.919 123.17C470.193 124.468 471.262 125.159 472.823 125.159C474.598 125.159 475.806 124.19 475.806 122.872C475.806 121.808 475.14 121.137 473.777 120.804L472.644 120.526C471.739 120.302 471.331 119.999 471.331 119.412C471.331 118.756 472.027 118.278 472.962 118.278C473.986 118.278 474.409 118.845 474.613 119.372L475.667 119.074Z" fill="#2D3748"/>
<rect width="212" height="44" transform="translate(376 142)" fill="#EDF2F7"/>
<path d="M389.372 169H390.665L395.199 159.972V158.818H388.676V159.912H393.926V159.991L389.372 169ZM400.214 169.139C402.272 169.164 403.615 167.613 403.615 165.719C403.615 163.75 402.158 162.338 400.413 162.338C399.364 162.338 398.464 162.85 397.907 163.69H397.828C397.833 161.21 398.797 159.773 400.373 159.773C401.447 159.773 402.093 160.449 402.322 161.364H403.535C403.286 159.783 402.083 158.679 400.373 158.679C398.081 158.679 396.674 160.707 396.674 164.307C396.674 168.07 398.544 169.119 400.214 169.139ZM400.214 168.045C398.936 168.045 398.002 166.957 398.007 165.739C398.012 164.521 398.991 163.432 400.254 163.432C401.502 163.432 402.421 164.456 402.421 165.719C402.421 167.011 401.462 168.045 400.214 168.045ZM411.536 169H412.808L415.055 160.886H415.135L417.382 169H418.655L421.439 158.818H420.186L418.058 167.111H417.959L415.791 158.818H414.399L412.232 167.111H412.132L410.004 158.818H408.751L411.536 169ZM424.352 169.179C425.685 169.179 426.381 168.463 426.619 167.966H426.679V169H427.852V163.969C427.852 161.543 426.003 161.264 425.028 161.264C423.875 161.264 422.562 161.662 421.966 163.054L423.08 163.452C423.338 162.895 423.95 162.298 425.068 162.298C426.147 162.298 426.679 162.87 426.679 163.849V163.889C426.679 164.456 426.102 164.406 424.71 164.585C423.293 164.769 421.747 165.082 421.747 166.832C421.747 168.324 422.901 169.179 424.352 169.179ZM424.531 168.125C423.597 168.125 422.92 167.707 422.92 166.892C422.92 165.997 423.736 165.719 424.651 165.599C425.148 165.54 426.48 165.401 426.679 165.162V166.236C426.679 167.19 425.923 168.125 424.531 168.125ZM431.167 158.818H429.994V169H431.167V158.818ZM436.637 161.364H435.006V159.534H433.833V161.364H432.68V162.358H433.833V167.131C433.833 168.463 434.907 169.099 435.901 169.099C436.339 169.099 436.617 169.02 436.776 168.96L436.538 167.906C436.438 167.926 436.279 167.966 436.021 167.966C435.504 167.966 435.006 167.807 435.006 166.812V162.358H436.637V161.364ZM441.522 169.159C443.073 169.159 444.206 168.384 444.564 167.23L443.431 166.912C443.132 167.707 442.441 168.105 441.522 168.105C440.145 168.105 439.195 167.215 439.14 165.58H444.684V165.082C444.684 162.239 442.993 161.264 441.402 161.264C439.334 161.264 437.962 162.895 437.962 165.241C437.962 167.588 439.314 169.159 441.522 169.159ZM439.14 164.565C439.22 163.377 440.06 162.318 441.402 162.318C442.675 162.318 443.49 163.273 443.49 164.565H439.14ZM446.468 169H447.642V164.168C447.642 163.134 448.457 162.378 449.571 162.378C449.884 162.378 450.207 162.438 450.287 162.457V161.264C450.152 161.254 449.844 161.244 449.67 161.244C448.755 161.244 447.96 161.761 447.681 162.517H447.602V161.364H446.468V169ZM461.342 161.364H462.535C462.481 159.827 461.064 158.679 459.095 158.679C457.146 158.679 455.615 159.812 455.615 161.523C455.615 162.895 456.609 163.71 458.2 164.168L459.453 164.526C460.527 164.824 461.481 165.202 461.481 166.216C461.481 167.33 460.407 168.065 458.996 168.065C457.782 168.065 456.709 167.528 456.609 166.375H455.336C455.456 168.045 456.808 169.179 458.996 169.179C461.342 169.179 462.675 167.886 462.675 166.236C462.675 164.327 460.865 163.71 459.811 163.432L458.777 163.153C458.021 162.955 456.808 162.557 456.808 161.463C456.808 160.489 457.703 159.773 459.055 159.773C460.288 159.773 461.223 160.359 461.342 161.364ZM467.864 161.364H466.233V159.534H465.06V161.364H463.906V162.358H465.06V167.131C465.06 168.463 466.134 169.099 467.128 169.099C467.565 169.099 467.844 169.02 468.003 168.96L467.764 167.906C467.665 167.926 467.506 167.966 467.247 167.966C466.73 167.966 466.233 167.807 466.233 166.812V162.358H467.864V161.364ZM471.379 167.608H470.106L470.046 168.165C469.902 169.512 469.619 170.854 469.489 171.486H470.384C470.623 170.81 471.13 169.278 471.299 168.145L471.379 167.608ZM477.649 169H481.328C483.734 169 484.729 167.827 484.729 166.295C484.729 164.685 483.615 163.81 482.68 163.75V163.651C483.555 163.412 484.331 162.835 484.331 161.523C484.331 160.031 483.336 158.818 481.209 158.818H477.649V169ZM478.882 167.906V164.366H481.388C482.72 164.366 483.555 165.261 483.555 166.295C483.555 167.19 482.939 167.906 481.328 167.906H478.882ZM478.882 163.293V159.912H481.209C482.561 159.912 483.157 160.628 483.157 161.523C483.157 162.597 482.282 163.293 481.169 163.293H478.882ZM486.595 169H487.769V164.168C487.769 163.134 488.584 162.378 489.698 162.378C490.011 162.378 490.334 162.438 490.414 162.457V161.264C490.279 161.254 489.971 161.244 489.797 161.244C488.882 161.244 488.087 161.761 487.808 162.517H487.729V161.364H486.595V169ZM496.617 165.878C496.617 167.31 495.523 167.966 494.648 167.966C493.674 167.966 492.978 167.25 492.978 166.136V161.364H491.804V166.216C491.804 168.165 492.838 169.099 494.27 169.099C495.424 169.099 496.179 168.483 496.537 167.707H496.617V169H497.79V161.364H496.617V165.878ZM501.112 164.406C501.112 163.074 501.938 162.318 503.061 162.318C504.15 162.318 504.811 163.029 504.811 164.227V169H505.985V164.148C505.985 162.199 504.945 161.264 503.399 161.264C502.246 161.264 501.53 161.781 501.172 162.557H501.073V161.364H499.939V169H501.112V164.406ZM513.538 163.074C513.17 161.99 512.344 161.264 510.833 161.264C509.222 161.264 508.029 162.179 508.029 163.472C508.029 164.526 508.656 165.232 510.058 165.56L511.33 165.858C512.101 166.037 512.464 166.405 512.464 166.932C512.464 167.588 511.768 168.125 510.674 168.125C509.714 168.125 509.113 167.712 508.904 166.892L507.79 167.17C508.064 168.468 509.133 169.159 510.694 169.159C512.469 169.159 513.677 168.19 513.677 166.872C513.677 165.808 513.011 165.137 511.648 164.804L510.515 164.526C509.61 164.302 509.202 163.999 509.202 163.412C509.202 162.756 509.898 162.278 510.833 162.278C511.857 162.278 512.28 162.845 512.484 163.372L513.538 163.074ZM517.173 169H518.327L519.997 163.134H520.116L521.787 169H522.94L525.267 161.364H524.034L522.383 167.19H522.304L520.693 161.364H519.44L517.809 167.21H517.73L516.079 161.364H514.846L517.173 169ZM526.818 169H527.991V161.364H526.818V169ZM527.415 160.091C527.872 160.091 528.25 159.733 528.25 159.295C528.25 158.858 527.872 158.5 527.415 158.5C526.957 158.5 526.579 158.858 526.579 159.295C526.579 159.733 526.957 160.091 527.415 160.091ZM533.243 169.159C534.933 169.159 536.047 168.125 536.245 166.773H535.072C534.853 167.608 534.157 168.105 533.243 168.105C531.85 168.105 530.956 166.952 530.956 165.182C530.956 163.452 531.87 162.318 533.243 162.318C534.277 162.318 534.893 162.955 535.072 163.651H536.245C536.047 162.219 534.833 161.264 533.223 161.264C531.154 161.264 529.782 162.895 529.782 165.222C529.782 167.509 531.095 169.159 533.243 169.159ZM537.961 169H539.134V166.141L539.954 165.381L542.813 169H544.304L540.839 164.625L544.066 161.364H542.614L539.273 164.764H539.134V158.818H537.961V169ZM550.09 158.818H548.797L552.536 169H553.809L557.547 158.818H556.255L553.232 167.389H553.113L550.09 158.818ZM558.476 169.08C558.968 169.08 559.371 168.677 559.371 168.185C559.371 167.692 558.968 167.29 558.476 167.29C557.984 167.29 557.581 167.692 557.581 168.185C557.581 168.677 557.984 169.08 558.476 169.08ZM562.331 169.08C562.824 169.08 563.226 168.677 563.226 168.185C563.226 167.692 562.824 167.29 562.331 167.29C561.839 167.29 561.436 167.692 561.436 168.185C561.436 168.677 561.839 169.08 562.331 169.08Z" fill="#2D3748"/>
<path d="M392.494 213.139C394.468 213.139 395.935 211.901 395.935 210.236C395.935 208.943 395.169 208.004 393.886 207.79V207.71C394.915 207.397 395.557 206.552 395.557 205.403C395.557 203.962 394.418 202.679 392.534 202.679C390.774 202.679 389.312 203.763 389.253 205.364H390.446C390.491 204.349 391.455 203.753 392.514 203.753C393.638 203.753 394.364 204.434 394.364 205.463C394.364 206.537 393.523 207.233 392.315 207.233H391.5V208.327H392.315C393.862 208.327 394.722 209.112 394.722 210.236C394.722 211.315 393.782 212.045 392.474 212.045C391.296 212.045 390.362 211.439 390.287 210.455H389.034C389.109 212.055 390.521 213.139 392.494 213.139ZM397.968 213H404.391V211.906H399.658V211.827L401.945 209.381C403.695 207.506 404.212 206.631 404.212 205.503C404.212 203.932 402.94 202.679 401.15 202.679C399.365 202.679 398.008 203.892 398.008 205.682H399.181C399.181 204.523 399.932 203.753 401.11 203.753C402.214 203.753 403.059 204.429 403.059 205.503C403.059 206.442 402.507 207.138 401.329 208.426L397.968 212.105V213ZM407.041 213L408.065 210.116H412.182L413.206 213H414.499L410.76 202.818H409.487L405.749 213H407.041ZM408.453 209.023L410.084 204.429H410.163L411.794 209.023H408.453ZM420.022 213H421.255V208.446H425.67V207.352H421.255V203.912H426.127V202.818H420.022V213ZM428.08 213H429.253V205.364H428.08V213ZM428.676 204.091C429.134 204.091 429.512 203.733 429.512 203.295C429.512 202.858 429.134 202.5 428.676 202.5C428.219 202.5 427.841 202.858 427.841 203.295C427.841 203.733 428.219 204.091 428.676 204.091ZM432.575 208.406C432.575 207.074 433.401 206.318 434.524 206.318C435.613 206.318 436.274 207.029 436.274 208.227V213H437.447V208.148C437.447 206.199 436.408 205.264 434.862 205.264C433.709 205.264 432.993 205.781 432.635 206.557H432.536V205.364H431.402V213H432.575V208.406ZM442.475 213.159C443.947 213.159 444.444 212.244 444.702 211.827H444.841V213H445.975V202.818H444.802V206.577H444.702C444.444 206.179 443.986 205.264 442.495 205.264C440.566 205.264 439.233 206.795 439.233 209.202C439.233 211.628 440.566 213.159 442.475 213.159ZM442.634 212.105C441.162 212.105 440.407 210.812 440.407 209.182C440.407 207.571 441.143 206.318 442.634 206.318C444.066 206.318 444.822 207.472 444.822 209.182C444.822 210.912 444.046 212.105 442.634 212.105ZM449.46 202.818H448.287V213H449.46V202.818ZM453.856 213.179C455.189 213.179 455.885 212.463 456.123 211.966H456.183V213H457.356V207.969C457.356 205.543 455.507 205.264 454.532 205.264C453.379 205.264 452.066 205.662 451.47 207.054L452.583 207.452C452.842 206.895 453.453 206.298 454.572 206.298C455.651 206.298 456.183 206.87 456.183 207.849V207.889C456.183 208.456 455.606 208.406 454.214 208.585C452.797 208.769 451.251 209.082 451.251 210.832C451.251 212.324 452.404 213.179 453.856 213.179ZM454.035 212.125C453.1 212.125 452.424 211.707 452.424 210.892C452.424 209.997 453.24 209.719 454.154 209.599C454.652 209.54 455.984 209.401 456.183 209.162V210.236C456.183 211.19 455.427 212.125 454.035 212.125ZM459.98 215.864C461.039 215.864 461.785 215.302 462.227 214.114L465.479 205.384L464.196 205.364L462.088 211.449H462.008L459.9 205.364H458.628L461.452 213.04L461.233 213.636C460.805 214.8 460.278 214.909 459.423 214.69L459.125 215.724C459.244 215.784 459.582 215.864 459.98 215.864ZM476.696 205.364H477.889C477.834 203.827 476.417 202.679 474.449 202.679C472.5 202.679 470.968 203.812 470.968 205.523C470.968 206.895 471.963 207.71 473.554 208.168L474.806 208.526C475.88 208.824 476.835 209.202 476.835 210.216C476.835 211.33 475.761 212.065 474.349 212.065C473.136 212.065 472.062 211.528 471.963 210.375H470.69C470.809 212.045 472.162 213.179 474.349 213.179C476.696 213.179 478.028 211.886 478.028 210.236C478.028 208.327 476.218 207.71 475.164 207.432L474.13 207.153C473.375 206.955 472.162 206.557 472.162 205.463C472.162 204.489 473.056 203.773 474.409 203.773C475.642 203.773 476.576 204.359 476.696 205.364ZM483.217 205.364H481.586V203.534H480.413V205.364H479.26V206.358H480.413V211.131C480.413 212.463 481.487 213.099 482.481 213.099C482.919 213.099 483.197 213.02 483.356 212.96L483.118 211.906C483.018 211.926 482.859 211.966 482.601 211.966C482.084 211.966 481.586 211.807 481.586 210.812V206.358H483.217V205.364ZM486.732 211.608H485.459L485.4 212.165C485.256 213.512 484.972 214.854 484.843 215.486H485.738C485.976 214.81 486.483 213.278 486.653 212.145L486.732 211.608ZM492.446 203.912H495.647V213H496.88V203.912H500.082V202.818H492.446V203.912ZM502.999 208.406C502.999 207.074 503.849 206.318 505.008 206.318C506.111 206.318 506.778 207.014 506.778 208.227V213H507.951V208.148C507.951 206.184 506.907 205.264 505.346 205.264C504.143 205.264 503.456 205.766 503.099 206.557H502.999V202.818H501.826V213H502.999V208.406ZM513.2 213.159C515.268 213.159 516.66 211.588 516.66 209.222C516.66 206.835 515.268 205.264 513.2 205.264C511.131 205.264 509.739 206.835 509.739 209.222C509.739 211.588 511.131 213.159 513.2 213.159ZM513.2 212.105C511.629 212.105 510.913 210.753 510.913 209.222C510.913 207.69 511.629 206.318 513.2 206.318C514.771 206.318 515.487 207.69 515.487 209.222C515.487 210.753 514.771 212.105 513.2 212.105ZM518.451 213H519.624V208.168C519.624 207.134 520.439 206.378 521.553 206.378C521.866 206.378 522.189 206.438 522.269 206.457V205.264C522.135 205.254 521.827 205.244 521.653 205.244C520.738 205.244 519.942 205.761 519.664 206.517H519.584V205.364H518.451V213ZM524.833 208.406C524.833 207.074 525.658 206.318 526.782 206.318C527.871 206.318 528.532 207.029 528.532 208.227V213H529.705V208.148C529.705 206.199 528.666 205.264 527.12 205.264C525.967 205.264 525.251 205.781 524.893 206.557H524.793V205.364H523.66V213H524.833V208.406ZM532.008 213H533.142V211.827H533.281C533.54 212.244 534.037 213.159 535.508 213.159C537.417 213.159 538.75 211.628 538.75 209.202C538.75 206.795 537.417 205.264 535.488 205.264C533.997 205.264 533.54 206.179 533.281 206.577H533.182V202.818H532.008V213ZM533.162 209.182C533.162 207.472 533.917 206.318 535.349 206.318C536.841 206.318 537.577 207.571 537.577 209.182C537.577 210.812 536.821 212.105 535.349 212.105C533.937 212.105 533.162 210.912 533.162 209.182ZM545.357 209.878C545.357 211.31 544.263 211.966 543.388 211.966C542.414 211.966 541.718 211.25 541.718 210.136V205.364H540.545V210.216C540.545 212.165 541.579 213.099 543.01 213.099C544.164 213.099 544.92 212.483 545.278 211.707H545.357V213H546.53V205.364H545.357V209.878ZM548.679 213H549.853V208.168C549.853 207.134 550.668 206.378 551.782 206.378C552.095 206.378 552.418 206.438 552.498 206.457V205.264C552.363 205.254 552.055 205.244 551.881 205.244C550.966 205.244 550.171 205.761 549.892 206.517H549.813V205.364H548.679V213ZM553.868 213.08C554.361 213.08 554.763 212.677 554.763 212.185C554.763 211.692 554.361 211.29 553.868 211.29C553.376 211.29 552.974 211.692 552.974 212.185C552.974 212.677 553.376 213.08 553.868 213.08ZM557.724 213.08C558.216 213.08 558.619 212.677 558.619 212.185C558.619 211.692 558.216 211.29 557.724 211.29C557.232 211.29 556.829 211.692 556.829 212.185C556.829 212.677 557.232 213.08 557.724 213.08Z" fill="#2D3748"/>
</g>
<path d="M567.371 183.886V165.6L580.628 178.857H572.857L572.4 178.971L567.371 183.886Z" fill="white"/>
<path d="M577.771 184.686L573.657 186.4L568.286 173.714L572.514 172L577.771 184.686Z" fill="white"/>
<path d="M572.714 175.45L570.606 176.335L574.145 184.765L576.253 183.88L572.714 175.45Z" fill="black"/>
<path d="M568.514 168.343V181.143L571.943 177.829L572.4 177.714H577.886L568.514 168.343Z" fill="black"/>
<defs>
<filter id="filter0_dd_915_9657" x="0" y="40" width="624" height="124" filterUnits="userSpaceOnUse" color-interpolation-filters="sRGB">
<feFlood flood-opacity="0" result="BackgroundImageFix"/>
<feColorMatrix in="SourceAlpha" type="matrix" values="0 0 0 0 0 0 0 0 0 0 0 0 0 0 0 0 0 0 127 0" result="hardAlpha"/>
<feMorphology radius="2" operator="erode" in="SourceAlpha" result="effect1_dropShadow_915_9657"/>
<feOffset dy="4"/>
<feGaussianBlur stdDeviation="3"/>
<feColorMatrix type="matrix" values="0 0 0 0 0 0 0 0 0 0 0 0 0 0 0 0 0 0 0.05 0"/>
<feBlend mode="normal" in2="BackgroundImageFix" result="effect1_dropShadow_915_9657"/>
<feColorMatrix in="SourceAlpha" type="matrix" values="0 0 0 0 0 0 0 0 0 0 0 0 0 0 0 0 0 0 127 0" result="hardAlpha"/>
<feMorphology radius="3" operator="erode" in="SourceAlpha" result="effect2_dropShadow_915_9657"/>
<feOffset dy="10"/>
<feGaussianBlur stdDeviation="7.5"/>
<feColorMatrix type="matrix" values="0 0 0 0 0 0 0 0 0 0 0 0 0 0 0 0 0 0 0.1 0"/>
<feBlend mode="normal" in2="effect1_dropShadow_915_9657" result="effect2_dropShadow_915_9657"/>
<feBlend mode="normal" in="SourceGraphic" in2="effect2_dropShadow_915_9657" result="shape"/>
</filter>
<filter id="filter1_dd_915_9657" x="0" y="150" width="624" height="124" filterUnits="userSpaceOnUse" color-interpolation-filters="sRGB">
<feFlood flood-opacity="0" result="BackgroundImageFix"/>
<feColorMatrix in="SourceAlpha" type="matrix" values="0 0 0 0 0 0 0 0 0 0 0 0 0 0 0 0 0 0 127 0" result="hardAlpha"/>
<feMorphology radius="2" operator="erode" in="SourceAlpha" result="effect1_dropShadow_915_9657"/>
<feOffset dy="4"/>
<feGaussianBlur stdDeviation="3"/>
<feColorMatrix type="matrix" values="0 0 0 0 0 0 0 0 0 0 0 0 0 0 0 0 0 0 0.05 0"/>
<feBlend mode="normal" in2="BackgroundImageFix" result="effect1_dropShadow_915_9657"/>
<feColorMatrix in="SourceAlpha" type="matrix" values="0 0 0 0 0 0 0 0 0 0 0 0 0 0 0 0 0 0 127 0" result="hardAlpha"/>
<feMorphology radius="3" operator="erode" in="SourceAlpha" result="effect2_dropShadow_915_9657"/>
<feOffset dy="10"/>
<feGaussianBlur stdDeviation="7.5"/>
<feColorMatrix type="matrix" values="0 0 0 0 0 0 0 0 0 0 0 0 0 0 0 0 0 0 0.1 0"/>
<feBlend mode="normal" in2="effect1_dropShadow_915_9657" result="effect2_dropShadow_915_9657"/>
<feBlend mode="normal" in="SourceGraphic" in2="effect2_dropShadow_915_9657" result="shape"/>
</filter>
<filter id="filter2_dd_915_9657" x="0" y="260" width="624" height="124" filterUnits="userSpaceOnUse" color-interpolation-filters="sRGB">
<feFlood flood-opacity="0" result="BackgroundImageFix"/>
<feColorMatrix in="SourceAlpha" type="matrix" values="0 0 0 0 0 0 0 0 0 0 0 0 0 0 0 0 0 0 127 0" result="hardAlpha"/>
<feMorphology radius="2" operator="erode" in="SourceAlpha" result="effect1_dropShadow_915_9657"/>
<feOffset dy="4"/>
<feGaussianBlur stdDeviation="3"/>
<feColorMatrix type="matrix" values="0 0 0 0 0 0 0 0 0 0 0 0 0 0 0 0 0 0 0.05 0"/>
<feBlend mode="normal" in2="BackgroundImageFix" result="effect1_dropShadow_915_9657"/>
<feColorMatrix in="SourceAlpha" type="matrix" values="0 0 0 0 0 0 0 0 0 0 0 0 0 0 0 0 0 0 127 0" result="hardAlpha"/>
<feMorphology radius="3" operator="erode" in="SourceAlpha" result="effect2_dropShadow_915_9657"/>
<feOffset dy="10"/>
<feGaussianBlur stdDeviation="7.5"/>
<feColorMatrix type="matrix" values="0 0 0 0 0 0 0 0 0 0 0 0 0 0 0 0 0 0 0.1 0"/>
<feBlend mode="normal" in2="effect1_dropShadow_915_9657" result="effect2_dropShadow_915_9657"/>
<feBlend mode="normal" in="SourceGraphic" in2="effect2_dropShadow_915_9657" result="shape"/>
</filter>
<filter id="filter3_dd_915_9657" x="0" y="370" width="624" height="124" filterUnits="userSpaceOnUse" color-interpolation-filters="sRGB">
<feFlood flood-opacity="0" result="BackgroundImageFix"/>
<feColorMatrix in="SourceAlpha" type="matrix" values="0 0 0 0 0 0 0 0 0 0 0 0 0 0 0 0 0 0 127 0" result="hardAlpha"/>
<feMorphology radius="2" operator="erode" in="SourceAlpha" result="effect1_dropShadow_915_9657"/>
<feOffset dy="4"/>
<feGaussianBlur stdDeviation="3"/>
<feColorMatrix type="matrix" values="0 0 0 0 0 0 0 0 0 0 0 0 0 0 0 0 0 0 0.05 0"/>
<feBlend mode="normal" in2="BackgroundImageFix" result="effect1_dropShadow_915_9657"/>
<feColorMatrix in="SourceAlpha" type="matrix" values="0 0 0 0 0 0 0 0 0 0 0 0 0 0 0 0 0 0 127 0" result="hardAlpha"/>
<feMorphology radius="3" operator="erode" in="SourceAlpha" result="effect2_dropShadow_915_9657"/>
<feOffset dy="10"/>
<feGaussianBlur stdDeviation="7.5"/>
<feColorMatrix type="matrix" values="0 0 0 0 0 0 0 0 0 0 0 0 0 0 0 0 0 0 0.1 0"/>
<feBlend mode="normal" in2="effect1_dropShadow_915_9657" result="effect2_dropShadow_915_9657"/>
<feBlend mode="normal" in="SourceGraphic" in2="effect2_dropShadow_915_9657" result="shape"/>
</filter>
<filter id="filter4_dd_915_9657" x="364" y="96" width="236" height="156" filterUnits="userSpaceOnUse" color-interpolation-filters="sRGB">
<feFlood flood-opacity="0" result="BackgroundImageFix"/>
<feColorMatrix in="SourceAlpha" type="matrix" values="0 0 0 0 0 0 0 0 0 0 0 0 0 0 0 0 0 0 127 0" result="hardAlpha"/>
<feMorphology radius="2" operator="erode" in="SourceAlpha" result="effect1_dropShadow_915_9657"/>
<feOffset dy="4"/>
<feGaussianBlur stdDeviation="3"/>
<feColorMatrix type="matrix" values="0 0 0 0 0 0 0 0 0 0 0 0 0 0 0 0 0 0 0.05 0"/>
<feBlend mode="normal" in2="BackgroundImageFix" result="effect1_dropShadow_915_9657"/>
<feColorMatrix in="SourceAlpha" type="matrix" values="0 0 0 0 0 0 0 0 0 0 0 0 0 0 0 0 0 0 127 0" result="hardAlpha"/>
<feMorphology radius="3" operator="erode" in="SourceAlpha" result="effect2_dropShadow_915_9657"/>
<feOffset dy="10"/>
<feGaussianBlur stdDeviation="7.5"/>
<feColorMatrix type="matrix" values="0 0 0 0 0 0 0 0 0 0 0 0 0 0 0 0 0 0 0.1 0"/>
<feBlend mode="normal" in2="effect1_dropShadow_915_9657" result="effect2_dropShadow_915_9657"/>
<feBlend mode="normal" in="SourceGraphic" in2="effect2_dropShadow_915_9657" result="shape"/>
</filter>
</defs>
</svg>
