<svg width="206" height="225" viewBox="0 0 206 225" fill="none" xmlns="http://www.w3.org/2000/svg">
<g filter="url(#filter0_dd_1002_9478)">
<rect x="12.5" y="2.5" width="181" height="199.542" rx="5.5" fill="white"/>
<path d="M37.233 41V30.8182H40.6733C41.4688 30.8182 42.1217 30.9541 42.6321 31.2259C43.1425 31.4943 43.5204 31.8639 43.7656 32.3345C44.0109 32.8052 44.1335 33.3404 44.1335 33.9403C44.1335 34.5402 44.0109 35.0722 43.7656 35.5362C43.5204 36.0002 43.1442 36.3648 42.6371 36.63C42.13 36.8918 41.482 37.0227 40.6932 37.0227H37.9091V35.9091H40.6534C41.197 35.9091 41.6345 35.8295 41.9659 35.6705C42.3007 35.5114 42.5426 35.286 42.6918 34.9943C42.8442 34.6993 42.9205 34.348 42.9205 33.9403C42.9205 33.5327 42.8442 33.1764 42.6918 32.8714C42.5393 32.5665 42.2957 32.3312 41.9609 32.1655C41.6262 31.9964 41.1837 31.9119 40.6335 31.9119H38.4659V41H37.233ZM42.0256 36.4261L44.5312 41H43.0994L40.6335 36.4261H42.0256ZM49.2306 41.1591C48.4949 41.1591 47.8601 40.9967 47.3265 40.6719C46.7962 40.3438 46.3869 39.8864 46.0985 39.2997C45.8135 38.7098 45.671 38.0237 45.671 37.2415C45.671 36.4593 45.8135 35.7699 46.0985 35.1733C46.3869 34.5734 46.7879 34.1061 47.3017 33.7713C47.8187 33.4332 48.4219 33.2642 49.1113 33.2642C49.5091 33.2642 49.9018 33.3305 50.2896 33.4631C50.6774 33.5956 51.0304 33.8111 51.3485 34.1094C51.6667 34.4044 51.9203 34.7955 52.1092 35.2827C52.2981 35.7699 52.3926 36.3698 52.3926 37.0824V37.5795H46.5062V36.5653H51.1994C51.1994 36.1345 51.1132 35.75 50.9409 35.4119C50.7718 35.0739 50.5299 34.8071 50.215 34.6115C49.9035 34.416 49.5356 34.3182 49.1113 34.3182C48.644 34.3182 48.2396 34.4342 47.8983 34.6662C47.5602 34.8949 47.3 35.1932 47.1177 35.5611C46.9354 35.929 46.8443 36.3234 46.8443 36.7443V37.4205C46.8443 37.9972 46.9437 38.486 47.1426 38.8871C47.3448 39.2848 47.6248 39.5881 47.9828 39.7969C48.3407 40.0024 48.7567 40.1051 49.2306 40.1051C49.5389 40.1051 49.8173 40.062 50.0659 39.9759C50.3178 39.8864 50.5349 39.7538 50.7172 39.5781C50.8994 39.3991 51.0403 39.1771 51.1397 38.9119L52.2733 39.2301C52.1539 39.6146 51.9534 39.9527 51.6717 40.2443C51.39 40.5327 51.042 40.758 50.6277 40.9205C50.2134 41.0795 49.7477 41.1591 49.2306 41.1591ZM55.3507 36.4062V41H54.1774V33.3636H55.3109V34.5568H55.4103C55.5893 34.169 55.8611 33.8575 56.2257 33.6222C56.5903 33.3835 57.0609 33.2642 57.6376 33.2642C58.1547 33.2642 58.6071 33.3703 58.9949 33.5824C59.3826 33.7912 59.6842 34.1094 59.8997 34.5369C60.1151 34.9612 60.2228 35.4981 60.2228 36.1477V41H59.0495V36.2273C59.0495 35.6274 58.8938 35.16 58.5822 34.8253C58.2707 34.4872 57.8431 34.3182 57.2995 34.3182C56.925 34.3182 56.5903 34.3994 56.2953 34.5618C56.0036 34.7242 55.7733 34.9612 55.6042 35.2727C55.4352 35.5843 55.3507 35.9621 55.3507 36.4062ZM65.6879 33.3636V34.358H61.7305V33.3636H65.6879ZM62.8839 31.5341H64.0572V38.8125C64.0572 39.1439 64.1052 39.3925 64.2013 39.5582C64.3008 39.7206 64.4267 39.83 64.5792 39.8864C64.735 39.9394 64.899 39.9659 65.0714 39.9659C65.2006 39.9659 65.3067 39.9593 65.3896 39.946C65.4724 39.9295 65.5387 39.9162 65.5884 39.9062L65.8271 40.9602C65.7475 40.9901 65.6365 41.0199 65.494 41.0497C65.3514 41.0829 65.1708 41.0994 64.9521 41.0994C64.6206 41.0994 64.2958 41.0282 63.9776 40.8857C63.6628 40.7431 63.4009 40.526 63.1921 40.2344C62.9866 39.9427 62.8839 39.5748 62.8839 39.1307V31.5341Z" fill="#2D3748"/>
<a href="mailto:gpoexu@in.pkeep.io">
<rect fill="black" fill-opacity="0" y="1.52841" width="8.94886" height="16.9432"/>
</a>
<line x1="36.0007" y1="57.5" x2="170.001" y2="57.6806" stroke="#EDF2F7"/>
<path d="M37.233 85.1806V74.9988H38.4659V84.0869H43.1989V85.1806H37.233ZM48.0511 85.3397C47.3617 85.3397 46.7569 85.1756 46.2365 84.8475C45.7195 84.5194 45.3151 84.0603 45.0234 83.4704C44.7351 82.8804 44.5909 82.191 44.5909 81.4022C44.5909 80.6067 44.7351 79.9124 45.0234 79.3191C45.3151 78.7258 45.7195 78.2651 46.2365 77.937C46.7569 77.6089 47.3617 77.4448 48.0511 77.4448C48.7405 77.4448 49.3438 77.6089 49.8608 77.937C50.3812 78.2651 50.7855 78.7258 51.0739 79.3191C51.3655 79.9124 51.5114 80.6067 51.5114 81.4022C51.5114 82.191 51.3655 82.8804 51.0739 83.4704C50.7855 84.0603 50.3812 84.5194 49.8608 84.8475C49.3438 85.1756 48.7405 85.3397 48.0511 85.3397ZM48.0511 84.2857C48.5748 84.2857 49.0057 84.1515 49.3438 83.883C49.6818 83.6146 49.9321 83.2616 50.0945 82.8241C50.2569 82.3866 50.3381 81.9126 50.3381 81.4022C50.3381 80.8918 50.2569 80.4162 50.0945 79.9753C49.9321 79.5345 49.6818 79.1782 49.3438 78.9065C49.0057 78.6347 48.5748 78.4988 48.0511 78.4988C47.5275 78.4988 47.0966 78.6347 46.7585 78.9065C46.4205 79.1782 46.1702 79.5345 46.0078 79.9753C45.8454 80.4162 45.7642 80.8918 45.7642 81.4022C45.7642 81.9126 45.8454 82.3866 46.0078 82.8241C46.1702 83.2616 46.4205 83.6146 46.7585 83.883C47.0966 84.1515 47.5275 84.2857 48.0511 84.2857ZM55.5495 85.3596C55.0656 85.3596 54.6265 85.2684 54.2321 85.0861C53.8377 84.9005 53.5244 84.6337 53.2924 84.2857C53.0604 83.9344 52.9444 83.5101 52.9444 83.013C52.9444 82.5755 53.0306 82.2208 53.2029 81.9491C53.3753 81.674 53.6056 81.4585 53.894 81.3028C54.1824 81.147 54.5005 81.031 54.8485 80.9548C55.1999 80.8752 55.5529 80.8122 55.9075 80.7658C56.3715 80.7062 56.7477 80.6614 57.036 80.6316C57.3277 80.5985 57.5398 80.5438 57.6724 80.4675C57.8083 80.3913 57.8762 80.2587 57.8762 80.0698V80.03C57.8762 79.5395 57.742 79.1583 57.4735 78.8866C57.2084 78.6148 56.8057 78.4789 56.2654 78.4789C55.7053 78.4789 55.2662 78.6015 54.948 78.8468C54.6298 79.0921 54.4061 79.3539 54.2768 79.6323L53.1632 79.2346C53.362 78.7706 53.6272 78.4093 53.9586 78.1508C54.2934 77.8889 54.658 77.7066 55.0524 77.6039C55.4501 77.4978 55.8412 77.4448 56.2257 77.4448C56.4709 77.4448 56.7527 77.4746 57.0708 77.5343C57.3923 77.5906 57.7022 77.7083 58.0005 77.8873C58.3021 78.0663 58.5524 78.3364 58.7512 78.6976C58.9501 79.0589 59.0495 79.5428 59.0495 80.1494V85.1806H57.8762V84.1465H57.8166C57.737 84.3122 57.6045 84.4896 57.4189 84.6785C57.2333 84.8674 56.9863 85.0281 56.6781 85.1607C56.3699 85.2933 55.9937 85.3596 55.5495 85.3596ZM55.7285 84.3056C56.1925 84.3056 56.5836 84.2145 56.9018 84.0322C57.2233 83.8499 57.4653 83.6146 57.6277 83.3262C57.7934 83.0378 57.8762 82.7346 57.8762 82.4164V81.3425C57.8265 81.4022 57.7172 81.4569 57.5481 81.5066C57.3824 81.553 57.1902 81.5944 56.9714 81.6309C56.756 81.664 56.5455 81.6939 56.34 81.7204C56.1378 81.7436 55.9738 81.7635 55.8478 81.78C55.5429 81.8198 55.2579 81.8844 54.9927 81.9739C54.7309 82.0601 54.5188 82.191 54.3564 82.3667C54.1973 82.539 54.1177 82.7744 54.1177 83.0726C54.1177 83.4803 54.2685 83.7886 54.5701 83.9974C54.8751 84.2029 55.2612 84.3056 55.7285 84.3056ZM62.3643 80.5869V85.1806H61.1911V77.5442H62.3246V78.7374H62.424C62.603 78.3496 62.8748 78.0381 63.2393 77.8028C63.6039 77.5641 64.0746 77.4448 64.6513 77.4448C65.1683 77.4448 65.6207 77.5509 66.0085 77.763C66.3963 77.9718 66.6979 78.29 66.9134 78.7175C67.1288 79.1418 67.2365 79.6787 67.2365 80.3283V85.1806H66.0632V80.4079C66.0632 79.808 65.9074 79.3406 65.5959 79.0059C65.2843 78.6678 64.8568 78.4988 64.3132 78.4988C63.9387 78.4988 63.6039 78.58 63.3089 78.7424C63.0173 78.9048 62.7869 79.1418 62.6179 79.4533C62.4489 79.7649 62.3643 80.1427 62.3643 80.5869ZM74.71 74.9988V85.1806H73.4771V74.9988H74.71ZM78.1964 80.5869V85.1806H77.0231V77.5442H78.1566V78.7374H78.256C78.435 78.3496 78.7068 78.0381 79.0714 77.8028C79.436 77.5641 79.9066 77.4448 80.4833 77.4448C81.0004 77.4448 81.4528 77.5509 81.8406 77.763C82.2283 77.9718 82.5299 78.29 82.7454 78.7175C82.9608 79.1418 83.0685 79.6787 83.0685 80.3283V85.1806H81.8952V80.4079C81.8952 79.808 81.7395 79.3406 81.4279 79.0059C81.1164 78.6678 80.6888 78.4988 80.1452 78.4988C79.7707 78.4988 79.436 78.58 79.141 78.7424C78.8493 78.9048 78.619 79.1418 78.4499 79.4533C78.2809 79.7649 78.1964 80.1427 78.1964 80.5869ZM88.5336 77.5442V78.5386H84.5762V77.5442H88.5336ZM85.7296 75.7147H86.9029V82.9931C86.9029 83.3245 86.9509 83.5731 87.0471 83.7388C87.1465 83.9012 87.2724 84.0106 87.4249 84.067C87.5807 84.12 87.7447 84.1465 87.9171 84.1465C88.0463 84.1465 88.1524 84.1399 88.2353 84.1266C88.3181 84.1101 88.3844 84.0968 88.4341 84.0869L88.6728 85.1408C88.5932 85.1707 88.4822 85.2005 88.3397 85.2303C88.1971 85.2635 88.0165 85.28 87.7978 85.28C87.4663 85.28 87.1415 85.2088 86.8233 85.0663C86.5085 84.9237 86.2466 84.7066 86.0378 84.415C85.8323 84.1233 85.7296 83.7554 85.7296 83.3113V75.7147ZM93.4181 85.3397C92.6824 85.3397 92.0476 85.1773 91.514 84.8525C90.9837 84.5244 90.5744 84.067 90.286 83.4803C90.001 82.8904 89.8585 82.2043 89.8585 81.4221C89.8585 80.6399 90.001 79.9505 90.286 79.3539C90.5744 78.754 90.9754 78.2867 91.4892 77.9519C92.0062 77.6138 92.6094 77.4448 93.2988 77.4448C93.6966 77.4448 94.0893 77.5111 94.4771 77.6437C94.8649 77.7762 95.2179 77.9917 95.536 78.29C95.8542 78.585 96.1078 78.9761 96.2967 79.4633C96.4856 79.9505 96.5801 80.5504 96.5801 81.263V81.7601H90.6937V80.7459H95.3869C95.3869 80.3151 95.3007 79.9306 95.1284 79.5925C94.9593 79.2545 94.7174 78.9877 94.4025 78.7921C94.091 78.5966 93.7231 78.4988 93.2988 78.4988C92.8315 78.4988 92.4271 78.6148 92.0858 78.8468C91.7477 79.0755 91.4875 79.3738 91.3052 79.7417C91.1229 80.1096 91.0318 80.504 91.0318 80.9249V81.6011C91.0318 82.1778 91.1312 82.6666 91.3301 83.0677C91.5323 83.4654 91.8123 83.7687 92.1703 83.9775C92.5282 84.183 92.9442 84.2857 93.4181 84.2857C93.7264 84.2857 94.0048 84.2426 94.2534 84.1565C94.5053 84.067 94.7224 83.9344 94.9047 83.7587C95.0869 83.5798 95.2278 83.3577 95.3272 83.0925L96.4608 83.4107C96.3414 83.7952 96.1409 84.1333 95.8592 84.4249C95.5775 84.7133 95.2295 84.9387 94.8152 85.1011C94.4009 85.2601 93.9352 85.3397 93.4181 85.3397ZM98.3649 85.1806V77.5442H99.4984V78.6976H99.5779C99.7172 78.3198 99.969 78.0132 100.334 77.7779C100.698 77.5426 101.109 77.4249 101.567 77.4249C101.653 77.4249 101.76 77.4266 101.89 77.4299C102.019 77.4332 102.117 77.4382 102.183 77.4448V78.638C102.143 78.628 102.052 78.6131 101.91 78.5932C101.77 78.57 101.623 78.5584 101.467 78.5584C101.096 78.5584 100.765 78.6363 100.473 78.7921C100.184 78.9446 99.9558 79.1567 99.7868 79.4285C99.621 79.6969 99.5382 80.0035 99.5382 80.3482V85.1806H98.3649ZM106.543 85.3397C105.807 85.3397 105.173 85.1773 104.639 84.8525C104.109 84.5244 103.699 84.067 103.411 83.4803C103.126 82.8904 102.983 82.2043 102.983 81.4221C102.983 80.6399 103.126 79.9505 103.411 79.3539C103.699 78.754 104.1 78.2867 104.614 77.9519C105.131 77.6138 105.734 77.4448 106.424 77.4448C106.822 77.4448 107.214 77.5111 107.602 77.6437C107.99 77.7762 108.343 77.9917 108.661 78.29C108.979 78.585 109.233 78.9761 109.422 79.4633C109.611 79.9505 109.705 80.5504 109.705 81.263V81.7601H103.819V80.7459H108.512C108.512 80.3151 108.426 79.9306 108.253 79.5925C108.084 79.2545 107.842 78.9877 107.528 78.7921C107.216 78.5966 106.848 78.4988 106.424 78.4988C105.956 78.4988 105.552 78.6148 105.211 78.8468C104.873 79.0755 104.613 79.3738 104.43 79.7417C104.248 80.1096 104.157 80.504 104.157 80.9249V81.6011C104.157 82.1778 104.256 82.6666 104.455 83.0677C104.657 83.4654 104.937 83.7687 105.295 83.9775C105.653 84.183 106.069 84.2857 106.543 84.2857C106.851 84.2857 107.13 84.2426 107.378 84.1565C107.63 84.067 107.847 83.9344 108.03 83.7587C108.212 83.5798 108.353 83.3577 108.452 83.0925L109.586 83.4107C109.466 83.7952 109.266 84.1333 108.984 84.4249C108.702 84.7133 108.354 84.9387 107.94 85.1011C107.526 85.2601 107.06 85.3397 106.543 85.3397ZM116.899 79.2545L115.845 79.5528C115.779 79.3771 115.681 79.2064 115.552 79.0407C115.426 78.8717 115.253 78.7324 115.035 78.6231C114.816 78.5137 114.536 78.459 114.194 78.459C113.727 78.459 113.338 78.5667 113.026 78.7822C112.718 78.9943 112.564 79.2644 112.564 79.5925C112.564 79.8842 112.67 80.1146 112.882 80.2836C113.094 80.4526 113.425 80.5935 113.876 80.7062L115.01 80.9846C115.693 81.1503 116.201 81.4039 116.536 81.7452C116.871 82.0833 117.038 82.5191 117.038 83.0528C117.038 83.4903 116.912 83.8814 116.66 84.2261C116.412 84.5708 116.064 84.8425 115.616 85.0414C115.169 85.2403 114.648 85.3397 114.055 85.3397C113.276 85.3397 112.632 85.1707 112.121 84.8326C111.611 84.4945 111.288 84.0007 111.152 83.3511L112.265 83.0726C112.372 83.4836 112.572 83.7919 112.867 83.9974C113.165 84.2029 113.555 84.3056 114.035 84.3056C114.582 84.3056 115.016 84.1896 115.338 83.9576C115.663 83.7223 115.825 83.4405 115.825 83.1124C115.825 82.8473 115.732 82.6252 115.547 82.4462C115.361 82.2639 115.076 82.128 114.692 82.0386L113.419 81.7403C112.72 81.5745 112.206 81.3177 111.878 80.9697C111.553 80.6183 111.39 80.1792 111.39 79.6522C111.39 79.2213 111.511 78.8402 111.753 78.5087C111.999 78.1773 112.332 77.9171 112.753 77.7282C113.177 77.5393 113.657 77.4448 114.194 77.4448C114.95 77.4448 115.543 77.6105 115.974 77.942C116.408 78.2734 116.717 78.7109 116.899 79.2545ZM122.125 77.5442V78.5386H118.168V77.5442H122.125ZM119.321 75.7147H120.495V82.9931C120.495 83.3245 120.543 83.5731 120.639 83.7388C120.738 83.9012 120.864 84.0106 121.017 84.067C121.172 84.12 121.337 84.1465 121.509 84.1465C121.638 84.1465 121.744 84.1399 121.827 84.1266C121.91 84.1101 121.976 84.0968 122.026 84.0869L122.265 85.1408C122.185 85.1707 122.074 85.2005 121.931 85.2303C121.789 85.2635 121.608 85.28 121.39 85.28C121.058 85.28 120.733 85.2088 120.415 85.0663C120.1 84.9237 119.838 84.7066 119.63 84.415C119.424 84.1233 119.321 83.7554 119.321 83.3113V75.7147Z" fill="#2D3748"/>
<line x1="36.0007" y1="101.681" x2="170.001" y2="101.861" stroke="#EDF2F7"/>
<path d="M38.4659 119.179V129.361H37.233V119.179H38.4659ZM41.9522 124.767V129.361H40.7789V121.725H41.9125V122.918H42.0119C42.1909 122.53 42.4627 122.219 42.8272 121.983C43.1918 121.745 43.6625 121.625 44.2392 121.625C44.7562 121.625 45.2086 121.731 45.5964 121.944C45.9842 122.152 46.2858 122.471 46.5012 122.898C46.7167 123.322 46.8244 123.859 46.8244 124.509V129.361H45.6511V124.588C45.6511 123.989 45.4953 123.521 45.1838 123.186C44.8722 122.848 44.4447 122.679 43.9011 122.679C43.5266 122.679 43.1918 122.761 42.8968 122.923C42.6052 123.085 42.3748 123.322 42.2058 123.634C42.0368 123.945 41.9522 124.323 41.9522 124.767ZM54.3775 123.435L53.3235 123.733C53.2572 123.558 53.1594 123.387 53.0302 123.221C52.9042 123.052 52.7319 122.913 52.5131 122.804C52.2944 122.694 52.0143 122.64 51.6729 122.64C51.2056 122.64 50.8162 122.747 50.5046 122.963C50.1964 123.175 50.0423 123.445 50.0423 123.773C50.0423 124.065 50.1483 124.295 50.3604 124.464C50.5726 124.633 50.904 124.774 51.3548 124.887L52.4883 125.165C53.171 125.331 53.6798 125.584 54.0146 125.926C54.3493 126.264 54.5167 126.7 54.5167 127.233C54.5167 127.671 54.3907 128.062 54.1388 128.407C53.8903 128.751 53.5423 129.023 53.0948 129.222C52.6474 129.421 52.127 129.52 51.5337 129.52C50.7549 129.52 50.1102 129.351 49.5998 129.013C49.0894 128.675 48.7662 128.181 48.6303 127.532L49.744 127.253C49.85 127.664 50.0505 127.972 50.3455 128.178C50.6438 128.383 51.0333 128.486 51.5138 128.486C52.0607 128.486 52.4949 128.37 52.8164 128.138C53.1412 127.903 53.3036 127.621 53.3036 127.293C53.3036 127.028 53.2108 126.806 53.0252 126.627C52.8396 126.445 52.5546 126.309 52.1701 126.219L50.8974 125.921C50.198 125.755 49.6843 125.498 49.3562 125.15C49.0314 124.799 48.869 124.36 48.869 123.833C48.869 123.402 48.9899 123.021 49.2319 122.689C49.4772 122.358 49.8103 122.098 50.2312 121.909C50.6554 121.72 51.136 121.625 51.6729 121.625C52.4286 121.625 53.0219 121.791 53.4528 122.123C53.887 122.454 54.1952 122.892 54.3775 123.435ZM61.0953 126.239V121.725H62.2686V129.361H61.0953V128.069H61.0158C60.8368 128.456 60.5584 128.786 60.1806 129.058C59.8027 129.326 59.3255 129.461 58.7488 129.461C58.2715 129.461 57.8472 129.356 57.476 129.147C57.1048 128.935 56.8132 128.617 56.601 128.193C56.3889 127.765 56.2828 127.227 56.2828 126.577V121.725H57.4561V126.498C57.4561 127.054 57.6119 127.499 57.9235 127.83C58.2383 128.161 58.6394 128.327 59.1266 128.327C59.4183 128.327 59.7149 128.253 60.0165 128.103C60.3214 127.954 60.5766 127.726 60.7821 127.417C60.9909 127.109 61.0953 126.716 61.0953 126.239ZM64.4176 129.361V121.725H65.5511V122.878H65.6307C65.7699 122.5 66.0218 122.194 66.3864 121.959C66.7509 121.723 67.1619 121.606 67.6193 121.606C67.7055 121.606 67.8132 121.607 67.9425 121.61C68.0717 121.614 68.1695 121.619 68.2358 121.625V122.819C68.196 122.809 68.1049 122.794 67.9624 122.774C67.8232 122.751 67.6757 122.739 67.5199 122.739C67.1487 122.739 66.8172 122.817 66.5256 122.973C66.2372 123.125 66.0085 123.337 65.8395 123.609C65.6738 123.878 65.5909 124.184 65.5909 124.529V129.361H64.4176ZM71.8738 129.54C71.3899 129.54 70.9507 129.449 70.5563 129.267C70.1619 129.081 69.8487 128.814 69.6167 128.466C69.3846 128.115 69.2686 127.691 69.2686 127.194C69.2686 126.756 69.3548 126.401 69.5272 126.13C69.6995 125.855 69.9299 125.639 70.2182 125.483C70.5066 125.328 70.8248 125.212 71.1728 125.135C71.5241 125.056 71.8771 124.993 72.2317 124.946C72.6957 124.887 73.0719 124.842 73.3603 124.812C73.6519 124.779 73.8641 124.724 73.9966 124.648C74.1325 124.572 74.2005 124.439 74.2005 124.25V124.211C74.2005 123.72 74.0662 123.339 73.7978 123.067C73.5326 122.795 73.1299 122.66 72.5897 122.66C72.0295 122.66 71.5904 122.782 71.2722 123.027C70.954 123.273 70.7303 123.535 70.601 123.813L69.4874 123.415C69.6863 122.951 69.9514 122.59 70.2828 122.331C70.6176 122.07 70.9822 121.887 71.3766 121.785C71.7743 121.678 72.1654 121.625 72.5499 121.625C72.7952 121.625 73.0769 121.655 73.3951 121.715C73.7166 121.771 74.0265 121.889 74.3248 122.068C74.6264 122.247 74.8766 122.517 75.0755 122.878C75.2743 123.24 75.3738 123.723 75.3738 124.33V129.361H74.2005V128.327H74.1408C74.0613 128.493 73.9287 128.67 73.7431 128.859C73.5575 129.048 73.3105 129.209 73.0023 129.341C72.6941 129.474 72.3179 129.54 71.8738 129.54ZM72.0527 128.486C72.5167 128.486 72.9078 128.395 73.226 128.213C73.5475 128.03 73.7895 127.795 73.9519 127.507C74.1176 127.218 74.2005 126.915 74.2005 126.597V125.523C74.1507 125.583 74.0414 125.637 73.8723 125.687C73.7066 125.734 73.5144 125.775 73.2956 125.811C73.0802 125.845 72.8697 125.874 72.6642 125.901C72.4621 125.924 72.298 125.944 72.1721 125.961C71.8671 126 71.5821 126.065 71.3169 126.155C71.0551 126.241 70.843 126.372 70.6806 126.547C70.5215 126.72 70.4419 126.955 70.4419 127.253C70.4419 127.661 70.5927 127.969 70.8944 128.178C71.1993 128.383 71.5854 128.486 72.0527 128.486ZM78.6886 124.767V129.361H77.5153V121.725H78.6488V122.918H78.7482C78.9272 122.53 79.199 122.219 79.5636 121.983C79.9281 121.745 80.3988 121.625 80.9755 121.625C81.4925 121.625 81.945 121.731 82.3327 121.944C82.7205 122.152 83.0221 122.471 83.2376 122.898C83.453 123.322 83.5607 123.859 83.5607 124.509V129.361H82.3874V124.588C82.3874 123.989 82.2317 123.521 81.9201 123.186C81.6085 122.848 81.181 122.679 80.6374 122.679C80.2629 122.679 79.9281 122.761 79.6332 122.923C79.3415 123.085 79.1112 123.322 78.9421 123.634C78.7731 123.945 78.6886 124.323 78.6886 124.767ZM88.807 129.52C88.0911 129.52 87.4746 129.351 86.9576 129.013C86.4405 128.675 86.0428 128.209 85.7644 127.616C85.486 127.023 85.3468 126.345 85.3468 125.583C85.3468 124.807 85.4893 124.123 85.7743 123.53C86.0627 122.933 86.4637 122.467 86.9775 122.133C87.4945 121.794 88.0977 121.625 88.7871 121.625C89.324 121.625 89.8079 121.725 90.2388 121.924C90.6697 122.123 91.0227 122.401 91.2978 122.759C91.5729 123.117 91.7435 123.535 91.8098 124.012H90.6365C90.5471 123.664 90.3482 123.356 90.04 123.087C89.735 122.815 89.324 122.679 88.807 122.679C88.3496 122.679 87.9486 122.799 87.6039 123.037C87.2625 123.273 86.9957 123.606 86.8034 124.037C86.6145 124.464 86.5201 124.966 86.5201 125.543C86.5201 126.133 86.6129 126.647 86.7985 127.084C86.9874 127.522 87.2525 127.861 87.5939 128.103C87.9386 128.345 88.343 128.466 88.807 128.466C89.1119 128.466 89.3887 128.413 89.6373 128.307C89.8858 128.201 90.0963 128.049 90.2686 127.85C90.441 127.651 90.5636 127.412 90.6365 127.134H91.8098C91.7435 127.585 91.5795 127.991 91.3176 128.352C91.0591 128.71 90.7161 128.995 90.2885 129.207C89.8643 129.416 89.3704 129.52 88.807 129.52ZM96.7267 129.52C95.9909 129.52 95.3562 129.358 94.8226 129.033C94.2923 128.705 93.883 128.248 93.5946 127.661C93.3096 127.071 93.1671 126.385 93.1671 125.603C93.1671 124.82 93.3096 124.131 93.5946 123.535C93.883 122.935 94.284 122.467 94.7978 122.133C95.3148 121.794 95.918 121.625 96.6074 121.625C97.0051 121.625 97.3979 121.692 97.7857 121.824C98.1735 121.957 98.5265 122.172 98.8446 122.471C99.1628 122.766 99.4164 123.157 99.6053 123.644C99.7942 124.131 99.8887 124.731 99.8887 125.444V125.941H94.0023V124.927H98.6955C98.6955 124.496 98.6093 124.111 98.437 123.773C98.2679 123.435 98.026 123.168 97.7111 122.973C97.3996 122.777 97.0317 122.679 96.6074 122.679C96.1401 122.679 95.7357 122.795 95.3944 123.027C95.0563 123.256 94.7961 123.554 94.6138 123.922C94.4315 124.29 94.3404 124.685 94.3404 125.106V125.782C94.3404 126.358 94.4398 126.847 94.6387 127.248C94.8408 127.646 95.1209 127.949 95.4789 128.158C95.8368 128.364 96.2528 128.466 96.7267 128.466C97.035 128.466 97.3134 128.423 97.562 128.337C97.8139 128.248 98.031 128.115 98.2132 127.939C98.3955 127.76 98.5364 127.538 98.6358 127.273L99.7694 127.591C99.65 127.976 99.4495 128.314 99.1678 128.606C98.8861 128.894 98.5381 129.119 98.1238 129.282C97.7095 129.441 97.2438 129.52 96.7267 129.52Z" fill="#2D3748"/>
<line x1="36.0007" y1="145.861" x2="170.001" y2="146.042" stroke="#EDF2F7"/>
<path d="M40.0568 171.752V165.19H41.1705V171.752H40.0568ZM37.3324 169.028V167.914H43.8949V169.028H37.3324ZM50.8166 173.542H49.524L53.2626 163.36H54.5353L58.274 173.542H56.9814L53.9387 164.971H53.8592L50.8166 173.542ZM51.2939 169.565H56.5041V170.658H51.2939V169.565ZM62.5843 173.701C61.948 173.701 61.3862 173.54 60.899 173.219C60.4118 172.894 60.0306 172.436 59.7555 171.846C59.4804 171.253 59.3429 170.552 59.3429 169.744C59.3429 168.941 59.4804 168.245 59.7555 167.655C60.0306 167.065 60.4134 166.61 60.9039 166.288C61.3945 165.967 61.9612 165.806 62.6042 165.806C63.1014 165.806 63.4941 165.889 63.7825 166.055C64.0742 166.217 64.2962 166.403 64.4487 166.611C64.6045 166.817 64.7254 166.986 64.8116 167.119H64.911V163.36H66.0843V173.542H64.9508V172.369H64.8116C64.7254 172.508 64.6028 172.683 64.4437 172.896C64.2846 173.104 64.0576 173.292 63.7626 173.457C63.4676 173.62 63.0749 173.701 62.5843 173.701ZM62.7434 172.647C63.2141 172.647 63.6118 172.524 63.9366 172.279C64.2614 172.03 64.5083 171.687 64.6774 171.25C64.8464 170.809 64.9309 170.3 64.9309 169.724C64.9309 169.154 64.8481 168.655 64.6824 168.227C64.5166 167.796 64.2714 167.462 63.9466 167.223C63.6217 166.981 63.2207 166.86 62.7434 166.86C62.2463 166.86 61.832 166.988 61.5005 167.243C61.1724 167.495 60.9255 167.838 60.7598 168.272C60.5974 168.703 60.5162 169.187 60.5162 169.724C60.5162 170.267 60.599 170.761 60.7647 171.205C60.9338 171.646 61.1824 171.997 61.5105 172.259C61.8419 172.518 62.2529 172.647 62.7434 172.647ZM71.2797 173.701C70.6433 173.701 70.0815 173.54 69.5943 173.219C69.1071 172.894 68.7259 172.436 68.4508 171.846C68.1757 171.253 68.0382 170.552 68.0382 169.744C68.0382 168.941 68.1757 168.245 68.4508 167.655C68.7259 167.065 69.1087 166.61 69.5993 166.288C70.0898 165.967 70.6565 165.806 71.2995 165.806C71.7967 165.806 72.1895 165.889 72.4778 166.055C72.7695 166.217 72.9915 166.403 73.144 166.611C73.2998 166.817 73.4208 166.986 73.5069 167.119H73.6064V163.36H74.7797V173.542H73.6461V172.369H73.5069C73.4208 172.508 73.2981 172.683 73.139 172.896C72.9799 173.104 72.7529 173.292 72.4579 173.457C72.1629 173.62 71.7702 173.701 71.2797 173.701ZM71.4387 172.647C71.9094 172.647 72.3071 172.524 72.6319 172.279C72.9567 172.03 73.2037 171.687 73.3727 171.25C73.5417 170.809 73.6262 170.3 73.6262 169.724C73.6262 169.154 73.5434 168.655 73.3777 168.227C73.2119 167.796 72.9667 167.462 72.6419 167.223C72.3171 166.981 71.916 166.86 71.4387 166.86C70.9416 166.86 70.5273 166.988 70.1958 167.243C69.8677 167.495 69.6208 167.838 69.4551 168.272C69.2927 168.703 69.2115 169.187 69.2115 169.724C69.2115 170.267 69.2943 170.761 69.46 171.205C69.6291 171.646 69.8777 171.997 70.2058 172.259C70.5372 172.518 70.9482 172.647 71.4387 172.647ZM89.2619 163.36V173.542H88.0687L82.5204 165.547H82.421V173.542H81.188V163.36H82.3812L87.9494 171.374H88.0488V163.36H89.2619ZM94.7717 173.701C94.0359 173.701 93.4012 173.538 92.8675 173.214C92.3372 172.886 91.9279 172.428 91.6396 171.842C91.3545 171.252 91.212 170.565 91.212 169.783C91.212 169.001 91.3545 168.312 91.6396 167.715C91.9279 167.115 92.329 166.648 92.8427 166.313C93.3597 165.975 93.9629 165.806 94.6523 165.806C95.0501 165.806 95.4428 165.872 95.8306 166.005C96.2184 166.137 96.5714 166.353 96.8896 166.651C97.2077 166.946 97.4613 167.337 97.6502 167.824C97.8391 168.312 97.9336 168.912 97.9336 169.624V170.121H92.0472V169.107H96.7404C96.7404 168.676 96.6542 168.292 96.4819 167.954C96.3129 167.616 96.0709 167.349 95.756 167.153C95.4445 166.958 95.0766 166.86 94.6523 166.86C94.185 166.86 93.7807 166.976 93.4393 167.208C93.1012 167.437 92.841 167.735 92.6587 168.103C92.4764 168.471 92.3853 168.865 92.3853 169.286V169.962C92.3853 170.539 92.4847 171.028 92.6836 171.429C92.8858 171.827 93.1658 172.13 93.5238 172.339C93.8817 172.544 94.2977 172.647 94.7717 172.647C95.0799 172.647 95.3583 172.604 95.6069 172.518C95.8588 172.428 96.0759 172.296 96.2582 172.12C96.4405 171.941 96.5813 171.719 96.6808 171.454L97.8143 171.772C97.695 172.156 97.4944 172.494 97.2127 172.786C96.931 173.074 96.583 173.3 96.1687 173.462C95.7544 173.621 95.2887 173.701 94.7717 173.701ZM101.449 173.542L99.1218 165.905H100.355L102.005 171.752H102.085L103.716 165.905H104.968L106.579 171.732H106.659L108.309 165.905H109.542L107.216 173.542H106.062L104.392 167.675H104.272L102.602 173.542H101.449Z" fill="#718096"/>
<rect x="12.5" y="2.5" width="181" height="199.542" rx="5.5" stroke="#E2E8F0"/>
</g>
<defs>
<filter id="filter0_dd_1002_9478" x="0" y="0" width="206" height="224.542" filterUnits="userSpaceOnUse" color-interpolation-filters="sRGB">
<feFlood flood-opacity="0" result="BackgroundImageFix"/>
<feColorMatrix in="SourceAlpha" type="matrix" values="0 0 0 0 0 0 0 0 0 0 0 0 0 0 0 0 0 0 127 0" result="hardAlpha"/>
<feMorphology radius="2" operator="erode" in="SourceAlpha" result="effect1_dropShadow_1002_9478"/>
<feOffset dy="4"/>
<feGaussianBlur stdDeviation="3"/>
<feColorMatrix type="matrix" values="0 0 0 0 0 0 0 0 0 0 0 0 0 0 0 0 0 0 0.05 0"/>
<feBlend mode="normal" in2="BackgroundImageFix" result="effect1_dropShadow_1002_9478"/>
<feColorMatrix in="SourceAlpha" type="matrix" values="0 0 0 0 0 0 0 0 0 0 0 0 0 0 0 0 0 0 127 0" result="hardAlpha"/>
<feMorphology radius="3" operator="erode" in="SourceAlpha" result="effect2_dropShadow_1002_9478"/>
<feOffset dy="10"/>
<feGaussianBlur stdDeviation="7.5"/>
<feColorMatrix type="matrix" values="0 0 0 0 0 0 0 0 0 0 0 0 0 0 0 0 0 0 0.1 0"/>
<feBlend mode="normal" in2="effect1_dropShadow_1002_9478" result="effect2_dropShadow_1002_9478"/>
<feBlend mode="normal" in="SourceGraphic" in2="effect2_dropShadow_1002_9478" result="shape"/>
</filter>
</defs>
</svg>
